<svg width="800" height="800" viewBox="0 0 800 800" fill="none" xmlns="http://www.w3.org/2000/svg">
<g opacity="0.08">
<path d="M372.558 469.409C472.315 469.409 553.184 550.279 553.184 650.036C553.183 693.252 518.15 728.286 474.934 728.286H133.681C90.4643 728.286 55.4299 693.252 55.4297 650.036C55.4297 550.279 136.299 469.409 236.057 469.409H372.558ZM236.057 489.409C147.345 489.409 75.4297 561.325 75.4297 650.036C75.4299 682.207 101.51 708.286 133.681 708.286H474.934C507.104 708.286 533.183 682.207 533.184 650.036C533.184 561.325 461.269 489.409 372.558 489.409H236.057ZM586.422 458.77C674.726 464.261 744.639 537.606 744.639 627.288C744.639 667.903 711.714 700.827 671.1 700.827H654.075C648.553 700.827 644.075 696.35 644.075 690.827C644.075 685.305 648.553 680.827 654.075 680.827H671.1C700.669 680.827 724.639 656.857 724.639 627.288C724.639 548.236 663.007 483.57 585.18 478.73C579.668 478.387 575.478 473.641 575.82 468.129C576.163 462.617 580.91 458.427 586.422 458.77ZM311.263 67.418C412.814 68.0612 494.939 150.6 494.939 252.325L494.936 253.521C494.292 355.095 411.77 437.236 310.067 437.236L308.871 437.233C207.32 436.59 125.195 354.05 125.195 252.325C125.195 150.202 207.966 67.4142 310.067 67.4141L311.263 67.418ZM310.067 87.4141C219.015 87.4142 145.195 161.243 145.195 252.325C145.195 343.407 219.015 417.236 310.067 417.236C401.119 417.236 474.939 343.407 474.939 252.325C474.939 161.243 401.119 87.4142 310.067 87.4141ZM534.623 100.948C537.251 96.0907 543.318 94.2828 548.176 96.9102C551.174 98.532 554.115 100.255 556.992 102.076C591.312 123.797 616.669 159.456 624.049 202.671C635.103 267.404 602.507 329.477 547.632 358.794C542.761 361.396 536.702 359.556 534.1 354.686C531.497 349.814 533.336 343.755 538.207 341.152C585.714 315.772 613.897 262.034 604.335 206.038C597.948 168.639 576.03 137.795 546.297 118.977C543.805 117.399 541.258 115.906 538.661 114.501C533.803 111.873 531.996 105.806 534.623 100.948Z" fill="#1F8E87"/>
</g>
</svg>
