<svg width="800" height="800" viewBox="0 0 800 800" fill="none" xmlns="http://www.w3.org/2000/svg">
<path d="M166.007 588.153C183.825 567.579 214.948 565.345 235.522 583.163C256.096 600.981 258.33 632.104 240.513 652.678L161.533 743.875L161.113 744.354C143.23 764.483 112.431 766.544 92.0175 748.865C71.6042 731.186 69.2452 700.41 86.6132 679.834L87.0273 679.35L166.007 588.153ZM222.429 598.281C210.204 587.695 191.713 589.022 181.126 601.246L102.145 692.443C91.5589 704.668 92.886 723.16 105.11 733.747C117.335 744.334 135.827 743.006 146.414 730.781L225.394 639.585C235.981 627.36 234.653 608.868 222.429 598.281ZM602.012 44.1006C616.313 44.1007 627.907 55.6944 627.907 69.9961V124.374H695.005C709.306 124.374 720.9 135.968 720.9 150.27V608.864C720.9 658.282 680.839 698.343 631.421 698.343H296.814C291.292 698.343 286.814 693.866 286.814 688.343C286.815 682.82 291.292 678.343 296.814 678.343H631.421C669.793 678.343 700.9 647.236 700.9 608.864V150.27C700.9 147.014 698.261 144.374 695.005 144.374H627.907V608.864C627.907 614.387 623.43 618.864 617.907 618.864C612.384 618.864 607.907 614.387 607.907 608.864V69.9961C607.907 66.7402 605.268 64.1007 602.012 64.1006H108.446C105.19 64.1007 102.551 66.7402 102.551 69.9961V589.052C102.551 594.574 98.0734 599.052 92.5507 599.052C87.028 599.052 82.551 594.574 82.5507 589.052V69.9961C82.5509 55.6945 94.1446 44.1007 108.446 44.1006H602.012ZM340.891 281.688C372.483 276.624 403.443 280.921 430.909 292.54C435.996 294.692 438.375 300.559 436.224 305.646C434.072 310.732 428.204 313.112 423.117 310.96C399.006 300.76 371.836 296.983 344.056 301.436C265.236 314.069 211.581 388.206 224.214 467.025C236.847 545.845 310.986 599.501 389.806 586.867C468.625 574.234 522.28 500.095 509.646 421.275C505.929 398.081 496.896 377.091 483.998 359.323C480.248 354.157 476.17 349.261 471.799 344.663C467.994 340.66 468.155 334.329 472.158 330.524C476.161 326.72 482.49 326.881 486.295 330.884C491.269 336.117 495.912 341.691 500.184 347.575C514.884 367.826 525.167 391.744 529.394 418.11C543.775 507.836 482.697 592.233 392.971 606.615C303.245 620.997 218.848 559.917 204.466 470.191C190.084 380.465 251.164 296.069 340.891 281.688ZM465.185 424.387C470.662 423.677 475.677 427.541 476.387 433.019C483.979 491.618 442.63 545.277 384.03 552.869C378.553 553.579 373.538 549.713 372.828 544.236C372.119 538.76 375.984 533.745 381.461 533.035C429.106 526.862 462.726 483.233 456.553 435.588C455.843 430.111 459.708 425.096 465.185 424.387ZM373.807 205.775C379.329 205.775 383.807 210.253 383.807 215.775C383.807 221.298 379.329 225.775 373.807 225.775H157.754C152.231 225.775 147.754 221.298 147.754 215.775C147.754 210.253 152.231 205.775 157.754 205.775H373.807ZM515.279 133.448C520.802 133.448 525.279 137.925 525.279 143.448C525.279 148.971 520.802 153.448 515.279 153.448H157.754C152.231 153.448 147.754 148.971 147.754 143.448C147.754 137.925 152.231 133.448 157.754 133.448H515.279Z" fill="#1F8E87"/>
</svg>
