<svg width="80" height="80" overflow="visible" style="display: block;" viewBox="0 0 61.1777 68.7767" fill="none" xmlns="http://www.w3.org/2000/svg">
<path id="Union" d="M8.54585 51.4375C10.5137 49.1657 13.9506 48.9192 16.2226 50.8867C18.4946 52.8545 18.741 56.2913 16.7734 58.5635L9.55659 66.8975C7.58885 69.1695 4.152 69.4158 1.87983 67.4482C-0.392176 65.4805 -0.639523 62.0436 1.32807 59.7715L8.54585 51.4375ZM12.9492 54.666C12.7645 54.5063 12.4851 54.5264 12.3251 54.7109L5.10835 63.0449C4.9484 63.2296 4.96773 63.5089 5.15229 63.6689C5.33695 63.8289 5.61627 63.8085 5.77632 63.624L12.9941 55.29C13.1538 55.1053 13.1338 54.8259 12.9492 54.666ZM48.3671 0C50.6108 0 52.4304 1.81891 52.4306 4.0625V7.29102H57.1142C59.3578 7.29102 61.1775 9.10993 61.1777 11.3535V52.2939C61.1776 57.9898 56.56 62.6072 50.8642 62.6074H21.0664C19.6859 62.6072 18.5664 61.488 18.5664 60.1074C18.5665 58.727 19.6859 57.6077 21.0664 57.6074H50.8642C53.7986 57.6072 56.1776 55.2284 56.1777 52.2939V12.291H52.4306V49.0557C52.4304 50.4361 51.311 51.5555 49.9306 51.5557C48.5501 51.5555 47.4308 50.4361 47.4306 49.0557V5H5.31147V49.0557C5.31124 50.4362 4.19204 51.5557 2.81147 51.5557C1.43101 51.5555 0.311707 50.4361 0.311472 49.0557V4.0625C0.311691 1.81906 2.13053 0.000243162 4.37397 0H48.3671ZM24.8203 21.5996C27.993 21.0911 31.1075 21.5232 33.8691 22.6914C35.1404 23.2294 35.735 24.6963 35.1972 25.9678C34.6593 27.2393 33.1924 27.8337 31.9208 27.2959C29.998 26.4825 27.832 26.1814 25.6123 26.5371C19.3212 27.5455 15.0377 33.4629 16.0458 39.7539C17.0543 46.0448 22.9726 50.3276 29.2636 49.3193C35.5546 48.3108 39.8364 42.3926 38.8281 36.1016C38.61 34.7385 39.5383 33.4558 40.9013 33.2373C42.2645 33.0188 43.5469 33.9474 43.7656 35.3105C45.211 44.3282 39.0722 52.8113 30.0546 54.2568C21.0371 55.7019 12.5547 49.5625 11.1093 40.5449C9.66416 31.5274 15.8029 23.0452 24.8203 21.5996ZM32.371 34.71C33.7403 34.5326 34.9944 35.4989 35.1718 36.8682C35.7043 40.9791 32.8033 44.7437 28.6923 45.2764C27.3231 45.4538 26.069 44.4874 25.8916 43.1182C25.7253 41.8346 26.5642 40.6523 27.7978 40.3633L28.3017 40.2725C29.4562 40.0023 30.2663 38.9509 30.2333 37.7656L30.1923 37.2549C30.1575 35.9884 31.0875 34.8763 32.371 34.71ZM16.8945 15.5303C18.2751 15.5303 19.3943 16.6497 19.3945 18.0303C19.3945 19.411 18.2752 20.5303 16.8945 20.5303H11.7382C10.3576 20.5302 9.23823 19.4109 9.23823 18.0303C9.23843 16.6498 10.3577 15.5304 11.7382 15.5303H16.8945ZM34.5957 9.2959C35.9763 9.2959 37.0955 10.4153 37.0957 11.7959C37.0957 13.1766 35.9764 14.2959 34.5957 14.2959H11.8789C10.4983 14.2957 9.37885 13.1765 9.37885 11.7959C9.37898 10.4154 10.4983 9.29605 11.8789 9.2959H34.5957Z" fill="#1F8E87"/>
</svg>
