<svg width="24" height="24" viewBox="0 0 24 24" fill="none" xmlns="http://www.w3.org/2000/svg">
<path d="M9.11816 8.26025C9.73583 8.11237 10.357 8.49317 10.5049 9.11084C10.6525 9.72824 10.2716 10.3485 9.6543 10.4966C9.54335 10.5231 9.43331 10.5531 9.3252 10.5864C9.21904 10.6191 9.11398 10.6549 9.01074 10.6938C6.9782 11.4609 5.54119 13.4149 5.54102 15.6958C5.54107 18.6442 7.94317 21.0443 10.918 21.0444C12.4724 21.0444 13.8709 20.3898 14.8535 19.3413C14.8986 19.2932 14.943 19.2436 14.9863 19.1938C15.4033 18.715 16.1294 18.6648 16.6084 19.0815C17.0874 19.4985 17.1376 20.2246 16.7207 20.7036C16.659 20.7745 16.5965 20.845 16.5322 20.9136C15.1317 22.4082 13.1329 23.3442 10.918 23.3442C6.68288 23.3441 3.24029 19.9244 3.24023 15.6958C3.24041 12.4218 5.30497 9.63453 8.19824 8.54248C8.34596 8.48673 8.49653 8.43496 8.64844 8.38818C8.80296 8.34061 8.95968 8.29821 9.11816 8.26025ZM12.9951 7.75732C13.5508 7.75754 14.015 8.15223 14.1221 8.67627H17.1777C17.8125 8.67663 18.3271 9.19184 18.3271 9.82666C18.3269 10.4614 17.8124 10.9757 17.1777 10.9761H14.1455V14.0532H16.5693C16.7203 14.0532 16.9263 14.0518 17.1084 14.0718C17.2926 14.0921 17.5312 14.1408 17.7744 14.2788L17.8789 14.3442L18.043 14.4731C18.3892 14.7862 18.5351 15.2013 18.5996 15.3638L20.5918 18.6274C20.9225 19.1694 20.7508 19.8775 20.209 20.2085C19.6669 20.5392 18.9598 20.3676 18.6289 19.8257L16.6299 16.5503C16.6176 16.5301 16.5775 16.4657 16.542 16.395C16.5352 16.3815 16.5305 16.3672 16.5244 16.354H14.0703C13.8495 16.354 13.5678 16.356 13.3271 16.3237C13.0532 16.2869 12.6678 16.1867 12.3398 15.8589C12.0119 15.5309 11.9118 15.1455 11.875 14.8716C11.8426 14.6308 11.8447 14.3493 11.8447 14.1284V8.90771C11.8448 8.27267 12.3601 7.75732 12.9951 7.75732ZM13.0928 1.21143C14.6943 1.21153 15.9932 2.51025 15.9932 4.11182C15.993 5.71328 14.6942 7.0121 13.0928 7.01221C11.4912 7.01221 10.1925 5.71334 10.1924 4.11182C10.1924 2.51019 11.4911 1.21143 13.0928 1.21143ZM13.0928 3.51221C12.7614 3.51221 12.4932 3.78045 12.4932 4.11182C12.4933 4.44308 12.7615 4.71143 13.0928 4.71143C13.424 4.71132 13.6923 4.44302 13.6924 4.11182C13.6924 3.78051 13.4241 3.51231 13.0928 3.51221Z" fill="currentColor"/>
</svg>
