<svg width="24" height="24" viewBox="0 0 24 24" fill="none" xmlns="http://www.w3.org/2000/svg">
<g clip-path="url(#clip0_2103_12150)">
<path d="M18.1841 12.6104C18.4853 12.0517 19.1828 11.8418 19.7417 12.1426C21.6314 13.1605 23.1682 14.7475 23.1685 16.792C23.1682 18.8796 21.5679 20.4882 19.6157 21.5068C17.6077 22.5544 14.9134 23.1679 12.0005 23.168C9.08728 23.168 6.39243 22.5545 4.38428 21.5068C2.43192 20.4882 0.831791 18.8797 0.831543 16.792C0.831742 14.8875 2.17113 13.3776 3.86279 12.3672C4.40797 12.0419 5.11434 12.2196 5.43994 12.7646C5.7655 13.3098 5.58743 14.016 5.04248 14.3418C3.65747 15.169 3.13253 16.0649 3.13232 16.792C3.13259 17.5906 3.77503 18.5949 5.44775 19.4678C7.06547 20.3118 9.38088 20.8682 12.0005 20.8682C14.6199 20.8681 16.9347 20.3117 18.5522 19.4678C20.2248 18.595 20.8684 17.5906 20.8687 16.792C20.8684 16.0105 20.2545 15.0314 18.6519 14.168C18.0928 13.8669 17.8832 13.1694 18.1841 12.6104ZM15.9448 14.29C16.4833 13.9538 17.1922 14.118 17.5288 14.6562C17.7913 15.0761 17.9565 15.5651 17.9565 16.0996C17.9564 17.4404 16.9685 18.3959 15.9458 18.9492C14.8774 19.5272 13.4798 19.8496 11.9995 19.8496C10.5193 19.8495 9.12156 19.5272 8.05322 18.9492C7.03069 18.3958 6.04264 17.4402 6.04248 16.0996C6.04248 15.6551 6.15698 15.2384 6.34912 14.8672C6.64112 14.3036 7.33511 14.0835 7.89893 14.375C8.46282 14.6669 8.68381 15.3609 8.39209 15.9248C8.35283 16.0007 8.34326 16.057 8.34326 16.0996C8.34346 16.1952 8.43218 16.5394 9.14795 16.9268C9.81911 17.2898 10.8254 17.5497 11.9995 17.5498C13.1735 17.5498 14.1798 17.2898 14.8511 16.9268C15.5671 16.5394 15.6565 16.1952 15.6567 16.0996C15.6567 16.051 15.6434 15.9786 15.5786 15.875C15.2424 15.3366 15.4067 14.6267 15.9448 14.29ZM11.9995 0.496094C12.6346 0.496094 13.1498 1.01048 13.1499 1.64551V11.1777C13.2389 11.0788 13.3294 10.9785 13.4185 10.876C13.8313 10.4005 14.216 9.92162 14.4985 9.55957C14.6393 9.37926 14.7538 9.22928 14.8325 9.125C14.8718 9.07299 14.9021 9.03207 14.9224 9.00488C14.9323 8.99156 14.9399 8.98124 14.9448 8.97461C14.9473 8.97132 14.9496 8.96827 14.9507 8.9668L14.9517 8.96582C15.3283 8.45448 16.0487 8.34506 16.5601 8.72168C17.0389 9.07493 17.165 9.72984 16.8687 10.2314L16.8032 10.3291V10.3301L16.8022 10.3311C16.8018 10.3317 16.801 10.333 16.8003 10.334C16.7986 10.3363 16.7964 10.3398 16.7935 10.3438C16.7873 10.352 16.7783 10.3638 16.7671 10.3789C16.7441 10.4098 16.71 10.4545 16.6675 10.5107C16.5825 10.6233 16.4603 10.7833 16.311 10.9746C16.0134 11.356 15.6025 11.8691 15.1548 12.3848C14.712 12.8947 14.2105 13.4343 13.7339 13.8555C13.4969 14.0648 13.2387 14.2694 12.9761 14.4277C12.8405 14.5094 12.6521 14.6088 12.4292 14.6787C12.2963 14.7323 12.1515 14.7637 11.9995 14.7637C11.9841 14.7637 11.9689 14.7613 11.9536 14.7607L11.9116 14.7637C11.4609 14.7637 11.0783 14.5671 10.8472 14.4277C10.5846 14.2694 10.3263 14.0648 10.0894 13.8555C9.6128 13.4344 9.1112 12.8947 8.66846 12.3848C8.22078 11.8691 7.80985 11.356 7.51221 10.9746C7.36302 10.7834 7.24077 10.6233 7.15576 10.5107C7.11339 10.4546 7.08013 10.4098 7.05713 10.3789C7.04574 10.3636 7.036 10.3511 7.02979 10.3428C7.02696 10.339 7.02458 10.3353 7.02295 10.333L7.02002 10.3301V10.3291C6.64344 9.8177 6.75278 9.0983 7.26416 8.72168C7.77555 8.34525 8.495 8.45449 8.87158 8.96582L8.87256 8.9668C8.87372 8.96836 8.8761 8.97148 8.87842 8.97461C8.88334 8.98125 8.89102 8.99165 8.90088 9.00488C8.92115 9.03208 8.95151 9.07308 8.99072 9.125C9.06948 9.22927 9.18408 9.37936 9.32471 9.55957C9.60724 9.9216 9.99206 10.4006 10.4048 10.876C10.5526 11.0462 10.7025 11.2117 10.8491 11.3701V1.64551C10.8492 1.01059 11.3646 0.49626 11.9995 0.496094Z" fill="currentColor"/>
</g>
<defs>
<clipPath id="clip0_2103_12150">
<rect width="24" height="24" fill="white"/>
</clipPath>
</defs>
</svg>
