<svg width="24" height="24" viewBox="0 0 24 24" fill="none" xmlns="http://www.w3.org/2000/svg">
<path d="M11.9996 1.00342C14.0174 1.00366 15.5738 2.59956 15.7955 4.53271C16.0909 4.53791 16.361 4.54868 16.6021 4.57178C17.0807 4.61768 17.5803 4.72171 18.0386 5.02002C18.5421 5.34779 18.9377 5.81734 19.1754 6.36865C19.3911 6.86943 19.4101 7.37925 19.3765 7.85986C19.3438 8.3278 19.249 8.89567 19.1412 9.54639L19.0953 9.82178C19.0155 10.3032 18.9572 10.6837 18.8297 11.0425C18.8122 11.0916 18.7923 11.1397 18.773 11.188L19.1969 15.2563C19.1977 15.2643 19.1991 15.2728 19.1998 15.2808C19.3219 16.7617 19.4245 17.9862 19.3775 18.9565C19.3292 19.9538 19.118 20.8744 18.4566 21.6353C17.7862 22.4064 16.9079 22.7222 15.94 22.8638C15.0125 22.9993 13.8326 22.9956 12.4283 22.9956H11.5709C10.1664 22.9956 8.98577 22.9994 8.05818 22.8638C7.09051 22.7222 6.21285 22.4063 5.54255 21.6353C4.88123 20.8744 4.66899 19.9537 4.62068 18.9565C4.57372 17.9862 4.67728 16.7617 4.79939 15.2808L4.80134 15.2563L5.22419 11.1851C5.20538 11.1379 5.18655 11.0904 5.16951 11.0425C5.04205 10.6837 4.98361 10.3031 4.90388 9.82178L4.85798 9.54639C4.7502 8.8957 4.65532 8.32778 4.62263 7.85986C4.5891 7.37924 4.60806 6.86943 4.8238 6.36865C5.06143 5.8173 5.45709 5.34783 5.96052 5.02002C6.4188 4.72168 6.91851 4.61769 7.39705 4.57178C7.63777 4.54871 7.90773 4.53792 8.20271 4.53271C8.42444 2.59951 9.98176 1.00366 11.9996 1.00342ZM21.8853 9.87744C22.3602 9.87755 22.7005 10.1192 22.8931 10.3198C23.0768 10.5112 23.1923 10.7282 23.2652 10.8911C23.4131 11.2222 23.5097 11.6176 23.5777 11.9771C23.7177 12.7174 23.7916 13.6099 23.8277 14.2944C23.8536 14.7861 23.8175 15.3749 23.7808 15.8052C23.7619 16.0277 23.7418 16.223 23.7261 16.3628C23.7183 16.4328 23.7114 16.4901 23.7066 16.5298C23.7043 16.5492 23.7021 16.5648 23.7008 16.5757C23.7001 16.5811 23.6992 16.5863 23.6988 16.5894V16.5942H23.6978L23.6949 16.6245L23.689 16.6538V16.6548C23.6888 16.6555 23.6882 16.6567 23.6881 16.6577C23.6877 16.6598 23.6877 16.663 23.6871 16.6665C23.6857 16.6741 23.6828 16.6851 23.6803 16.6987C23.675 16.7265 23.6675 16.7668 23.6578 16.8169C23.6382 16.9175 23.6098 17.0605 23.5738 17.231C23.5021 17.5705 23.3988 18.0304 23.274 18.4946C23.1522 18.9477 22.9977 19.4532 22.817 19.8628C22.7293 20.0614 22.6091 20.2991 22.4469 20.5054C22.3259 20.6591 21.951 21.0941 21.316 21.0942C20.6811 21.0942 20.1669 20.5796 20.1666 19.9448C20.1666 19.5407 20.3747 19.1851 20.69 18.98C20.6965 18.9661 20.7049 18.9511 20.7125 18.9341C20.821 18.6881 20.9392 18.318 21.0523 17.897C21.1624 17.4873 21.2571 17.0724 21.3238 16.7563C21.357 16.5993 21.3823 16.4681 21.4 16.3774C21.4087 16.3324 21.4161 16.2973 21.4205 16.2739V16.272C21.4212 16.2663 21.4225 16.2597 21.4234 16.2524C21.4274 16.2193 21.4331 16.169 21.44 16.1069C21.4539 15.9823 21.472 15.8077 21.4888 15.6099C21.5238 15.1987 21.548 14.7411 21.5308 14.4155C21.4966 13.7665 21.4294 12.9943 21.3179 12.4048C21.302 12.3204 21.2856 12.2448 21.2701 12.1782H21.2095C20.5745 12.1782 20.0593 11.6628 20.0592 11.0278C20.0592 10.3927 20.5744 9.87744 21.2095 9.87744H21.8853ZM7.08943 15.4946C6.96317 17.0262 6.8808 18.0653 6.91853 18.8452C6.95521 19.6021 7.10036 19.9221 7.27791 20.1265C7.4466 20.3205 7.70932 20.4876 8.39119 20.5874C9.11367 20.6931 10.0949 20.6958 11.5709 20.6958H12.4283C13.9042 20.6958 14.8855 20.693 15.608 20.5874C16.2895 20.4877 16.5516 20.3204 16.7203 20.1265C16.898 19.9221 17.0439 19.6025 17.0806 18.8452C17.1184 18.0653 17.036 17.0262 16.9097 15.4946L16.6939 13.4233C16.3817 13.6326 16.1406 13.7922 15.8814 13.9214C15.3916 14.1654 14.8643 14.3256 14.3219 14.396C13.9907 14.4389 13.6566 14.437 13.191 14.437H10.8082C10.3426 14.437 10.0085 14.439 9.67732 14.396C9.13486 14.3256 8.60751 14.1654 8.11775 13.9214C7.85829 13.7921 7.61712 13.632 7.30427 13.4224L7.08943 15.4946ZM9.09138 6.82861C8.39045 6.82861 7.94577 6.82919 7.6158 6.86084C7.30328 6.89087 7.22712 6.93916 7.21541 6.94678C7.09304 7.02648 6.99506 7.14204 6.93611 7.27881C6.92974 7.29361 6.89424 7.37949 6.91658 7.69971C6.93991 8.03359 7.0124 8.47543 7.12752 9.17041L7.17244 9.4458C7.26558 10.0081 7.29344 10.1507 7.3365 10.272C7.42472 10.5202 7.56962 10.7444 7.7574 10.9263C7.84876 11.0147 7.96594 11.0985 8.43709 11.4146C8.87184 11.7062 9.0083 11.7951 9.14412 11.8628C9.40477 11.9926 9.68521 12.0774 9.97322 12.1147C10.1233 12.1342 10.285 12.1372 10.8082 12.1372H13.191C13.7141 12.1372 13.8759 12.1342 14.026 12.1147C14.314 12.0774 14.5944 11.9926 14.8551 11.8628C14.991 11.7951 15.127 11.7064 15.5621 11.4146C16.0335 11.0983 16.1504 11.0147 16.2418 10.9263C16.4296 10.7444 16.5734 10.5202 16.6617 10.272C16.7048 10.1507 16.7335 10.0084 16.8267 9.4458L16.8717 9.17041C16.9868 8.47539 17.0593 8.0336 17.0826 7.69971C17.1049 7.37984 17.0695 7.29376 17.0631 7.27881C17.0041 7.14209 16.9061 7.02645 16.7838 6.94678C16.7715 6.93884 16.6941 6.89074 16.3824 6.86084C16.0525 6.82925 15.6084 6.82861 14.9078 6.82861H9.09138ZM11.7232 9.11963C12.3338 8.9451 12.9551 9.3027 13.1099 9.91846C13.2646 10.5345 12.8944 11.1765 12.2838 11.3511L12.276 11.353C11.6653 11.5276 11.0439 11.1692 10.8892 10.5532C10.7348 9.93736 11.1049 9.29611 11.7154 9.12158L11.7232 9.11963ZM11.9996 3.3042C11.3564 3.30443 10.7302 3.78383 10.5377 4.52783H13.4615C13.2691 3.78382 12.6428 3.30442 11.9996 3.3042Z" fill="currentColor"/>
<path d="M2.875 11.0275H2.19878C1.68795 11.0275 1.32932 13.359 1.33381 14.4968C1.33829 15.6346 1.42372 16.6027 1.44842 16.6013C1.69424 18.5533 2.16484 19.9443 2.76842 19.9443" stroke="currentColor" stroke-width="2.3" stroke-linecap="round"/>
</svg>
