<svg width="24" height="24" viewBox="0 0 24 24" fill="none" xmlns="http://www.w3.org/2000/svg">
<g>
<path d="M11.9998 1.00342C14.0175 1.00366 15.574 2.59956 15.7957 4.53271C16.0911 4.53791 16.3612 4.54868 16.6023 4.57178C17.0809 4.61768 17.5805 4.72171 18.0388 5.02002C18.5422 5.34779 18.9379 5.81734 19.1755 6.36865C19.3913 6.86943 19.4102 7.37925 19.3767 7.85986C19.344 8.3278 19.2491 8.89567 19.1414 9.54639L19.0955 9.82178C19.0157 10.3032 18.9573 10.6837 18.8298 11.0425C18.8124 11.0916 18.7925 11.1397 18.7732 11.188L19.197 15.2563C19.1979 15.2643 19.1993 15.2728 19.2 15.2808C19.3221 16.7617 19.4247 17.9862 19.3777 18.9565C19.3294 19.9538 19.1182 20.8744 18.4568 21.6353C17.7863 22.4064 16.9081 22.7222 15.9402 22.8638C15.0127 22.9993 13.8327 22.9956 12.4285 22.9956H11.571C10.1665 22.9956 8.98594 22.9994 8.05835 22.8638C7.09069 22.7222 6.21302 22.4063 5.54272 21.6353C4.8814 20.8744 4.66916 19.9537 4.62085 18.9565C4.57389 17.9862 4.67745 16.7617 4.79956 15.2808L4.80151 15.2563L5.22437 11.1851C5.20555 11.1379 5.18672 11.0904 5.16968 11.0425C5.04222 10.6837 4.98378 10.3031 4.90405 9.82178L4.85815 9.54639C4.75037 8.8957 4.65549 8.32778 4.6228 7.85986C4.58927 7.37924 4.60823 6.86943 4.82397 6.36865C5.0616 5.8173 5.45726 5.34783 5.96069 5.02002C6.41897 4.72168 6.91868 4.61769 7.39722 4.57178C7.63794 4.54871 7.9079 4.53792 8.20288 4.53271C8.42461 2.59951 9.98193 1.00366 11.9998 1.00342ZM21.8855 9.87744C22.3604 9.87755 22.7006 10.1192 22.8933 10.3198C23.077 10.5112 23.1925 10.7282 23.2654 10.8911C23.4133 11.2222 23.5099 11.6176 23.5779 11.9771C23.7179 12.7174 23.7918 13.6099 23.8279 14.2944C23.8538 14.7861 23.8176 15.3749 23.781 15.8052C23.7621 16.0277 23.7419 16.223 23.7263 16.3628C23.7185 16.4328 23.7116 16.4901 23.7068 16.5298C23.7044 16.5492 23.7023 16.5648 23.7009 16.5757C23.7002 16.5811 23.6994 16.5863 23.699 16.5894V16.5942H23.698L23.6951 16.6245L23.6892 16.6538V16.6548C23.689 16.6555 23.6884 16.6567 23.6882 16.6577C23.6879 16.6598 23.6879 16.663 23.6873 16.6665C23.6858 16.6741 23.683 16.6851 23.6804 16.6987C23.6752 16.7265 23.6677 16.7668 23.658 16.8169C23.6384 16.9175 23.61 17.0605 23.574 17.231C23.5023 17.5705 23.3989 18.0304 23.2742 18.4946C23.1524 18.9477 22.9979 19.4532 22.8171 19.8628C22.7295 20.0614 22.6092 20.2991 22.447 20.5054C22.3261 20.6591 21.9512 21.0941 21.3162 21.0942C20.6813 21.0942 20.1671 20.5796 20.1667 19.9448C20.1667 19.5407 20.3749 19.1851 20.6902 18.98C20.6967 18.9661 20.7051 18.9511 20.7126 18.9341C20.8212 18.6881 20.9393 18.318 21.0525 17.897C21.1626 17.4873 21.2572 17.0724 21.324 16.7563C21.3571 16.5993 21.3825 16.4681 21.4001 16.3774C21.4089 16.3324 21.4162 16.2973 21.4207 16.2739V16.272C21.4214 16.2663 21.4227 16.2597 21.4236 16.2524C21.4276 16.2193 21.4332 16.169 21.4402 16.1069C21.4541 15.9823 21.4722 15.8077 21.489 15.6099C21.524 15.1987 21.5481 14.7411 21.531 14.4155C21.4968 13.7665 21.4296 12.9943 21.3181 12.4048C21.3021 12.3204 21.2857 12.2448 21.2703 12.1782H21.2097C20.5747 12.1782 20.0595 11.6628 20.0593 11.0278C20.0593 10.3927 20.5746 9.87744 21.2097 9.87744H21.8855ZM7.0896 15.4946C6.96334 17.0262 6.88097 18.0653 6.9187 18.8452C6.95538 19.6021 7.10053 19.9221 7.27808 20.1265C7.44677 20.3205 7.70949 20.4876 8.39136 20.5874C9.11384 20.6931 10.0951 20.6958 11.571 20.6958H12.4285C13.9044 20.6958 14.8857 20.693 15.6082 20.5874C16.2897 20.4877 16.5517 20.3204 16.7205 20.1265C16.8981 19.9221 17.0441 19.6025 17.0808 18.8452C17.1185 18.0653 17.0362 17.0262 16.9099 15.4946L16.6941 13.4233C16.3818 13.6326 16.1408 13.7922 15.8816 13.9214C15.3918 14.1654 14.8645 14.3256 14.322 14.396C13.9908 14.4389 13.6568 14.437 13.1912 14.437H10.8083C10.3428 14.437 10.0087 14.439 9.67749 14.396C9.13503 14.3256 8.60768 14.1654 8.11792 13.9214C7.85846 13.7921 7.61729 13.632 7.30444 13.4224L7.0896 15.4946ZM9.09155 6.82861C8.39062 6.82861 7.94594 6.82919 7.61597 6.86084C7.30345 6.89087 7.22729 6.93916 7.21558 6.94678C7.09321 7.02648 6.99523 7.14204 6.93628 7.27881C6.92991 7.29361 6.89441 7.37949 6.91675 7.69971C6.94008 8.03359 7.01257 8.47543 7.12769 9.17041L7.17261 9.4458C7.26575 10.0081 7.29361 10.1507 7.33667 10.272C7.42489 10.5202 7.56979 10.7444 7.75757 10.9263C7.84893 11.0147 7.96611 11.0985 8.43726 11.4146C8.87201 11.7062 9.00847 11.7951 9.14429 11.8628C9.40494 11.9926 9.68538 12.0774 9.97339 12.1147C10.1235 12.1342 10.2852 12.1372 10.8083 12.1372H13.1912C13.7142 12.1372 13.8761 12.1342 14.0261 12.1147C14.3142 12.0774 14.5945 11.9926 14.8552 11.8628C14.9911 11.7951 15.1272 11.7064 15.5623 11.4146C16.0336 11.0983 16.1506 11.0147 16.2419 10.9263C16.4298 10.7444 16.5736 10.5202 16.6619 10.272C16.705 10.1507 16.7337 10.0084 16.8269 9.4458L16.8718 9.17041C16.9869 8.47539 17.0594 8.0336 17.0828 7.69971C17.1051 7.37984 17.0697 7.29376 17.0632 7.27881C17.0043 7.14209 16.9063 7.02645 16.7839 6.94678C16.7717 6.93884 16.6943 6.89074 16.3826 6.86084C16.0526 6.82925 15.6086 6.82861 14.908 6.82861H9.09155ZM11.7234 9.11963C12.3339 8.9451 12.9552 9.3027 13.1101 9.91846C13.2648 10.5345 12.8946 11.1765 12.2839 11.3511L12.2761 11.353C11.6655 11.5276 11.0441 11.1692 10.8894 10.5532C10.735 9.93736 11.1051 9.29611 11.7156 9.12158L11.7234 9.11963ZM11.9998 3.3042C11.3566 3.30443 10.7304 3.78383 10.5378 4.52783H13.4617C13.2692 3.78382 12.643 3.30442 11.9998 3.3042Z" fill="currentColor"/>
<path d="M2.875 11.0275H2.19878C1.68795 11.0275 1.32932 13.359 1.33381 14.4968C1.33829 15.6346 1.42372 16.6027 1.44842 16.6013C1.69424 18.5533 2.16484 19.9443 2.76842 19.9443" stroke="currentColor" stroke-width="2.3" stroke-linecap="round"/>
</g>
</svg>
