<svg width="24" height="24" viewBox="0 0 24 24" fill="none" xmlns="http://www.w3.org/2000/svg">
<path d="M18.1968 2.58838C18.8317 2.58858 19.3462 3.10377 19.3462 3.73877V4.39502C19.7077 4.8518 20.1215 5.17042 20.4976 5.37939C20.9657 5.63947 21.2821 5.68469 21.2944 5.68701C21.9294 5.68701 22.4446 6.20149 22.4448 6.83643C22.4448 7.47154 21.9296 7.98682 21.2944 7.98682C20.7727 7.98671 20.0604 7.76792 19.3804 7.39014C19.3689 7.38374 19.3577 7.37613 19.3462 7.36963V14.981H22.3276C22.9625 14.9812 23.4771 15.4964 23.4771 16.1313C23.4769 16.7662 22.9624 17.2805 22.3276 17.2808H19.3462V20.2622C19.346 20.897 18.8316 21.4114 18.1968 21.4116C17.5619 21.4114 17.0466 20.897 17.0464 20.2622V17.2808H6.95459V20.2622C6.95437 20.8971 6.43915 21.4116 5.8042 21.4116C5.16936 21.4114 4.65403 20.897 4.65381 20.2622V17.2808H1.67334C1.03847 17.2806 0.523115 16.7662 0.522949 16.1313C0.522949 15.4963 1.03836 14.9811 1.67334 14.981H4.65381V7.36963C4.64234 7.37612 4.63106 7.38378 4.61963 7.39014C3.93958 7.76787 3.22722 7.98682 2.70557 7.98682C2.07081 7.98639 1.55616 7.47128 1.55615 6.83643C1.55638 6.20176 2.07094 5.68744 2.70557 5.68701C2.70552 5.68635 3.02592 5.64462 3.50342 5.37939C3.87915 5.17057 4.29251 4.85218 4.65381 4.396V3.73877C4.65381 3.10375 5.16922 2.58856 5.8042 2.58838C6.43928 2.58843 6.95459 3.10367 6.95459 3.73877V4.4165C8.00935 5.92548 9.70396 7.75227 12.0005 7.75244C14.2974 7.75232 15.9916 5.92466 17.0464 4.41553V3.73877C17.0464 3.10375 17.5618 2.58856 18.1968 2.58838ZM17.0464 7.92236C15.8012 9.06192 14.122 10.0522 12.0005 10.0522C9.87903 10.0521 8.19979 9.06188 6.95459 7.92236V14.981H17.0464V7.92236ZM14.0659 10.3853C14.7009 10.3854 15.2153 10.9006 15.2153 11.5356V13.2905C15.2153 13.9255 14.7009 14.4408 14.0659 14.4409C13.431 14.4407 12.9155 13.9255 12.9155 13.2905V11.5356C12.9155 10.9006 13.4309 10.3854 14.0659 10.3853ZM9.93506 10.3911C10.5701 10.3912 11.0845 10.9064 11.0845 11.5415V13.2896C11.0845 13.9246 10.5701 14.4398 9.93506 14.4399C9.30009 14.4398 8.78468 13.9246 8.78467 13.2896V11.5415C8.78467 10.9065 9.30008 10.3913 9.93506 10.3911Z" fill="currentColor"/>
</svg>
