<svg width="24" height="24" viewBox="0 0 24 24" fill="none" xmlns="http://www.w3.org/2000/svg">
<path fill-rule="evenodd" clip-rule="evenodd" d="M17.4581 12.1783C20.0728 12.1786 22.1932 14.299 22.1935 16.9137C22.1935 17.8055 21.9454 18.6399 21.5167 19.3521L23.1671 21.0025C23.6159 21.4514 23.6155 22.1794 23.1671 22.6285C22.718 23.0776 21.9892 23.0776 21.5401 22.6285L19.8888 20.9771C19.1783 21.4031 18.3467 21.6489 17.4581 21.649C14.8431 21.649 12.7228 19.5287 12.7228 16.9137C12.723 14.2988 14.8432 12.1783 17.4581 12.1783ZM11.0353 1.03476C11.6701 1.03476 12.2331 1.03389 12.6935 1.08066C13.1731 1.12946 13.6679 1.2401 14.1251 1.5455C14.4557 1.76639 14.7402 2.04989 14.961 2.38046C15.2666 2.83771 15.3771 3.33235 15.4259 3.8121C15.4419 3.97001 15.4505 4.14005 15.4571 4.32089L18.546 4.32187C20.178 4.3221 21.5068 5.61338 21.5694 7.23007C21.5734 7.26891 21.5763 7.30836 21.5763 7.34824V10.6871C21.576 11.322 21.0608 11.8365 20.4259 11.8365C19.791 11.8364 19.2768 11.3219 19.2765 10.6871V10.1148C18.4831 10.7051 17.4982 11.0542 16.4347 11.0543H5.67393C4.59522 11.0542 3.59727 10.6952 2.79796 10.0894V12.5094C2.79734 14.0913 2.79902 15.1628 2.90635 15.9635C3.00926 16.7307 3.19011 17.0752 3.42198 17.3072C3.6539 17.5392 3.99833 17.7206 4.76573 17.8238C5.56626 17.9315 6.6371 17.9332 8.21885 17.9332H10.2149C10.8501 17.9332 11.3653 18.4485 11.3653 19.0836C11.3653 19.7187 10.85 20.234 10.2149 20.234H8.21885C6.70206 20.2339 5.44851 20.2362 4.45909 20.1031C3.43659 19.9656 2.52551 19.6639 1.79503 18.9332C1.06473 18.2025 0.764178 17.2915 0.627057 16.2691C0.494392 15.2796 0.496579 14.0253 0.497174 12.5084L0.500103 7.39707C0.49944 7.38118 0.497186 7.36519 0.497174 7.34921C0.497328 5.67727 1.85355 4.32099 3.52549 4.32089H6.61241C6.6192 4.14006 6.62858 3.97001 6.64463 3.8121C6.69343 3.33242 6.80407 2.83765 7.10948 2.38046C7.33024 2.05014 7.61414 1.7663 7.94444 1.5455C8.40159 1.24005 8.89641 1.12948 9.37608 1.08066C9.83655 1.03382 10.4 1.03476 11.0353 1.03476ZM17.4581 14.4791C16.1135 14.4791 15.0238 15.5691 15.0235 16.9137C15.0236 18.2584 16.1134 19.3482 17.4581 19.3482C18.8026 19.348 19.8927 18.2583 19.8927 16.9137C19.8925 15.5692 18.8025 14.4794 17.4581 14.4791ZM3.52549 6.62168C3.43161 6.62168 3.34218 6.64008 3.25987 6.67246C3.41567 7.83729 4.42511 8.75427 5.67393 8.75449H16.4347C17.678 8.75442 18.684 7.84556 18.8468 6.68808C18.755 6.6462 18.6535 6.62174 18.546 6.62168H3.52549ZM11.0353 3.33554C10.3522 3.33554 9.92558 3.33649 9.6085 3.36875C9.3126 3.3989 9.23956 3.44639 9.22276 3.45761C9.14342 3.51068 9.07462 3.57942 9.02159 3.65878C9.0101 3.67601 8.96274 3.74968 8.93272 4.04453C8.92422 4.12814 8.9179 4.21938 8.91319 4.32089H13.1564C13.1515 4.21937 13.1453 4.12815 13.1368 4.04453C13.1065 3.74714 13.0589 3.67519 13.048 3.65878C12.9949 3.57939 12.9272 3.51068 12.8478 3.45761C12.8311 3.44652 12.7581 3.39896 12.461 3.36875C12.144 3.33653 11.718 3.33554 11.0353 3.33554Z" fill="currentColor"/>
</svg>
