<svg width="24" height="24" viewBox="0 0 24 24" fill="none" xmlns="http://www.w3.org/2000/svg">
<g>
<path d="M17.458 12.1783C20.0727 12.1786 22.1931 14.299 22.1934 16.9137C22.1934 17.8055 21.9453 18.6399 21.5166 19.3521L23.167 21.0025C23.6158 21.4514 23.6154 22.1794 23.167 22.6285C22.7179 23.0776 21.9891 23.0776 21.54 22.6285L19.8887 20.9771C19.1782 21.4031 18.3466 21.6489 17.458 21.649C14.843 21.649 12.7227 19.5287 12.7227 16.9137C12.7229 14.2988 14.8431 12.1783 17.458 12.1783ZM11.0352 1.03476C11.67 1.03476 12.233 1.03389 12.6934 1.08066C13.173 1.12945 13.6678 1.2401 14.125 1.5455C14.4556 1.76638 14.74 2.04989 14.9609 2.38046C15.2665 2.8377 15.377 3.33234 15.4258 3.8121C15.4418 3.97001 15.4504 4.14005 15.457 4.32089L18.5459 4.32187C20.1779 4.3221 21.5067 5.61338 21.5693 7.23007C21.5733 7.2689 21.5762 7.30836 21.5762 7.34824V10.6871C21.5759 11.322 21.0607 11.8365 20.4258 11.8365C19.7909 11.8364 19.2767 11.3219 19.2764 10.6871V10.1148C18.483 10.7051 17.4981 11.0542 16.4346 11.0543H5.67383C4.59511 11.0542 3.59716 10.6952 2.79785 10.0894V12.5094C2.79723 14.0913 2.79891 15.1628 2.90625 15.9635C3.00916 16.7307 3.19 17.0752 3.42188 17.3072C3.65379 17.5392 3.99823 17.7206 4.76562 17.8238C5.56615 17.9315 6.63699 17.9332 8.21875 17.9332H10.2148C10.85 17.9332 11.3652 18.4485 11.3652 19.0836C11.3652 19.7187 10.8499 20.234 10.2148 20.234H8.21875C6.70196 20.2339 5.44841 20.2362 4.45898 20.1031C3.43649 19.9656 2.52541 19.6639 1.79492 18.9332C1.06463 18.2025 0.764074 17.2915 0.626953 16.2691C0.494288 15.2796 0.496476 14.0253 0.49707 12.5084L0.5 7.39706C0.499336 7.38117 0.497083 7.36519 0.49707 7.34921C0.497224 5.67727 1.85345 4.32099 3.52539 4.32089H6.6123C6.61909 4.14006 6.62847 3.97001 6.64453 3.8121C6.69333 3.33242 6.80397 2.83764 7.10938 2.38046C7.33014 2.05013 7.61403 1.7663 7.94434 1.5455C8.40148 1.24004 8.89631 1.12948 9.37598 1.08066C9.83645 1.03382 10.3999 1.03476 11.0352 1.03476ZM17.458 14.4791C16.1134 14.4791 15.0237 15.5691 15.0234 16.9137C15.0235 18.2584 16.1133 19.3482 17.458 19.3482C18.8025 19.348 19.8926 18.2583 19.8926 16.9137C19.8924 15.5692 18.8024 14.4793 17.458 14.4791ZM3.52539 6.62167C3.4315 6.62168 3.34208 6.64008 3.25977 6.67245C3.41556 7.83729 4.42501 8.75427 5.67383 8.75449H16.4346C17.6779 8.75442 18.6839 7.84556 18.8467 6.68808C18.7549 6.6462 18.6534 6.62174 18.5459 6.62167H3.52539ZM11.0352 3.33554C10.3521 3.33554 9.92548 3.33649 9.6084 3.36874C9.3125 3.3989 9.23946 3.44639 9.22266 3.45761C9.14332 3.51067 9.07451 3.57942 9.02148 3.65878C9.00999 3.67601 8.96264 3.74967 8.93262 4.04453C8.92412 4.12814 8.91779 4.21937 8.91309 4.32089H13.1562C13.1514 4.21936 13.1452 4.12815 13.1367 4.04453C13.1064 3.74714 13.0588 3.67518 13.0479 3.65878C12.9948 3.57939 12.927 3.51068 12.8477 3.45761C12.831 3.44652 12.758 3.39896 12.4609 3.36874C12.1439 3.33653 11.7179 3.33554 11.0352 3.33554Z" fill="currentColor"/>
</g>
</svg>
