<svg width="24" height="24" viewBox="0 0 24 24" fill="none" xmlns="http://www.w3.org/2000/svg">
<g clip-path="url(#clip0_ds_building)">
<path d="M15.7661 0.51123C16.7748 0.613503 17.562 1.46485 17.562 2.50049V21.4995L17.5513 21.7046C17.4555 22.6458 16.7075 23.3943 15.7661 23.4897L15.562 23.4995H2.49854L2.29443 23.4897C1.28581 23.3874 0.498535 22.5351 0.498535 21.4995V2.50049C0.498536 1.4649 1.28584 0.613575 2.29443 0.51123L2.49854 0.500488H15.562L15.7661 0.51123ZM21.0513 4.73291C22.2385 4.73317 23.2017 5.69605 23.2017 6.8833V21.0415C23.2014 22.2285 22.2383 23.1916 21.0513 23.1919H19.8931C19.2581 23.1919 18.7429 22.6764 18.7427 22.0415C18.7429 21.4065 19.2581 20.8921 19.8931 20.8921H20.9009V7.03369H19.9175C19.2827 7.03345 18.7683 6.51807 18.7681 5.8833C18.7681 5.24832 19.2826 4.73316 19.9175 4.73291H21.0513ZM2.79834 21.1997H5.53174V16.8188C5.5318 15.9076 6.2709 15.1685 7.18213 15.1685H10.8804C11.7915 15.1686 12.5307 15.9077 12.5308 16.8188V21.1997H15.2622V2.80029H2.79834V21.1997ZM7.83252 21.1997H10.23V17.4692H7.83252V21.1997ZM7.32666 8.73486C7.96146 8.73509 8.47586 9.24947 8.47607 9.88428C8.47594 10.5191 7.96151 11.0344 7.32666 11.0347H5.36084C4.7258 11.0347 4.21058 10.5193 4.21045 9.88428C4.21066 9.24933 4.72584 8.73486 5.36084 8.73486H7.32666ZM12.7007 8.73486C13.3355 8.73505 13.8499 9.24944 13.8501 9.88428C13.85 10.5192 13.3356 11.0345 12.7007 11.0347H10.7349C10.0999 11.0346 9.58461 10.5193 9.58447 9.88428C9.58468 9.24937 10.0999 8.73492 10.7349 8.73486H12.7007ZM7.32666 5.23389C7.96144 5.23412 8.47582 5.74853 8.47607 6.3833C8.47607 7.01829 7.96159 7.53346 7.32666 7.53369H5.36084C4.72571 7.53369 4.21045 7.01843 4.21045 6.3833C4.2107 5.74839 4.72587 5.23389 5.36084 5.23389H7.32666ZM12.7007 5.23389C13.3355 5.23407 13.8498 5.7485 13.8501 6.3833C13.8501 7.01831 13.3357 7.5335 12.7007 7.53369H10.7349C10.0998 7.53363 9.58447 7.01839 9.58447 6.3833C9.58473 5.74843 10.0999 5.23395 10.7349 5.23389H12.7007Z" fill="currentColor"/>
</g>
<defs>
<clipPath id="clip0_ds_building">
<rect width="24" height="24" fill="white"/>
</clipPath>
</defs>
</svg>
