<svg width="24" height="24" viewBox="0 0 24 24" fill="none" xmlns="http://www.w3.org/2000/svg">
<path d="M12.1223 3.54297C13.8381 3.54297 15.2009 3.54195 16.2981 3.63965C17.4119 3.73886 18.3575 3.94719 19.219 4.4248C20.387 5.0726 21.3551 6.04047 22.0198 7.21484C22.5066 8.07552 22.7417 9.03281 22.8821 10.1748C23.0208 11.3034 23.0771 12.7125 23.1487 14.4971C23.1673 14.963 23.1849 15.3851 23.1692 15.7344C23.1529 16.0968 23.0984 16.492 22.9065 16.8799L22.9055 16.8789C22.6749 17.3452 22.3159 17.7387 21.8655 18.0049C21.4853 18.2294 21.0901 18.3058 20.7317 18.3389C20.6042 18.3506 20.4668 18.3569 20.3215 18.3613C19.8413 19.5724 18.6928 20.4568 17.2961 20.457C15.9023 20.4569 14.7538 19.5765 14.2717 18.3691H9.72778C9.24581 19.5766 8.09739 20.457 6.70337 20.457C5.30853 20.4568 4.1603 19.5749 3.67896 18.3662C3.39497 18.3567 3.13928 18.3369 2.91724 18.292C2.32798 18.1725 1.96243 17.8949 1.63794 17.5576C1.34106 17.2488 1.19379 16.8774 1.11255 16.5762C1.02936 16.2674 0.98978 15.9365 0.968994 15.625C0.92862 15.0192 0.94751 14.2609 0.94751 13.5732C0.947891 12.9386 1.46319 12.424 2.0979 12.4238C2.73271 12.4239 3.24693 12.9385 3.24731 13.5732C3.24731 14.3611 3.23036 14.9679 3.26392 15.4717C3.28012 15.7145 3.30608 15.8766 3.33325 15.9775C3.33666 15.9902 3.34024 16.0011 3.34302 16.0098C3.3544 16.0207 3.36275 16.0302 3.36938 16.0361C3.37071 16.0364 3.37272 16.0368 3.37427 16.0371C3.41269 16.0449 3.47895 16.0516 3.59497 16.0586C4.015 14.7313 5.22004 13.7346 6.70337 13.7344C8.19083 13.7344 9.39772 14.7367 9.8147 16.0693H14.1848C14.6018 14.7368 15.8088 13.7345 17.2961 13.7344C18.7772 13.7346 19.9799 14.7285 20.4016 16.0527C20.444 16.0503 20.4837 16.0513 20.5208 16.0479C20.632 16.0376 20.6843 16.024 20.7024 16.0186C20.7578 15.9838 20.8096 15.9309 20.845 15.8594L20.8508 15.834C20.8575 15.8014 20.8665 15.7388 20.8713 15.6309C20.8816 15.4021 20.8701 15.0946 20.8499 14.5889C20.829 14.0692 20.8089 13.5922 20.7893 13.1523C20.5837 13.1542 20.3504 13.1572 20.1077 13.1572C19.3877 13.1572 18.437 13.1466 17.968 13.0732C17.4494 12.992 17.0461 12.7535 16.7258 12.5C16.4284 12.2646 16.1375 11.9609 15.884 11.7021L15.843 11.6602L15.8069 11.6152C15.742 11.534 15.6822 11.4564 15.6301 11.3896C15.5764 11.3206 15.5317 11.264 15.4905 11.2129C15.4288 11.1366 15.3877 11.0912 15.3606 11.0635H2.01782C1.57655 11.0635 1.19318 10.815 1.00024 10.4502C0.889848 10.2736 0.824472 10.0653 0.824463 9.8418C0.824467 9.09698 0.837629 8.00546 0.908447 7.03223C0.943653 6.54864 0.99524 6.06277 1.07446 5.65234C1.11391 5.44809 1.16527 5.2351 1.2356 5.03809C1.29729 4.86532 1.41325 4.58808 1.63794 4.35449L1.81763 4.18652C2.24834 3.82515 2.74812 3.67813 3.22583 3.61133C3.73387 3.54035 4.36142 3.54297 5.03735 3.54297H12.1223ZM6.70337 16.0352C6.21474 16.0355 5.73573 16.463 5.7356 17.0957C5.73572 17.7284 6.21474 18.1569 6.70337 18.1572C7.19218 18.1572 7.672 17.7286 7.67212 17.0957C7.67199 16.4628 7.19217 16.0352 6.70337 16.0352ZM17.2961 16.0352C16.8074 16.0353 16.3285 16.4629 16.3284 17.0957C16.3285 17.7285 16.8074 18.1571 17.2961 18.1572C17.7848 18.157 18.2648 17.7284 18.2649 17.0957C18.2648 16.463 17.7848 16.0354 17.2961 16.0352ZM17.176 9.64648C17.3276 9.8227 17.4659 10.0035 17.5696 10.1357C17.8424 10.4142 18.0053 10.5799 18.1536 10.6973C18.2217 10.7512 18.2656 10.7769 18.2903 10.7891C18.3107 10.7991 18.3196 10.8002 18.3235 10.8008C18.5746 10.8401 19.316 10.8574 20.1077 10.8574C20.2947 10.8574 20.4765 10.8548 20.6438 10.8535C20.6302 10.716 20.6156 10.583 20.5999 10.4551C20.477 9.45632 20.2945 8.83558 20.0178 8.34668C19.5575 7.53346 18.893 6.87427 18.1038 6.43652C17.8453 6.29322 17.5498 6.18091 17.176 6.09375V9.64648ZM4.87524 5.84473C4.22914 5.84525 3.83279 5.84933 3.54419 5.88965C3.4642 5.90084 3.40734 5.91322 3.36841 5.92383C3.3573 5.96796 3.34498 6.02306 3.33228 6.08887C3.27805 6.36993 3.23491 6.75263 3.20239 7.19922C3.16577 7.70252 3.14733 8.25 3.13696 8.7627H4.87524V5.84473ZM7.17603 8.7627H9.87524V5.84375H7.17603V8.7627ZM12.176 8.7627H14.8752V5.86816C14.1315 5.84724 13.2507 5.84376 12.176 5.84375V8.7627Z" fill="currentColor"/>
</svg>
