<svg width="24" height="24" viewBox="0 0 24 24" fill="none" xmlns="http://www.w3.org/2000/svg">
<path d="M17.3025 14.8281C18.5882 13.8818 20.4136 13.9821 21.5837 15.1309C22.8784 16.4022 22.8787 18.4729 21.5837 19.7441L18.1287 23.3145C17.912 23.5382 17.6139 23.665 17.3025 23.665C16.991 23.665 16.693 23.5382 16.4763 23.3145L13.0212 19.7441L12.9041 19.6221C11.7278 18.3437 11.7669 16.3626 13.0212 15.1309C14.1914 13.9821 16.0168 13.8817 17.3025 14.8281ZM15.5955 0.334961C16.2306 0.334961 16.7458 0.850224 16.7458 1.48535V2.44629C16.8801 2.45984 17.0106 2.47514 17.1375 2.49219C18.3542 2.65578 19.402 3.00868 20.2371 3.84375C21.0721 4.67882 21.425 5.72658 21.5886 6.94336C21.6804 7.62602 21.7163 8.41573 21.7322 9.31738C21.7402 9.37228 21.7458 9.42823 21.7458 9.48535C21.7458 9.53268 21.7416 9.57917 21.7361 9.625C21.7431 10.2012 21.7458 10.8209 21.7458 11.4854V11.9854C21.7458 12.6205 21.2306 13.1357 20.5955 13.1357C19.9603 13.1357 19.4451 12.6205 19.4451 11.9854V11.4854C19.4451 11.1882 19.4447 10.9053 19.4441 10.6357H3.74683C3.74625 10.9053 3.74585 11.1882 3.74585 11.4854V13.4854C3.74585 15.4035 3.74784 16.7269 3.88159 17.7217C4.01091 18.6831 4.24339 19.1645 4.57983 19.501C4.91628 19.8374 5.3977 20.0699 6.35913 20.1992C7.35395 20.333 8.67733 20.335 10.5955 20.335H11.5955C12.2306 20.335 12.7458 20.8502 12.7458 21.4854C12.7458 22.1205 12.2306 22.6357 11.5955 22.6357H10.5955C8.74251 22.6357 7.23712 22.6376 6.05347 22.4785C4.83669 22.3149 3.78893 21.962 2.95386 21.127C2.11879 20.2919 1.76589 19.2441 1.60229 18.0273C1.44319 16.8437 1.44507 15.3383 1.44507 13.4854V11.4854C1.44507 10.8209 1.44683 10.2012 1.45386 9.625C1.44831 9.57921 1.44507 9.53264 1.44507 9.48535C1.44507 9.42827 1.44973 9.37224 1.45776 9.31738C1.47367 8.41573 1.51053 7.62602 1.60229 6.94336C1.76589 5.72658 2.11879 4.67882 2.95386 3.84375C3.78893 3.00868 4.83669 2.65578 6.05347 2.49219C6.1803 2.47514 6.31082 2.45984 6.44507 2.44629V1.48535C6.44507 0.850224 6.96033 0.334961 7.59546 0.334961C8.23059 0.334961 8.74585 0.850224 8.74585 1.48535V2.34375C9.31904 2.33686 9.93517 2.33496 10.5955 2.33496H12.5955C13.2557 2.33496 13.8719 2.33686 14.4451 2.34375V1.48535C14.4451 0.850224 14.9603 0.334961 15.5955 0.334961ZM19.9724 16.7725C19.5839 16.391 18.945 16.391 18.5564 16.7725L18.2107 17.1113C17.7065 17.606 16.8985 17.606 16.3943 17.1113L16.0486 16.7725C15.66 16.391 15.0211 16.391 14.6326 16.7725C14.2799 17.1191 14.2574 17.6594 14.5662 18.0303L14.6326 18.1025L14.6433 18.1123L14.6531 18.123L17.3025 20.8613L19.9519 18.123L19.9617 18.1123L19.9724 18.1025C20.349 17.7329 20.3486 17.1423 19.9724 16.7725ZM10.5955 4.63574C9.90624 4.63574 9.29384 4.638 8.74585 4.64453V5.48535C8.74585 6.12048 8.23059 6.63574 7.59546 6.63574C6.96033 6.63574 6.44507 6.12048 6.44507 5.48535V4.76172C6.41621 4.76532 6.38745 4.76768 6.35913 4.77148C5.3977 4.9008 4.91628 5.13328 4.57983 5.46973C4.24339 5.80618 4.01091 6.2876 3.88159 7.24902C3.83803 7.57305 3.80989 7.93201 3.78979 8.33496H19.4011C19.381 7.93201 19.3529 7.57305 19.3093 7.24902C19.18 6.2876 18.9475 5.80618 18.6111 5.46973C18.2746 5.13328 17.7932 4.9008 16.8318 4.77148C16.8035 4.76768 16.7747 4.76532 16.7458 4.76172V5.48535C16.7458 6.12048 16.2306 6.63574 15.5955 6.63574C14.9603 6.63574 14.4451 6.12048 14.4451 5.48535V4.64453C13.8971 4.638 13.2847 4.63574 12.5955 4.63574H10.5955Z" fill="currentColor"/>
</svg>
