<svg width="24" height="24" viewBox="0 0 24 24" fill="none" xmlns="http://www.w3.org/2000/svg">
<g clip-path="url(#clip0_2103_16089)">
<path d="M5.28613 0.818756C5.93376 0.818755 6.50249 0.806912 7.02637 0.967194C7.63345 1.15295 8.17643 1.5055 8.59277 1.98477C8.95198 2.39833 9.1716 2.92335 9.43457 3.51505L9.88379 4.52481C10.1686 5.16556 10.4326 5.72423 10.4893 6.31876C10.5393 6.84497 10.4652 7.37598 10.2734 7.86856C10.0567 8.42519 9.65016 8.89131 9.20117 9.43008C8.6534 10.0874 8.56588 10.2162 8.5166 10.351C8.46387 10.4953 8.43951 10.7312 8.46191 10.8832C8.4837 11.0308 8.52691 11.1392 8.86816 11.7777C9.74137 13.4117 10.5887 14.259 12.2227 15.1322C12.8619 15.4738 12.9704 15.5167 13.1182 15.5385C13.2702 15.5608 13.5051 15.5365 13.6494 15.4838C13.7843 15.4345 13.9133 15.3476 14.5713 14.7992C15.11 14.3503 15.5753 13.9437 16.1318 13.727C16.6245 13.5351 17.1553 13.4621 17.6816 13.5121C18.3138 13.5722 18.7776 14.133 18.7178 14.765C18.6576 15.3973 18.0961 15.8613 17.4639 15.8012C17.2951 15.7851 17.1248 15.809 16.9668 15.8705C16.8433 15.9186 16.7074 16.0139 16.0439 16.5668C15.5052 17.0158 15.0348 17.4271 14.4385 17.6449C13.9348 17.8289 13.3127 17.892 12.7822 17.8139C12.1602 17.7221 11.6787 17.4501 11.1387 17.1615C9.10327 16.0738 7.92757 14.8971 6.83984 12.8617C6.55121 12.3216 6.27822 11.8404 6.18652 11.2182C6.10833 10.6875 6.17239 10.0657 6.35645 9.56192C6.57431 8.96572 6.98565 8.49612 7.43457 7.95743C7.98719 7.2943 8.08176 7.15804 8.12988 7.03458C8.19147 6.87642 8.21529 6.70548 8.19922 6.53653C8.18659 6.40468 8.13254 6.24757 7.78223 5.45938L7.33301 4.44962C7.00937 3.72144 6.93598 3.5852 6.85645 3.49356C6.7228 3.33969 6.54842 3.22605 6.35352 3.16641C6.23744 3.1309 6.0835 3.11954 5.28613 3.11954C4.73982 3.11954 4.39649 3.12009 4.13281 3.14102C3.88666 3.16058 3.78961 3.19332 3.73535 3.21817C3.4984 3.3269 3.24638 3.60474 3.16113 3.85098C3.102 4.0219 3.09578 4.20488 3.19629 5.24649C3.66505 10.1043 5.2164 13.7304 7.74316 16.2572C10.27 18.784 13.896 20.3353 18.7539 20.8041C19.7961 20.9047 19.9794 20.8985 20.1504 20.8393C20.3967 20.7539 20.6746 20.502 20.7832 20.265C20.808 20.2108 20.8408 20.1137 20.8604 19.8676C20.8813 19.6039 20.8818 19.2604 20.8818 18.7143C20.8818 17.9171 20.8695 17.7629 20.834 17.6469C20.7744 17.4523 20.6614 17.2784 20.5078 17.1449C20.4284 17.0759 20.4424 17.0913 20.4658 17.1059C20.4721 17.1097 20.4677 17.107 20.4385 17.0922C20.4075 17.0765 20.3639 17.0552 20.292 17.0209C19.7187 16.7477 19.4759 16.061 19.749 15.4877C20.0223 14.9146 20.708 14.6717 21.2812 14.9447C21.4098 15.006 21.5504 15.0719 21.6777 15.1508C21.8268 15.2432 21.9352 15.3378 22.0156 15.4076C22.4949 15.8239 22.8474 16.367 23.0332 16.974C23.1935 17.4979 23.1816 18.0667 23.1816 18.7143C23.1816 19.2248 23.1822 19.6745 23.1523 20.0502C23.1211 20.4433 23.0523 20.8328 22.874 21.2221C22.5039 22.0302 21.7423 22.7223 20.9023 23.0131C20.1512 23.273 19.3863 23.1755 18.5332 23.0932C13.3037 22.5885 9.12092 20.8877 6.11719 17.8842C3.11341 14.8805 1.41188 10.6969 0.907227 5.46719C0.824906 4.61418 0.727281 3.84914 0.987305 3.09805C1.27811 2.25818 1.97025 1.49645 2.77832 1.12637C3.16752 0.94819 3.55713 0.879293 3.9502 0.848053C4.32589 0.818208 4.77561 0.818756 5.28613 0.818756Z" fill="currentColor"/>
</g>
<defs>
<clipPath id="clip0_2103_16089">
<rect width="24" height="24" fill="white"/>
</clipPath>
</defs>
</svg>
