<svg width="24" height="24" viewBox="0 0 24 24" fill="none" xmlns="http://www.w3.org/2000/svg">
<g clip-path="url(#clip0_ds_call_clock)">
<path d="M4.52002 5.03923C5.01865 5.03923 5.51332 5.02708 5.97119 5.16716C6.49554 5.32762 6.96412 5.63307 7.32373 6.04705C7.63763 6.40851 7.82733 6.86502 8.02979 7.32048L8.38623 8.12126C8.60549 8.61453 8.83679 9.09964 8.88623 9.61931C8.92946 10.0739 8.86544 10.5326 8.69971 10.9582C8.51023 11.4445 8.15564 11.8482 7.81006 12.2629C7.8023 12.2733 7.78998 12.2902 7.77588 12.3117C7.74083 12.3651 7.71459 12.4157 7.70264 12.4484C7.67439 12.5259 7.6594 12.6726 7.67139 12.7541C7.68144 12.8223 7.69194 12.8699 7.96826 13.3869C8.63922 14.6422 9.27811 15.2814 10.5337 15.9523C11.0503 16.2284 11.0983 16.2391 11.1665 16.2492C11.2481 16.2612 11.3956 16.2462 11.4731 16.2179C11.5326 16.1962 11.6002 16.16 12.1343 15.715C12.4156 15.4807 12.6587 15.3177 12.8843 15.217C13.0004 15.1651 13.1314 15.121 13.2749 15.0988C13.2833 15.0975 13.2918 15.096 13.3003 15.0949C13.3062 15.0937 13.3125 15.0932 13.3188 15.092C13.3791 15.08 13.4629 15.0658 13.5601 15.0529C13.735 15.0298 14.0356 15.0014 14.3491 15.05C15.0172 15.1535 15.4814 15.4366 15.8794 15.6135L16.6802 15.9699C17.1358 16.1724 17.5931 16.362 17.9546 16.676C18.3685 17.0355 18.6731 17.5043 18.8335 18.0285C18.9735 18.4862 18.9614 18.9803 18.9614 19.4787C18.9614 19.8801 18.9626 20.2481 18.938 20.5578C18.912 20.885 18.8532 21.2249 18.6958 21.5685C18.375 22.2687 17.7204 22.8625 16.9927 23.1144C16.3368 23.3414 15.6698 23.2541 15.0122 23.1906C10.823 22.7864 7.44552 21.4204 5.01221 18.9875C2.57888 16.5545 1.21237 13.1772 0.808105 8.98845C0.74465 8.33106 0.657219 7.66387 0.884277 7.00798C1.13629 6.28018 1.73092 5.62554 2.43115 5.30486C2.77447 5.14772 3.1139 5.08965 3.44092 5.06365C3.7506 5.03905 4.11861 5.03923 4.52002 5.03923ZM4.52002 7.34001C4.08276 7.34001 3.82126 7.34092 3.62354 7.35662C3.44337 7.37093 3.39669 7.39276 3.38818 7.39666C3.25896 7.45602 3.10455 7.62677 3.05811 7.76091C3.03193 7.83663 3.01656 7.92238 3.09814 8.76775C3.46652 12.5846 4.68184 15.4054 6.63818 17.3615C8.59455 19.3175 11.4155 20.5323 15.2329 20.9006C16.0792 20.9822 16.1648 20.9669 16.2407 20.9406C16.375 20.8939 16.5458 20.7396 16.605 20.6105C16.6089 20.602 16.6307 20.5551 16.645 20.3752C16.6607 20.1775 16.6616 19.9157 16.6616 19.4787C16.6616 18.831 16.6496 18.7513 16.6343 18.7013C16.6 18.5893 16.5343 18.4892 16.4458 18.4123C16.4063 18.378 16.3383 18.3344 15.7466 18.0715L14.9448 17.715C14.787 17.6449 14.6553 17.5822 14.5474 17.5304C14.4342 17.4762 14.3619 17.4408 14.2944 17.4113C14.1867 17.3642 14.1143 17.3407 13.9966 17.3224C13.9902 17.3225 13.9443 17.3213 13.8618 17.3322C13.8317 17.3362 13.8045 17.341 13.7837 17.3449C13.7466 17.3706 13.6879 17.4134 13.606 17.4816C13.1907 17.8276 12.7829 18.1879 12.2622 18.3781C11.8253 18.5377 11.2917 18.5924 10.8315 18.5246C10.2888 18.4446 9.86817 18.2042 9.44971 17.9806C7.79296 17.0954 6.82535 16.1283 5.93994 14.4719C5.71631 14.0534 5.47602 13.6319 5.396 13.089C5.32829 12.6291 5.383 12.0961 5.54248 11.6594C5.6365 11.402 5.76266 11.1878 5.85303 11.05C5.90018 10.9781 5.9433 10.9186 5.97607 10.8752C5.99251 10.8534 6.00674 10.8347 6.01807 10.8205C6.02366 10.8135 6.02857 10.807 6.03271 10.8019C6.03475 10.7994 6.03691 10.7971 6.03857 10.7951C6.03933 10.7942 6.03987 10.793 6.04053 10.7922L6.04248 10.7912V10.7902H6.04346C6.4927 10.2512 6.53537 10.1765 6.55615 10.1232C6.59157 10.0323 6.60542 9.93423 6.59619 9.83708C6.59076 9.78015 6.56966 9.69699 6.28467 9.05583L5.92822 8.25408C5.66511 7.66216 5.6217 7.59435 5.5874 7.55486C5.5106 7.46647 5.41033 7.40171 5.29834 7.36736C5.24825 7.35204 5.16832 7.34001 4.52002 7.34001ZM12.104 0.738452C18.2665 0.738915 23.2629 5.73448 23.2632 11.8967C23.2632 13.176 23.047 14.4083 22.6489 15.5558C22.5404 15.8687 22.4186 16.1753 22.2837 16.4748C22.0229 17.0537 21.3412 17.3115 20.7622 17.051C20.1833 16.79 19.9252 16.1094 20.186 15.5304C20.293 15.2929 20.39 15.0499 20.4761 14.8019C20.7912 13.8936 20.9634 12.9159 20.9634 11.8967C20.9631 7.005 16.9965 3.0397 12.104 3.03923C11.0346 3.03923 10.0111 3.22807 9.06494 3.57341C8.93568 3.6206 8.80753 3.67083 8.68115 3.7238C8.5838 3.76461 8.48667 3.80757 8.39111 3.85173C7.81478 4.11799 7.13134 3.86634 6.86475 3.29021C6.59831 2.7137 6.84979 2.03032 7.42627 1.76384C7.54678 1.70815 7.66871 1.65419 7.7915 1.60271C7.95105 1.53583 8.11266 1.47187 8.27588 1.41228C9.47103 0.976023 10.7616 0.738452 12.104 0.738452ZM12.103 4.85857C12.738 4.85861 13.2532 5.37404 13.2534 6.00896V10.2092L13.5991 10.5549L13.9409 10.8957L14.3501 11.3058C14.7991 11.7548 14.7989 12.4827 14.3501 12.9318C13.901 13.3809 13.1732 13.3809 12.7241 12.9318L12.314 12.5226L11.9731 12.1808L11.2896 11.4982C11.0741 11.2826 10.9526 10.9896 10.9526 10.6847V6.00896C10.9528 5.37401 11.468 4.85857 12.103 4.85857Z" fill="currentColor"/>
</g>
<defs>
<clipPath id="clip0_ds_call_clock">
<rect width="24" height="24" fill="white"/>
</clipPath>
</defs>
</svg>
