<svg width="24" height="24" viewBox="0 0 24 24" fill="none" xmlns="http://www.w3.org/2000/svg">
<g clip-path="url(#clip0_ds_call_warning)">
<path d="M4.37158 4.34552C4.89351 4.34552 5.40048 4.3342 5.86865 4.47736C6.4057 4.64176 6.88599 4.95381 7.25439 5.37775C7.57547 5.74741 7.76995 6.21522 7.98193 6.6922L8.35303 7.52618C8.58263 8.04278 8.81907 8.5396 8.86963 9.07111C8.91391 9.53699 8.84804 10.0071 8.67822 10.4432C8.48443 10.9404 8.12203 11.3538 7.76025 11.7879C7.29885 12.3416 7.25505 12.4188 7.229 12.4901C7.19697 12.5781 7.18028 12.7382 7.19385 12.8309C7.20576 12.9117 7.22067 12.9693 7.50732 13.5057C8.21003 14.8206 8.88204 15.4924 10.1968 16.1951C10.7325 16.4814 10.791 16.4977 10.8716 16.5096C10.9641 16.5232 11.1253 16.5065 11.2134 16.4744C11.2846 16.4484 11.3621 16.4033 11.9155 15.9422C12.3495 15.5805 12.7631 15.2179 13.2603 15.0242C13.6962 14.8545 14.1666 14.7896 14.6323 14.8338C14.9384 14.863 15.193 14.9537 15.3755 15.0291C15.4651 15.0662 15.5523 15.1063 15.6187 15.1365C15.6907 15.1694 15.7467 15.1944 15.8022 15.2176C15.9746 15.2896 16.1172 15.3551 16.2378 15.4109C16.3612 15.4681 16.4541 15.5122 16.5571 15.5555C16.6815 15.6077 16.8138 15.6621 16.9146 15.7039C16.9644 15.7246 17.0069 15.7424 17.0366 15.7547C17.0513 15.7608 17.0638 15.766 17.0718 15.7693C17.0754 15.7709 17.0786 15.7724 17.0806 15.7733L17.0825 15.7742H17.0835L17.0962 15.7801L17.1099 15.7859L17.644 16.0223L17.6587 16.0281L17.6733 16.0359C17.7768 16.0852 17.903 16.1448 18.019 16.2166C18.1573 16.3023 18.2581 16.3902 18.3247 16.4481C18.749 16.8166 19.0616 17.2974 19.2261 17.8348C19.3692 18.303 19.3569 18.8089 19.3569 19.3309C19.3569 19.7494 19.3579 20.1299 19.3325 20.45C19.3057 20.7877 19.2451 21.1353 19.0845 21.4861C18.7559 22.2033 18.0848 22.8131 17.3394 23.0711C16.6685 23.3032 15.9856 23.2137 15.2974 23.1473C10.9446 22.7272 7.4395 21.3089 4.9165 18.7859C2.39366 16.2629 0.975198 12.7579 0.555176 8.40509C0.488753 7.71684 0.400131 7.03396 0.632324 6.3631C0.890417 5.61799 1.49947 4.94653 2.21631 4.61798C2.56687 4.45743 2.915 4.39777 3.25244 4.37091C3.57234 4.3455 3.95328 4.34552 4.37158 4.34552ZM4.37158 6.6463C3.91768 6.6463 3.64303 6.6464 3.43506 6.6629C3.24485 6.67805 3.19 6.70259 3.17432 6.70978C3.02822 6.77702 2.85772 6.96426 2.80518 7.11603C2.77382 7.20678 2.75971 7.30832 2.84424 8.18439C3.22839 12.1655 4.49743 15.1138 6.54346 17.16C8.5895 19.2058 11.5373 20.474 15.5181 20.8582C16.3942 20.9428 16.4967 20.9286 16.5874 20.8973C16.7393 20.8445 16.9267 20.6742 16.9937 20.5281C17.001 20.5121 17.0245 20.4576 17.0396 20.2684C17.0561 20.0603 17.0571 19.7854 17.0571 19.3309C17.0571 18.6591 17.0444 18.5681 17.0259 18.5076C16.9876 18.3826 16.9156 18.2702 16.8169 18.1844C16.8086 18.1772 16.801 18.1716 16.7954 18.1668C16.7725 18.1553 16.7394 18.1385 16.6841 18.1121H16.6831L16.1958 17.8963C16.1945 17.8958 16.1925 17.895 16.1909 17.8943C16.1827 17.8909 16.1706 17.8858 16.1558 17.8797C16.1254 17.8671 16.0816 17.8491 16.0308 17.8279C15.929 17.7856 15.7951 17.7292 15.6675 17.6756C15.5183 17.613 15.3844 17.5509 15.27 17.4979C15.1529 17.4436 15.0445 17.3936 14.9155 17.3397C14.8207 17.3 14.7322 17.2592 14.6646 17.2283C14.5911 17.1948 14.5409 17.1728 14.4956 17.1541C14.4089 17.1183 14.396 17.121 14.4146 17.1229C14.3062 17.1126 14.1957 17.1283 14.0942 17.1678C14.0299 17.193 13.9439 17.2458 13.3872 17.7098C12.9527 18.0719 12.5349 18.44 12.0024 18.6346C11.5552 18.7979 11.0077 18.8543 10.5366 18.785C9.98145 18.7031 9.55033 18.4573 9.11279 18.2234C7.39673 17.3063 6.39617 16.3059 5.479 14.5897C5.24522 14.1522 5.00034 13.7219 4.91846 13.1668C4.84902 12.6956 4.90446 12.1474 5.06787 11.7C5.26249 11.1675 5.63149 10.7498 5.99365 10.3152C6.4589 9.75694 6.51054 9.67259 6.53564 9.60822C6.57515 9.50671 6.58988 9.39731 6.57959 9.28888C6.57304 9.22008 6.54688 9.12544 6.25146 8.46075L5.88037 7.62579C5.60778 7.01248 5.5595 6.93425 5.51807 6.88654C5.43235 6.78792 5.32072 6.71489 5.1958 6.67657C5.13534 6.65815 5.04188 6.6463 4.37158 6.6463ZM14.229 1.85431C15.0307 0.465576 16.9982 0.422355 17.8726 1.72443L17.9536 1.85431L20.5894 6.42365C20.9067 6.9737 20.7184 7.6765 20.1685 7.99396C19.6184 8.31122 18.9146 8.1231 18.5972 7.57306L16.0903 3.22931L11.0776 11.9178H21.105L20.3491 10.6072C20.032 10.0573 20.2202 9.35438 20.77 9.03693C21.3201 8.71953 22.0238 8.90786 22.3413 9.45782L23.2271 10.993C24.054 12.4262 23.0194 14.2174 21.3647 14.2176H10.8179C9.16332 14.2173 8.12868 12.4262 8.95557 10.993L14.229 1.85431ZM16.0913 9.39728C16.7263 9.39728 17.2415 9.91272 17.2417 10.5477V10.5545C17.2416 11.1896 16.7264 11.7039 16.0913 11.7039C15.4563 11.7038 14.941 11.1895 14.9409 10.5545V10.5477C14.9411 9.91277 15.4564 9.39736 16.0913 9.39728ZM16.0913 4.7049C16.7263 4.705 17.2417 5.22023 17.2417 5.85529V8.01251C17.2415 8.64738 16.7262 9.16182 16.0913 9.16193C15.4563 9.16193 14.9411 8.64745 14.9409 8.01251V5.85529C14.9409 5.22016 15.4562 4.7049 16.0913 4.7049Z" fill="currentColor"/>
</g>
<defs>
<clipPath id="clip0_ds_call_warning">
<rect width="24" height="24" fill="white"/>
</clipPath>
</defs>
</svg>
