<svg width="24" height="24" viewBox="0 0 24 24" fill="none" xmlns="http://www.w3.org/2000/svg">
<g clip-path="url(#clip0_2103_16902)">
<path fill-rule="evenodd" clip-rule="evenodd" d="M4.5196 5.03923C5.01809 5.03923 5.51301 5.0272 5.97078 5.16716C6.49505 5.3276 6.96372 5.63315 7.32332 6.04705C7.63722 6.40849 7.82692 6.86503 8.02937 7.32048L8.38582 8.12126C8.60509 8.61456 8.83637 9.09961 8.88582 9.61931C8.92905 10.0739 8.86503 10.5326 8.69929 10.9582C8.5098 11.4445 8.1552 11.8483 7.80964 12.2629C7.80188 12.2733 7.78947 12.2903 7.77546 12.3117C7.74048 12.3651 7.71416 12.4157 7.70222 12.4484C7.67401 12.5259 7.65899 12.6726 7.67097 12.7541C7.68103 12.8223 7.6915 12.8698 7.96785 13.3869C8.63876 14.6422 9.27788 15.2815 10.5333 15.9523C11.0489 16.2278 11.0981 16.2392 11.1661 16.2492C11.2476 16.2612 11.3951 16.2462 11.4727 16.2179C11.5321 16.1962 11.6 16.1598 12.1339 15.715C12.415 15.4808 12.6584 15.3177 12.8839 15.217C12.9999 15.1652 13.1311 15.121 13.2745 15.0988C13.2827 15.0975 13.2915 15.096 13.2999 15.0949C13.3056 15.0937 13.3122 15.0932 13.3184 15.092C13.3786 15.08 13.4626 15.0658 13.5596 15.0529C13.7345 15.0298 14.0353 15.0015 14.3487 15.05C15.0166 15.1535 15.481 15.4366 15.879 15.6135L16.6798 15.9699C17.1353 16.1723 17.5927 16.3621 17.9542 16.676C18.368 17.0355 18.6726 17.5043 18.8331 18.0285C18.9731 18.4863 18.961 18.9803 18.961 19.4787C18.961 19.8801 18.9622 20.2481 18.9376 20.5578C18.9116 20.885 18.8528 21.225 18.6954 21.5685C18.3745 22.2686 17.7199 22.8626 16.9923 23.1144C16.3365 23.3413 15.6692 23.254 15.0118 23.1906C10.8228 22.7864 7.44503 21.4203 5.01179 18.9875C2.57857 16.5545 1.21194 13.1771 0.807691 8.98845C0.74424 8.3311 0.65686 7.66383 0.883863 7.00798C1.13583 6.2803 1.73065 5.6256 2.43074 5.30486C2.77391 5.14779 3.11361 5.08967 3.4405 5.06365C3.75008 5.03906 4.11835 5.03923 4.5196 5.03923ZM4.5196 7.34001C4.0826 7.34002 3.82078 7.34092 3.62312 7.35662C3.44329 7.37093 3.39627 7.39276 3.38777 7.39666C3.25861 7.45617 3.10409 7.62689 3.05769 7.76091C3.03154 7.8366 3.01619 7.92285 3.09773 8.76775C3.46609 12.5845 4.68152 15.4054 6.63777 17.3615C8.59406 19.3174 11.4153 20.5322 15.2325 20.9006C16.0774 20.9821 16.1645 20.9668 16.2403 20.9406C16.3746 20.8939 16.5453 20.7395 16.6046 20.6105C16.6085 20.602 16.6303 20.5551 16.6446 20.3752C16.6603 20.1775 16.6612 19.9157 16.6612 19.4787C16.6612 18.8307 16.6492 18.7513 16.6339 18.7013C16.5995 18.5893 16.5339 18.4892 16.4454 18.4123C16.4058 18.378 16.3368 18.3339 15.7462 18.0715L14.9444 17.715C14.7867 17.6449 14.6548 17.5821 14.5469 17.5304C14.434 17.4763 14.3615 17.4408 14.294 17.4113C14.1865 17.3643 14.1137 17.3407 13.9962 17.3224C13.9884 17.3225 13.9423 17.3215 13.8614 17.3322C13.8315 17.3362 13.804 17.341 13.7833 17.3449C13.7462 17.3706 13.6872 17.4135 13.6055 17.4816C13.1904 17.8275 12.7824 18.1879 12.2618 18.3781C11.825 18.5376 11.2911 18.5924 10.8311 18.5246C10.2885 18.4445 9.86766 18.2042 9.44929 17.9806C7.79271 17.0954 6.82489 16.1282 5.93953 14.4719C5.71591 14.0535 5.47559 13.6318 5.39558 13.089C5.32789 12.6291 5.38262 12.096 5.54207 11.6594C5.63604 11.4021 5.76225 11.1878 5.85261 11.05C5.89969 10.9782 5.9429 10.9186 5.97566 10.8752C5.99202 10.8535 6.00636 10.8347 6.01765 10.8205C6.02317 10.8136 6.02819 10.807 6.0323 10.8019C6.03426 10.7995 6.03652 10.7971 6.03816 10.7951C6.03886 10.7942 6.03953 10.793 6.04011 10.7922L6.04207 10.7912V10.7902H6.04304C6.49189 10.2517 6.53494 10.1765 6.55574 10.1232C6.59116 10.0323 6.60501 9.93424 6.59578 9.83708C6.59035 9.78015 6.56928 9.69705 6.28425 9.05583L5.92781 8.25408C5.66464 7.66205 5.62129 7.59435 5.58699 7.55486C5.5102 7.46656 5.40985 7.40169 5.29792 7.36736C5.24781 7.35209 5.16627 7.34001 4.5196 7.34001ZM12.1036 0.738452C18.2663 0.738692 23.2625 5.73434 23.2628 11.8967C23.2628 13.176 23.0466 14.4083 22.6485 15.5558C22.54 15.8686 22.4181 16.1754 22.2833 16.4748C22.0224 17.0537 21.3408 17.3117 20.7618 17.051C20.183 16.79 19.9249 16.1094 20.1856 15.5304C20.2926 15.293 20.3896 15.0499 20.4757 14.8019C20.7908 13.8936 20.9629 12.9159 20.963 11.8967C20.9627 7.00486 16.9963 3.03947 12.1036 3.03923C11.034 3.03923 10.0107 3.228 9.06453 3.57341C8.93519 3.62063 8.8072 3.6708 8.68074 3.7238C8.58332 3.76465 8.48633 3.80754 8.3907 3.85173C7.81432 4.11797 7.13086 3.86643 6.86433 3.29021C6.5979 2.71372 6.84942 2.03034 7.42585 1.76384C7.54643 1.70812 7.66822 1.65422 7.79109 1.60271C7.95071 1.53579 8.11216 1.4719 8.27546 1.41228C9.47071 0.975951 10.7611 0.738452 12.1036 0.738452ZM12.1026 4.85857C12.7376 4.85857 13.2528 5.37401 13.253 6.00896V10.2092L13.5987 10.5549L13.9405 10.8957L14.3497 11.3058C14.7988 11.7549 14.7987 12.4827 14.3497 12.9318C13.9006 13.3809 13.1728 13.3809 12.7237 12.9318L12.3135 12.5226L11.9727 12.1808L11.2891 11.4982C11.0738 11.2826 10.9522 10.9895 10.9522 10.6847V6.00896C10.9524 5.37412 11.4678 4.85875 12.1026 4.85857Z" fill="currentColor"/>
</g>
<defs>
<clipPath id="clip0_2103_16902">
<rect width="24" height="24" fill="white"/>
</clipPath>
</defs>
</svg>
