<svg width="24" height="24" viewBox="0 0 24 24" fill="none" xmlns="http://www.w3.org/2000/svg">
<g clip-path="url(#clip0_2103_14738)">
<path d="M4.3718 4.34517C4.89377 4.34517 5.40067 4.33382 5.86887 4.47701C6.40588 4.6414 6.88622 4.95351 7.25461 5.3774C7.57564 5.74701 7.7702 6.21494 7.98215 6.69185L8.35325 7.52584C8.5828 8.04233 8.81922 8.53938 8.86985 9.07076C8.91412 9.53657 8.8482 10.0068 8.67844 10.4428C8.48468 10.9401 8.12227 11.3534 7.76047 11.7876C7.29934 12.3409 7.25528 12.4185 7.22922 12.4897C7.19719 12.5776 7.18058 12.7378 7.19407 12.8305C7.20598 12.9113 7.22098 12.9691 7.50754 13.5053C8.21025 14.8203 8.88224 15.4921 10.197 16.1948C10.7331 16.4813 10.7911 16.4973 10.8718 16.5092C10.9645 16.5229 11.1256 16.5062 11.2136 16.4741C11.2849 16.448 11.3621 16.4032 11.9157 15.9419C12.3498 15.5801 12.7632 15.2176 13.2605 15.0239C13.6965 14.8541 14.1668 14.7892 14.6325 14.8335C14.9387 14.8626 15.1933 14.9533 15.3757 15.0288C15.4654 15.0659 15.5525 15.1059 15.6189 15.1362C15.6909 15.1691 15.7469 15.194 15.8025 15.2172C15.9748 15.2893 16.1174 15.3547 16.238 15.4106C16.3614 15.4678 16.4543 15.5119 16.5573 15.5551C16.6818 15.6074 16.8141 15.6617 16.9148 15.7036C16.9646 15.7243 17.0071 15.742 17.0368 15.7544C17.0516 15.7605 17.064 15.7657 17.072 15.769C17.0757 15.7705 17.0788 15.7721 17.0808 15.7729L17.0827 15.7739H17.0837L17.0964 15.7797L17.1101 15.7856L17.6443 16.0219L17.6589 16.0278L17.6736 16.0356C17.777 16.0849 17.9033 16.1444 18.0193 16.2163C18.1575 16.3019 18.2584 16.3899 18.3249 16.4477C18.7492 16.8162 19.0618 17.2971 19.2263 17.8344C19.3694 18.3025 19.3572 18.8087 19.3572 19.3305C19.3572 19.749 19.3581 20.1296 19.3327 20.4497C19.3059 20.7873 19.2453 21.135 19.0847 21.4858C18.7562 22.203 18.085 22.8127 17.3396 23.0708C16.6686 23.303 15.986 23.2134 15.2976 23.1469C10.9447 22.7269 7.43976 21.3086 4.91672 18.7856C2.39392 16.2625 0.975414 12.7575 0.555395 8.40474C0.48897 7.71654 0.400317 7.03356 0.632544 6.36275C0.890717 5.61762 1.49962 4.9461 2.21653 4.61763C2.56717 4.45704 2.91515 4.39741 3.25266 4.37056C3.57261 4.34514 3.95342 4.34517 4.3718 4.34517ZM4.3718 6.64595C3.91777 6.64595 3.64328 6.64604 3.43528 6.66255C3.24487 6.6777 3.19023 6.70224 3.17454 6.70943C3.02844 6.77652 2.85806 6.96384 2.8054 7.11568C2.774 7.20646 2.75991 7.30775 2.84446 8.18404C3.22861 12.1651 4.49769 15.1135 6.54368 17.1596C8.58975 19.2055 11.5374 20.4737 15.5183 20.8579C16.3954 20.9425 16.4968 20.9284 16.5876 20.8969C16.7395 20.8441 16.927 20.6739 16.9939 20.5278C17.0013 20.5116 17.0248 20.4566 17.0398 20.268C17.0563 20.0599 17.0573 19.7849 17.0573 19.3305C17.0573 18.6591 17.0446 18.5677 17.0261 18.5073C16.9878 18.3823 16.9158 18.2698 16.8171 18.184C16.8089 18.1769 16.8012 18.1713 16.7956 18.1665C16.7728 18.1549 16.7397 18.1382 16.6843 18.1118H16.6833L16.196 17.896C16.1947 17.8954 16.1927 17.8947 16.1911 17.894C16.1829 17.8906 16.1708 17.8855 16.156 17.8794C16.1256 17.8668 16.0819 17.8487 16.031 17.8276C15.9292 17.7853 15.7953 17.7288 15.6677 17.6753C15.5185 17.6126 15.3846 17.5505 15.2702 17.4975C15.1531 17.4432 15.0447 17.3932 14.9157 17.3393C14.8209 17.2996 14.7325 17.2589 14.6648 17.228C14.5913 17.1945 14.5411 17.1725 14.4958 17.1538C14.4087 17.1178 14.396 17.1207 14.4148 17.1225C14.3063 17.1122 14.196 17.1279 14.0945 17.1674C14.0301 17.1926 13.945 17.2448 13.3874 17.7094C12.9528 18.0716 12.5352 18.4397 12.0027 18.6342C11.5553 18.7976 11.008 18.854 10.5368 18.7846C9.98159 18.7027 9.55059 18.4569 9.11301 18.2231C7.39693 17.3059 6.39639 16.3056 5.47922 14.5893C5.24547 14.1519 5.00054 13.7215 4.91868 13.1665C4.8493 12.6952 4.90466 12.147 5.06809 11.6997C5.26276 11.1671 5.6317 10.7495 5.99387 10.3149C6.45949 9.75615 6.51079 9.67226 6.53586 9.60787C6.57531 9.50642 6.59009 9.39689 6.57981 9.28853C6.57321 9.21976 6.54663 9.12405 6.25168 8.46041L5.88059 7.62545C5.60808 7.01232 5.55972 6.93389 5.51829 6.88619C5.43258 6.78762 5.3209 6.71453 5.19602 6.67623C5.13557 6.65778 5.04248 6.64595 4.3718 6.64595ZM14.2292 1.85396C15.031 0.465519 16.9984 0.422225 17.8728 1.72408L17.9538 1.85396L20.5896 6.4233C20.9069 6.97331 20.7186 7.67613 20.1687 7.99361C19.6186 8.31105 18.9148 8.12282 18.5974 7.57271L16.0906 3.22896L11.0779 11.9174H21.1052L20.3493 10.6069C20.0323 10.0569 20.2203 9.35394 20.7702 9.03658C21.3202 8.71929 22.024 8.90767 22.3415 9.45748L23.2273 10.9926C24.0542 12.4259 23.0196 14.217 21.365 14.2172H10.8181C9.16337 14.2171 8.12874 12.4259 8.95579 10.9926L14.2292 1.85396ZM16.0915 9.39791C16.7266 9.39794 17.2419 9.91319 17.2419 10.5483V10.5551C17.2417 11.1901 16.7265 11.7045 16.0915 11.7045C15.4565 11.7045 14.9414 11.1901 14.9411 10.5551V10.5483C14.9411 9.91317 15.4564 9.39791 16.0915 9.39791ZM16.0915 4.70455C16.7264 4.70477 17.2418 5.22002 17.2419 5.85494V8.01216C17.2418 8.64705 16.7264 9.16135 16.0915 9.16158C15.4565 9.16158 14.9413 8.64719 14.9411 8.01216V5.85494C14.9412 5.21988 15.4564 4.70455 16.0915 4.70455Z" fill="currentColor"/>
</g>
<defs>
<clipPath id="clip0_2103_14738">
<rect width="24" height="24" fill="white"/>
</clipPath>
</defs>
</svg>
