<svg width="24" height="24" viewBox="0 0 24 24" fill="none" xmlns="http://www.w3.org/2000/svg">
<path d="M15.3069 2.69922C15.7857 2.70295 16.1903 2.72267 16.5725 2.81445C17.5301 3.04448 18.3747 3.60786 18.9553 4.40332C19.2641 4.82651 19.4687 5.33626 19.7424 5.99316L20.6428 8.1543L21.4983 7.51367C22.0063 7.13276 22.7276 7.2353 23.1086 7.74316C23.4897 8.25123 23.3862 8.97242 22.8782 9.35352L21.7102 10.2285L21.802 10.3662C22.4313 11.3102 22.8851 11.9704 23.1174 12.7373C23.3496 13.5045 23.3381 14.3064 23.3381 15.4414V18.623C23.3381 18.8523 23.3387 19.0854 23.3245 19.2832C23.3094 19.4924 23.2732 19.7504 23.1555 20.0176C22.9389 20.5089 22.5463 20.9017 22.0549 21.1182C21.7876 21.2359 21.5298 21.272 21.3206 21.2871C21.1226 21.3014 20.8898 21.3008 20.6604 21.3008C20.4308 21.3008 20.1974 21.3014 19.9993 21.2871C19.7901 21.272 19.5322 21.2359 19.2649 21.1182C18.7736 20.9017 18.3809 20.5089 18.1643 20.0176C18.0466 19.7504 18.0105 19.4924 17.9954 19.2832C17.9811 19.0854 17.9817 18.8523 17.9817 18.623C17.9817 18.4546 17.9769 18.3373 17.9749 18.25C17.8877 18.248 17.7716 18.2441 17.6038 18.2441H6.39673C6.22785 18.2441 6.11103 18.248 6.02368 18.25C6.02164 18.3373 6.01782 18.4546 6.01782 18.623C6.01783 18.8523 6.01937 19.0854 6.00513 19.2832C5.99003 19.4924 5.95387 19.7504 5.83618 20.0176C5.6196 20.5091 5.22617 20.9017 4.73462 21.1182C4.46754 21.2358 4.21032 21.272 4.00122 21.2871C3.80315 21.3014 3.56964 21.3008 3.34009 21.3008C3.11052 21.3008 2.87704 21.3014 2.67896 21.2871C2.46987 21.272 2.21265 21.2357 1.94556 21.1182C1.45403 20.9017 1.06058 20.509 0.843994 20.0176C0.726308 19.7504 0.690141 19.4924 0.675049 19.2832C0.660805 19.0854 0.661375 18.8523 0.661377 18.623V15.4414C0.661377 14.3064 0.650853 13.5045 0.883057 12.7373C1.11537 11.9704 1.56914 11.3102 2.19849 10.3662L2.28931 10.2295L1.12134 9.35352C0.613594 8.97236 0.510873 8.25113 0.891846 7.74316C1.27299 7.2355 1.99426 7.1328 2.5022 7.51367L3.43188 8.21094L5.46509 4.09961C5.7467 3.5306 6.43593 3.29773 7.00513 3.5791C7.5743 3.8606 7.80794 4.54987 7.52661 5.11914L5.51294 9.19141L5.927 9.2959C5.99435 9.31274 6.06363 9.32127 6.13306 9.32129H17.8665C17.9358 9.32129 18.0052 9.31269 18.0725 9.2959L18.5735 9.16992L17.6194 6.87793C17.3002 6.11194 17.2076 5.90924 17.0979 5.75879C16.8391 5.40423 16.4622 5.15332 16.0354 5.05078C15.8543 5.00731 15.6321 5 14.802 5H9.99634C9.36135 5 8.84617 4.48455 8.84595 3.84961C8.84595 3.21448 9.36121 2.69922 9.99634 2.69922H15.3069ZM18.6311 11.5273C18.3812 11.5898 18.124 11.6211 17.8665 11.6211H6.13306C5.87562 11.6211 5.61913 11.5898 5.36938 11.5273L4.35669 11.2734L4.11255 11.6416C3.40862 12.6975 3.19516 13.0379 3.08423 13.4043C2.97339 13.7706 2.96216 14.1725 2.96216 15.4414V18.623C2.96216 18.7907 2.96503 18.9071 2.96704 18.9941C3.05441 18.9962 3.1711 19.001 3.34009 19.001C3.50789 19.001 3.62402 18.9962 3.71118 18.9941C3.7132 18.9071 3.71801 18.7907 3.71802 18.623C3.71802 18.3937 3.71746 18.1599 3.73169 17.9619C3.74676 17.7528 3.78299 17.4948 3.90063 17.2275L3.9895 17.0479C4.21638 16.6405 4.57127 16.3165 5.00122 16.127L5.19946 16.0527C5.3945 15.9922 5.57864 15.9693 5.7356 15.958C5.93369 15.9437 6.16714 15.9443 6.39673 15.9443H17.6038C17.8331 15.9443 18.066 15.9438 18.2639 15.958C18.4208 15.9693 18.6051 15.9923 18.8 16.0527L18.9983 16.127L19.178 16.2158C19.5272 16.4103 19.8155 16.6987 20.01 17.0479L20.0999 17.2275L20.1731 17.4258C20.2335 17.6207 20.2565 17.8051 20.2678 17.9619C20.2821 18.1599 20.2815 18.3936 20.2815 18.623C20.2815 18.7907 20.2853 18.9071 20.2874 18.9941C20.3747 18.9962 20.4916 19.001 20.6604 19.001C20.8282 19.001 20.9444 18.9962 21.0315 18.9941C21.0335 18.9071 21.0383 18.7907 21.0383 18.623V15.4414C21.0383 14.1727 21.0271 13.7706 20.9163 13.4043C20.8053 13.0379 20.5918 12.6974 19.8879 11.6416L19.6428 11.2734L18.6311 11.5273ZM5.88794 12.6943C6.52278 12.6946 7.03817 13.2099 7.03833 13.8447V13.8545C7.03833 14.4895 6.52288 15.0047 5.88794 15.0049C5.25281 15.0049 4.73755 14.4896 4.73755 13.8545V13.8447C4.73771 13.2097 5.25291 12.6943 5.88794 12.6943ZM18.1135 12.6943C18.7485 12.6944 19.2637 13.2098 19.2639 13.8447V13.8545C19.2639 14.4896 18.7486 15.0048 18.1135 15.0049C17.4784 15.0049 16.9631 14.4896 16.9631 13.8545V13.8447C16.9633 13.2097 17.4785 12.6943 18.1135 12.6943Z" fill="currentColor"/>
</svg>
