<svg width="24" height="24" viewBox="0 0 24 24" fill="none" xmlns="http://www.w3.org/2000/svg">
<g clip-path="url(#clip0_2103_12287)">
<path d="M18.6089 9.55176C21.3082 9.55176 23.4965 11.7412 23.4966 14.4404C23.4965 15.7573 22.9745 16.9522 22.1294 17.8301L22.5483 19.1484C22.6811 19.5667 22.7854 19.9634 22.853 20.3096C22.9141 20.6223 22.9681 21.0019 22.9302 21.335C22.821 22.2941 22.1051 23.4238 20.8296 23.4297C20.3894 23.4316 20.0127 23.2343 19.8052 23.1201C19.5593 22.9848 19.2585 22.7904 18.9253 22.5762C18.7687 22.4755 18.6789 22.4185 18.6099 22.3779C18.5484 22.3419 18.5377 22.3388 18.5483 22.3428C18.4946 22.323 18.4468 22.3229 18.3931 22.3428C18.4043 22.3386 18.3938 22.3414 18.3315 22.3779C18.2625 22.4185 18.1727 22.4755 18.0161 22.5762C17.6829 22.7904 17.3821 22.9848 17.1362 23.1201C16.9287 23.2343 16.5526 23.4316 16.1128 23.4297C14.8372 23.4239 14.1214 22.2942 14.0122 21.335C13.9743 21.0019 14.0273 20.6223 14.0884 20.3096C14.1561 19.9633 14.2612 19.5668 14.394 19.1484L14.812 17.8301C13.967 16.9523 13.4459 15.7571 13.4458 14.4404C13.4458 11.7412 15.6333 9.55186 18.3325 9.55176H18.6089ZM14.4712 0.570312C17.3154 0.570383 19.6215 2.87654 19.6216 5.7207V6.71094C19.6214 7.34586 19.1061 7.86028 18.4712 7.86035C17.8362 7.86035 17.321 7.3459 17.3208 6.71094V5.7207C17.3207 4.1468 16.0451 2.87116 14.4712 2.87109H5.65381C4.07984 2.87109 2.80427 4.14675 2.8042 5.7207V18.2793C2.80427 19.8533 4.07984 21.1289 5.65381 21.1289H10.9585C11.5935 21.129 12.1088 21.6443 12.1089 22.2793C12.1088 22.9143 11.5935 23.4287 10.9585 23.4287H5.65381C2.80958 23.4287 0.503487 21.1235 0.503418 18.2793V5.7207C0.503491 2.8765 2.80959 0.570312 5.65381 0.570312H14.4712ZM20.1157 19.0898C19.6408 19.2437 19.134 19.3281 18.6089 19.3281H18.3325C17.807 19.3281 17.3 19.2439 16.8247 19.0898L16.5864 19.8447C16.4732 20.2012 16.3931 20.5107 16.3462 20.751C16.332 20.8234 16.3247 20.8832 16.3179 20.9307C16.4397 20.8545 16.5878 20.76 16.772 20.6416C17.0243 20.4793 17.2974 20.296 17.5962 20.1855C18.1643 19.9756 18.7771 19.9758 19.3452 20.1855C19.644 20.296 19.9171 20.4793 20.1694 20.6416C20.3535 20.76 20.5017 20.8545 20.6235 20.9307C20.6167 20.8832 20.6103 20.8233 20.5962 20.751C20.5492 20.5108 20.4691 20.2011 20.356 19.8447L20.1157 19.0898ZM18.3325 11.8525C16.904 11.8526 15.7456 13.0111 15.7456 14.4404C15.7457 15.3 16.1635 16.0618 16.812 16.5342C17.2386 16.8448 17.7628 17.0283 18.3325 17.0283H18.6089C19.1787 17.0283 19.7028 16.8448 20.1294 16.5342C20.7781 16.0618 21.1966 15.3001 21.1968 14.4404C21.1967 13.011 20.0375 11.8525 18.6089 11.8525H18.3325ZM8.76221 12.127C9.39711 12.127 9.91223 12.6416 9.9126 13.2764C9.9126 13.9115 9.39733 14.4268 8.76221 14.4268H5.87842C5.24346 14.4266 4.72803 13.9114 4.72803 13.2764C4.7284 12.6417 5.24369 12.1272 5.87842 12.127H8.76221ZM12.6079 7.61133C13.2429 7.61133 13.7581 8.12672 13.7583 8.76172C13.7583 9.39685 13.243 9.91211 12.6079 9.91211H5.87842C5.24346 9.9119 4.72803 9.39672 4.72803 8.76172C4.72818 8.12685 5.24356 7.61153 5.87842 7.61133H12.6079Z" fill="currentColor"/>
</g>
<defs>
<clipPath id="clip0_2103_12287">
<rect width="24" height="24" fill="white"/>
</clipPath>
</defs>
</svg>
