<svg width="24" height="24" viewBox="0 0 24 24" fill="none" xmlns="http://www.w3.org/2000/svg">
<path d="M10.759 1.02979C12.0125 1.02979 13.2246 1.05934 14.3694 1.11377C15.0037 1.14395 15.4932 1.68258 15.4631 2.31689C15.4329 2.95126 14.8944 3.44176 14.26 3.41162C13.1527 3.35898 11.9772 3.33057 10.759 3.33057C9.47537 3.33057 8.2393 3.36122 7.08032 3.41943C5.96537 3.47544 5.28221 3.51456 4.76489 3.63721C4.32379 3.74186 4.07082 3.89323 3.82739 4.18115C3.56995 4.48571 3.41223 4.83472 3.31177 5.43018C3.20332 6.07331 3.17572 6.90146 3.13794 8.15869C3.11573 8.89795 3.10474 9.66432 3.10474 10.4497C3.10474 11.2351 3.11572 12.0015 3.13794 12.7407C3.17572 13.998 3.20332 14.8261 3.31177 15.4692C3.41223 16.0647 3.56995 16.4137 3.82739 16.7183C4.0708 17.0061 4.32383 17.1576 4.76489 17.2622C5.28221 17.3849 5.9654 17.424 7.08032 17.48C7.1503 17.4835 7.22068 17.4864 7.29126 17.4897C7.90456 17.5186 8.38679 18.0242 8.38696 18.6382V19.9165L9.40161 18.896C9.81642 18.4784 10.2288 18.037 10.7581 17.8003C11.3062 17.5552 11.9125 17.5627 12.468 17.5503C13.1448 17.5352 13.8036 17.5119 14.4387 17.48C15.5537 17.424 16.2368 17.3849 16.7542 17.2622C17.1951 17.1576 17.4473 17.006 17.6907 16.7183C17.8884 16.4844 17.998 16.3368 18.1418 16.0698C18.3585 15.6677 18.4342 15.4661 18.4934 15.1128C18.5243 14.9286 18.5261 14.8236 18.5256 14.7798C18.3892 14.2705 18.6188 13.7171 19.1057 13.4634C19.669 13.1701 20.3641 13.3884 20.6575 13.9517L19.6692 14.4663C20.6565 13.9522 20.658 13.9527 20.6584 13.9536L20.6614 13.9595C20.6625 13.9616 20.6632 13.9641 20.6643 13.9663C20.6668 13.9713 20.6697 13.9769 20.6721 13.9819C20.677 13.992 20.6821 14.0027 20.6868 14.0132C20.6961 14.034 20.7055 14.0554 20.7141 14.0776C20.7314 14.1224 20.7464 14.1702 20.76 14.2202C20.7872 14.3204 20.8068 14.4318 20.8176 14.5552C20.839 14.7999 20.827 15.1055 20.762 15.4937C20.6493 16.1656 20.4634 16.6092 20.1663 17.1606C19.9275 17.6037 19.7178 17.8839 19.4475 18.2036C18.841 18.9208 18.131 19.2988 17.2854 19.4995C16.5159 19.6821 15.5874 19.725 14.554 19.7769C13.8968 19.8099 13.2164 19.8346 12.5188 19.8501C12.1756 19.8577 11.9815 19.8621 11.8362 19.8765C11.7712 19.8829 11.7351 19.8896 11.7161 19.894C11.7075 19.896 11.7027 19.8982 11.7004 19.8989C11.699 19.8994 11.6979 19.8997 11.6975 19.8999C11.6536 19.9195 11.5833 19.9636 11.0334 20.5171L9.1145 22.4487C8.80058 22.7647 8.36504 22.9702 7.88013 22.9702C6.72406 22.9702 6.08725 21.9378 6.08716 21.0659V19.728C5.40248 19.6862 4.77825 19.6287 4.23364 19.4995C3.38799 19.2989 2.67804 18.9208 2.07153 18.2036C1.47905 17.5028 1.19308 16.7345 1.04419 15.8521C0.903388 15.0173 0.875038 14.0056 0.839111 12.8101C0.816195 12.0474 0.803956 11.2578 0.803955 10.4497C0.803955 9.64163 0.816195 8.85197 0.839111 8.08936C0.875038 6.89379 0.903394 5.88209 1.04419 5.04736C1.19308 4.16485 1.47904 3.39662 2.07153 2.6958C2.67805 1.97857 3.38797 1.60054 4.23364 1.3999C5.00318 1.21734 5.93158 1.17447 6.96509 1.12256C8.16379 1.06235 9.43829 1.02979 10.759 1.02979ZM18.6028 14.9858L18.6135 15.0073C18.6141 15.0083 18.615 15.0092 18.6155 15.0103L18.6165 15.0122L18.5901 14.9575C18.5941 14.9665 18.5982 14.9765 18.6028 14.9858ZM19.719 1.36377C20.3584 1.36377 20.9477 1.64753 21.3801 2.12061L22.6633 3.34619C22.696 3.37737 22.7274 3.411 22.7561 3.4458C23.0161 3.76075 23.1792 4.14165 23.1946 4.56592C23.209 4.96756 23.0873 5.30732 22.9612 5.55518C22.741 5.98794 22.3404 6.4249 22.178 6.62158L18.3479 11.2593C18.0895 11.5722 17.8147 11.8877 17.4641 12.1382C17.1102 12.3911 16.7394 12.5328 16.3293 12.6382L16.3303 12.6392L14.0325 13.3706C13.6554 13.4905 13.2427 13.4085 12.9407 13.1528C12.6387 12.8971 12.4892 12.5035 12.5452 12.1118L12.8938 9.67627L12.8977 9.65186C13.0692 8.61407 13.4937 7.63604 14.1428 6.8501L17.9729 2.21338C18.4109 1.68312 19.038 1.36389 19.719 1.36377ZM8.27759 10.3823C8.91245 10.3825 9.42774 10.8969 9.42798 11.5317C9.42798 12.1668 8.91259 12.682 8.27759 12.6821H6.18579C5.55066 12.6821 5.0354 12.1669 5.0354 11.5317C5.03564 10.8968 5.55081 10.3823 6.18579 10.3823H8.27759ZM15.9163 8.31494C15.5473 8.76177 15.2782 9.35515 15.1672 10.0269L15.0823 10.6226L15.6331 10.4478L15.7112 10.4253C15.9753 10.3613 16.0665 10.3088 16.1262 10.2661C16.2116 10.2051 16.3239 10.0979 16.5745 9.79443L20.4045 5.15674C20.4689 5.07882 20.536 4.99857 20.592 4.93213C20.6512 4.86199 20.7031 4.80157 20.7493 4.74365C20.7563 4.73485 20.7623 4.72556 20.7688 4.71729L19.7844 3.77686C19.7617 3.75509 19.7409 3.73107 19.72 3.70752L15.9163 8.31494ZM11.0676 5.94971C11.7023 5.95006 12.2169 6.46533 12.217 7.1001C12.217 7.73501 11.7025 8.25013 11.0676 8.25049H6.18579C5.55066 8.25049 5.0354 7.73523 5.0354 7.1001C5.03557 6.46512 5.55077 5.94971 6.18579 5.94971H11.0676Z" fill="currentColor"/>
</svg>
