<svg width="24" height="24" viewBox="0 0 24 24" fill="none" xmlns="http://www.w3.org/2000/svg">
<path d="M11.177 1.02979C12.4303 1.02979 13.6426 1.05935 14.7874 1.11377C15.4214 1.14411 15.9109 1.68285 15.8811 2.31689C15.8509 2.95119 15.3122 3.44158 14.678 3.41162C13.5708 3.35898 12.395 3.33057 11.177 3.33057C9.89347 3.33057 8.65716 3.36123 7.49829 3.41943C6.38364 3.47542 5.70013 3.51463 5.18286 3.63721C4.74196 3.74181 4.48868 3.89349 4.24536 4.18115C3.98796 4.48564 3.8302 4.83496 3.72974 5.43018C3.62129 6.07326 3.59368 6.90163 3.55591 8.15869C3.5337 8.89786 3.52271 9.66443 3.52271 10.4497C3.52271 11.235 3.5337 12.0015 3.55591 12.7407C3.59368 13.9978 3.62132 14.8261 3.72974 15.4692C3.8302 16.0647 3.98792 16.4137 4.24536 16.7183C4.48878 17.0062 4.74176 17.1576 5.18286 17.2622C5.70015 17.3848 6.38352 17.424 7.49829 17.48C7.56818 17.4835 7.63876 17.4864 7.70923 17.4897C8.32226 17.5188 8.80456 18.0245 8.80493 18.6382V19.9165L9.81958 18.896C10.2343 18.4785 10.6469 18.0369 11.176 17.8003C11.7241 17.5554 12.3306 17.5627 12.886 17.5503C13.5626 17.5352 14.2217 17.5119 14.8567 17.48C15.9714 17.424 16.6549 17.3849 17.1721 17.2622C17.6129 17.1576 17.8654 17.006 18.1086 16.7183C18.3061 16.4847 18.416 16.3366 18.5598 16.0698C18.7763 15.668 18.8522 15.466 18.9114 15.1128C18.9558 14.8476 18.9767 14.6123 18.9856 14.4458C18.99 14.3635 18.9919 14.2992 18.9924 14.2583V14.2114C18.9794 13.5768 19.4827 13.0511 20.1174 13.0376C20.752 13.0243 21.2774 13.5281 21.2913 14.1626V14.1646L21.2922 14.1655V14.2876C21.2914 14.3566 21.2887 14.4524 21.2825 14.5688C21.27 14.8017 21.2416 15.1256 21.1799 15.4937C21.0673 16.1655 20.8812 16.6094 20.5842 17.1606C20.3455 17.6036 20.1356 17.884 19.8655 18.2036C19.2591 18.9207 18.5488 19.2988 17.7034 19.4995C16.934 19.682 16.0052 19.725 14.9719 19.7769C14.3148 19.8099 13.6343 19.8346 12.9368 19.8501C12.5939 19.8577 12.3994 19.8621 12.2542 19.8765C12.1897 19.8828 12.1532 19.8896 12.134 19.894C12.126 19.8959 12.1208 19.8981 12.1184 19.8989C12.1173 19.8993 12.116 19.8997 12.1155 19.8999C12.0716 19.9195 12.0009 19.9639 11.4514 20.5171L9.53247 22.4487C9.21862 22.7647 8.78289 22.9701 8.2981 22.9702C7.14199 22.9702 6.50518 21.9378 6.50513 21.0659V19.728C5.82054 19.6862 5.19617 19.6287 4.65161 19.4995C3.80593 19.2989 3.09602 18.9208 2.4895 18.2036C1.89702 17.5028 1.61105 16.7346 1.46216 15.8521C1.3214 15.0174 1.293 14.0055 1.25708 12.8101C1.23417 12.0475 1.22192 11.2577 1.22192 10.4497C1.22193 9.64173 1.23417 8.85188 1.25708 8.08936C1.293 6.89392 1.32137 5.88201 1.46216 5.04736C1.61107 4.16501 1.89709 3.39651 2.4895 2.6958C3.09595 1.97883 3.80609 1.6005 4.65161 1.3999C5.42107 1.21743 6.34974 1.17446 7.38306 1.12256C8.58166 1.06236 9.85639 1.02979 11.177 1.02979ZM16.717 3.55322C17.058 2.40732 18.7581 2.44588 19.0081 3.66846C19.2986 5.08995 20.4098 6.20113 21.8313 6.4917C23.0934 6.74985 23.0935 8.55293 21.8313 8.81104C20.4098 9.10159 19.2986 10.2128 19.0081 11.6343C18.7499 12.8964 16.9469 12.8964 16.6887 11.6343C16.3981 10.2128 15.2869 9.10161 13.8655 8.81104C12.6032 8.55296 12.6032 6.74972 13.8655 6.4917L14.1282 6.42725C15.4226 6.06057 16.4163 5.00112 16.6887 3.66846L16.717 3.55322ZM6.38501 10.5005C6.93725 10.5005 7.38494 10.9483 7.38501 11.5005C7.38501 12.0528 6.93729 12.5005 6.38501 12.5005C5.83273 12.5005 5.38501 12.0528 5.38501 11.5005C5.38508 10.9483 5.83277 10.5005 6.38501 10.5005ZM9.62622 10.5005C10.1785 10.5005 10.6262 10.9483 10.6262 11.5005C10.6262 12.0528 10.1785 12.5005 9.62622 12.5005C9.07401 12.5004 8.62622 12.0527 8.62622 11.5005C8.62629 10.9483 9.07405 10.5006 9.62622 10.5005ZM13.0989 10.5005C13.6511 10.5005 14.0988 10.9483 14.0989 11.5005C14.0989 12.0528 13.6512 12.5005 13.0989 12.5005C12.5468 12.5003 12.0989 12.0527 12.0989 11.5005C12.0989 10.9484 12.5468 10.5007 13.0989 10.5005ZM17.8479 6.53369C17.527 6.95424 17.1513 7.33 16.7307 7.65088C17.1512 7.97168 17.527 8.34763 17.8479 8.76807C18.1687 8.34762 18.5446 7.9717 18.9651 7.65088C18.5446 7.33 18.1687 6.9542 17.8479 6.53369Z" fill="currentColor"/>
</svg>
