<svg width="24" height="24" viewBox="0 0 24 24" fill="none" xmlns="http://www.w3.org/2000/svg">
<path fill-rule="evenodd" clip-rule="evenodd" d="M6.46543 14.8397C7.00388 14.5034 7.7128 14.6676 8.04942 15.2059C8.38604 15.7445 8.22277 16.4542 7.68418 16.7908C6.92082 17.2681 6.14228 18.3242 5.51231 19.4266C5.21241 19.9514 4.97139 20.442 4.80528 20.8006C4.72254 20.9793 4.65887 21.1242 4.6168 21.2225C4.59587 21.2714 4.57992 21.3087 4.56993 21.3328C4.56493 21.3449 4.56134 21.3539 4.55918 21.3592C4.55826 21.3615 4.55761 21.3631 4.55723 21.3641L4.48399 21.5145C4.29064 21.8477 3.93964 22.0658 3.54747 22.0858C3.09926 22.1084 2.67844 21.8682 2.47032 21.4705C2.30255 21.1501 2.02777 20.8439 1.7584 20.6004C1.62929 20.4838 1.51248 20.3917 1.43126 20.3309C1.39115 20.3009 1.36023 20.2785 1.34141 20.2655C1.33429 20.2605 1.32918 20.256 1.32579 20.2537L1.32481 20.2547L1.32286 20.2528L1.3209 20.2518C0.792238 19.9041 0.643204 19.1936 0.988872 18.6629C1.33558 18.131 2.04864 17.9806 2.58067 18.327V18.328H2.58165L2.58262 18.3289L2.58458 18.3299C2.58614 18.3309 2.58839 18.3325 2.59043 18.3338C2.59463 18.3366 2.59997 18.3405 2.60606 18.3446C2.61828 18.3528 2.63466 18.3634 2.65391 18.3768C2.69299 18.404 2.74657 18.4425 2.81016 18.4901C2.91902 18.5716 3.06051 18.6849 3.21934 18.8241C3.31106 18.6511 3.40973 18.4706 3.51524 18.286C4.16559 17.1479 5.1803 15.643 6.46543 14.8397ZM22.0455 18.5477C22.6806 18.5477 23.1959 19.0629 23.1959 19.6981C23.1957 20.333 22.6805 20.8485 22.0455 20.8485H11.2281C10.5933 20.8482 10.078 20.3328 10.0777 19.6981C10.0777 19.0631 10.5932 18.5479 11.2281 18.5477H22.0455ZM22.0455 10.8494C22.6806 10.8494 23.1959 11.3647 23.1959 11.9998C23.1958 12.6349 22.6806 13.1502 22.0455 13.1502H11.2281C10.5933 13.15 10.0779 12.6347 10.0777 11.9998C10.0777 11.3648 10.5932 10.8497 11.2281 10.8494H22.0455ZM6.46543 2.08577C7.00389 1.7495 7.71281 1.91373 8.04942 2.45198C8.38604 2.99057 8.22277 3.70032 7.68418 4.03694C6.92082 4.51422 6.14228 5.57029 5.51231 6.67268C5.21241 7.19752 4.97139 7.68806 4.80528 8.04671C4.72254 8.22535 4.65887 8.37027 4.6168 8.46858C4.59587 8.5175 4.57992 8.55475 4.56993 8.57893C4.56493 8.59102 4.56133 8.60001 4.55918 8.6053C4.55827 8.60756 4.55761 8.60924 4.55723 8.61018L4.48399 8.76057C4.29064 9.0938 3.93964 9.31191 3.54747 9.33186C3.09926 9.35444 2.67844 9.11427 2.47032 8.71663C2.30255 8.39614 2.02778 8.08995 1.7584 7.84651C1.62928 7.72985 1.51248 7.63779 1.43126 7.57698C1.39115 7.54697 1.36023 7.52464 1.34141 7.51155C1.33428 7.50658 1.32918 7.50213 1.32579 7.49983L1.32481 7.50081L1.32286 7.49886L1.3209 7.49788C0.792235 7.15016 0.643214 6.4397 0.988872 5.90901C1.33559 5.37708 2.04864 5.22664 2.58067 5.57307V5.57405H2.58165L2.58262 5.57503L2.58458 5.576C2.58614 5.57703 2.58838 5.57855 2.59043 5.57991C2.59463 5.58269 2.59997 5.58655 2.60606 5.59065C2.61828 5.59887 2.63466 5.6095 2.65391 5.62288C2.69299 5.65005 2.74656 5.68855 2.81016 5.73616C2.91902 5.81766 3.06051 5.93095 3.21934 6.07014C3.31105 5.89724 3.40973 5.7167 3.51524 5.53206C4.16559 4.39395 5.1803 2.88906 6.46543 2.08577ZM22.0455 3.1512C22.6806 3.1512 23.1959 3.66646 23.1959 4.30159C23.1957 4.93651 22.6805 5.45198 22.0455 5.45198H11.2281C10.5933 5.45176 10.078 4.93637 10.0777 4.30159C10.0777 3.6666 10.5932 3.15142 11.2281 3.1512H22.0455Z" fill="currentColor"/>
</svg>
