<svg width="24" height="24" viewBox="0 0 24 24" fill="none" xmlns="http://www.w3.org/2000/svg">
<g>
<path d="M6.46558 14.8399C7.00403 14.5036 7.71295 14.6679 8.04956 15.2061C8.38618 15.7447 8.22291 16.4545 7.68433 16.7911C6.92096 17.2684 6.14243 18.3244 5.51245 19.4268C5.21255 19.9517 4.97153 20.4422 4.80542 20.8008C4.72268 20.9795 4.65901 21.1244 4.61694 21.2227C4.59601 21.2716 4.58006 21.3089 4.57007 21.3331C4.56507 21.3452 4.56148 21.3541 4.55933 21.3594C4.55841 21.3617 4.55775 21.3634 4.55737 21.3643L4.48413 21.5147C4.29079 21.8479 3.93978 22.066 3.54761 22.086C3.0994 22.1086 2.67858 21.8684 2.47046 21.4708C2.30269 21.1503 2.02791 20.8441 1.75854 20.6006C1.62943 20.484 1.51262 20.3919 1.4314 20.3311C1.3913 20.3011 1.36037 20.2788 1.34155 20.2657C1.33443 20.2607 1.32932 20.2563 1.32593 20.254L1.32495 20.2549L1.323 20.253L1.32104 20.252C0.79238 19.9043 0.643346 19.1938 0.989014 18.6631C1.33573 18.1312 2.04878 17.9808 2.58081 18.3272V18.3282H2.58179L2.58276 18.3292L2.58472 18.3301C2.58628 18.3312 2.58853 18.3327 2.59058 18.334C2.59477 18.3368 2.60011 18.3407 2.6062 18.3448C2.61842 18.353 2.6348 18.3636 2.65405 18.377C2.69313 18.4042 2.74671 18.4427 2.8103 18.4903C2.91916 18.5718 3.06065 18.6851 3.21948 18.8243C3.3112 18.6514 3.40987 18.4708 3.51538 18.2862C4.16573 17.1481 5.18044 15.6432 6.46558 14.8399ZM22.0457 18.5479C22.6808 18.5479 23.196 19.0632 23.196 19.6983C23.1958 20.3332 22.6806 20.8487 22.0457 20.8487H11.2283C10.5935 20.8485 10.0781 20.3331 10.0779 19.6983C10.0779 19.0633 10.5933 18.5481 11.2283 18.5479H22.0457ZM22.0457 10.8497C22.6808 10.8497 23.196 11.3649 23.196 12.0001C23.1959 12.6351 22.6807 13.1505 22.0457 13.1505H11.2283C10.5934 13.1502 10.078 12.635 10.0779 12.0001C10.0779 11.3651 10.5933 10.8499 11.2283 10.8497H22.0457ZM6.46558 2.086C7.00403 1.74973 7.71295 1.91395 8.04956 2.45221C8.38618 2.9908 8.22291 3.70055 7.68433 4.03717C6.92096 4.51445 6.14242 5.57052 5.51245 6.67291C5.21255 7.19774 4.97153 7.68829 4.80542 8.04694C4.72268 8.22558 4.65901 8.3705 4.61694 8.46881C4.59601 8.51773 4.58006 8.55498 4.57007 8.57916C4.56508 8.59125 4.56148 8.60024 4.55933 8.60553C4.55841 8.60779 4.55775 8.60947 4.55737 8.61041L4.48413 8.7608C4.29078 9.09403 3.93978 9.31214 3.54761 9.33209C3.0994 9.35467 2.67858 9.1145 2.47046 8.71686C2.30269 8.39637 2.02792 8.09018 1.75854 7.84674C1.62942 7.73008 1.51263 7.63802 1.4314 7.57721C1.39129 7.54719 1.36037 7.52486 1.34155 7.51178C1.33443 7.50681 1.32932 7.50236 1.32593 7.50006L1.32495 7.50104L1.323 7.49908L1.32104 7.49811C0.792377 7.15039 0.643355 6.43993 0.989014 5.90924C1.33573 5.37731 2.04878 5.22687 2.58081 5.5733V5.57428H2.58179L2.58276 5.57526L2.58472 5.57623C2.58628 5.57726 2.58852 5.57878 2.59058 5.58014C2.59477 5.58292 2.60011 5.58678 2.6062 5.59088C2.61842 5.5991 2.6348 5.60973 2.65405 5.62311C2.69313 5.65028 2.74671 5.68878 2.8103 5.73639C2.91916 5.81789 3.06065 5.93118 3.21948 6.07037C3.3112 5.89747 3.40987 5.71693 3.51538 5.53229C4.16573 4.39418 5.18045 2.88929 6.46558 2.086ZM22.0457 3.15143C22.6808 3.15143 23.196 3.66669 23.196 4.30182C23.1958 4.93674 22.6806 5.45221 22.0457 5.45221H11.2283C10.5935 5.45199 10.0781 4.9366 10.0779 4.30182C10.0779 3.66683 10.5933 3.15165 11.2283 3.15143H22.0457Z" fill="currentColor"/>
</g>
</svg>
