<svg width="24" height="24" viewBox="0 0 24 24" fill="none" xmlns="http://www.w3.org/2000/svg">
<g clip-path="url(#clip0_2103_12626)">
<path d="M12.6367 0.589844C16.5454 0.745913 19.8349 3.29776 21.083 6.81543C22.2735 7.09276 23.1611 8.15866 23.1611 9.43359C23.1609 10.5901 22.4296 11.5732 21.4053 11.9531C20.9109 14.2161 19.5976 16.1716 17.793 17.4971C18.8965 18.7769 19.5673 20.4441 19.5674 22.2676C19.5672 22.9025 19.052 23.4179 18.417 23.418C17.7822 23.4178 17.2668 22.9024 17.2666 22.2676C17.2665 20.8441 16.6737 19.5609 15.7188 18.6475C14.6477 19.074 13.4801 19.3105 12.2568 19.3105C11.0329 19.3105 9.86429 19.0744 8.79297 18.6475C7.83853 19.5609 7.24619 20.8445 7.24609 22.2676C7.24589 22.9025 6.7307 23.418 6.0957 23.418C5.46088 23.4178 4.94552 22.9024 4.94531 22.2676C4.94539 20.4444 5.61568 18.7768 6.71875 17.4971C4.95236 16.1987 3.65842 14.2953 3.1416 12.0918C1.8401 11.9036 0.839191 10.7871 0.838867 9.43359C0.838867 7.97274 2.00374 6.7855 3.45508 6.74609C4.7627 3.15114 8.20825 0.582074 12.2568 0.582031L12.6367 0.589844ZM12.2559 5.66504C10.9569 7.69497 8.68535 9.04276 6.09668 9.04297H4.55566C4.51179 9.04295 4.46838 9.03996 4.42578 9.03516C4.38492 9.03959 4.3436 9.04295 4.30176 9.04297H3.5293C3.31387 9.04303 3.13965 9.21816 3.13965 9.43359C3.14 9.64873 3.31409 9.82318 3.5293 9.82324H4.10645L4.21387 9.82812C4.7458 9.87776 5.17977 10.2915 5.24707 10.8311C5.68157 14.3144 8.65547 17.0107 12.2568 17.0107C15.8582 17.0106 18.8321 14.3144 19.2666 10.8311L19.2842 10.7246C19.3992 10.203 19.8636 9.82338 20.4072 9.82324H20.4707C20.6858 9.82311 20.861 9.64869 20.8613 9.43359C20.8613 9.2182 20.6861 9.0431 20.4707 9.04297H20.2119C20.1695 9.04295 20.1273 9.0397 20.0859 9.03516C20.0439 9.03983 20.0013 9.04295 19.958 9.04297H18.417C15.8279 9.04281 13.5548 7.69543 12.2559 5.66504ZM13.2471 13.0781C13.7374 12.6769 14.4603 12.7478 14.8633 13.2373C15.2666 13.7276 15.1962 14.4519 14.7061 14.8555L13.9756 13.9678L14.7051 14.8564L14.7041 14.8574C14.7034 14.858 14.702 14.8587 14.7012 14.8594C14.6994 14.8608 14.6974 14.8626 14.6953 14.8643C14.691 14.8678 14.6856 14.8723 14.6797 14.877C14.6677 14.8864 14.652 14.8984 14.6338 14.9121C14.5971 14.9399 14.547 14.9762 14.4863 15.0176C14.3658 15.0998 14.1962 15.2064 13.9873 15.3125C13.5806 15.519 12.9617 15.7568 12.2344 15.7568C11.5037 15.7568 10.8924 15.5168 10.4893 15.3047C10.2831 15.1962 10.1162 15.0875 9.99805 15.0029C9.93876 14.9605 9.8906 14.9233 9.85449 14.8945C9.83639 14.8801 9.82066 14.8675 9.80859 14.8574C9.80268 14.8525 9.7974 14.8475 9.79297 14.8438C9.79089 14.842 9.78885 14.8404 9.78711 14.8389L9.7832 14.835H9.78223C9.78364 14.8328 9.81836 14.7928 10.5381 13.9678L9.78223 14.834C9.30377 14.4164 9.25439 13.6905 9.67188 13.2119C10.0893 12.7337 10.8144 12.6846 11.293 13.1016V13.1006L11.29 13.0977C11.289 13.0968 11.2879 13.0963 11.2871 13.0957C11.2857 13.0945 11.2847 13.0932 11.2842 13.0928C11.2848 13.0933 11.2862 13.0942 11.2881 13.0957C11.2957 13.1018 11.3127 13.1155 11.3369 13.1328C11.3862 13.168 11.4634 13.2184 11.5605 13.2695C11.7645 13.3768 12.0012 13.457 12.2344 13.457C12.471 13.457 12.7229 13.3746 12.9453 13.2617C13.0507 13.2082 13.1354 13.1547 13.1904 13.1172C13.2172 13.0989 13.2365 13.0854 13.2461 13.0781L13.251 13.0742L13.2471 13.0781ZM15.3369 9.41309C15.972 9.41309 16.4873 9.92835 16.4873 10.5635V10.5732C16.4873 11.2084 15.972 11.7236 15.3369 11.7236C14.7018 11.7236 14.1865 11.2083 14.1865 10.5732V10.5635C14.1865 9.92838 14.7018 9.41313 15.3369 9.41309ZM9.17676 9.40234C9.81156 9.40254 10.3269 9.91795 10.3271 10.5527V10.5625C10.3271 11.1975 9.81172 11.7127 9.17676 11.7129C8.54163 11.7129 8.02637 11.1976 8.02637 10.5625V10.5527C8.02662 9.91782 8.54179 9.40234 9.17676 9.40234ZM10.9414 3.00586C8.76257 3.41622 6.93703 4.82668 5.95996 6.74316H6.09668C8.42344 6.74289 10.3779 5.15594 10.9414 3.00586ZM13.5703 3.00586C14.1337 5.15619 16.09 6.74296 18.417 6.74316H18.5537C17.5765 4.82614 15.7499 3.41587 13.5703 3.00586Z" fill="currentColor"/>
</g>
<defs>
<clipPath id="clip0_2103_12626">
<rect width="24" height="24" fill="white"/>
</clipPath>
</defs>
</svg>
