<svg width="24" height="24" viewBox="0 0 24 24" fill="none" xmlns="http://www.w3.org/2000/svg">
<g clip-path="url(#clip0_2103_12254)">
<path d="M12 0.534668C13.7388 0.534677 15.3907 0.923436 16.8701 1.61865C17.3012 1.82126 17.7177 2.0497 18.1172 2.30225L18.5107 2.56201L18.5254 2.57275L18.6846 2.68701L18.7598 2.74463L18.832 2.80615C19.3168 3.21638 19.3769 3.94241 18.9668 4.42725C18.5565 4.91175 17.8314 4.97212 17.3467 4.56201L17.3047 4.52588L17.2031 4.45459L16.8877 4.24658C16.5683 4.04469 16.2358 3.86147 15.8916 3.69971C14.7119 3.14533 13.3937 2.83546 12 2.83545C6.93939 2.83548 2.83702 6.93856 2.83691 12.0005C2.83699 17.0624 6.93937 21.1655 12 21.1655C17.0606 21.1655 21.164 17.0624 21.1641 12.0005C21.1641 11.5115 21.1251 11.0319 21.0518 10.5649C20.9717 10.0556 20.8496 9.56003 20.6895 9.08252C20.4904 8.48934 20.2324 7.92258 19.9219 7.39014C19.6023 6.84162 19.7876 6.13782 20.3359 5.81787C20.8845 5.49806 21.5892 5.6834 21.9092 6.23193C22.2976 6.89814 22.6207 7.60765 22.8701 8.35107C23.0709 8.94963 23.224 9.57082 23.3242 10.2085C23.416 10.7929 23.4639 11.3917 23.4639 12.0005C23.4638 18.3323 18.3312 23.4653 12 23.4653C5.66875 23.4653 0.536204 18.3323 0.536133 12.0005C0.536235 5.66867 5.66877 0.534703 12 0.534668ZM12.001 6.19971C12.6357 6.19996 13.1511 6.71532 13.1514 7.3501V11.5239L15.6426 14.0161C16.0914 14.4651 16.0911 15.193 15.6426 15.6421C15.1935 16.0911 14.4657 16.091 14.0166 15.6421L11.1875 12.814C10.9719 12.5983 10.8506 12.3055 10.8506 12.0005V7.3501C10.8508 6.71516 11.366 6.19971 12.001 6.19971Z" fill="currentColor"/>
</g>
<defs>
<clipPath id="clip0_2103_12254">
<rect width="24" height="24" fill="white"/>
</clipPath>
</defs>
</svg>
