<svg width="24" height="24" viewBox="0 0 24 24" fill="none" xmlns="http://www.w3.org/2000/svg">
<g clip-path="url(#clip0_2252_9617)">
<path d="M18.2974 0.522461C20.9695 0.522634 23.136 2.68918 23.1362 5.36133V5.83691C23.1362 6.47192 22.6208 6.98721 21.9858 6.9873C21.3509 6.98718 20.8365 6.4719 20.8364 5.83691V5.36133C20.8362 3.95944 19.6993 2.82342 18.2974 2.82324H8.64893C7.07491 2.82324 5.79932 4.09884 5.79932 5.67285V18.3271C5.79939 19.9011 7.07496 21.1777 8.64893 21.1777H17.9858C19.5597 21.1776 20.8363 19.901 20.8364 18.3271V10.418C20.8366 9.78306 21.3509 9.26868 21.9858 9.26855C22.6208 9.26865 23.1361 9.78304 23.1362 10.418V18.3271C23.1362 21.1713 20.83 23.4774 17.9858 23.4775H8.64893C6.46055 23.4775 4.59218 22.1116 3.84619 20.1865H2.01416C1.37938 20.1863 0.863963 19.6719 0.86377 19.0371C0.86377 18.4021 1.37926 17.887 2.01416 17.8867H3.49854V13.1504H2.01416C1.37929 13.1501 0.863829 12.6349 0.86377 12C0.863966 11.3652 1.37938 10.8508 2.01416 10.8506H3.49854V6.11426H2.01416C1.37929 6.114 0.863829 5.59878 0.86377 4.96387C0.86377 4.3289 1.37926 3.81374 2.01416 3.81348H3.84619C4.59212 1.88826 6.46046 0.522461 8.64893 0.522461H18.2974ZM14.7827 13.6699C17.4209 13.67 19.56 15.8091 19.5601 18.4473C19.5598 19.082 19.0454 19.5973 18.4106 19.5977C17.8152 19.5977 17.3251 19.1444 17.2661 18.5645L17.2476 18.1934C17.1205 16.9445 16.0651 15.9708 14.7827 15.9707H11.8813C10.599 15.9708 9.54444 16.9445 9.41748 18.1934L9.39893 18.5645C9.33998 19.1443 8.84972 19.5975 8.25439 19.5977C7.61942 19.5977 7.10425 19.0822 7.104 18.4473C7.10408 15.8091 9.24314 13.67 11.8813 13.6699H14.7827ZM13.353 4.40332C15.7357 4.40332 17.6673 6.33514 17.6675 8.71777C17.6674 11.1005 15.7358 13.0322 13.353 13.0322C10.9705 13.0319 9.03864 11.1004 9.03857 8.71777C9.0388 6.33533 10.9706 4.40362 13.353 4.40332ZM13.353 6.7041C12.2409 6.7044 11.3396 7.60559 11.3394 8.71777C11.3394 9.8301 12.2408 10.7321 13.353 10.7324C14.4656 10.7324 15.3676 9.83029 15.3677 8.71777C15.3674 7.6054 14.4655 6.7041 13.353 6.7041Z" fill="currentColor"/>
</g>
<defs>
<clipPath id="clip0_2252_9617">
<rect width="24" height="24" fill="white"/>
</clipPath>
</defs>
</svg>
