<svg width="24" height="24" viewBox="0 0 24 24" fill="none" xmlns="http://www.w3.org/2000/svg">
<path d="M16.1604 0.542969C16.7953 0.543229 17.3108 1.05839 17.3108 1.69336V3.61816H17.594C20.4381 3.6183 22.7433 5.92448 22.7434 8.76855V13.9023C22.7432 14.5372 22.2289 15.0516 21.594 15.0518C20.959 15.0517 20.4438 14.5373 20.4436 13.9023V8.76855C20.4435 7.19474 19.1678 5.91908 17.594 5.91895H17.3108V7.78027C17.3106 8.41507 16.7952 8.9304 16.1604 8.93066C15.5254 8.93066 15.0102 8.41523 15.01 7.78027V5.91895H8.99048V7.78027C8.99027 8.41523 8.47509 8.93066 7.84009 8.93066C7.20526 8.93046 6.6899 8.4151 6.6897 7.78027V5.91895H6.40649C4.83261 5.91899 3.55702 7.19469 3.55688 8.76855V18.3066C3.55688 19.8806 4.83253 21.1562 6.40649 21.1562H17.594C19.1679 21.1561 20.4436 19.8806 20.4436 18.3066V17.4111C20.4439 16.7763 20.9591 16.2618 21.594 16.2617C22.2288 16.2619 22.7431 16.7764 22.7434 17.4111V18.3066C22.7434 21.1508 20.4381 23.4569 17.594 23.457H6.40649C3.56227 23.457 1.2561 21.1509 1.2561 18.3066V8.76855C1.25624 5.92443 3.56235 3.61821 6.40649 3.61816H6.6897V1.69336C6.6897 1.05836 7.20513 0.543171 7.84009 0.542969C8.47522 0.542969 8.99048 1.05823 8.99048 1.69336V3.61816H15.01V1.69336C15.01 1.05823 15.5253 0.542969 16.1604 0.542969ZM16.4817 14.4463C17.1165 14.4467 17.6311 14.9618 17.6311 15.5967V17.0693C17.6308 17.704 17.1163 18.2184 16.4817 18.2188H15.009C14.3741 18.2188 13.8589 17.7042 13.8586 17.0693V15.5967C13.8586 14.9616 14.3739 14.4463 15.009 14.4463H16.4817Z" fill="currentColor"/>
</svg>
