<svg width="24" height="24" viewBox="0 0 24 24" fill="none" xmlns="http://www.w3.org/2000/svg">
<g clip-path="url(#clip0_2103_12960)">
<path d="M5.28467 0.927246C5.91945 0.927647 6.43408 1.44276 6.43408 2.07764V10.2651C6.72265 10.1385 6.99058 9.96496 7.22021 9.74072C7.72079 9.25175 8.11561 8.46762 8.11572 7.28857V2.07861C8.11572 1.44364 8.63022 0.928473 9.26514 0.928223C9.90026 0.928227 10.4155 1.44349 10.4155 2.07861V7.28857C10.4154 9.02 9.81695 10.4198 8.82764 11.3862C8.14501 12.0529 7.30883 12.4791 6.43408 12.6763V22.0269C6.43385 22.6615 5.91931 23.1759 5.28467 23.1763C4.64969 23.1763 4.13451 22.6618 4.13428 22.0269V12.6733C3.26517 12.4747 2.43506 12.049 1.75635 11.3862C0.766988 10.4198 0.167646 9.02001 0.16748 7.28857V2.07861C0.167481 1.44349 0.682744 0.928223 1.31787 0.928223C1.95299 0.928227 2.46826 1.44349 2.46826 2.07861V7.28857C2.46842 8.46735 2.86231 9.25172 3.36279 9.74072C3.58848 9.96111 3.85138 10.1321 4.13428 10.2583V2.07764C4.13428 1.44251 4.64954 0.927246 5.28467 0.927246ZM22.2485 1.27686C22.8833 1.27709 23.3987 1.79243 23.3989 2.42725C23.3989 3.06223 22.8835 3.5774 22.2485 3.57764C17.5816 3.57788 13.7988 7.36098 13.7983 12.0278C13.7983 16.6951 17.5814 20.4788 22.2485 20.479C22.8833 20.4792 23.3987 20.9946 23.3989 21.6294C23.3989 22.2643 22.8834 22.7796 22.2485 22.7798C16.3111 22.7795 11.4976 17.9653 11.4976 12.0278C11.498 6.09072 16.3114 1.2771 22.2485 1.27686ZM22.2485 5.54541C22.8836 5.54553 23.3989 6.06075 23.3989 6.6958C23.3987 7.33068 22.8834 7.84607 22.2485 7.84619C19.9378 7.84619 18.0649 9.71908 18.0649 12.0298C18.0652 14.3403 19.938 16.2134 22.2485 16.2134C22.8836 16.2135 23.3989 16.7287 23.3989 17.3638C23.3986 17.9986 22.8834 18.5131 22.2485 18.5132C18.6677 18.5132 15.7644 15.6105 15.7642 12.0298C15.7642 8.44882 18.6676 5.54541 22.2485 5.54541Z" fill="currentColor"/>
</g>
<defs>
<clipPath id="clip0_2103_12960">
<rect width="24" height="24" fill="white"/>
</clipPath>
</defs>
</svg>
