<svg width="24" height="24" viewBox="0 0 24 24" fill="none" xmlns="http://www.w3.org/2000/svg">
<path d="M15.0349 2.35547C15.2067 2.35547 15.3779 2.36143 15.5476 2.37207C15.9511 2.39737 16.4361 2.42097 16.867 2.54785C17.3833 2.70003 17.8007 2.9841 18.1589 3.42969C18.6909 4.09147 18.8018 4.82714 18.8357 5.55957C18.865 6.194 18.3744 6.73235 17.74 6.76172C17.1059 6.79071 16.5683 6.30017 16.5388 5.66602C16.5115 5.07699 16.4309 4.95182 16.366 4.87109C16.3144 4.80698 16.2854 4.78491 16.2771 4.7793C16.2706 4.7749 16.2562 4.76658 16.2166 4.75488C16.1682 4.74064 16.0886 4.72333 15.948 4.70801C15.8042 4.69235 15.6351 4.68154 15.4031 4.66699C15.2814 4.65938 15.1585 4.65625 15.0349 4.65625H15.033C13.5556 4.65391 12.0995 5.22601 10.8972 6.31152V20.4941C10.8969 20.963 10.6114 21.3853 10.1765 21.5605C10.0457 21.6132 9.90896 21.6366 9.7732 21.6396C9.74966 21.6411 9.72582 21.6436 9.70191 21.6436C9.29004 21.6435 8.93047 21.426 8.7273 21.1006C7.493 19.9095 5.96526 19.2817 4.41578 19.2842H4.41383C3.80869 19.2842 3.28785 19.2849 2.88746 19.2549C2.53972 19.2288 2.00204 19.1698 1.57008 18.8438C1.45408 18.7562 1.32181 18.6466 1.1941 18.4961C1.06912 18.3487 0.981365 18.2005 0.912849 18.0742C0.699096 17.6802 0.645783 17.2398 0.621834 16.8809C0.59662 16.5024 0.596443 16.0209 0.596443 15.457V6.71777C0.596443 6.075 0.594283 5.47912 0.661873 4.97949C0.735723 4.43424 0.902586 3.91152 1.2898 3.42969C1.6481 2.98402 2.06534 2.70003 2.58179 2.54785C3.01275 2.4209 3.49757 2.39738 3.90113 2.37207C4.07088 2.36143 4.24203 2.35547 4.41383 2.35547V2.35645C6.34553 2.3538 8.1958 3.04687 9.72437 4.28809C11.253 3.04712 13.1033 2.35379 15.0349 2.35645V2.35547ZM19.6892 7.64941C20.3654 7.64942 20.9882 7.95292 21.4441 8.45996L22.8552 9.81641L22.947 9.91504C23.2185 10.246 23.3864 10.6421 23.4021 11.0801C23.4168 11.4953 23.2909 11.8492 23.158 12.1123C22.9235 12.5759 22.4973 13.0445 22.3103 13.2725L18.0896 18.416C17.8055 18.7622 17.5109 19.1013 17.1384 19.3691C16.7585 19.6423 16.3594 19.7981 15.9089 19.9131L13.3894 20.7197C13.0124 20.8403 12.5992 20.7592 12.2966 20.5039C11.9942 20.2486 11.8446 19.8547 11.9002 19.4629L12.2849 16.7617C12.286 16.7538 12.2866 16.7452 12.2878 16.7373C12.4733 15.6077 12.9326 14.5447 13.6326 13.6914L17.8533 8.54883C18.3144 7.98685 18.9735 7.64949 19.6892 7.64941ZM4.04469 4.66699C3.81271 4.68154 3.64455 4.69235 3.50074 4.70801C3.35989 4.72335 3.2806 4.74063 3.23219 4.75488C3.19237 4.76662 3.17812 4.7749 3.17164 4.7793C3.16315 4.7851 3.1331 4.80726 3.08179 4.87109C3.0303 4.93529 2.97695 5.02394 2.94117 5.28809C2.89919 5.59854 2.89722 6.01382 2.89722 6.71777V15.457C2.89722 16.0543 2.89784 16.4448 2.91676 16.7285C2.92384 16.8344 2.93325 16.9052 2.94019 16.9492C2.97267 16.953 3.01199 16.9584 3.05933 16.9619C3.20609 16.9729 3.38374 16.9785 3.60523 16.9814L4.41383 16.9844C5.87417 16.9824 7.28762 17.3792 8.55152 18.1084V6.31152C7.34916 5.22585 5.89324 4.65392 4.41578 4.65625H4.41383C4.29005 4.65625 4.16657 4.65935 4.04469 4.66699ZM19.6316 10.0078L15.4109 15.1504C14.9893 15.6644 14.6831 16.3442 14.5574 17.1104L14.4353 17.9697L15.2195 17.7188C15.2453 17.7105 15.2723 17.7027 15.2986 17.6963C15.5976 17.6234 15.7139 17.5607 15.7957 17.502C15.9034 17.4245 16.0358 17.294 16.3123 16.957L20.532 11.8135C20.6023 11.7278 20.6768 11.6397 20.739 11.5654C20.804 11.4879 20.8611 11.4189 20.9128 11.3535C20.95 11.3066 20.9798 11.2634 21.0056 11.2275L19.8396 10.1064C19.8073 10.0753 19.7763 10.0425 19.7478 10.0078C19.7215 9.97577 19.6997 9.96153 19.6892 9.95508C19.6786 9.96164 19.6576 9.97614 19.6316 10.0078Z" fill="currentColor"/>
</svg>
