<svg width="24" height="24" viewBox="0 0 24 24" fill="none" xmlns="http://www.w3.org/2000/svg">
<g>
<g>
<path d="M15.0349 2.35547C15.2067 2.35547 15.3779 2.36143 15.5476 2.37207C15.9511 2.39737 16.4361 2.42098 16.8669 2.54785C17.3833 2.70003 17.8007 2.9841 18.1589 3.42969C18.6909 4.09147 18.8018 4.82714 18.8357 5.55957C18.865 6.194 18.3744 6.73235 17.74 6.76172C17.1059 6.79071 16.5683 6.30016 16.5388 5.66602C16.5115 5.07699 16.4309 4.95182 16.366 4.87109C16.3144 4.80698 16.2853 4.78491 16.2771 4.7793C16.2706 4.7749 16.2562 4.76658 16.2166 4.75488C16.1681 4.74064 16.0886 4.72333 15.948 4.70801C15.8042 4.69235 15.6351 4.68154 15.4031 4.66699C15.2814 4.65938 15.1585 4.65625 15.0349 4.65625H15.033C13.5558 4.65391 12.0994 5.22531 10.8972 6.31055V20.4941C10.8969 20.963 10.6114 21.3853 10.1765 21.5605C10.0453 21.6134 9.9083 21.6367 9.77222 21.6396C9.74899 21.6411 9.72548 21.6435 9.7019 21.6436C9.28985 21.6435 8.92943 21.4262 8.72632 21.1006C7.4921 19.9098 5.96504 19.2817 4.41577 19.2842H4.41382C3.80868 19.2842 3.28784 19.2849 2.88745 19.2549C2.53971 19.2288 2.00204 19.1698 1.57007 18.8438C1.45408 18.7562 1.32181 18.6466 1.19409 18.4961C1.06911 18.3486 0.981358 18.2005 0.912842 18.0742C0.699088 17.6802 0.645776 17.2398 0.621826 16.8809C0.596612 16.5024 0.596435 16.0209 0.596436 15.457V6.71777C0.596436 6.075 0.594276 5.47912 0.661865 4.97949C0.735716 4.43424 0.902581 3.91152 1.28979 3.42969C1.64809 2.98402 2.06534 2.70004 2.58179 2.54785C3.01274 2.4209 3.49756 2.39738 3.90112 2.37207C4.07087 2.36143 4.24203 2.35547 4.41382 2.35547C6.34507 2.35282 8.19502 3.04644 9.72339 4.28711C11.252 3.04608 13.1033 2.35379 15.0349 2.35645V2.35547ZM19.6892 7.64941C20.3654 7.64942 20.9881 7.95292 21.4441 8.45996L22.8552 9.81641L22.947 9.91504C23.2185 10.246 23.3864 10.6421 23.4021 11.0801C23.4168 11.4953 23.2909 11.8492 23.158 12.1123C22.9235 12.5759 22.4973 13.0445 22.3103 13.2725L18.0896 18.416C17.8055 18.7622 17.5108 19.1013 17.1384 19.3691C16.7585 19.6423 16.3594 19.7981 15.9089 19.9131L13.3894 20.7197C13.0124 20.8403 12.5991 20.7592 12.2966 20.5039C11.9942 20.2486 11.8446 19.8547 11.9001 19.4629L12.2849 16.7617C12.286 16.7538 12.2866 16.7452 12.2878 16.7373C12.4733 15.6077 12.9326 14.5447 13.6326 13.6914L17.8533 8.54883C18.3144 7.98685 18.9735 7.64949 19.6892 7.64941ZM4.04468 4.66699C3.8127 4.68154 3.64454 4.69235 3.50073 4.70801C3.35989 4.72335 3.28059 4.74063 3.23218 4.75488C3.19237 4.76662 3.17811 4.7749 3.17163 4.7793C3.16313 4.78511 3.13308 4.80728 3.08179 4.87109C3.03029 4.93529 2.97694 5.02395 2.94116 5.28809C2.89918 5.59854 2.89722 6.01382 2.89722 6.71777V15.457C2.89722 16.0543 2.89783 16.4448 2.91675 16.7285C2.92383 16.8344 2.93325 16.9052 2.94019 16.9492C2.97267 16.953 3.01198 16.9584 3.05933 16.9619C3.20609 16.9729 3.38373 16.9785 3.60522 16.9814L4.41382 16.9844C5.87417 16.9824 7.28761 17.3792 8.55151 18.1084V6.31055C7.34924 5.22516 5.89304 4.65392 4.41577 4.65625H4.41382C4.29004 4.65625 4.16656 4.65935 4.04468 4.66699ZM19.6316 10.0078L15.4109 15.1504C14.9893 15.6644 14.6831 16.3442 14.5574 17.1104L14.4353 17.9697L15.2195 17.7188C15.2453 17.7105 15.2723 17.7027 15.2986 17.6963C15.5976 17.6234 15.7139 17.5607 15.7957 17.502C15.9033 17.4245 16.0358 17.294 16.3123 16.957L20.532 11.8135C20.6023 11.7278 20.6768 11.6397 20.739 11.5654C20.804 11.4879 20.861 11.4189 20.9128 11.3535C20.95 11.3066 20.9798 11.2634 21.0056 11.2275L19.8396 10.1064C19.8073 10.0753 19.7763 10.0425 19.7478 10.0078C19.7215 9.97577 19.6997 9.96153 19.6892 9.95508C19.6786 9.96164 19.6576 9.97615 19.6316 10.0078Z" fill="currentColor"/>
</g>
</g>
</svg>
