<svg width="24" height="24" viewBox="0 0 24 24" fill="none" xmlns="http://www.w3.org/2000/svg">
<path d="M10.0887 3.35072C8.94919 4.40629 8.38085 5.72146 8.38085 7.34425V10.2544H5.90462C4.88029 10.2544 4.6665 10.4553 4.6665 11.4184V13.1645C4.6665 14.1275 4.88029 14.3285 5.90462 14.3285H8.38085V21.3128C8.38085 22.2758 8.59464 22.4768 9.61897 22.4768H12.0952C13.1195 22.4768 13.3333 22.2758 13.3333 21.3128V19.5667V17.8206V16.0746V14.3285H16.1138C16.8906 14.3285 17.0908 14.1865 17.3042 13.4842L17.8349 11.7382C18.2005 10.5352 17.9752 10.2544 16.6444 10.2544H13.3333V7.34425C13.3333 6.70137 13.8876 6.18021 14.5714 6.18021H18.0953C19.1196 6.18021 19.3334 5.97922 19.3334 5.01617V2.68809C19.3334 1.72504 19.1196 1.52405 18.0953 1.52405H14.5714C14.0887 1.52405 13.6188 1.576 13.1678 1.67429" stroke="currentColor" stroke-width="2.3" stroke-linecap="round" stroke-linejoin="round"/>
</svg>
