<svg width="24" height="24" viewBox="0 0 24 24" fill="none" xmlns="http://www.w3.org/2000/svg">
<path d="M3.90063 4.28043C4.77537 3.17397 6.14444 2.53739 7.95435 2.6984C8.58684 2.75473 9.0544 3.31301 8.99829 3.94547C8.94196 4.57793 8.38365 5.04548 7.75122 4.98941C6.65083 4.89147 6.06046 5.25581 5.70435 5.70621C5.29901 6.219 5.0853 6.99402 5.08521 7.80972V8.92789H9.47583V7.82926C9.47591 6.68189 9.76567 5.34406 10.5911 4.29996C11.4658 3.19361 12.8349 2.55685 14.6448 2.71793C15.277 2.7745 15.7448 3.33271 15.6887 3.965C15.6324 4.59731 15.0739 5.06474 14.4417 5.00894C13.3413 4.91094 12.7509 5.27543 12.3948 5.72574C11.9894 6.23854 11.7757 7.0135 11.7756 7.82926V8.92789H13.9094C14.5444 8.92801 15.0587 9.44334 15.0588 10.0783C15.0588 10.7133 14.5445 11.2286 13.9094 11.2287H11.7756V20.1759C11.7756 20.8107 11.2609 21.3258 10.6262 21.3263C9.99111 21.3263 9.47585 20.811 9.47583 20.1759V11.2287H5.08521V20.1564C5.08518 20.7914 4.5707 21.3066 3.93579 21.3068C3.30079 21.3067 2.78543 20.7914 2.7854 20.1564V11.2287H1.67603C1.04094 11.2286 0.525636 10.7134 0.525635 10.0783C0.525789 9.44331 1.04103 8.92793 1.67603 8.92789H2.7854V7.80972C2.78549 6.6624 3.0753 5.32451 3.90063 4.28043ZM18.0745 12.2628C19.3916 11.2747 21.2756 11.3718 22.4807 12.5548C23.8058 13.8558 23.8058 15.9737 22.4807 17.2746C22.0275 17.7192 21.2996 17.7121 20.8547 17.2589C20.4101 16.8058 20.4164 16.0778 20.8694 15.633C21.2762 15.2336 21.2762 14.5949 20.8694 14.1955C20.4507 13.7848 19.7635 13.7847 19.345 14.1955L18.9827 14.5509C18.4784 15.0459 17.6705 15.0459 17.1663 14.5509L16.804 14.1955C16.3853 13.7848 15.6981 13.7847 15.2795 14.1955C14.8728 14.5948 14.8728 15.2336 15.2795 15.633L15.2903 15.6437L15.3 15.6545L18.0745 18.5216L18.1487 18.4455L18.5989 17.9796C19.0405 17.5236 19.7685 17.5118 20.2249 17.9533C20.6812 18.3949 20.6928 19.1228 20.2512 19.5793L19.801 20.0441L18.9016 20.9748C18.685 21.1987 18.386 21.3254 18.0745 21.3254C17.763 21.3253 17.4649 21.1986 17.2483 20.9748L13.6682 17.2746L13.5481 17.1505C12.3444 15.8425 12.3847 13.8152 13.6682 12.5548C14.8732 11.3719 16.7573 11.275 18.0745 12.2628Z" fill="currentColor"/>
</svg>
