<svg width="24" height="24" viewBox="0 0 24 24" fill="none" xmlns="http://www.w3.org/2000/svg">
<g>
<path d="M3.90063 4.28012C4.77537 3.17373 6.14452 2.5371 7.95435 2.69809C8.58673 2.75441 9.05423 3.31282 8.99829 3.94516C8.94196 4.57762 8.38365 5.04517 7.75122 4.9891C6.65094 4.89118 6.06047 5.25556 5.70435 5.7059C5.29902 6.21863 5.08535 6.99378 5.08521 7.80941V8.92856H9.47583V7.82895C9.47597 6.68165 9.76575 5.34366 10.5911 4.29965C11.4659 3.19341 12.835 2.55655 14.6448 2.71762C15.2769 2.77416 15.7446 3.33252 15.6887 3.96469C15.6324 4.59701 15.0739 5.06445 14.4417 5.00863C13.3415 4.91064 12.751 5.27521 12.3948 5.72543C11.9894 6.23817 11.7758 7.0133 11.7756 7.82895V8.92856H13.9094C14.5444 8.92867 15.0588 9.44389 15.0588 10.0789C15.0586 10.7138 14.5443 11.2292 13.9094 11.2293H11.7756V20.1756C11.7756 20.8104 11.2609 21.3255 10.6262 21.326C9.99111 21.326 9.47585 20.8107 9.47583 20.1756V11.2293H5.08521V20.1561C5.08518 20.7911 4.5707 21.3062 3.93579 21.3065C3.30079 21.3064 2.78543 20.7911 2.7854 20.1561V11.2293H1.67603C1.04107 11.2293 0.525858 10.7139 0.525635 10.0789C0.52565 9.44386 1.04094 8.9286 1.67603 8.92856H2.7854V7.80941C2.78554 6.66213 3.07533 5.32412 3.90063 4.28012ZM18.0745 12.2625C19.3915 11.2745 21.2756 11.3716 22.4807 12.5545C23.8058 13.8554 23.8058 15.9734 22.4807 17.2743C22.0275 17.7189 21.2996 17.7118 20.8547 17.2586C20.4103 16.8054 20.4164 16.0775 20.8694 15.6327C21.2761 15.2333 21.2762 14.5945 20.8694 14.1952C20.4507 13.7847 19.7635 13.7845 19.345 14.1952L18.9827 14.5506C18.4784 15.0456 17.6705 15.0456 17.1663 14.5506L16.804 14.1952C16.3853 13.7847 15.6981 13.7845 15.2795 14.1952C14.8728 14.5945 14.873 15.2332 15.2795 15.6327L15.2903 15.6434L15.3 15.6541L18.0745 18.5213L18.1487 18.4452L18.5989 17.9793C19.0405 17.5235 19.7686 17.5117 20.2249 17.953C20.6811 18.3946 20.6927 19.1225 20.2512 19.5789L19.801 20.0438L18.9016 20.9745C18.685 21.1984 18.386 21.325 18.0745 21.325C17.763 21.325 17.4649 21.1983 17.2483 20.9745L13.6682 17.2743L13.5481 17.1502C12.3446 15.8421 12.3847 13.8148 13.6682 12.5545C14.8732 11.3717 16.7574 11.2748 18.0745 12.2625Z" fill="currentColor"/>
</g>
</svg>
