<svg width="24" height="24" viewBox="0 0 24 24" fill="none" xmlns="http://www.w3.org/2000/svg">
<path fill-rule="evenodd" clip-rule="evenodd" d="M18.4375 11.4683C19.0724 11.4685 19.5869 11.9837 19.5869 12.6187V15.1246H22.334C22.9686 15.1249 23.483 15.6394 23.4834 16.274C23.4834 16.9089 22.9689 17.4241 22.334 17.4244H19.5869V20.3912C19.5867 21.026 19.0723 21.5404 18.4375 21.5406C17.8026 21.5405 17.2873 21.0261 17.2871 20.3912V17.4244H14.5664C13.9313 17.4244 13.416 16.9091 13.416 16.274C13.4164 15.6392 13.9315 15.1246 14.5664 15.1246H17.2871V12.6187C17.2871 11.9837 17.8024 11.4684 18.4375 11.4683ZM7.50293 2.46053C7.7113 2.45697 7.92616 2.46414 8.14746 2.48201C8.78043 2.53323 9.25229 3.08827 9.20117 3.72127C9.20109 3.72227 9.20028 3.7232 9.2002 3.7242C9.19999 3.72663 9.20041 3.72957 9.2002 3.73201C9.14364 4.36425 8.5854 4.83201 7.95312 4.77596C7.81696 4.76383 7.68856 4.75811 7.56738 4.75935C7.5651 4.75937 7.56282 4.75933 7.56055 4.75935C6.70023 4.76992 6.20579 5.10129 5.8916 5.49861C5.48326 6.01534 5.26758 6.79617 5.26758 7.61678V8.74471H9.69043V7.63631C9.69043 6.48419 9.98133 5.14037 10.8096 4.09236C11.6874 2.98198 13.0617 2.34275 14.8789 2.50447C15.5113 2.56087 15.9789 3.11915 15.9229 3.75154C15.8663 4.38378 15.308 4.85147 14.6758 4.79549C13.5682 4.69683 12.9734 5.06393 12.6143 5.51814C12.2059 6.03487 11.9902 6.81564 11.9902 7.63631V8.74471H13.96C14.5951 8.7447 15.1103 9.26002 15.1104 9.8951C15.1104 10.5302 14.5951 11.0455 13.96 11.0455H11.9902V20.0426L11.9844 20.1597C11.9255 20.7396 11.4361 21.1928 10.8408 21.1929C10.2454 21.1929 9.75515 20.7397 9.69629 20.1597L9.69043 20.0426V11.0455H5.26758V20.023L5.26172 20.1402C5.2028 20.72 4.71351 21.1733 4.11816 21.1734C3.52274 21.1734 3.03252 20.7201 2.97363 20.1402L2.96777 20.023V11.0455H1.66699C1.03192 11.0454 0.516603 10.5302 0.516602 9.8951C0.516671 9.26007 1.03197 8.74478 1.66699 8.74471H2.96777V7.24275C2.96777 6.15804 3.27181 4.897 4.12305 3.92049C4.89643 3.03352 6.02198 2.49576 7.46191 2.4615C7.47329 2.46121 7.48468 2.46075 7.49609 2.46053H7.50293Z" fill="currentColor"/>
</svg>
