<svg width="24" height="24" viewBox="0 0 24 24" fill="none" xmlns="http://www.w3.org/2000/svg">
<g>
<path d="M18.4375 11.4684C19.0724 11.4686 19.5869 11.9838 19.5869 12.6188V15.1247H22.334C22.9686 15.125 23.483 15.6395 23.4834 16.2741C23.4834 16.909 22.9689 17.4242 22.334 17.4245H19.5869V20.3913C19.5867 21.0261 19.0723 21.5405 18.4375 21.5407C17.8026 21.5406 17.2873 21.0262 17.2871 20.3913V17.4245H14.5664C13.9313 17.4245 13.416 16.9092 13.416 16.2741C13.4164 15.6393 13.9315 15.1247 14.5664 15.1247H17.2871V12.6188C17.2871 11.9837 17.8024 11.4685 18.4375 11.4684ZM7.50293 2.46062C7.7113 2.45706 7.92616 2.46423 8.14746 2.4821C8.78043 2.53333 9.25229 3.08836 9.20117 3.72136C9.20109 3.72236 9.20028 3.72329 9.2002 3.72429C9.19999 3.72673 9.20041 3.72966 9.2002 3.7321C9.14364 4.36434 8.5854 4.8321 7.95312 4.77605C7.81696 4.76392 7.68856 4.7582 7.56738 4.75945C7.5651 4.75947 7.56282 4.75942 7.56055 4.75945C6.70023 4.77001 6.20579 5.10138 5.8916 5.4987C5.48326 6.01543 5.26758 6.79626 5.26758 7.61687V8.7448H9.69043V7.6364C9.69043 6.48428 9.98133 5.14046 10.8096 4.09245C11.6874 2.98207 13.0617 2.34284 14.8789 2.50456C15.5113 2.56096 15.9789 3.11924 15.9229 3.75163C15.8663 4.38387 15.308 4.85156 14.6758 4.79558C13.5682 4.69693 12.9734 5.06402 12.6143 5.51823C12.2059 6.03496 11.9902 6.81574 11.9902 7.6364V8.7448H13.96C14.5951 8.7448 15.1103 9.26011 15.1104 9.89519C15.1104 10.5303 14.5951 11.0456 13.96 11.0456H11.9902V20.0426L11.9844 20.1598C11.9255 20.7397 11.4361 21.1929 10.8408 21.193C10.2454 21.193 9.75515 20.7398 9.69629 20.1598L9.69043 20.0426V11.0456H5.26758V20.0231L5.26172 20.1403C5.2028 20.7201 4.71351 21.1734 4.11816 21.1735C3.52274 21.1735 3.03252 20.7202 2.97363 20.1403L2.96777 20.0231V11.0456H1.66699C1.03192 11.0455 0.516603 10.5303 0.516602 9.89519C0.516671 9.26016 1.03197 8.74487 1.66699 8.7448H2.96777V7.24284C2.96777 6.15813 3.27181 4.89709 4.12305 3.92058C4.89643 3.03361 6.02198 2.49585 7.46191 2.46159C7.47329 2.4613 7.48468 2.46084 7.49609 2.46062H7.50293Z" fill="currentColor"/>
</g>
</svg>
