<svg width="24" height="24" viewBox="0 0 24 24" fill="none" xmlns="http://www.w3.org/2000/svg">
<g clip-path="url(#clip0_2103_12140)">
<path d="M1.81322 3.05564C2.42251 2.87717 3.0612 3.22667 3.23997 3.83592L8.66966 22.3486C8.84818 22.9579 8.49956 23.5965 7.89036 23.7754C7.28091 23.9541 6.64139 23.6045 6.46263 22.9951L1.03294 4.4824C0.854532 3.8731 1.20394 3.23435 1.81322 3.05564ZM14.0847 0.260721C15.1039 0.119717 16.3683 0.166709 17.4138 0.3408C17.9363 0.427833 18.4593 0.555614 18.8943 0.736307C19.1109 0.826338 19.3464 0.945861 19.5564 1.10838C19.758 1.26448 20.0226 1.52749 20.1482 1.92478C20.2675 2.30285 20.9546 4.71904 21.6111 7.01267C21.942 8.16899 22.2681 9.30498 22.5173 10.1592C22.6421 10.5867 22.7463 10.9404 22.822 11.1894C22.8601 11.3148 22.8891 11.408 22.9089 11.4687C22.9132 11.4819 22.9169 11.4927 22.9197 11.501C22.942 11.5531 22.9648 11.6123 22.9812 11.6787C23.0457 11.9397 23.049 12.4199 22.654 12.7939C22.3552 13.0767 22.0154 13.103 21.9314 13.1084C21.8074 13.1162 21.709 13.1017 21.6658 13.0947C21.5196 13.0711 21.3883 13.0197 21.3669 13.0117C21.2684 12.9747 21.1259 12.9138 20.9958 12.8594C20.7094 12.7394 20.3139 12.5768 19.8533 12.4189C18.891 12.0891 17.8115 11.8434 16.9617 11.9609C16.0122 12.0924 15.3118 12.5486 14.154 13.417C12.891 14.3642 11.2532 15.3672 8.49095 15.2568C7.85635 15.2314 7.36205 14.6961 7.38743 14.0615C7.41318 13.4273 7.94843 12.9337 8.58275 12.959C10.6131 13.0401 11.7367 12.3553 12.7742 11.5771C13.9164 10.7205 15.0444 9.90438 16.6462 9.6826C17.8442 9.51686 19.1141 9.7829 20.1013 10.083C19.8895 9.35088 19.6445 8.50257 19.3992 7.64549C18.8234 5.63399 18.2437 3.60479 18.0271 2.86717C18.0223 2.86513 18.0175 2.86245 18.0124 2.86033C17.8009 2.77242 17.466 2.68102 17.0359 2.60935C16.1759 2.46617 15.1489 2.43549 14.4001 2.53904C13.7497 2.62906 13.3435 2.84528 12.904 3.15037C12.486 3.44061 11.8288 3.98919 11.0066 4.40037C9.99959 4.90387 8.40873 5.73971 5.72825 5.45115C5.09692 5.38317 4.64 4.81684 4.70775 4.18553C4.77593 3.55427 5.34302 3.09707 5.97435 3.16502C7.97451 3.38033 9.06811 2.79782 9.97825 2.34275C10.6055 2.02906 10.9404 1.71449 11.5925 1.2617C12.2231 0.823891 12.9672 0.415391 14.0847 0.260721ZM22.9158 11.4931C22.915 11.4912 22.9147 11.4885 22.9138 11.4863C22.9097 11.4767 22.9003 11.4564 22.8874 11.4306L22.9158 11.4931Z" fill="currentColor"/>
</g>
<defs>
<clipPath id="clip0_2103_12140">
<rect width="24" height="24" fill="white"/>
</clipPath>
</defs>
</svg>
