<svg width="24" height="24" viewBox="0 0 24 24" fill="none" xmlns="http://www.w3.org/2000/svg">
<path d="M11.9995 0.81543C13.8447 0.815498 15.5888 1.21586 17.1343 1.98438C18.1286 2.47887 19.0365 3.12407 19.8315 3.90527C20.4088 4.47256 20.9257 5.11046 21.3726 5.8125C21.9408 6.7052 22.3953 7.69939 22.7202 8.78125C23.0838 9.99204 23.1919 10.8988 23.1919 12.0078C23.1919 12.6429 22.6766 13.1582 22.0415 13.1582C21.4067 13.1578 20.8931 12.6427 20.8931 12.0078C20.8931 11.4769 20.8634 11.0227 20.7808 10.54L17.4829 11.5361L16.104 15.7754L18.0923 18.4824C18.5071 18.0917 18.8864 17.6635 19.2202 17.2002C19.5944 16.6808 19.9142 16.1196 20.1704 15.5254C20.4219 14.9423 21.098 14.6734 21.6812 14.9248C22.2642 15.1762 22.5338 15.8524 22.2827 16.4355C21.9598 17.1846 21.5571 17.8916 21.0864 18.5449C20.3864 19.5164 19.5341 20.3712 18.5649 21.0742C16.7205 22.412 14.4495 23.2011 11.9985 23.2012C5.81695 23.2009 0.806152 18.1893 0.806152 12.0078C0.806345 5.82627 5.81781 0.815444 11.9995 0.81543ZM9.771 17.1357L7.78857 19.8428C9.0421 20.5178 10.4761 20.9014 11.9995 20.9014C13.5318 20.9013 14.9707 20.5123 16.228 19.8311L14.2485 17.1357H9.771ZM3.23779 10.4844C3.15225 10.9795 3.105 11.4882 3.10498 12.0078C3.10498 14.5687 4.18972 16.8754 5.92236 18.498L7.90088 15.7959L6.51514 11.5312L3.23779 10.4844ZM8.7749 11.0449L10.0073 14.835H13.9927L15.2241 11.0459L12.0005 8.70312L8.7749 11.0449ZM13.1489 3.84473C13.1489 4.72163 13.1479 5.77307 13.1479 6.69531L16.7925 9.34277L20.1138 8.33887C19.9151 7.87968 19.6873 7.44875 19.4321 7.04785C19.0777 6.49107 18.6706 5.9894 18.2192 5.5459C17.5982 4.93567 16.89 4.43146 16.1108 4.04395C15.215 3.59842 14.2193 3.3038 13.1499 3.18066C13.1499 3.38534 13.1489 3.60891 13.1489 3.84473ZM10.8491 3.19043C7.76424 3.58874 5.17589 5.56776 3.92041 8.28809L7.21143 9.33887L10.8491 6.69629V3.19043Z" fill="currentColor"/>
</svg>
