<svg width="24" height="24" viewBox="0 0 24 24" fill="none" xmlns="http://www.w3.org/2000/svg">
<path d="M19.0142 0.51416C19.9251 0.514427 20.6634 1.25359 20.6636 2.16455V6.25537C20.6634 6.89018 20.149 7.40452 19.5142 7.40479C18.8791 7.40479 18.3639 6.89035 18.3638 6.25537V4.34619L14.8052 7.34521C15.0679 8.01603 15.2143 8.74538 15.2144 9.50928C15.2143 12.3405 13.2331 14.7072 10.5815 15.3022V17.7524H12.1538C12.7886 17.7527 13.303 18.2671 13.3032 18.9019C13.3031 19.5367 12.7886 20.0519 12.1538 20.0522H10.5815V22.3364C10.5813 22.9711 10.0668 23.4854 9.43213 23.4858C8.79712 23.4858 8.28193 22.9714 8.28174 22.3364V20.0522H6.93994C6.3049 20.0522 5.78969 19.5369 5.78955 18.9019C5.78976 18.2669 6.30494 17.7524 6.93994 17.7524H8.28174V15.3628C5.47514 14.8897 3.33648 12.4503 3.33643 9.50928C3.33648 8.8742 3.85172 8.35889 4.48682 8.35889C5.12191 8.35889 5.63715 8.8742 5.63721 9.50928C5.63726 11.519 7.26618 13.1479 9.27588 13.1479C11.2855 13.1479 12.9145 11.5189 12.9146 9.50928C12.9145 7.49962 11.2855 5.87066 9.27588 5.87061C8.37681 5.87061 7.5566 6.19512 6.92139 6.73486C6.85052 6.79508 6.7814 6.85793 6.71533 6.92334C6.26408 7.36994 5.53619 7.36652 5.08936 6.91553C4.64254 6.4642 4.64586 5.73542 5.09717 5.28857C5.20464 5.18217 5.3168 5.07994 5.43213 4.98193C6.46747 4.10225 7.81105 3.56982 9.27588 3.56982C10.9567 3.56985 12.4729 4.2697 13.5532 5.39209L16.6118 2.81494H14.9233C14.2882 2.81494 13.7729 2.29968 13.7729 1.66455C13.7731 1.02957 14.2883 0.51416 14.9233 0.51416H19.0142Z" fill="currentColor"/>
</svg>
