<svg width="24" height="24" viewBox="0 0 24 24" fill="none" xmlns="http://www.w3.org/2000/svg">
<g clip-path="url(#clip0_2103_15932)">
<path d="M21.8269 9.03503C23.0209 9.03556 23.6261 10.4729 22.7927 11.328L19.3386 14.87V21.7382C19.3386 22.4836 18.7344 23.0886 17.989 23.0887H5.90308C5.15749 23.0887 4.55249 22.4837 4.55249 21.7382V14.705L1.21948 11.3719C0.369155 10.5216 0.971147 9.0676 2.17358 9.06726H7.61304C7.9262 9.06731 8.22835 9.17619 8.46851 9.37292L8.56812 9.46277L11.9353 12.83L15.238 9.44324C15.4921 9.1828 15.841 9.03503 16.2048 9.03503H21.8269ZM6.85229 20.7889H10.7957V15.6171H6.85229V20.7889ZM13.0955 20.7889H17.0388V15.6171H13.0955V20.7889ZM6.41772 13.3173H9.16968L7.21948 11.3671H4.46753L6.41772 13.3173ZM14.6726 13.3173H17.6404L19.573 11.3358H16.6042L14.6726 13.3173ZM11.9958 1.50574C13.2362 0.618583 14.978 0.72368 16.0984 1.82312C17.3502 3.05208 17.3499 5.05394 16.0984 6.28308C15.6452 6.72802 14.9174 6.72166 14.4724 6.26843C14.0277 5.81531 14.0342 5.0874 14.4871 4.64246C14.8203 4.31485 14.8206 3.79217 14.4871 3.46472C14.1416 3.12595 13.5728 3.12602 13.2273 3.46472L12.905 3.7821C12.4009 4.27703 11.5929 4.27685 11.0886 3.7821L10.7654 3.46472C10.42 3.1258 9.85115 3.12607 9.50562 3.46472C9.19271 3.7719 9.17309 4.25048 9.44702 4.57898L9.50562 4.64246L9.51636 4.65222L9.52612 4.66296L11.9958 7.2157L12.406 6.79285C12.8475 6.33694 13.5756 6.32442 14.032 6.7655C14.4883 7.207 14.5005 7.93597 14.0593 8.39246L12.823 9.6698C12.6065 9.89355 12.3081 10.0202 11.9968 10.0204C11.6852 10.0204 11.3863 9.89373 11.1697 9.6698L7.87378 6.26257L7.87476 6.2616C6.64362 5.03083 6.64927 3.04537 7.89429 1.82312C9.01453 0.72399 10.7556 0.618919 11.9958 1.50574Z" fill="currentColor"/>
</g>
<defs>
<clipPath id="clip0_2103_15932">
<rect width="24" height="24" fill="white"/>
</clipPath>
</defs>
</svg>
