<svg width="24" height="24" viewBox="0 0 24 24" fill="none" xmlns="http://www.w3.org/2000/svg">
<g clip-path="url(#clip0_2103_16820)">
<path d="M12.3623 0.541992C14.1677 0.598181 15.8711 1.0725 17.375 1.87207C18.0369 2.224 18.66 2.63889 19.2363 3.1084C19.7286 3.50957 19.8025 4.23419 19.4014 4.72656C19.0002 5.21889 18.2756 5.29269 17.7832 4.8916C17.322 4.51589 16.8237 4.18445 16.2949 3.90332C15.7642 3.62114 15.202 3.39019 14.6152 3.21582C14.7618 3.44606 14.9125 3.69128 15.0615 3.95215C16.031 5.64881 17.0129 8.01205 17.2295 10.8496H21.0898C20.9819 9.9876 20.7572 9.1635 20.4277 8.39453C20.3388 8.18705 20.2422 7.98351 20.1387 7.78418C20.0766 7.66473 20.0114 7.54601 19.9443 7.42969C19.6275 6.87962 19.8163 6.1766 20.3662 5.85938C20.9164 5.54213 21.6202 5.73105 21.9375 6.28125C22.0214 6.42668 22.1021 6.57424 22.1797 6.72363C22.3093 6.97335 22.4305 7.22914 22.542 7.48926C23.1357 8.87514 23.4639 10.4008 23.4639 12C23.4638 18.3311 18.3311 23.4638 12 23.4639C5.66891 23.4638 0.536167 18.3311 0.536133 12C0.536167 5.66891 5.66891 0.536167 12 0.536133L12.3623 0.541992ZM2.91113 13.1504C3.3669 16.7883 5.953 19.7614 9.38281 20.7822C9.2368 20.5527 9.08799 20.3078 8.93945 20.0479C7.96993 18.3512 6.98635 15.988 6.76953 13.1504H2.91113ZM17.2295 13.1504C17.0129 15.988 16.031 18.3512 15.0615 20.0479C14.9128 20.3081 14.7624 20.5525 14.6162 20.7822C18.0467 19.7617 20.6339 16.7887 21.0898 13.1504H17.2295ZM9.07812 13.1504C9.28841 15.4823 10.1051 17.4522 10.9365 18.9072C11.3107 19.5619 11.6848 20.1062 12 20.5254C12.3152 20.1061 12.6902 19.5621 13.0645 18.9072C13.8959 17.4522 14.7116 15.4822 14.9219 13.1504H9.07812ZM9.38184 3.21777C5.95235 4.23857 3.36685 7.21199 2.91113 10.8496H6.76953C6.98634 8.01192 7.96992 5.64883 8.93945 3.95215C9.0879 3.69238 9.23591 3.44718 9.38184 3.21777ZM12 3.47363C11.6846 3.89301 11.311 4.43849 10.9365 5.09375C10.1051 6.54877 9.28842 8.51794 9.07812 10.8496H14.9219C14.7116 8.51809 13.8958 6.54874 13.0645 5.09375C12.6899 4.43835 12.3154 3.89306 12 3.47363Z" fill="currentColor"/>
</g>
<defs>
<clipPath id="clip0_2103_16820">
<rect width="24" height="24" fill="white"/>
</clipPath>
</defs>
</svg>
