<svg width="24" height="24" viewBox="0 0 24 24" fill="none" xmlns="http://www.w3.org/2000/svg">
<g>
<path d="M16.4146 14.041C17.7518 13.0253 19.6747 13.1193 20.9028 14.3242C22.2404 15.6373 22.2467 17.7699 20.9233 19.0918L20.9243 19.0928L17.2417 22.8994C17.0251 23.1231 16.7269 23.249 16.4155 23.249C16.1041 23.2489 15.8049 23.1232 15.5884 22.8994L11.9272 19.1143L11.8052 18.9883C10.5842 17.6608 10.6247 15.603 11.9272 14.3242C13.1549 13.1191 15.0771 13.0262 16.4146 14.041ZM11.7485 0.750977C12.731 0.751094 13.4718 1.15756 13.936 1.7627C14.1893 2.09294 14.3374 2.45387 14.4165 2.78613C14.5815 2.75968 14.7553 2.74708 14.937 2.74707C15.9197 2.74711 16.6612 3.15262 17.1255 3.75781C17.3792 4.0886 17.5269 4.45046 17.606 4.7832C17.7709 4.75677 17.9448 4.74219 18.1265 4.74219C19.1089 4.74236 19.8497 5.14874 20.314 5.75391C20.7367 6.30508 20.8705 6.93994 20.8706 7.38867V10.9512C20.8705 11.5862 20.3552 12.1005 19.7202 12.1006C19.0853 12.1004 18.5709 11.5861 18.5708 10.9512V7.38867C18.5707 7.3774 18.567 7.33434 18.5503 7.2793C18.534 7.2258 18.5114 7.18281 18.4888 7.15332C18.4694 7.12811 18.4473 7.10768 18.4126 7.09082C18.3771 7.07363 18.2919 7.04207 18.1265 7.04199C17.9616 7.04199 17.8762 7.07355 17.8403 7.09082C17.8055 7.10769 17.7826 7.12807 17.7632 7.15332C17.7406 7.18281 17.718 7.22581 17.7017 7.2793C17.6849 7.33434 17.6813 7.37739 17.6812 7.38867V10.8809C17.6812 11.5159 17.1667 12.0311 16.5317 12.0312C15.8966 12.0312 15.3813 11.516 15.3813 10.8809V5.39355C15.3813 5.3827 15.3787 5.33955 15.3618 5.28418C15.3455 5.23065 15.3229 5.18775 15.3003 5.1582C15.2808 5.13278 15.2581 5.11265 15.2231 5.0957C15.1876 5.0785 15.1027 5.0469 14.937 5.04688C14.7717 5.04689 14.6866 5.07847 14.6509 5.0957C14.6161 5.1126 14.5932 5.1329 14.5737 5.1582C14.5511 5.18773 14.5285 5.23077 14.5122 5.28418C14.4954 5.33952 14.4927 5.3827 14.4927 5.39355V9.88281C14.4927 10.5179 13.9773 11.0331 13.3423 11.0332C12.7073 11.033 12.1929 10.5178 12.1929 9.88281V3.39844C12.1928 3.38753 12.1892 3.34354 12.1724 3.28809C12.156 3.2347 12.1334 3.19156 12.1108 3.16211C12.0914 3.13695 12.0694 3.11643 12.0347 3.09961C11.9992 3.08242 11.9141 3.05181 11.7485 3.05176C11.5831 3.05176 11.4981 3.08334 11.4624 3.10059C11.4276 3.11743 11.4047 3.13694 11.3853 3.16211C11.3627 3.19155 11.3401 3.23471 11.3237 3.28809C11.3069 3.34353 11.3042 3.38752 11.3042 3.39844V9.88281C11.3042 10.5179 10.7888 11.0331 10.1538 11.0332C9.51868 11.0332 9.00342 10.5179 9.00342 9.88281V5.39355C9.00337 5.3827 9.00073 5.33956 8.98389 5.28418C8.96756 5.23063 8.94501 5.18775 8.92236 5.1582C8.90284 5.13278 8.88021 5.11265 8.84521 5.0957C8.80964 5.07849 8.72467 5.0469 8.55908 5.04688C8.3938 5.0469 8.30862 5.07848 8.27295 5.0957C8.23819 5.11258 8.21524 5.13293 8.1958 5.1582C8.17324 5.18772 8.15154 5.23081 8.13525 5.28418C8.11838 5.33962 8.11482 5.38268 8.11475 5.39355V13.375C8.11475 14.0099 7.60017 14.525 6.96533 14.5254C6.3302 14.5254 5.81494 14.0101 5.81494 13.375V11.5107L5.11279 12.2002C5.1068 12.2061 5.10036 12.213 5.09424 12.2188C4.98503 12.3213 4.8066 12.5211 4.65381 12.7715C4.49875 13.0257 4.40807 13.2694 4.39014 13.4746C4.37261 13.6765 4.47851 14.0848 4.71045 14.585C4.81241 14.8048 4.91795 14.9999 4.99854 15.1396C5.03828 15.2086 5.07136 15.2634 5.09326 15.2988C5.10157 15.3123 5.10891 15.3234 5.11377 15.3311C5.11419 15.3317 5.1149 15.3328 5.11572 15.334C5.11719 15.3362 5.11901 15.3399 5.12158 15.3438L5.12256 15.3447C5.12339 15.346 5.12455 15.3473 5.12549 15.3486C5.13432 15.3617 5.14809 15.3816 5.16553 15.4072C5.20055 15.4587 5.25193 15.5349 5.31689 15.6289C5.44697 15.8171 5.63026 16.079 5.84229 16.373C6.27352 16.9711 6.7994 17.6686 7.23486 18.1562C7.58335 18.5465 7.7436 18.7786 8.14014 19.1152C8.63709 19.5371 8.43092 19.3659 8.729 19.6162C8.81143 19.6854 8.93403 19.7735 9.05225 19.8545C9.1078 19.8926 9.15627 19.9256 9.19092 19.9482C9.20466 19.9572 9.21664 19.9643 9.2251 19.9697L9.86865 20.332C10.4219 20.6435 10.6183 21.3451 10.3071 21.8984C9.99554 22.4519 9.29415 22.6475 8.74072 22.3359L8.06104 21.9541L8.00928 21.9229L8.00635 21.9209C8.00524 21.9202 8.00404 21.919 8.00244 21.918C7.99851 21.9155 7.99246 21.9125 7.98584 21.9082C7.97258 21.8997 7.95378 21.8879 7.93115 21.873C7.88597 21.8435 7.82312 21.801 7.75146 21.752C7.61483 21.6583 7.41894 21.5192 7.24951 21.377C6.95602 21.1305 7.10815 21.2573 6.65088 20.8691C6.09298 20.3955 5.74191 19.936 5.52002 19.6875C5.00065 19.1058 4.41649 18.3282 3.97705 17.7188C3.75409 17.4095 3.56196 17.1342 3.42529 16.9365C3.35701 16.8377 3.30195 16.7577 3.26416 16.7021C3.24534 16.6745 3.23032 16.6526 3.22021 16.6377C3.2152 16.6303 3.2112 16.6241 3.2085 16.6201C3.20722 16.6182 3.2063 16.6163 3.20557 16.6152L3.20459 16.6143C3.20166 16.6099 3.19767 16.6049 3.19482 16.6006L4.15869 15.9717L3.19482 16.5996L3.19385 16.5986L3.19287 16.5967C3.19182 16.595 3.19047 16.5922 3.18896 16.5898C3.18587 16.5851 3.18108 16.5789 3.17627 16.5713C3.16644 16.5558 3.15346 16.5341 3.13721 16.5078C3.10449 16.4548 3.05913 16.3806 3.00635 16.2891C2.90131 16.1069 2.76131 15.8497 2.62354 15.5527C2.37574 15.0184 2.02509 14.128 2.09912 13.2754C2.21218 11.9771 3.08839 10.9462 3.52002 10.541L5.81494 8.28906V5.39355C5.81501 4.94474 5.94871 4.30909 6.37158 3.75781C6.83591 3.15287 7.57672 2.74713 8.55908 2.74707C8.74039 2.74708 8.91399 2.75979 9.07861 2.78613C9.15774 2.45382 9.30671 2.093 9.56006 1.7627C10.0244 1.15749 10.7659 0.750977 11.7485 0.750977ZM19.2915 15.9658C18.8532 15.5362 18.1339 15.5358 17.6958 15.9658L17.3237 16.332C16.8196 16.8269 16.0116 16.8268 15.5073 16.332L15.1343 15.9658C14.696 15.5361 13.9767 15.5357 13.5386 15.9658C13.1124 16.3843 13.1128 17.054 13.5386 17.4727L13.5493 17.4834L13.5591 17.4941L16.4146 20.4453L19.271 17.4941L19.2817 17.4834L19.2915 17.4727C19.7179 17.054 19.7179 16.3845 19.2915 15.9658Z" fill="currentColor"/>
</g>
</svg>
