<svg width="24" height="24" viewBox="0 0 24 24" fill="none" xmlns="http://www.w3.org/2000/svg">
<path fill-rule="evenodd" clip-rule="evenodd" d="M16.4148 14.041C17.7521 13.0253 19.675 13.1192 20.9031 14.3242C22.2407 15.6373 22.2469 17.7699 20.9236 19.0918L20.9246 19.0928L17.242 22.8994C17.0254 23.1232 16.7272 23.249 16.4158 23.249C16.1043 23.249 15.8053 23.1233 15.5887 22.8994L11.9275 19.1143L11.8055 18.9883C10.5843 17.6607 10.6249 15.6031 11.9275 14.3242C13.1553 13.1191 15.0774 13.0261 16.4148 14.041ZM11.7488 0.750977C12.7312 0.751176 13.4721 1.15755 13.9363 1.7627C14.1896 2.09296 14.3377 2.45386 14.4168 2.78613C14.5817 2.75971 14.7557 2.74708 14.9373 2.74707C15.9199 2.7472 16.6615 3.15261 17.1258 3.75781C17.3795 4.08862 17.5272 4.45045 17.6063 4.7832C17.7711 4.7568 17.9452 4.74219 18.1268 4.74219C19.1091 4.74244 19.8501 5.14873 20.3143 5.75391C20.737 6.30507 20.8708 6.93995 20.8709 7.38867V10.9512C20.8708 11.5861 20.3554 12.1003 19.7205 12.1006C19.0856 12.1004 18.5712 11.5861 18.5711 10.9512V7.38867C18.571 7.3774 18.5673 7.33435 18.5506 7.2793C18.5343 7.22577 18.5117 7.18283 18.4891 7.15332C18.4697 7.12811 18.4475 7.10768 18.4129 7.09082C18.3774 7.07364 18.292 7.04211 18.1268 7.04199C17.9623 7.04199 17.8767 7.07353 17.8406 7.09082C17.8059 7.10765 17.7829 7.12814 17.7635 7.15332C17.7409 7.18279 17.7183 7.22585 17.702 7.2793C17.6852 7.33434 17.6816 7.37739 17.6814 7.38867V10.8809C17.6814 11.5158 17.1669 12.0309 16.532 12.0312C15.8969 12.0312 15.3816 11.516 15.3816 10.8809V5.39355C15.3816 5.38271 15.379 5.33956 15.3621 5.28418C15.3458 5.23063 15.3232 5.18776 15.3006 5.1582C15.2811 5.13278 15.2584 5.11265 15.2234 5.0957C15.1879 5.07851 15.1028 5.04693 14.9373 5.04688C14.7723 5.04689 14.687 5.07844 14.6512 5.0957C14.6164 5.11256 14.5935 5.13297 14.574 5.1582C14.5514 5.18771 14.5288 5.23081 14.5125 5.28418C14.4957 5.33951 14.493 5.3827 14.493 5.39355V9.88281C14.493 10.5178 13.9775 11.033 13.3426 11.0332C12.7076 11.033 12.1932 10.5178 12.1932 9.88281V3.39844C12.1931 3.38753 12.1895 3.34354 12.1727 3.28809C12.1563 3.23468 12.1337 3.19157 12.1111 3.16211C12.0918 3.13695 12.0696 3.11644 12.035 3.09961C11.9995 3.08243 11.9142 3.05185 11.7488 3.05176C11.5838 3.05176 11.4986 3.08332 11.4627 3.10059C11.428 3.11739 11.405 3.13701 11.3856 3.16211C11.363 3.19154 11.3404 3.23475 11.324 3.28809C11.3072 3.34353 11.3045 3.38752 11.3045 3.39844V9.88281C11.3045 10.5178 10.789 11.0329 10.1541 11.0332C9.51898 11.0332 9.00371 10.5179 9.00371 9.88281V5.39355C9.00366 5.3827 9.00103 5.33957 8.98418 5.28418C8.96785 5.2306 8.94531 5.18777 8.92266 5.1582C8.90316 5.13278 8.88043 5.11265 8.84551 5.0957C8.80996 5.0785 8.72477 5.04693 8.55938 5.04688C8.39446 5.0469 8.30906 5.07845 8.27325 5.0957C8.23855 5.11255 8.21551 5.133 8.1961 5.1582C8.17355 5.1877 8.15183 5.23085 8.13555 5.28418C8.11868 5.33961 8.11511 5.38267 8.11504 5.39355V13.375C8.11504 14.0098 7.60033 14.5249 6.96563 14.5254C6.3305 14.5254 5.81524 14.0101 5.81524 13.375V11.5107L5.11309 12.2002C5.10715 12.206 5.10061 12.213 5.09453 12.2188C4.98535 12.3213 4.80688 12.5212 4.65411 12.7715C4.49905 13.0256 4.40837 13.2694 4.39043 13.4746C4.3729 13.6765 4.47877 14.0848 4.71075 14.585C4.81274 14.8048 4.91824 14.9998 4.99883 15.1396C5.03863 15.2087 5.07166 15.2634 5.09356 15.2988C5.10192 15.3124 5.10921 15.3234 5.11407 15.3311C5.11451 15.3317 5.11515 15.3327 5.11602 15.334C5.1175 15.3362 5.11925 15.3399 5.12188 15.3438L5.12286 15.3447C5.12371 15.346 5.12482 15.3472 5.12578 15.3486C5.13463 15.3617 5.14834 15.3816 5.16582 15.4072C5.20087 15.4587 5.25219 15.5349 5.31719 15.6289C5.44729 15.8171 5.63051 16.0789 5.84258 16.373C6.27384 16.9711 6.79968 17.6686 7.23516 18.1562C7.58364 18.5465 7.74386 18.7786 8.14043 19.1152C8.63729 19.537 8.43114 19.3659 8.7293 19.6162C8.81173 19.6854 8.93437 19.7735 9.05254 19.8545C9.10805 19.8925 9.1566 19.9256 9.19121 19.9482C9.2049 19.9572 9.21697 19.9643 9.22539 19.9697L9.86895 20.332C10.422 20.6436 10.6185 21.3452 10.3074 21.8984C9.99588 22.4518 9.29441 22.6473 8.74102 22.3359L8.06133 21.9541L8.00957 21.9229L8.00664 21.9209C8.00557 21.9202 8.00427 21.919 8.00274 21.918C7.99885 21.9155 7.99271 21.9124 7.98614 21.9082C7.97291 21.8997 7.95402 21.8878 7.93145 21.873C7.8863 21.8435 7.82337 21.801 7.75176 21.752C7.61515 21.6584 7.41923 21.5192 7.24981 21.377C6.95625 21.1305 7.10835 21.2572 6.65118 20.8691C6.09327 20.3955 5.74221 19.936 5.52032 19.6875C5.00093 19.1058 4.41682 18.3282 3.97735 17.7188C3.75435 17.4095 3.56227 17.1342 3.42559 16.9365C3.35726 16.8377 3.30226 16.7577 3.26446 16.7021C3.24559 16.6744 3.23063 16.6527 3.22051 16.6377C3.21545 16.6302 3.21151 16.6242 3.20879 16.6201C3.20746 16.6181 3.20661 16.6163 3.20586 16.6152L3.20489 16.6143C3.20195 16.6099 3.19799 16.605 3.19512 16.6006L4.15899 15.9717L3.19512 16.5996L3.19414 16.5986L3.19317 16.5967C3.1921 16.595 3.19081 16.5922 3.18926 16.5898C3.18617 16.585 3.18142 16.5789 3.17657 16.5713C3.16673 16.5558 3.15381 16.5342 3.1375 16.5078C3.10478 16.4548 3.05947 16.3807 3.00664 16.2891C2.9016 16.1069 2.76164 15.8498 2.62383 15.5527C2.37603 15.0184 2.02538 14.1281 2.09942 13.2754C2.21249 11.9771 3.08868 10.9462 3.52032 10.541L5.81524 8.28906V5.39355C5.8153 4.94474 5.94901 4.30909 6.37188 3.75781C6.83622 3.15295 7.5771 2.74713 8.55938 2.74707C8.74058 2.74709 8.91438 2.7598 9.07891 2.78613C9.15804 2.45384 9.30703 2.09298 9.56036 1.7627C10.0247 1.15757 10.7662 0.750977 11.7488 0.750977ZM19.2918 15.9658C18.8535 15.5361 18.1342 15.5358 17.6961 15.9658L17.324 16.332C16.8199 16.827 16.0119 16.8268 15.5076 16.332L15.1346 15.9658C14.6963 15.5359 13.977 15.5358 13.5389 15.9658C13.1126 16.3843 13.1129 17.054 13.5389 17.4727L13.5496 17.4834L13.5594 17.4941L16.4148 20.4453L19.2713 17.4941L19.282 17.4834L19.2918 17.4727C19.7182 17.054 19.7182 16.3844 19.2918 15.9658Z" fill="currentColor"/>
</svg>
