<svg width="24" height="24" viewBox="0 0 24 24" fill="none" xmlns="http://www.w3.org/2000/svg">
<g clip-path="url(#clip0_2103_15052)">
<path fill-rule="evenodd" clip-rule="evenodd" d="M18.9908 12.145C19.3261 12.0294 19.7335 11.9731 20.1783 12.0728C20.6191 12.1716 21.0108 12.4056 21.3522 12.731L21.3531 12.73L23.2233 14.4995C23.6842 14.936 23.7043 15.6632 23.2682 16.1245C22.8317 16.5855 22.1034 16.6058 21.6422 16.1694L19.7731 14.4009L19.7682 14.397L20.5631 13.5659L19.7682 14.396C19.7398 14.3689 19.7144 14.3532 19.6969 14.3403C19.6703 14.3548 19.6331 14.3774 19.5856 14.4126C19.4973 14.478 19.4361 14.5342 19.3239 14.6304L18.5934 15.3335L19.5807 16.2808C20.0387 16.7206 20.0536 17.4486 19.6139 17.9067C19.174 18.3644 18.4459 18.3795 17.9879 17.9399L16.941 16.9341L15.6764 18.1685C15.9113 18.6559 16.0426 19.2035 16.0426 19.7817C16.0423 21.8407 14.3777 23.4741 12.3483 23.4741C10.326 23.4739 8.64253 21.8475 8.64221 19.7817C8.64221 17.7246 10.3169 16.0739 12.3483 16.0737C12.9756 16.0737 13.5669 16.2302 14.0846 16.5073L16.1315 14.5112L16.1373 14.5054L17.7584 12.9458L17.7838 12.9214L17.8102 12.8989C17.9216 12.8039 18.392 12.3519 18.9908 12.145ZM10.5768 0.525879C11.597 0.525937 12.3611 0.947156 12.8395 1.5708C13.1174 1.93324 13.2737 2.33112 13.3512 2.69189C13.5405 2.65764 13.7412 2.63919 13.9528 2.63916C14.9731 2.63916 15.738 3.05946 16.2164 3.68311C16.4945 4.04567 16.6497 4.44428 16.7272 4.80518C16.9166 4.77086 17.1179 4.75148 17.3297 4.75146C18.3498 4.75159 19.1141 5.17278 19.5924 5.79639C20.0293 6.3661 20.1676 7.02342 20.1676 7.48682V9.2876C20.1674 9.92251 19.6522 10.437 19.0172 10.437C18.3825 10.4367 17.868 9.92232 17.8678 9.2876V7.48682C17.8678 7.46917 17.8633 7.41655 17.8434 7.35107C17.8241 7.28775 17.7969 7.23454 17.7672 7.1958C17.7407 7.16127 17.709 7.13274 17.6617 7.10986C17.6138 7.08671 17.5138 7.0523 17.3297 7.05225C17.1453 7.05228 17.0445 7.08672 16.9967 7.10986C16.9496 7.13273 16.9177 7.16131 16.8912 7.1958C16.8616 7.23452 16.8343 7.28789 16.8151 7.35107C16.7952 7.41645 16.7916 7.46919 16.7916 7.48682V11.1841C16.7914 11.819 16.2762 12.3335 15.6412 12.3335C15.0064 12.3333 14.4911 11.8189 14.4908 11.1841V5.37354C14.4908 5.35579 14.4873 5.30319 14.4674 5.23779C14.4482 5.17472 14.4208 5.12218 14.3912 5.0835C14.3647 5.04896 14.3329 5.02045 14.2858 4.99756C14.2379 4.97439 14.1372 4.93896 13.9528 4.93896C13.7686 4.93902 13.6686 4.97441 13.6207 4.99756C13.5736 5.02045 13.5418 5.04896 13.5153 5.0835C13.4857 5.12214 13.4583 5.17481 13.4391 5.23779C13.4192 5.30312 13.4147 5.35581 13.4147 5.37354V10.1274C13.4145 10.7624 12.8993 11.2778 12.2643 11.2778C11.6296 11.2775 11.115 10.7622 11.1149 10.1274V3.26123C11.1149 3.24358 11.1103 3.19098 11.0905 3.12549C11.0712 3.06216 11.044 3.00896 11.0143 2.97021C10.9878 2.9357 10.956 2.90714 10.9088 2.88428C10.8609 2.86113 10.7608 2.82669 10.5768 2.82666C10.3923 2.82669 10.2916 2.86112 10.2438 2.88428C10.1967 2.90715 10.1648 2.93574 10.1383 2.97021C10.1087 3.00893 10.0814 3.06231 10.0621 3.12549C10.0423 3.19085 10.0387 3.2436 10.0387 3.26123V10.1274C10.0385 10.7624 9.52333 11.2778 8.8883 11.2778C8.25342 11.2777 7.73809 10.7623 7.73791 10.1274V5.37354C7.7379 5.35579 7.73436 5.30319 7.71448 5.23779C7.69524 5.17471 7.66792 5.12218 7.63831 5.0835C7.61179 5.04894 7.58 5.02046 7.53284 4.99756C7.48495 4.97439 7.38426 4.93896 7.19983 4.93896C7.01561 4.93904 6.91559 4.97442 6.8678 4.99756C6.82064 5.02046 6.78883 5.04895 6.76233 5.0835C6.73276 5.12215 6.70537 5.17479 6.68616 5.23779C6.66631 5.30312 6.66176 5.35579 6.66174 5.37354V13.8247C6.66158 14.4596 6.14717 14.9749 5.51233 14.9751C4.87743 14.9749 4.3621 14.4596 4.36194 13.8247V11.6899L3.50354 12.5327C3.49756 12.5386 3.49108 12.5446 3.48498 12.5503C3.38774 12.6417 3.19172 12.8707 3.01428 13.1704C2.8328 13.477 2.73514 13.7503 2.71741 13.9351C2.70914 14.0255 2.76437 14.3071 3.00159 14.771C3.21325 15.1848 3.47591 15.5684 3.64416 15.812C4.46902 17.0064 4.77401 17.5915 5.48987 18.4839L6.02795 19.1353C6.07982 19.1996 6.10663 19.2327 6.13538 19.2651C6.18311 19.3189 6.26112 19.3998 6.49475 19.5981C6.97896 20.0092 7.03857 20.735 6.62756 21.2192C6.21653 21.7031 5.49056 21.7628 5.00647 21.3521C4.7349 21.1215 4.56489 20.9608 4.41467 20.7915C4.3446 20.7125 4.28492 20.6381 4.23694 20.5786C4.18734 20.5171 4.13975 20.4574 4.07483 20.3813C3.00189 19.1244 2.55882 18.2885 1.75159 17.1196C1.58418 16.8772 1.24196 16.3824 0.953735 15.8188C0.69169 15.3065 0.352252 14.5105 0.428344 13.7153C0.491382 13.0586 0.768695 12.4497 1.03577 11.9985C1.30663 11.5411 1.63294 11.1344 1.91077 10.8735L4.36194 8.46826V5.37354C4.36196 4.91013 4.50033 4.25273 4.93713 3.68311C5.41545 3.05965 6.1799 2.63932 7.19983 2.63916C7.4113 2.63916 7.61218 2.65769 7.80139 2.69189C7.87881 2.33126 8.03535 1.93314 8.31311 1.5708C8.79148 0.947164 9.55659 0.525955 10.5768 0.525879ZM12.3483 18.3745C11.5788 18.3747 10.943 19.0032 10.943 19.7817C10.9433 20.5512 11.5701 21.1741 12.3483 21.1743C13.1196 21.1743 13.7425 20.5583 13.7428 19.7817C13.7428 18.996 13.1109 18.3745 12.3483 18.3745Z" fill="currentColor"/>
</g>
<defs>
<clipPath id="clip0_2103_15052">
<rect width="24" height="24" fill="white"/>
</clipPath>
</defs>
</svg>
