<svg width="24" height="24" viewBox="0 0 24 24" fill="none" xmlns="http://www.w3.org/2000/svg">
<g clip-path="url(#clip0_ds_hand_key)">
<path d="M18.9907 12.145C19.326 12.0294 19.7333 11.9731 20.1782 12.0728C20.619 12.1716 21.0106 12.4056 21.3521 12.731L21.353 12.73L23.2231 14.4995C23.6841 14.936 23.7042 15.6632 23.2681 16.1245C22.8315 16.5855 22.1033 16.6058 21.6421 16.1694L19.7729 14.4009L19.7681 14.397L20.563 13.5659L19.7681 14.396C19.7397 14.3689 19.7143 14.3532 19.6968 14.3403C19.6702 14.3548 19.6329 14.3774 19.5854 14.4126C19.4972 14.478 19.436 14.5342 19.3237 14.6304L18.5933 15.3335L19.5806 16.2808C20.0386 16.7206 20.0534 17.4486 19.6138 17.9067C19.1739 18.3644 18.4458 18.3795 17.9878 17.9399L16.9409 16.9341L15.6763 18.1685C15.9111 18.6559 16.0425 19.2035 16.0425 19.7817C16.0422 21.8407 14.3776 23.4741 12.3481 23.4741C10.3259 23.4739 8.64241 21.8475 8.64209 19.7817C8.64209 17.7246 10.3168 16.0739 12.3481 16.0737C12.9755 16.0737 13.5667 16.2302 14.0845 16.5073L16.1313 14.5112L16.1372 14.5054L17.7583 12.9458L17.7837 12.9214L17.8101 12.8989C17.9215 12.8039 18.3919 12.3519 18.9907 12.145ZM10.5767 0.525879C11.5969 0.525937 12.361 0.947156 12.8394 1.5708C13.1173 1.93324 13.2736 2.33112 13.3511 2.69189C13.5403 2.65764 13.7411 2.63919 13.9526 2.63916C14.9729 2.63916 15.7379 3.05946 16.2163 3.68311C16.4944 4.04567 16.6496 4.44428 16.7271 4.80518C16.9165 4.77086 17.1178 4.75148 17.3296 4.75146C18.3497 4.75159 19.1139 5.17278 19.5923 5.79639C20.0292 6.3661 20.1675 7.02342 20.1675 7.48682V9.2876C20.1672 9.92251 19.6521 10.437 19.0171 10.437C18.3824 10.4367 17.8679 9.92232 17.8677 9.2876V7.48682C17.8677 7.46917 17.8631 7.41655 17.8433 7.35107C17.824 7.28775 17.7968 7.23454 17.7671 7.1958C17.7406 7.16127 17.7089 7.13274 17.6616 7.10986C17.6137 7.08671 17.5137 7.0523 17.3296 7.05225C17.1452 7.05228 17.0444 7.08672 16.9966 7.10986C16.9495 7.13273 16.9176 7.16131 16.8911 7.1958C16.8615 7.23452 16.8342 7.28789 16.8149 7.35107C16.7951 7.41645 16.7915 7.46919 16.7915 7.48682V11.1841C16.7912 11.819 16.276 12.3335 15.6411 12.3335C15.0063 12.3333 14.491 11.8189 14.4907 11.1841V5.37354C14.4907 5.35579 14.4872 5.30319 14.4673 5.23779C14.4481 5.17472 14.4207 5.12218 14.3911 5.0835C14.3646 5.04896 14.3328 5.02045 14.2856 4.99756C14.2378 4.97439 14.1371 4.93896 13.9526 4.93896C13.7685 4.93902 13.6685 4.97441 13.6206 4.99756C13.5735 5.02045 13.5416 5.04896 13.5151 5.0835C13.4856 5.12214 13.4582 5.17481 13.439 5.23779C13.4191 5.30312 13.4146 5.35581 13.4146 5.37354V10.1274C13.4144 10.7624 12.8992 11.2778 12.2642 11.2778C11.6295 11.2775 11.1149 10.7622 11.1147 10.1274V3.26123C11.1147 3.24358 11.1102 3.19098 11.0903 3.12549C11.0711 3.06216 11.0439 3.00896 11.0142 2.97021C10.9876 2.9357 10.9559 2.90714 10.9087 2.88428C10.8608 2.86113 10.7607 2.82669 10.5767 2.82666C10.3922 2.82669 10.2915 2.86112 10.2437 2.88428C10.1966 2.90715 10.1646 2.93574 10.1382 2.97021C10.1086 3.00893 10.0812 3.06231 10.062 3.12549C10.0422 3.19085 10.0386 3.2436 10.0386 3.26123V10.1274C10.0384 10.7624 9.52321 11.2778 8.88818 11.2778C8.2533 11.2777 7.73796 10.7623 7.73779 10.1274V5.37354C7.73777 5.35579 7.73424 5.30319 7.71436 5.23779C7.69512 5.17471 7.6678 5.12218 7.63818 5.0835C7.61167 5.04894 7.57988 5.02046 7.53271 4.99756C7.48483 4.97439 7.38414 4.93896 7.19971 4.93896C7.01549 4.93904 6.91547 4.97442 6.86768 4.99756C6.82052 5.02046 6.78871 5.04895 6.76221 5.0835C6.73264 5.12215 6.70525 5.17479 6.68604 5.23779C6.66619 5.30312 6.66164 5.35579 6.66162 5.37354V13.8247C6.66146 14.4596 6.14705 14.9749 5.51221 14.9751C4.8773 14.9749 4.36197 14.4596 4.36182 13.8247V11.6899L3.50342 12.5327C3.49744 12.5386 3.49096 12.5446 3.48486 12.5503C3.38762 12.6417 3.1916 12.8707 3.01416 13.1704C2.83267 13.477 2.73502 13.7503 2.71729 13.9351C2.70901 14.0255 2.76424 14.3071 3.00146 14.771C3.21313 15.1848 3.47579 15.5684 3.64404 15.812C4.4689 17.0064 4.77389 17.5915 5.48975 18.4839L6.02783 19.1353C6.0797 19.1996 6.1065 19.2327 6.13525 19.2651C6.18299 19.3189 6.261 19.3998 6.49463 19.5981C6.97884 20.0092 7.03845 20.735 6.62744 21.2192C6.21641 21.7031 5.49044 21.7628 5.00635 21.3521C4.73478 21.1215 4.56477 20.9608 4.41455 20.7915C4.34448 20.7125 4.2848 20.6381 4.23682 20.5786C4.18721 20.5171 4.13963 20.4574 4.07471 20.3813C3.00176 19.1244 2.5587 18.2885 1.75146 17.1196C1.58405 16.8772 1.24184 16.3824 0.953613 15.8188C0.691569 15.3065 0.35213 14.5105 0.428223 13.7153C0.49126 13.0586 0.768573 12.4497 1.03564 11.9985C1.30651 11.5411 1.63281 11.1344 1.91064 10.8735L4.36182 8.46826V5.37354C4.36184 4.91013 4.50021 4.25273 4.93701 3.68311C5.41533 3.05965 6.17978 2.63932 7.19971 2.63916C7.41117 2.63916 7.61206 2.65769 7.80127 2.69189C7.87869 2.33126 8.03522 1.93314 8.31299 1.5708C8.79136 0.947164 9.55646 0.525955 10.5767 0.525879ZM12.3481 18.3745C11.5787 18.3747 10.9429 19.0032 10.9429 19.7817C10.9432 20.5512 11.57 21.1741 12.3481 21.1743C13.1195 21.1743 13.7424 20.5583 13.7427 19.7817C13.7427 18.996 13.1108 18.3745 12.3481 18.3745Z" fill="currentColor"/>
</g>
<defs>
<clipPath id="clip0_ds_hand_key">
<rect width="24" height="24" fill="white"/>
</clipPath>
</defs>
</svg>
