<svg width="24" height="24" viewBox="0 0 24 24" fill="none" xmlns="http://www.w3.org/2000/svg">
<path d="M7.45981 9.07856L4.78753 11.9547C4.43123 12.3215 3.79536 13.2788 3.71862 14.1557C3.63792 15.0777 4.46871 16.4005 4.78753 16.9069C5.61857 18.2267 5.95318 18.9591 6.92536 20.2083C7.45331 20.8867 8.87945 22.2389 11.201 22.4093C12.9341 22.5364 14.6591 22.5246 15.4766 22.4093C15.8211 22.3607 16.4672 22.2474 17.2114 21.862M17.08 11.4046V7.55285C17.08 7.00262 17.4007 5.90214 18.6833 5.90214C19.9661 5.90214 20.2867 7.00262 20.2867 7.55285V16.3567C20.2867 16.8538 20.1925 17.7174 19.9019 18.6144L19.6725 19.186L19.573 19.3353M7.45981 14.1557V5.3519C7.45981 4.80167 7.78048 3.70119 9.06318 3.70119C10.3458 3.70119 10.6666 4.80167 10.6666 5.3519M10.6666 5.3519V10.304M10.6666 5.3519V3.15096C10.6666 2.60072 10.9872 1.50024 12.27 1.50024C13.5526 1.50024 13.8732 2.60072 13.8732 3.15096V5.3519M13.8732 5.3519V10.304M13.8732 5.3519C13.8732 4.80167 14.194 3.70119 15.4766 3.70119C16.7593 3.70119 17.08 4.80167 17.08 5.3519V8.10309" stroke="currentColor" stroke-width="2.3" stroke-linecap="round" stroke-linejoin="round"/>
</svg>
