<svg width="24" height="24" viewBox="0 0 24 24" fill="none" xmlns="http://www.w3.org/2000/svg">
<g clip-path="url(#clip0_ds_health_chart)">
<path d="M13.4629 8.80664C13.9512 7.4931 15.7855 7.36506 16.4521 8.59766L16.5146 8.72559L18.2744 12.7002H18.5898C19.2249 12.7004 19.7394 13.2155 19.7393 13.8506C19.7389 14.4856 19.2239 15.0002 18.5889 15H17.8506C17.198 14.9996 16.6059 14.6144 16.3418 14.0176L15.1387 11.3008L13.2812 17.8398C12.8387 19.3957 10.6535 19.4512 10.1318 17.9199L8.6416 13.5449H5.36914C4.7342 13.5447 4.21875 13.0295 4.21875 12.3945C4.21897 11.7597 4.73434 11.2453 5.36914 11.2451H9.10645C9.76848 11.2451 10.3619 11.6401 10.6211 12.2402L10.6689 12.3623L11.6377 15.207L13.4189 8.94238L13.4629 8.80664Z" fill="currentColor"/>
<path d="M22.5 16.6385V18.5C22.5 20.7091 20.7091 22.5 18.5 22.5H18.008H5.5C3.29086 22.5 1.5 20.7091 1.5 18.5V5.5C1.5 3.29086 3.29086 1.5 5.5 1.5H18.5C20.7091 1.5 22.5 3.29086 22.5 5.5V12.4362" stroke="currentColor" stroke-width="2.3" stroke-linecap="round" stroke-linejoin="round"/>
</g>
<defs>
<clipPath id="clip0_ds_health_chart">
<rect width="24" height="24" fill="white"/>
</clipPath>
</defs>
</svg>
