<svg width="24" height="24" viewBox="0 0 24 24" fill="none" xmlns="http://www.w3.org/2000/svg">
<g>
<path d="M12.3193 3.72233C14.8622 1.22617 18.9766 1.22625 21.5195 3.72233C24.0669 6.22348 24.0726 10.2821 21.5391 12.7917L12.8262 21.7985C12.6095 22.0223 12.3115 22.1491 12 22.1491C11.6886 22.149 11.3904 22.0223 11.1738 21.7985L2.45996 12.7926V12.7917C-0.0728698 10.282 -0.066627 6.22326 2.48047 3.72233C5.02331 1.22616 9.13773 1.22631 11.6807 3.72233L12 4.03483L12.3193 3.72233ZM19.9082 5.36295C18.2601 3.74528 15.5789 3.74544 13.9307 5.36295L12.9082 6.36686C12.404 6.86175 11.596 6.86177 11.0918 6.36686L10.0703 5.36295C8.42203 3.74515 5.74001 3.74504 4.0918 5.36295C2.50672 6.91907 2.45774 9.40387 3.94336 11.0182L4.0918 11.1725L4.10254 11.1823L4.11328 11.193L12 19.3444L19.8867 11.193L19.8975 11.1823L19.9082 11.1725C21.5445 9.56598 21.5446 6.96944 19.9082 5.36295ZM11.9795 7.49967C12.6142 7.50015 13.1279 8.01525 13.1279 8.65006V10.7536H15.3496C15.9846 10.7536 16.4998 11.2681 16.5 11.903C16.5 12.5381 15.9847 13.0534 15.3496 13.0534H13.1279V15.3493C13.1279 15.9843 12.6135 16.4995 11.9785 16.4997C11.3436 16.4994 10.8281 15.9842 10.8281 15.3493V13.0534H8.65039C8.01526 13.0534 7.5 12.5381 7.5 11.903C7.50023 11.2681 8.01541 10.7536 8.65039 10.7536H10.8281V8.65006C10.8281 8.01496 11.3444 7.49967 11.9795 7.49967Z" fill="currentColor"/>
</g>
</svg>
