<svg width="24" height="24" viewBox="0 0 24 24" fill="none" xmlns="http://www.w3.org/2000/svg">
<g>
<path d="M11.0464 4.61934C13.3372 2.3706 17.0436 2.37066 19.3345 4.61934C19.6118 4.89165 19.8572 5.18567 20.0688 5.49629C20.2943 5.82725 20.4815 6.17713 20.6304 6.53829C20.7231 6.76334 20.801 6.99413 20.8638 7.22676C21.029 7.83986 20.6663 8.47051 20.0532 8.63594C19.44 8.80135 18.8085 8.43861 18.6431 7.8254C18.6056 7.68672 18.5596 7.54933 18.5044 7.41524C18.4156 7.19971 18.3028 6.98979 18.1675 6.79122C18.0406 6.60503 17.8927 6.42639 17.7231 6.25997C16.3269 4.88968 14.0539 4.88954 12.6577 6.25997L11.771 7.13106C11.2667 7.62581 10.4587 7.62599 9.95459 7.13106L9.06787 6.25997C7.67169 4.88998 5.39951 4.88984 4.00342 6.25997C2.66238 7.57647 2.62047 9.67752 3.87744 11.0432L4.00342 11.1731L4.01416 11.1838L4.02393 11.1945L10.8628 18.2619L10.9946 18.1262L11.4741 17.6311C11.9157 17.1751 12.6438 17.1635 13.1001 17.6047C13.5564 18.0463 13.5679 18.7742 13.1265 19.2307L12.6479 19.7258L11.6899 20.716C11.4733 20.9399 11.1744 21.0666 10.8628 21.0666C10.5514 21.0665 10.2532 20.9398 10.0366 20.716L2.39209 12.8147L2.18311 12.5988C0.0917277 10.326 0.161412 6.80935 2.39209 4.61934C4.68293 2.3706 8.38832 2.37066 10.6792 4.61934L10.8628 4.79903L11.0464 4.61934ZM21.7993 9.74141C22.3979 9.52957 23.0561 9.84301 23.2681 10.4416C23.4795 11.0399 23.166 11.6972 22.5679 11.9094C22.054 12.0914 21.4472 12.4883 20.7944 13.0607C20.1536 13.6227 19.5288 14.2999 18.9731 14.966C18.4197 15.6294 17.9491 16.2657 17.6167 16.7365C17.451 16.9713 17.32 17.1638 17.2319 17.2961C17.1879 17.3622 17.1542 17.4138 17.1323 17.4475C17.1215 17.4641 17.1139 17.4767 17.1089 17.4846C17.1065 17.4883 17.1041 17.4908 17.103 17.4924L17.1021 17.4943C16.8798 17.8438 16.4863 18.0466 16.0728 18.0256C15.6591 18.0044 15.2885 17.7621 15.103 17.3918C14.6736 16.533 14.2525 16.141 14.0112 15.9699C13.8888 15.8832 13.8009 15.8448 13.7651 15.8313C13.7585 15.8287 13.7528 15.8274 13.7495 15.8264C13.7537 15.8274 13.7615 15.8292 13.772 15.8313C13.7774 15.8323 13.7843 15.833 13.7915 15.8342C13.7952 15.8348 13.8001 15.8355 13.8042 15.8361C13.8059 15.8364 13.8082 15.8368 13.8101 15.8371C13.8111 15.8374 13.813 15.8379 13.814 15.8381H13.8159L13.8169 15.8371C13.1885 15.7487 12.7507 15.1687 12.8384 14.5402C12.9265 13.9114 13.5074 13.4728 14.1362 13.5607L14.0005 14.5334C14.1279 13.6246 14.1369 13.5646 14.1382 13.5607H14.1401C14.1412 13.561 14.1429 13.5616 14.144 13.5617C14.1464 13.562 14.1494 13.5623 14.1519 13.5627C14.157 13.5635 14.1628 13.5647 14.1685 13.5656C14.1803 13.5676 14.1944 13.5697 14.2085 13.5725C14.2369 13.578 14.2701 13.5857 14.3071 13.5949C14.3818 13.6136 14.4738 13.6403 14.5786 13.6799C14.7894 13.7596 15.0521 13.8891 15.3413 14.094C15.6023 14.279 15.8763 14.5228 16.1528 14.8371C16.4522 14.4328 16.8084 13.9706 17.2065 13.4934C17.8077 12.7728 18.5171 11.9994 19.2778 11.3322C20.0266 10.6755 20.8894 10.0638 21.7993 9.74141Z" fill="currentColor"/>
</g>
</svg>
