<svg width="24" height="24" viewBox="0 0 24 24" fill="none" xmlns="http://www.w3.org/2000/svg">
<path fill-rule="evenodd" clip-rule="evenodd" d="M12.3195 3.72235C14.8624 1.22619 18.9768 1.22627 21.5197 3.72235C24.0671 6.2235 24.0728 10.2821 21.5393 12.7917L12.8264 21.7985C12.6097 22.0223 12.3117 22.1491 12.0002 22.1491C11.6888 22.1491 11.3906 22.0223 11.174 21.7985L2.46016 12.7927V12.7917C-0.0726693 10.282 -0.0664265 6.22327 2.48067 3.72235C5.02351 1.22618 9.13793 1.22633 11.6809 3.72235L12.0002 4.03485L12.3195 3.72235ZM19.9084 5.36297C18.2603 3.7453 15.5791 3.74545 13.9309 5.36297L12.9084 6.36688C12.4042 6.86177 11.5962 6.86179 11.092 6.36688L10.0705 5.36297C8.42223 3.74516 5.74021 3.74506 4.092 5.36297C2.50692 6.91909 2.45794 9.40389 3.94356 11.0182L4.092 11.1725L4.10274 11.1823L4.11348 11.193L12.0002 19.3444L19.8869 11.193L19.8977 11.1823L19.9084 11.1725C21.5447 9.566 21.5448 6.96946 19.9084 5.36297ZM11.9797 7.49969C12.6144 7.50016 13.1281 8.01527 13.1281 8.65008V10.7536H15.3498C15.9848 10.7536 16.5 11.2681 16.5002 11.903C16.5002 12.5381 15.9849 13.0534 15.3498 13.0534H13.1281V15.3493C13.1281 15.9843 12.6137 16.4995 11.9787 16.4997C11.3438 16.4994 10.8283 15.9843 10.8283 15.3493V13.0534H8.65059C8.01546 13.0534 7.5002 12.5381 7.5002 11.903C7.50043 11.2681 8.01561 10.7536 8.65059 10.7536H10.8283V8.65008C10.8283 8.01497 11.3446 7.49969 11.9797 7.49969Z" fill="currentColor"/>
</svg>
