<svg width="24" height="24" viewBox="0 0 24 24" fill="none" xmlns="http://www.w3.org/2000/svg">
<path fill-rule="evenodd" clip-rule="evenodd" d="M11.0469 4.61936C13.3378 2.37077 17.0442 2.3705 19.335 4.61936C19.6124 4.89174 19.8577 5.1856 20.0694 5.49631C20.2949 5.82733 20.482 6.17708 20.6309 6.53831C20.7236 6.7634 20.8015 6.9941 20.8643 7.22678C21.0295 7.83972 20.6665 8.47033 20.0537 8.63596C19.4405 8.80137 18.809 8.43863 18.6436 7.82542C18.6061 7.68668 18.5601 7.54939 18.5049 7.41526C18.4161 7.19966 18.3033 6.98987 18.168 6.79124C18.0411 6.60496 17.8933 6.42649 17.7237 6.25999C16.3275 4.88952 14.0545 4.88972 12.6582 6.25999L11.7715 7.13108C11.2673 7.62583 10.4593 7.62601 9.9551 7.13108L9.06839 6.25999C7.67231 4.88982 5.40014 4.89002 4.00393 6.25999C2.66281 7.57658 2.62074 9.67754 3.87795 11.0432L4.00393 11.1731L4.01467 11.1838L4.02444 11.1946L10.8633 18.2619L10.9951 18.1262L11.4746 17.6311C11.9163 17.1753 12.6444 17.1633 13.1006 17.6047C13.5569 18.0462 13.5682 18.7742 13.127 19.2307L12.6485 19.7258L11.6905 20.716C11.4739 20.9399 11.1747 21.0665 10.8633 21.0666C10.5519 21.0665 10.2537 20.9399 10.0371 20.716L2.3926 12.8147L2.18362 12.5989C0.0919905 10.326 0.161838 6.80945 2.3926 4.61936C4.68355 2.37077 8.38894 2.3705 10.6797 4.61936L10.8633 4.79905L11.0469 4.61936ZM21.7989 9.74143C22.3975 9.5294 23.0556 9.84294 23.2676 10.4416C23.4792 11.0401 23.1657 11.6973 22.5674 11.9094C22.0535 12.0914 21.4467 12.4883 20.794 13.0608C20.1533 13.6227 19.5283 14.3 18.9727 14.966C18.4193 15.6293 17.9486 16.2658 17.6162 16.7365C17.4506 16.9712 17.3195 17.1639 17.2315 17.2961C17.1875 17.3621 17.1537 17.4138 17.1319 17.4475C17.1212 17.464 17.1134 17.4768 17.1084 17.4846C17.106 17.4882 17.1036 17.4908 17.1026 17.4924L17.1016 17.4944C16.8793 17.8438 16.4859 18.0468 16.0723 18.0256C15.6586 18.0044 15.288 17.7622 15.1026 17.3918C14.673 16.5327 14.252 16.1409 14.0108 15.9699C13.8879 15.8829 13.8002 15.8447 13.7647 15.8313C13.7577 15.8287 13.7523 15.8274 13.749 15.8264C13.7532 15.8274 13.7607 15.8292 13.7715 15.8313C13.777 15.8323 13.7837 15.833 13.791 15.8342C13.7948 15.8348 13.7995 15.8355 13.8037 15.8362C13.8056 15.8364 13.8076 15.8368 13.8096 15.8371C13.8107 15.8373 13.8124 15.8379 13.8135 15.8381H13.8155L13.8164 15.8371C13.1881 15.7487 12.7503 15.1687 12.8379 14.5403C12.926 13.9114 13.5069 13.4729 14.1358 13.5608L14 14.5334C14.1259 13.6359 14.1362 13.566 14.1377 13.5608H14.1397C14.1409 13.561 14.1423 13.5616 14.1436 13.5617C14.1461 13.5621 14.1487 13.5623 14.1514 13.5627C14.1566 13.5635 14.1622 13.5647 14.168 13.5656C14.1799 13.5676 14.1938 13.5697 14.208 13.5725C14.2365 13.578 14.2695 13.5856 14.3067 13.5949C14.3814 13.6136 14.4732 13.6402 14.5782 13.6799C14.789 13.7596 15.0515 13.889 15.3408 14.094C15.6019 14.279 15.8757 14.5227 16.1524 14.8371C16.4516 14.4328 16.808 13.9705 17.2061 13.4934C17.8071 12.7729 18.5168 11.9994 19.2774 11.3323C20.0262 10.6756 20.889 10.0638 21.7989 9.74143Z" fill="currentColor"/>
</svg>
