<svg width="24" height="24" viewBox="0 0 24 24" fill="none" xmlns="http://www.w3.org/2000/svg">
<path d="M11.1008 4.33417C13.3788 2.09789 17.0641 2.09786 19.342 4.33417C19.8378 4.82096 20.2286 5.37667 20.511 5.97186C20.5822 6.12205 20.647 6.27534 20.7043 6.42987C20.9248 7.02484 20.6213 7.68616 20.0266 7.90741C19.4313 8.12842 18.7693 7.82488 18.5481 7.22968C18.5141 7.13799 18.4751 7.04735 18.4329 6.95819C18.2654 6.60517 18.0319 6.2716 17.7307 5.97577C16.3474 4.61775 14.0955 4.61777 12.7122 5.97577L11.8323 6.83905C11.3281 7.33382 10.5201 7.33373 10.0159 6.83905L9.13696 5.97577C7.75363 4.61775 5.50175 4.61777 4.11841 5.97577C2.78991 7.28014 2.7478 9.36122 3.99341 10.7141L4.11841 10.842L4.12915 10.8527L4.13892 10.8635L10.9241 17.8762L11.0491 17.7473C11.4907 17.2908 12.2196 17.2783 12.676 17.7199C13.1322 18.1616 13.1439 18.8905 12.7024 19.3469L12.4641 19.592L12.2268 19.8381L11.7512 20.3303C11.5346 20.5541 11.2355 20.6798 10.9241 20.6799C10.6129 20.6798 10.3144 20.5538 10.0979 20.3303L2.50708 12.4836L2.29907 12.2687C0.219475 10.0086 0.288861 6.51185 2.50708 4.33417C4.78502 2.09795 8.46932 2.09803 10.7473 4.33417L10.9241 4.50702L11.1008 4.33417ZM17.2551 9.94159C18.7389 8.72478 20.9432 8.7998 22.3372 10.1682C23.8174 11.6214 23.8235 13.9815 22.3577 15.4435L22.3586 15.4445L18.0823 19.8644C17.8658 20.0881 17.5673 20.2148 17.2561 20.215C16.9445 20.215 16.6456 20.0884 16.429 19.8644L12.1741 15.466L12.0393 15.3264C10.6879 13.8579 10.7329 11.583 12.1741 10.1682C13.568 8.80022 15.7715 8.72503 17.2551 9.94159ZM20.7258 11.8098C20.1449 11.2395 19.1947 11.2398 18.6135 11.8098L18.1633 12.2502C17.6591 12.7452 16.8521 12.7452 16.3479 12.2502L15.8977 11.8098C15.3167 11.2395 14.3665 11.2398 13.7854 11.8098C13.2518 12.3337 13.2179 13.1549 13.6848 13.716L13.7854 13.8244L13.8059 13.8449L17.2551 17.4103L20.7053 13.8449L20.7258 13.8244C21.2946 13.2655 21.2949 12.3685 20.7258 11.8098Z" fill="currentColor"/>
</svg>
