<svg width="24" height="24" viewBox="0 0 24 24" fill="none" xmlns="http://www.w3.org/2000/svg">
<g clip-path="url(#clip0_2103_16784)">
<path d="M10.1709 0.650391C11.2582 -0.117904 12.7116 -0.119145 13.8008 0.646484L22.5781 6.81836C23.4189 7.40958 23.9191 8.37448 23.917 9.40234L23.8926 20.7832C23.8888 22.52 22.48 23.9265 20.7432 23.9268H3.2334C1.49405 23.9264 0.0840426 22.5158 0.0839844 20.7764L0.0830078 9.41113C0.082988 8.3884 0.579945 7.42828 1.41504 6.83789L1.91406 6.48633C2.43269 6.11984 3.15003 6.24318 3.5166 6.76172C3.88301 7.28037 3.7598 7.99774 3.24121 8.36426L2.74316 8.7168C2.51805 8.87602 2.38394 9.13443 2.38379 9.41016V20.7764C2.38382 21.2456 2.76428 21.6256 3.2334 21.626H7.27148V15.2773C7.27148 14.09 8.2346 13.1271 9.42188 13.127H13.9561C15.1435 13.127 16.1064 14.0899 16.1064 15.2773V21.626H20.7432C21.2116 21.6257 21.5917 21.2468 21.5928 20.7783L21.6162 9.39746C21.6168 9.12025 21.4825 8.85975 21.2559 8.7002L12.4775 2.52832C12.1837 2.3219 11.7914 2.32202 11.498 2.5293L7.30762 5.49023L6.1582 6.36621C5.65323 6.75115 4.93102 6.6543 4.5459 6.14941C4.16134 5.64469 4.2585 4.92329 4.7627 4.53809L5.91211 3.66113L5.92871 3.64844L5.94629 3.63672L10.1709 0.650391ZM9.57227 21.626H13.8066V15.4277H9.57227V21.626Z" fill="currentColor"/>
</g>
<defs>
<clipPath id="clip0_2103_16784">
<rect width="24" height="24" fill="white"/>
</clipPath>
</defs>
</svg>
