<svg width="24" height="24" viewBox="0 0 24 24" fill="none" xmlns="http://www.w3.org/2000/svg">
<g clip-path="url(#clip0_2103_16107)">
<path d="M12 0.535156C13.7388 0.535165 15.3907 0.923918 16.8701 1.61914C17.3012 1.82174 17.7177 2.0502 18.1172 2.30273L18.5107 2.5625L18.5254 2.57324L18.6846 2.6875L18.7598 2.74512L18.832 2.80664C19.3167 3.21693 19.377 3.94295 18.9668 4.42773C18.5565 4.91208 17.8314 4.97243 17.3467 4.5625L17.3047 4.52637L17.2031 4.45508L16.8877 4.24707C16.5683 4.04519 16.2358 3.86195 15.8916 3.7002C14.7119 3.14581 13.3937 2.83595 12 2.83594C6.93933 2.83597 2.83691 6.93896 2.83691 12.001C2.83712 17.0628 6.93946 21.166 12 21.166C17.0605 21.166 21.1639 17.0628 21.1641 12.001C21.1641 11.512 21.1251 11.0323 21.0518 10.5654C20.9717 10.0561 20.8496 9.5605 20.6895 9.08301C20.4904 8.48985 20.2323 7.92305 19.9219 7.39062C19.6022 6.84211 19.7876 6.13835 20.3359 5.81836C20.8846 5.49842 21.5892 5.68376 21.9092 6.23242C22.2976 6.89861 22.6207 7.60816 22.8701 8.35156C23.0709 8.9501 23.224 9.57133 23.3242 10.209C23.416 10.7934 23.4639 11.3922 23.4639 12.001C23.4637 18.3327 18.3312 23.4658 12 23.4658C5.66883 23.4658 0.536336 18.3327 0.536133 12.001C0.536133 5.66907 5.66871 0.535191 12 0.535156ZM12 10.8506C12.635 10.8506 13.1501 11.3651 13.1504 12V16.5225C13.1504 17.1576 12.6351 17.6729 12 17.6729C11.3651 17.6726 10.8496 17.1574 10.8496 16.5225V12C10.8499 11.3653 11.3653 10.8508 12 10.8506ZM12 6.83203C12.635 6.83203 13.1501 7.34752 13.1504 7.98242V7.99219C13.1504 8.62731 12.6351 9.14258 12 9.14258C11.3651 9.14232 10.8496 8.62715 10.8496 7.99219V7.98242C10.8499 7.34768 11.3653 6.83229 12 6.83203Z" fill="currentColor"/>
</g>
<defs>
<clipPath id="clip0_2103_16107">
<rect width="24" height="24" fill="white"/>
</clipPath>
</defs>
</svg>
