<svg width="24" height="24" viewBox="0 0 24 24" fill="none" xmlns="http://www.w3.org/2000/svg">
<g clip-path="url(#clip0_ds_instagram)">
<path d="M11.999 0.412109C14.4265 0.412109 16.3634 0.410543 17.8789 0.614258C19.4276 0.822471 20.7081 1.26478 21.7217 2.27832C22.5681 3.12482 23.0185 4.16051 23.2646 5.39062C23.5044 6.58903 23.5633 8.04431 23.5801 9.78711C23.5866 10.4683 23.5879 12.4531 23.5879 13.2461C23.5876 13.881 23.0724 14.3955 22.4375 14.3955C21.8029 14.3952 21.2884 13.8807 21.2881 13.2461C21.2881 12.4468 21.2867 10.477 21.2803 9.80957C21.2635 8.06233 21.2023 6.80403 21.0098 5.8418C20.8236 4.91154 20.5302 4.3389 20.0957 3.9043C19.5807 3.38932 18.8659 3.06748 17.5723 2.89355C16.2456 2.71526 14.4914 2.71289 11.999 2.71289C9.50663 2.71289 7.75241 2.71519 6.42578 2.89355C5.13251 3.0675 4.41824 3.38937 3.90332 3.9043C3.38852 4.41925 3.06648 5.1335 2.89258 6.42676C2.71425 7.75341 2.71191 9.5076 2.71191 12C2.71191 14.4924 2.71425 16.2466 2.89258 17.5732C3.06651 18.8667 3.38837 19.5817 3.90332 20.0967C4.41824 20.6115 5.13262 20.9335 6.42578 21.1074C7.75241 21.2858 9.50663 21.2881 11.999 21.2881C14.4913 21.2881 16.2456 21.2857 17.5723 21.1074C18.8657 20.9335 19.5807 20.6115 20.0957 20.0967C20.7164 19.4759 21.0545 18.5675 21.1943 16.71C21.2421 16.0768 21.7946 15.6019 22.4277 15.6494C23.0609 15.6972 23.5359 16.2496 23.4883 16.8828C23.3372 18.8897 22.9432 20.5012 21.7217 21.7227C20.7082 22.736 19.4275 23.1785 17.8789 23.3867C16.3634 23.5904 14.4264 23.5879 11.999 23.5879C9.57161 23.5879 7.63463 23.5905 6.11914 23.3867C4.57086 23.1785 3.29073 22.7359 2.27734 21.7227C1.26385 20.7091 0.821506 19.4285 0.613281 17.8799C0.409532 16.3643 0.411133 14.4275 0.411133 12C0.411133 9.57258 0.409558 7.63563 0.613281 6.12012C0.821502 4.57176 1.26407 3.29175 2.27734 2.27832C3.29074 1.26492 4.5708 0.82252 6.11914 0.614258C7.63463 0.410506 9.57161 0.412109 11.999 0.412109ZM12.001 5.90625C15.3666 5.90644 18.0947 8.63536 18.0947 12.001C18.0945 15.3664 15.3664 18.0945 12.001 18.0947C8.63536 18.0947 5.90644 15.3666 5.90625 12.001C5.90625 8.63524 8.63524 5.90625 12.001 5.90625ZM12.001 8.20703C9.90549 8.20703 8.20703 9.90549 8.20703 12.001C8.20722 14.0963 9.90561 15.7949 12.001 15.7949C14.0962 15.7947 15.7947 14.0962 15.7949 12.001C15.7949 9.90561 14.0963 8.20722 12.001 8.20703ZM18.0518 4.80762C18.6869 4.80762 19.2021 5.32288 19.2021 5.95801C19.202 6.593 18.6868 7.1084 18.0518 7.1084H18.042C17.4071 7.1082 16.8918 6.59287 16.8916 5.95801C16.8916 5.323 17.407 4.80781 18.042 4.80762H18.0518Z" fill="currentColor"/>
</g>
<defs>
<clipPath id="clip0_ds_instagram">
<rect width="24" height="24" fill="white"/>
</clipPath>
</defs>
</svg>
