<svg width="56" height="56" viewBox="0 0 56 56" fill="none" xmlns="http://www.w3.org/2000/svg">
<g clip-path="url(#clip0_2445_6942)">
<path d="M45.9967 5.52205C49.0337 5.52237 51.4957 7.98439 51.4961 11.0215V47.3546C51.4961 50.3922 49.0335 52.8547 45.996 52.8547L11.9961 52.8554C8.95864 52.8554 6.49614 50.3928 6.49604 47.3553V28.262C6.49647 27.434 7.16781 26.7623 7.99588 26.7622C8.82405 26.7622 9.4953 27.434 9.49572 28.262V47.3553C9.49582 48.7359 10.6155 49.8557 11.9961 49.8557L45.996 49.855C47.3766 49.855 48.4956 48.7359 48.4957 47.3553V11.0222C48.4957 9.64144 47.3767 8.52242 45.996 8.52242L32.5754 8.52173C31.747 8.52171 31.0756 7.85031 31.0756 7.02189C31.0757 6.19357 31.7471 5.52206 32.5754 5.52205H45.9967ZM36.3817 18.5455C37.2098 18.5458 37.8814 19.2172 37.8815 20.0454V35.9539C37.8814 36.782 37.2098 37.4534 36.3817 37.4537H20.4731C19.6448 37.4537 18.9734 36.7822 18.9733 35.9539C18.9735 35.1256 19.6448 34.454 20.4731 34.454L32.7785 34.4527L9.388 10.5125C8.80906 9.91998 8.82031 8.97016 9.41286 8.39122C10.0053 7.81236 10.9545 7.82307 11.5335 8.41539L34.8811 32.3113V20.046C34.8811 19.2176 35.5532 18.5455 36.3817 18.5455Z" fill="currentColor"/>
</g>
<defs>
<clipPath id="clip0_2445_6942">
<rect width="56" height="56" fill="white"/>
</clipPath>
</defs>
</svg>
