<svg width="56" height="56" viewBox="0 0 56 56" fill="none" xmlns="http://www.w3.org/2000/svg">
<g clip-path="url(#clip0_ds_internal_link)">
<path d="M42.8534 5.3237C45.9738 5.3237 48.504 7.85394 48.504 10.9743V43.9321C48.5037 47.0523 45.9736 49.5814 42.8534 49.5814H12.0514C8.93131 49.5812 6.4016 47.0516 6.40149 43.9315V26.5963C6.402 25.6855 7.14092 24.9473 8.05187 24.9473C8.96283 24.9473 9.70174 25.6855 9.70225 26.5963V43.9315C9.70235 45.2292 10.7543 46.2813 12.0521 46.2813H42.8541C44.1517 46.2811 45.2039 45.2291 45.204 43.9315V10.9737C45.2039 9.67584 44.1512 8.62446 42.8534 8.62446L30.7601 8.62377C29.8488 8.62377 29.1097 7.88466 29.1097 6.97339C29.1099 6.0623 29.8489 5.32301 30.7601 5.32301L42.8534 5.3237ZM34.2756 17.3556C35.1869 17.3556 35.926 18.0947 35.926 19.0059L35.9267 33.7026C35.9267 34.6137 35.1873 35.3526 34.2763 35.353H19.579C18.6677 35.353 17.9286 34.6138 17.9286 33.7026C17.9286 32.7914 18.6677 32.0522 19.579 32.0522L30.3202 32.0515L9.14844 10.3826C8.51193 9.73082 8.52391 8.68602 9.17537 8.04924C9.82718 7.41241 10.8732 7.42436 11.5101 8.07617L32.6259 29.6878L32.6252 19.0059C32.6252 18.0947 33.3644 17.3556 34.2756 17.3556Z" fill="currentColor" stroke="currentColor" stroke-width="2.07" stroke-linejoin="round"/>
</g>
<defs>
<clipPath id="clip0_ds_internal_link">
<rect width="56" height="56" fill="white"/>
</clipPath>
</defs>
<!-- stroke normalized to match the 24px set at equal render size (DS has no size=s variant; source weight 3.3) -->
</svg>
