<svg width="24" height="24" viewBox="0 0 24 24" fill="none" xmlns="http://www.w3.org/2000/svg">
<g clip-path="url(#clip0_2103_12585)">
<path d="M7.7041 7.73486C8.02335 7.76545 8.27945 7.89419 8.43848 7.98975C8.63647 8.10877 8.81277 8.25565 8.95801 8.39209C9.24966 8.66615 9.53047 9.00496 9.76074 9.30615C9.99636 9.61438 10.2065 9.91893 10.3555 10.1431C10.4302 10.2555 10.4906 10.3504 10.5332 10.4175C10.5545 10.4509 10.5722 10.4786 10.584 10.4976C10.5897 10.5067 10.5944 10.5147 10.5977 10.52L10.6035 10.5288C10.9357 11.0698 10.7674 11.7793 10.2266 12.1118C9.68562 12.4442 8.97719 12.2746 8.64453 11.7339C8.64426 11.7334 8.64336 11.7322 8.64258 11.731C8.6407 11.7279 8.63709 11.7222 8.63281 11.7153C8.62409 11.7014 8.6104 11.6796 8.59277 11.6519C8.55721 11.5959 8.50454 11.5145 8.43945 11.4165C8.30778 11.2183 8.1284 10.9585 7.93359 10.7036C7.77921 10.5017 7.62889 10.3218 7.49609 10.1821C7.40822 10.3065 7.29581 10.4975 7.16113 10.7856C6.75431 11.6562 6.32914 12.9655 5.66699 14.8638L3.55859 20.9077H16.3008L14.0244 17.0767L13.2168 15.7788C13.0005 15.4382 12.8256 15.1805 12.6592 14.98C12.5227 14.8156 12.4439 14.7601 12.417 14.7437C12.4159 14.7437 12.4143 14.7444 12.4131 14.7446C12.2979 14.7568 12.2148 14.7871 12.0547 14.9741C11.9599 15.0848 11.8579 15.229 11.7236 15.4341C11.6086 15.6097 11.451 15.8554 11.29 16.0923L11.291 16.0933L10.0908 18.0112C9.75403 18.5494 9.04514 18.7128 8.50684 18.3765C7.96842 18.0396 7.80474 17.3299 8.1416 16.7915L9.3418 14.8735L9.36816 14.8335C9.52198 14.6092 9.64173 14.4143 9.79883 14.1743C9.94297 13.9541 10.1118 13.7067 10.3076 13.478C10.7287 12.9864 11.3096 12.5486 12.1719 12.4575C12.6351 12.4086 13.0809 12.4889 13.4941 12.7095C13.8801 12.9156 14.1822 13.2142 14.4287 13.5112C14.6602 13.7902 14.9008 14.1435 15.1562 14.5435L15.9736 15.8569L15.9873 15.8794L19.3105 21.4702C19.5214 21.8255 19.5256 22.2673 19.3213 22.6265C19.1168 22.9856 18.7345 23.2074 18.3213 23.2075H1.93945C1.56712 23.2075 1.21766 23.0266 1.00195 22.7231C0.786305 22.4195 0.730931 22.0299 0.853516 21.6782L3.49512 14.106C4.11957 12.3157 4.60494 10.8214 5.07715 9.81104C5.31529 9.30155 5.59773 8.8063 5.96875 8.4292C6.37187 8.01954 6.90414 7.72806 7.56348 7.72803L7.7041 7.73486ZM17.3477 9.51318C17.9825 9.51346 18.498 10.0286 18.498 10.6636V11.3706C18.498 12.0055 17.9825 12.5207 17.3477 12.521C16.7126 12.521 16.1973 12.0057 16.1973 11.3706V10.6636C16.1973 10.0284 16.7125 9.51318 17.3477 9.51318ZM13.7012 8.67725C14.1503 8.22835 14.8791 8.22821 15.3281 8.67725C15.7764 9.12625 15.7766 9.85431 15.3281 10.3032L14.8281 10.8032C14.3791 11.2522 13.6503 11.2521 13.2012 10.8032C12.7522 10.3542 12.7524 9.62634 13.2012 9.17725L13.7012 8.67725ZM19.3672 8.67725C19.8163 8.22835 20.5451 8.22821 20.9941 8.67725L21.4941 9.17725C21.9425 9.62629 21.9427 10.3543 21.4941 10.8032C21.0451 11.2522 20.3163 11.2521 19.8672 10.8032L19.3672 10.3032C18.9184 9.85423 18.9185 9.12632 19.3672 8.67725ZM17.3477 4.67236C18.4434 4.67257 19.332 5.56092 19.332 6.65674C19.332 7.75257 18.4434 8.64091 17.3477 8.64111C16.2517 8.64111 15.3633 7.7527 15.3633 6.65674C15.3633 5.56079 16.2517 4.67236 17.3477 4.67236ZM13.3408 5.50635C13.9757 5.50661 14.4912 6.02177 14.4912 6.65674C14.4912 7.29166 13.9757 7.80687 13.3408 7.80713H12.6338C11.9987 7.80713 11.4834 7.29182 11.4834 6.65674C11.4834 6.02161 11.9987 5.50635 12.6338 5.50635H13.3408ZM22.0615 5.50635C22.6964 5.50664 23.2119 6.02179 23.2119 6.65674C23.2119 7.29164 22.6964 7.80684 22.0615 7.80713H21.3545C20.7194 7.80713 20.2042 7.29182 20.2041 6.65674C20.2041 6.02161 20.7194 5.50635 21.3545 5.50635H22.0615ZM13.2012 2.51025C13.6503 2.0614 14.3781 2.06134 14.8271 2.51025L15.3271 3.01025C15.7759 3.45931 15.776 4.1872 15.3271 4.63623C14.8781 5.08524 14.1503 5.08506 13.7012 4.63623L13.2012 4.13623C12.7522 3.68712 12.7521 2.95932 13.2012 2.51025ZM19.8682 2.51025C20.3173 2.06157 21.0452 2.06129 21.4941 2.51025C21.9428 2.95924 21.9427 3.68719 21.4941 4.13623L20.9941 4.63623C20.5451 5.08523 19.8173 5.08503 19.3682 4.63623C18.9191 4.18713 18.9191 3.45936 19.3682 3.01025L19.8682 2.51025ZM17.3477 0.79248C17.9825 0.792757 18.498 1.30791 18.498 1.94287V2.6499C18.498 3.28483 17.9825 3.80002 17.3477 3.80029C16.7126 3.80029 16.1973 3.285 16.1973 2.6499V1.94287C16.1973 1.30774 16.7125 0.79248 17.3477 0.79248Z" fill="currentColor"/>
</g>
<defs>
<clipPath id="clip0_2103_12585">
<rect width="24" height="24" fill="white"/>
</clipPath>
</defs>
</svg>
