<svg width="24" height="24" viewBox="0 0 24 24" fill="none" xmlns="http://www.w3.org/2000/svg">
<g clip-path="url(#clip0_2103_16185)">
<path d="M12.0425 0.0361328C13.6441 0.0361328 14.9427 1.33502 14.9428 2.93652C14.9428 3.90232 14.4688 4.75505 13.7427 5.28223C14.5949 5.56052 15.4086 6.05029 16.1235 6.75391C16.8621 7.48086 17.7379 7.8388 18.5981 7.83887H20.4721C21.1072 7.83887 21.6223 8.3543 21.6225 8.98926C21.6224 9.62425 21.1072 10.1387 20.4721 10.1387H18.5981C17.0736 10.1386 15.6339 9.49858 14.5102 8.39258C14.1028 7.99164 13.654 7.70214 13.187 7.52344V21.0547H14.8686C15.5036 21.0549 16.018 21.5701 16.018 22.2051C16.0176 22.8397 15.5033 23.3543 14.8686 23.3545H9.20554C8.5708 23.3544 8.0556 22.8397 8.05515 22.2051C8.05515 21.57 8.57052 21.0548 9.20554 21.0547H10.8872V7.52344C10.4199 7.70216 9.9706 7.99138 9.56296 8.39258C8.4394 9.49852 7.00044 10.1385 5.47605 10.1387H3.33738C2.70245 10.1386 2.18715 9.62418 2.18699 8.98926C2.18719 8.35437 2.70248 7.83899 3.33738 7.83887H5.47605C6.3362 7.83873 7.21122 7.48077 7.94968 6.75391C8.66675 6.0481 9.48331 5.55719 10.3384 5.2793C9.61467 4.75186 9.14207 3.90039 9.14207 2.93652C9.14219 1.33512 10.4409 0.0362957 12.0425 0.0361328ZM5.2114 11.3027C5.21857 11.303 5.22573 11.3033 5.23289 11.3037C5.26289 11.3055 5.29282 11.3084 5.32273 11.3125C5.32989 11.3135 5.33707 11.3143 5.34421 11.3154C5.37041 11.3195 5.39636 11.3251 5.42234 11.3311C5.43773 11.3346 5.45298 11.3386 5.46824 11.3428C5.48817 11.3482 5.50808 11.3538 5.52781 11.3604C5.54353 11.3656 5.55916 11.371 5.57468 11.377C5.59494 11.3847 5.61529 11.3924 5.63523 11.4014C5.64956 11.4078 5.66312 11.4158 5.67722 11.4229C5.69577 11.4321 5.71469 11.4408 5.73289 11.4512C5.74887 11.4603 5.76415 11.4706 5.77976 11.4805C5.79302 11.4889 5.80678 11.4968 5.8198 11.5059C5.82248 11.5077 5.82496 11.5098 5.82761 11.5117C5.84161 11.5216 5.855 11.5324 5.86863 11.543C5.9202 11.5829 5.96731 11.6263 6.01023 11.6729C6.01179 11.6745 6.01356 11.676 6.01511 11.6777H6.01609V11.6787L6.0239 11.6865C6.02875 11.6919 6.03552 11.7001 6.04441 11.71C6.06217 11.7297 6.08792 11.7582 6.12058 11.7949C6.1862 11.8686 6.28085 11.9757 6.39695 12.1094C6.62891 12.3764 6.9504 12.7527 7.30808 13.1934C8.01442 14.0636 8.90004 15.2276 9.51609 16.3027H9.51414C9.5244 16.3203 9.53565 16.3377 9.54539 16.3564C9.58255 16.4278 9.61505 16.5058 9.64109 16.5898C9.69331 16.7585 9.71816 16.9433 9.71531 17.1416C9.70966 17.5292 9.59851 17.9915 9.35105 18.5625C8.7753 19.8906 7.22991 21.2174 5.31492 21.2188L5.31199 21.2197L5.31004 21.2188L5.30808 21.2197C5.30678 21.2197 5.30548 21.2188 5.30418 21.2188C3.38953 21.2169 1.84361 19.8904 1.26804 18.5625C1.02063 17.9915 0.910392 17.5292 0.904762 17.1416C0.901907 16.9432 0.926753 16.7585 0.97898 16.5898C1.00499 16.5059 1.0366 16.4277 1.07371 16.3564C1.09219 16.321 1.11208 16.2873 1.1323 16.2559C1.14237 16.2402 1.15322 16.2245 1.16355 16.21L4.21921 11.7969C4.2217 11.7933 4.22451 11.7897 4.22703 11.7861C4.24559 11.76 4.26562 11.7348 4.2866 11.71C4.29033 11.7055 4.29355 11.7007 4.29734 11.6963C4.31045 11.6813 4.32434 11.6668 4.33836 11.6523C4.35345 11.6367 4.36843 11.6211 4.38425 11.6064C4.38645 11.6044 4.38887 11.6026 4.39109 11.6006C4.40008 11.5924 4.41023 11.585 4.41941 11.5771C4.43744 11.5618 4.45529 11.5464 4.4741 11.5322C4.48648 11.5229 4.49953 11.5146 4.51218 11.5059C4.5294 11.494 4.54618 11.4816 4.56394 11.4707C4.58028 11.4607 4.59705 11.4515 4.61375 11.4424C4.6286 11.4343 4.64351 11.4264 4.65867 11.4189C4.67835 11.4093 4.69816 11.4001 4.71824 11.3916C4.73347 11.3852 4.74867 11.3788 4.76414 11.373C4.78445 11.3655 4.80504 11.3589 4.82566 11.3525C4.83827 11.3487 4.85101 11.3452 4.86375 11.3418C4.88414 11.3363 4.90467 11.3315 4.92527 11.3271C4.94669 11.3226 4.96808 11.3178 4.98972 11.3145C4.99751 11.3133 5.00536 11.3126 5.01316 11.3115C5.04202 11.3077 5.07098 11.3044 5.10007 11.3027C5.10787 11.3023 5.11571 11.303 5.12351 11.3027C5.15278 11.3016 5.18206 11.3016 5.2114 11.3027ZM18.6762 11.3027C18.6837 11.303 18.6912 11.3033 18.6987 11.3037C18.7284 11.3054 18.758 11.3084 18.7876 11.3125C18.7938 11.3134 18.7999 11.3145 18.8061 11.3154C18.8342 11.3197 18.8623 11.3246 18.8901 11.3311C18.9023 11.3339 18.9142 11.3376 18.9262 11.3408C18.9501 11.3472 18.974 11.3534 18.9975 11.3613C19.0084 11.365 19.019 11.3691 19.0298 11.373C19.0547 11.3823 19.0795 11.3922 19.104 11.4033C19.1069 11.4046 19.1099 11.4059 19.1128 11.4072L19.185 11.4434L19.2124 11.459C19.227 11.4676 19.2411 11.4771 19.2553 11.4863C19.2653 11.4928 19.2758 11.4991 19.2856 11.5059C19.2883 11.5077 19.2908 11.5098 19.2934 11.5117C19.3084 11.5223 19.3229 11.5336 19.3374 11.5449C19.3875 11.5839 19.4332 11.6265 19.4751 11.6719C19.4769 11.6739 19.4791 11.6757 19.4809 11.6777H19.4819V11.6787L19.4897 11.6865C19.4946 11.6919 19.5014 11.7002 19.5102 11.71C19.528 11.7297 19.5538 11.7583 19.5864 11.7949C19.652 11.8686 19.7467 11.9758 19.8628 12.1094C20.0947 12.3764 20.4163 12.7528 20.7739 13.1934C21.4802 14.0636 22.3659 15.2276 22.9819 16.3027H22.98C22.9902 16.3203 23.0015 16.3378 23.0112 16.3564C23.0483 16.4278 23.0809 16.5059 23.1069 16.5898C23.1591 16.7585 23.184 16.9433 23.1811 17.1416C23.1755 17.5292 23.0643 17.9915 22.8169 18.5625C22.2412 19.8905 20.6956 21.2172 18.7807 21.2188L18.7778 21.2197L18.7759 21.2188L18.7739 21.2197C18.7726 21.2197 18.7713 21.2188 18.77 21.2188C16.8552 21.2171 15.3095 19.8905 14.7339 18.5625C14.4864 17.9915 14.3762 17.5292 14.3706 17.1416C14.3677 16.9432 14.3925 16.7585 14.4448 16.5898C14.4708 16.5058 14.5024 16.4278 14.5395 16.3564C14.558 16.3209 14.5779 16.2874 14.5981 16.2559C14.6082 16.2401 14.619 16.2246 14.6294 16.21L17.685 11.7969C17.6877 11.793 17.6901 11.789 17.6928 11.7852C17.7032 11.7707 17.715 11.7573 17.7261 11.7432C17.7411 11.7239 17.7559 11.7046 17.7719 11.6865C17.7772 11.6807 17.7822 11.6747 17.7876 11.6689C17.833 11.6199 17.8821 11.5757 17.9341 11.5361C17.9507 11.5235 17.9677 11.5116 17.9848 11.5C17.9997 11.4899 18.0145 11.48 18.0298 11.4707C18.0432 11.4624 18.0571 11.4549 18.0708 11.4473C18.0899 11.4366 18.1088 11.4255 18.1284 11.416C18.1469 11.407 18.1661 11.3995 18.185 11.3916C18.1987 11.3859 18.2122 11.3802 18.2261 11.375C18.247 11.3671 18.2682 11.3601 18.2895 11.3535C18.3035 11.3492 18.3174 11.3446 18.3315 11.3408C18.35 11.3359 18.3685 11.3312 18.3872 11.3271C18.4095 11.3223 18.432 11.318 18.4546 11.3145C18.4627 11.3132 18.4709 11.3126 18.479 11.3115C18.5078 11.3077 18.5368 11.3044 18.5659 11.3027C18.5737 11.3023 18.5815 11.303 18.5893 11.3027C18.6183 11.3017 18.6472 11.3016 18.6762 11.3027ZM3.23679 17.2559C3.26096 17.3432 3.30214 17.4725 3.37839 17.6484C3.64604 18.2656 4.4424 18.9207 5.31004 18.9199C6.17737 18.9207 6.97287 18.2654 7.2407 17.6484C7.32476 17.4545 7.36852 17.3176 7.39109 17.2305C6.87382 16.374 6.15404 15.4223 5.52195 14.6436C5.43306 14.534 5.34541 14.4296 5.26218 14.3291L3.23679 17.2559ZM16.7026 17.2559C16.7268 17.3432 16.768 17.4725 16.8442 17.6484C17.1119 18.2655 17.9083 18.9208 18.7759 18.9199C19.6433 18.9206 20.4388 18.2654 20.7065 17.6484C20.7906 17.4544 20.8343 17.3176 20.8569 17.2305C20.3397 16.3741 19.6198 15.4223 18.9878 14.6436C18.8989 14.5341 18.8112 14.4295 18.728 14.3291L16.7026 17.2559ZM16.4829 17.5713C16.4854 17.568 16.4882 17.5648 16.4907 17.5615L16.4946 17.5557L16.4829 17.5713ZM12.0425 2.33691C11.7114 2.33708 11.443 2.60509 11.4428 2.93652C11.4428 3.26806 11.7114 3.53695 12.0425 3.53711C12.3737 3.53711 12.6421 3.26816 12.6421 2.93652C12.6419 2.60499 12.3736 2.33691 12.0425 2.33691Z" fill="currentColor"/>
</g>
<defs>
<clipPath id="clip0_2103_16185">
<rect width="24" height="24" fill="white"/>
</clipPath>
</defs>
</svg>
