<svg width="24" height="24" viewBox="0 0 24 24" fill="none" xmlns="http://www.w3.org/2000/svg">
<g clip-path="url(#clip0_ds_legal)">
<path d="M12.0422 0.0361328C13.6439 0.0361328 14.9425 1.33502 14.9426 2.93652C14.9426 3.90232 14.4686 4.75505 13.7424 5.28223C14.5946 5.56052 15.4084 6.05029 16.1233 6.75391C16.8618 7.48086 17.7377 7.8388 18.5979 7.83887H20.4719C21.1069 7.83887 21.6221 8.3543 21.6223 8.98926C21.6222 9.62425 21.107 10.1387 20.4719 10.1387H18.5979C17.0734 10.1386 15.6336 9.49858 14.51 8.39258C14.1026 7.99164 13.6538 7.70214 13.1868 7.52344V21.0547H14.8684C15.5034 21.0549 16.0178 21.5701 16.0178 22.2051C16.0174 22.8397 15.5031 23.3543 14.8684 23.3545H9.20532C8.57058 23.3544 8.05538 22.8397 8.05493 22.2051C8.05493 21.57 8.5703 21.0548 9.20532 21.0547H10.887V7.52344C10.4197 7.70216 9.97038 7.99138 9.56274 8.39258C8.43918 9.49852 7.00022 10.1385 5.47583 10.1387H3.33716C2.70223 10.1386 2.18692 9.62418 2.18677 8.98926C2.18697 8.35437 2.70226 7.83899 3.33716 7.83887H5.47583C6.33598 7.83873 7.211 7.48077 7.94946 6.75391C8.66653 6.0481 9.48309 5.55719 10.3381 5.2793C9.61445 4.75186 9.14185 3.90039 9.14185 2.93652C9.14197 1.33512 10.4407 0.0362957 12.0422 0.0361328ZM5.21118 11.3027C5.21835 11.303 5.22551 11.3033 5.23267 11.3037C5.26267 11.3055 5.2926 11.3084 5.32251 11.3125C5.32967 11.3135 5.33685 11.3143 5.34399 11.3154C5.37018 11.3195 5.39613 11.3251 5.42212 11.3311C5.43751 11.3346 5.45276 11.3386 5.46802 11.3428C5.48795 11.3482 5.50786 11.3538 5.52759 11.3604C5.54331 11.3656 5.55894 11.371 5.57446 11.377C5.59472 11.3847 5.61507 11.3924 5.63501 11.4014C5.64934 11.4078 5.6629 11.4158 5.677 11.4229C5.69555 11.4321 5.71447 11.4408 5.73267 11.4512C5.74865 11.4603 5.76393 11.4706 5.77954 11.4805C5.7928 11.4889 5.80655 11.4968 5.81958 11.5059C5.82226 11.5077 5.82474 11.5098 5.82739 11.5117C5.84139 11.5216 5.85478 11.5324 5.86841 11.543C5.91998 11.5829 5.96709 11.6263 6.01001 11.6729C6.01157 11.6745 6.01334 11.676 6.01489 11.6777H6.01587V11.6787L6.02368 11.6865C6.02853 11.6919 6.0353 11.7001 6.04419 11.71C6.06195 11.7297 6.0877 11.7582 6.12036 11.7949C6.18598 11.8686 6.28063 11.9757 6.39673 12.1094C6.62869 12.3764 6.95018 12.7527 7.30786 13.1934C8.0142 14.0636 8.89982 15.2276 9.51587 16.3027H9.51392C9.52418 16.3203 9.53543 16.3377 9.54517 16.3564C9.58233 16.4278 9.61483 16.5058 9.64087 16.5898C9.69309 16.7585 9.71794 16.9433 9.71509 17.1416C9.70944 17.5292 9.59829 17.9915 9.35083 18.5625C8.77508 19.8906 7.22969 21.2174 5.3147 21.2188L5.31177 21.2197L5.30981 21.2188L5.30786 21.2197C5.30656 21.2197 5.30526 21.2188 5.30396 21.2188C3.38931 21.2169 1.84339 19.8904 1.26782 18.5625C1.0204 17.9915 0.910171 17.5292 0.904541 17.1416C0.901687 16.9432 0.926533 16.7585 0.97876 16.5898C1.00477 16.5059 1.03638 16.4277 1.07349 16.3564C1.09197 16.321 1.11186 16.2873 1.13208 16.2559C1.14215 16.2402 1.15299 16.2245 1.16333 16.21L4.21899 11.7969C4.22148 11.7933 4.22429 11.7897 4.22681 11.7861C4.24536 11.76 4.2654 11.7348 4.28638 11.71C4.29011 11.7055 4.29333 11.7007 4.29712 11.6963C4.31023 11.6813 4.32412 11.6668 4.33813 11.6523C4.35323 11.6367 4.36821 11.6211 4.38403 11.6064C4.38623 11.6044 4.38865 11.6026 4.39087 11.6006C4.39986 11.5924 4.41001 11.585 4.41919 11.5771C4.43722 11.5618 4.45507 11.5464 4.47388 11.5322C4.48626 11.5229 4.49931 11.5146 4.51196 11.5059C4.52918 11.494 4.54596 11.4816 4.56372 11.4707C4.58006 11.4607 4.59683 11.4515 4.61353 11.4424C4.62838 11.4343 4.64329 11.4264 4.65845 11.4189C4.67813 11.4093 4.69794 11.4001 4.71802 11.3916C4.73324 11.3852 4.74845 11.3788 4.76392 11.373C4.78423 11.3655 4.80482 11.3589 4.82544 11.3525C4.83805 11.3487 4.85079 11.3452 4.86353 11.3418C4.88392 11.3363 4.90444 11.3315 4.92505 11.3271C4.94647 11.3226 4.96785 11.3178 4.9895 11.3145C4.99729 11.3133 5.00514 11.3126 5.01294 11.3115C5.04179 11.3077 5.07076 11.3044 5.09985 11.3027C5.10765 11.3023 5.11549 11.303 5.12329 11.3027C5.15256 11.3016 5.18184 11.3016 5.21118 11.3027ZM18.676 11.3027C18.6835 11.303 18.691 11.3033 18.6985 11.3037C18.7282 11.3054 18.7578 11.3084 18.7874 11.3125C18.7936 11.3134 18.7997 11.3145 18.8059 11.3154C18.834 11.3197 18.862 11.3246 18.8899 11.3311C18.902 11.3339 18.914 11.3376 18.926 11.3408C18.9499 11.3472 18.9738 11.3534 18.9973 11.3613C19.0081 11.365 19.0188 11.3691 19.0295 11.373C19.0545 11.3823 19.0793 11.3922 19.1038 11.4033C19.1067 11.4046 19.1096 11.4059 19.1125 11.4072L19.1848 11.4434L19.2122 11.459C19.2268 11.4676 19.2408 11.4771 19.2551 11.4863C19.265 11.4928 19.2756 11.4991 19.2854 11.5059C19.2881 11.5077 19.2906 11.5098 19.2932 11.5117C19.3082 11.5223 19.3226 11.5336 19.3372 11.5449C19.3873 11.5839 19.433 11.6265 19.4749 11.6719C19.4767 11.6739 19.4789 11.6757 19.4807 11.6777H19.4817V11.6787L19.4895 11.6865C19.4943 11.6919 19.5012 11.7002 19.51 11.71C19.5278 11.7297 19.5536 11.7583 19.5862 11.7949C19.6518 11.8686 19.7465 11.9758 19.8625 12.1094C20.0945 12.3764 20.4161 12.7528 20.7737 13.1934C21.48 14.0636 22.3657 15.2276 22.9817 16.3027H22.9797C22.99 16.3203 23.0013 16.3378 23.011 16.3564C23.0481 16.4278 23.0807 16.5059 23.1067 16.5898C23.1589 16.7585 23.1838 16.9433 23.1809 17.1416C23.1753 17.5292 23.0641 17.9915 22.8167 18.5625C22.241 19.8905 20.6954 21.2172 18.7805 21.2188L18.7776 21.2197L18.7756 21.2188L18.7737 21.2197C18.7724 21.2197 18.7711 21.2188 18.7698 21.2188C16.855 21.2171 15.3093 19.8905 14.7336 18.5625C14.4862 17.9915 14.376 17.5292 14.3704 17.1416C14.3675 16.9432 14.3923 16.7585 14.4446 16.5898C14.4706 16.5058 14.5022 16.4278 14.5393 16.3564C14.5578 16.3209 14.5776 16.2874 14.5979 16.2559C14.608 16.2401 14.6188 16.2246 14.6292 16.21L17.6848 11.7969C17.6875 11.793 17.6899 11.789 17.6926 11.7852C17.7029 11.7707 17.7148 11.7573 17.7258 11.7432C17.7409 11.7239 17.7557 11.7046 17.7717 11.6865C17.7769 11.6807 17.782 11.6747 17.7874 11.6689C17.8328 11.6199 17.8819 11.5757 17.9338 11.5361C17.9504 11.5235 17.9675 11.5116 17.9846 11.5C17.9995 11.4899 18.0143 11.48 18.0295 11.4707C18.043 11.4624 18.0568 11.4549 18.0706 11.4473C18.0897 11.4366 18.1085 11.4255 18.1282 11.416C18.1467 11.407 18.1659 11.3995 18.1848 11.3916C18.1984 11.3859 18.212 11.3802 18.2258 11.375C18.2468 11.3671 18.268 11.3601 18.2893 11.3535C18.3033 11.3492 18.3172 11.3446 18.3313 11.3408C18.3498 11.3359 18.3683 11.3312 18.387 11.3271C18.4093 11.3223 18.4318 11.318 18.4543 11.3145C18.4624 11.3132 18.4706 11.3126 18.4788 11.3115C18.5076 11.3077 18.5366 11.3044 18.5657 11.3027C18.5735 11.3023 18.5813 11.303 18.5891 11.3027C18.6181 11.3017 18.647 11.3016 18.676 11.3027ZM3.23657 17.2559C3.26073 17.3432 3.30192 17.4725 3.37817 17.6484C3.64582 18.2656 4.44218 18.9207 5.30981 18.9199C6.17715 18.9207 6.97265 18.2654 7.24048 17.6484C7.32454 17.4545 7.3683 17.3176 7.39087 17.2305C6.8736 16.374 6.15382 15.4223 5.52173 14.6436C5.43284 14.534 5.34519 14.4296 5.26196 14.3291L3.23657 17.2559ZM16.7024 17.2559C16.7266 17.3432 16.7678 17.4725 16.844 17.6484C17.1117 18.2655 17.9081 18.9208 18.7756 18.9199C19.643 18.9206 20.4385 18.2654 20.7063 17.6484C20.7904 17.4544 20.8341 17.3176 20.8567 17.2305C20.3395 16.3741 19.6196 15.4223 18.9875 14.6436C18.8987 14.5341 18.811 14.4295 18.7278 14.3291L16.7024 17.2559ZM16.4827 17.5713C16.4852 17.568 16.488 17.5648 16.4905 17.5615L16.4944 17.5557L16.4827 17.5713ZM12.0422 2.33691C11.7112 2.33708 11.4427 2.60509 11.4426 2.93652C11.4426 3.26806 11.7111 3.53695 12.0422 3.53711C12.3735 3.53711 12.6418 3.26816 12.6418 2.93652C12.6417 2.60499 12.3734 2.33691 12.0422 2.33691Z" fill="currentColor"/>
</g>
<defs>
<clipPath id="clip0_ds_legal">
<rect width="24" height="24" fill="white"/>
</clipPath>
</defs>
</svg>
