<svg width="24" height="24" viewBox="0 0 24 24" fill="none" xmlns="http://www.w3.org/2000/svg">
<g clip-path="url(#clip0_2103_16980)">
<path d="M12.6714 8.65479C12.9559 8.65479 13.2476 8.65375 13.4937 8.67627C13.7229 8.69728 13.9986 8.74484 14.2778 8.88135L14.3979 8.9458L14.5132 9.01807C14.6607 9.11761 14.7939 9.23615 14.9116 9.36865C15.6721 8.91742 16.5543 8.65585 17.5005 8.65576C20.3187 8.65576 23.2202 11.0414 23.2202 14.1772V15.2095C23.2202 15.8446 22.7049 16.3599 22.0698 16.3599C21.4349 16.3597 20.9204 15.8445 20.9204 15.2095V14.1772C20.9204 12.4843 19.2282 10.9556 17.5005 10.9556C16.5968 10.9557 15.7696 11.3964 15.2134 12.1274C14.9146 12.5201 14.3987 12.6784 13.9312 12.521C13.4636 12.3633 13.148 11.9246 13.1479 11.4312C13.1479 11.2754 13.1479 11.1525 13.146 11.0464C13.1454 11.0147 13.1429 10.9862 13.1421 10.9604C13.1166 10.9596 13.0883 10.9581 13.0571 10.9575C12.951 10.9557 12.8273 10.9556 12.6714 10.9556H11.8696C11.6365 10.9556 11.4511 10.9555 11.2925 10.9595C11.2113 10.9615 11.1441 10.9636 11.0884 10.9673C11.0847 11.023 11.0826 11.0902 11.0806 11.1714C11.0766 11.3301 11.0767 11.5153 11.0767 11.7485V20.0063C11.0767 20.2394 11.0766 20.4239 11.0806 20.5825C11.0826 20.6633 11.0847 20.7301 11.0884 20.7856C11.1441 20.7893 11.2113 20.7924 11.2925 20.7944C11.4511 20.7984 11.6365 20.7993 11.8696 20.7993H12.355C12.588 20.7993 12.7726 20.7984 12.9312 20.7944C13.0117 20.7924 13.0788 20.7893 13.1343 20.7856C13.1379 20.73 13.142 20.6633 13.144 20.5825C13.148 20.4239 13.1479 20.2394 13.1479 20.0063V16.606C13.148 15.896 13.3095 15.0784 13.8774 14.4282C14.4708 13.749 15.3356 13.4468 16.3267 13.4468C16.9237 13.4468 17.5109 13.6218 17.9761 13.9624C18.4406 14.3026 18.8481 14.8686 18.8481 15.6011V19.52C18.8481 19.9932 18.8495 20.408 18.8794 20.7378C18.8818 20.7641 18.8847 20.7889 18.8872 20.812C18.9374 20.8149 18.9963 20.8181 19.0649 20.8198C19.2235 20.8238 19.4081 20.8237 19.6411 20.8237H20.1255C20.3584 20.8237 20.5431 20.8238 20.7017 20.8198C20.7698 20.8181 20.8285 20.8149 20.8784 20.812C20.881 20.7888 20.8848 20.7642 20.8872 20.7378C20.9171 20.4081 20.9183 19.9939 20.9185 19.521V18.7251C20.9187 18.0902 21.4339 17.5758 22.0688 17.5757C22.7038 17.5757 23.2181 18.0902 23.2183 18.7251V19.521C23.2182 19.9636 23.2195 20.4912 23.1782 20.9458C23.1575 21.1743 23.1229 21.427 23.0571 21.6655C22.9982 21.8792 22.8777 22.2218 22.5972 22.5024C22.2056 22.8938 21.7362 23.0259 21.3442 23.0786C20.9854 23.1268 20.5506 23.1245 20.1255 23.1245H19.6411C19.2159 23.1245 18.7812 23.1268 18.4224 23.0786C18.0303 23.0259 17.5609 22.8939 17.1694 22.5024C16.8888 22.2216 16.7684 21.8782 16.7095 21.6646C16.6438 21.4262 16.6091 21.1741 16.5884 20.9458C16.5472 20.4911 16.5483 19.9628 16.5483 19.52V15.7847C16.4977 15.7654 16.4235 15.7466 16.3267 15.7466C15.8027 15.7466 15.6518 15.8939 15.6099 15.9419C15.5426 16.0191 15.4478 16.2069 15.4478 16.606V20.0063C15.4478 20.4317 15.4501 20.8662 15.4019 21.2251C15.3491 21.6171 15.218 22.0856 14.8267 22.4771C14.4353 22.8684 13.9667 23.0005 13.5747 23.0532C13.2157 23.1015 12.7804 23.0991 12.355 23.0991H11.8696C11.4442 23.0991 11.0088 23.1015 10.6499 23.0532C10.2579 23.0005 9.78941 22.8685 9.39795 22.4771C9.00653 22.0855 8.87448 21.6171 8.82178 21.2251C8.77355 20.8663 8.77588 20.4316 8.77588 20.0063V11.7485C8.77588 11.3231 8.77351 10.8878 8.82178 10.5288C8.8745 10.1368 9.00648 9.66836 9.39795 9.27686C9.78942 8.88538 10.2579 8.75342 10.6499 8.70068C11.0088 8.65243 11.4442 8.65478 11.8696 8.65479H12.6714ZM4.35889 8.65479C4.78423 8.65478 5.21973 8.65243 5.57861 8.70068C5.9214 8.74685 6.32313 8.85338 6.68018 9.14111L6.83057 9.27686L6.96533 9.42627C7.25357 9.78366 7.35962 10.1857 7.40576 10.5288C7.45403 10.8878 7.45166 11.3231 7.45166 11.7485V20.0063C7.45166 20.4316 7.454 20.8663 7.40576 21.2251C7.35307 21.617 7.22176 22.0856 6.83057 22.4771C6.43928 22.8683 5.97052 23.0004 5.57861 23.0532C5.21973 23.1015 4.78423 23.0991 4.35889 23.0991H3.87354C3.44822 23.0991 3.01273 23.1014 2.65381 23.0532C2.26181 23.0005 1.79335 22.8685 1.40186 22.4771C1.01035 22.0855 0.878393 21.6171 0.825684 21.2251C0.777444 20.8662 0.779783 20.4316 0.779785 20.0063V11.7485C0.779785 11.3231 0.77742 10.8878 0.825684 10.5288C0.878413 10.1368 1.01036 9.66835 1.40186 9.27686C1.79334 8.88549 2.26182 8.75339 2.65381 8.70068C3.01273 8.65247 3.44822 8.65479 3.87354 8.65479H4.35889ZM3.29639 10.9595C3.21532 10.9615 3.14798 10.9636 3.09229 10.9673C3.08859 11.023 3.08653 11.0902 3.08447 11.1714C3.08047 11.3301 3.08057 11.5153 3.08057 11.7485V20.0063C3.08057 20.2394 3.08047 20.4239 3.08447 20.5825C3.08651 20.6633 3.08862 20.7301 3.09229 20.7856C3.148 20.7893 3.21528 20.7924 3.29639 20.7944C3.455 20.7984 3.64046 20.7993 3.87354 20.7993H4.35889C4.59179 20.7993 4.77653 20.7984 4.93506 20.7944C5.01552 20.7924 5.08274 20.7893 5.13818 20.7856C5.14185 20.7301 5.14591 20.6633 5.14795 20.5825C5.15195 20.4239 5.15186 20.2394 5.15186 20.0063V11.7485C5.15186 11.5153 5.15195 11.3301 5.14795 11.1714C5.14589 11.0901 5.14188 11.0231 5.13818 10.9673C5.08276 10.9636 5.01549 10.9615 4.93506 10.9595C4.77653 10.9555 4.59179 10.9556 4.35889 10.9556H3.87354C3.64046 10.9556 3.455 10.9555 3.29639 10.9595ZM4.11572 0.875488C5.95768 0.875688 7.4513 2.36951 7.45166 4.21143C7.45166 6.05365 5.9579 7.54716 4.11572 7.54736C2.27352 7.54719 0.779785 6.05367 0.779785 4.21143C0.780145 2.36949 2.27374 0.87566 4.11572 0.875488ZM4.11572 3.17627C3.544 3.17644 3.08093 3.63975 3.08057 4.21143C3.08057 4.78341 3.54378 5.24739 4.11572 5.24756C4.68765 5.24736 5.15186 4.78339 5.15186 4.21143C5.1515 3.63976 4.68742 3.17647 4.11572 3.17627Z" fill="currentColor"/>
</g>
<defs>
<clipPath id="clip0_2103_16980">
<rect width="24" height="24" fill="white"/>
</clipPath>
</defs>
</svg>
