<svg width="24" height="24" viewBox="0 0 24 24" fill="none" xmlns="http://www.w3.org/2000/svg">
<path d="M11.9998 6.32812C14.5771 6.32843 16.6667 8.41862 16.6667 10.9961C16.6665 13.5733 14.577 15.6628 11.9998 15.6631C9.42228 15.6631 7.33207 13.5735 7.33179 10.9961C7.33179 8.41843 9.42211 6.32812 11.9998 6.32812ZM11.9998 8.62891C10.6922 8.62891 9.63257 9.6888 9.63257 10.9961C9.63285 12.3031 10.6924 13.3633 11.9998 13.3633C13.3068 13.363 14.3667 12.303 14.3669 10.9961C14.3669 9.68899 13.307 8.62921 11.9998 8.62891Z" fill="currentColor"/>
<path d="M19.4602 5.76323C19.0071 5.12727 18.4717 4.55788 17.8737 4.06519C16.2461 2.72417 14.1552 1.95142 12.0003 1.95142C8.44 1.95142 5.05458 4.06087 3.64426 7.35746C1.03589 13.4545 6.38453 17.654 10.3757 21.4134C10.8115 21.8214 11.3941 22.0495 12.0003 22.0495C12.6066 22.0495 13.1891 21.8214 13.625 21.4134C16.6656 18.5662 20.477 15.4455 20.9881 11.4386C21.0787 10.7279 21.0656 9.98929 20.9258 9.21938C20.9258 9.21938 20.8827 9.02965 20.8591 8.96829" stroke="currentColor" stroke-width="2.3" stroke-linecap="round"/>
</svg>
