<svg width="24" height="24" viewBox="0 0 24 24" fill="none" xmlns="http://www.w3.org/2000/svg">
<path d="M18.2502 3.40283C20.8565 3.40283 22.9699 5.51632 22.97 8.12256C22.9699 10.7288 20.8565 12.8413 18.2502 12.8413H15.4524V19.438C15.4524 20.073 14.9379 20.5882 14.303 20.5884C13.6681 20.5881 13.1526 20.073 13.1526 19.438V4.56982C13.1526 3.95948 13.629 3.46042 14.2297 3.42236C14.2981 3.40966 14.3686 3.40285 14.4407 3.40283H18.2502ZM1.94849 3.74463C2.58338 3.74472 3.09862 4.26017 3.09888 4.89502V17.9888H10.301C10.9358 17.989 11.4502 18.5044 11.4504 19.1392C11.4502 19.774 10.9358 20.2884 10.301 20.2886H2.94849C1.76123 20.2886 0.798351 19.3264 0.798096 18.1392V4.89502C0.798351 4.26011 1.31352 3.74463 1.94849 3.74463ZM15.4524 10.5415H18.2502C19.5863 10.5415 20.6691 9.45855 20.6692 8.12256C20.6691 6.78658 19.5862 5.70361 18.2502 5.70361H15.4524V10.5415Z" fill="currentColor"/>
</svg>
