<svg width="24" height="24" viewBox="0 0 24 24" fill="none" xmlns="http://www.w3.org/2000/svg">
<g clip-path="url(#clip0_2245_6641)">
<path d="M12.0005 0.54248C18.534 0.542642 23.8304 5.84002 23.8306 12.3735V22.3071C23.8306 22.9423 23.3153 23.4575 22.6802 23.4575C22.0454 23.4572 21.5308 22.942 21.5308 22.3071V12.3735C21.5306 7.11027 17.2637 2.84342 12.0005 2.84326C6.73723 2.84342 2.47035 7.11027 2.47021 12.3735V22.3071C2.47021 22.9423 1.95495 23.4575 1.31982 23.4575C0.684829 23.4574 0.169434 22.9422 0.169434 22.3071V12.3735C0.169565 5.84001 5.46697 0.542636 12.0005 0.54248ZM12.4829 6.13525C14.3232 6.13525 15.8749 6.25706 17.0229 7.07861C18.2192 7.93491 18.7192 9.34988 19.0874 11.0991L19.5786 13.4292C19.9048 14.9789 20.181 16.2774 20.2319 17.3159C20.2851 18.4026 20.1054 19.4242 19.3228 20.2642C19.2177 20.3769 19.1049 20.4772 18.9897 20.5718L19.9038 21.4858C20.3529 21.9349 20.3529 22.6637 19.9038 23.1128C19.4547 23.5614 18.7268 23.5616 18.2778 23.1128L16.2573 21.0923C16.107 20.9419 16.0081 20.7599 15.9585 20.5679C15.9548 20.5552 15.95 20.5427 15.9468 20.5298C15.7916 19.914 16.1651 19.2887 16.7808 19.1333C17.2456 19.0161 17.4839 18.8633 17.6401 18.6958C17.8324 18.4893 17.9724 18.1914 17.9351 17.4282C17.8955 16.6222 17.6728 15.5467 17.3345 13.939C14.2088 16.0272 9.96809 15.958 6.68408 13.8442L6.67236 13.9028C6.32974 15.5305 6.10478 16.6162 6.06494 17.4282C6.0276 18.1916 6.16747 18.4893 6.35986 18.6958C6.57544 18.9271 6.95428 19.1364 7.89209 19.2544C8.84281 19.374 10.1331 19.3765 11.9995 19.3765C12.4468 19.3765 13.1686 19.3764 13.5591 19.3745C14.1942 19.3715 14.7122 19.884 14.7153 20.519C14.7181 21.1539 14.2056 21.6711 13.5708 21.6743C13.1736 21.6762 12.4443 21.6763 11.9995 21.6763C10.1959 21.6763 8.73321 21.6786 7.60498 21.5366C7.5146 21.5252 7.4253 21.5103 7.33643 21.4966L5.72217 23.1128C5.27308 23.5618 4.5443 23.5618 4.09521 23.1128C3.6464 22.6637 3.64637 21.9349 4.09521 21.4858L5.00732 20.5728C4.89276 20.4785 4.78203 20.3766 4.67725 20.2642C3.89461 19.4242 3.71391 18.4026 3.76709 17.3159C3.81798 16.2774 4.09517 14.9789 4.42139 13.4292L4.91162 11.0991C5.27981 9.35001 5.78006 7.93493 6.97607 7.07861C8.1241 6.25687 9.67575 6.13527 11.5161 6.13525H12.4829ZM9.34912 15.8306C9.9842 15.8306 10.4995 16.3459 10.4995 16.981C10.4993 17.6159 9.98406 18.1313 9.34912 18.1313H9.34131C8.70632 18.1313 8.19115 17.6159 8.19092 16.981C8.19092 16.3458 8.70618 15.8306 9.34131 15.8306H9.34912ZM14.6597 15.8306C15.2947 15.8306 15.8101 16.3459 15.8101 16.981C15.8098 17.6158 15.2946 18.1313 14.6597 18.1313H14.6519C14.0169 18.1313 13.5017 17.6159 13.5015 16.981C13.5015 16.3458 14.0167 15.8306 14.6519 15.8306H14.6597ZM11.5161 8.43604C9.61296 8.43606 8.78834 8.60997 8.31494 8.94873C7.90564 9.2419 7.55146 9.81965 7.20459 11.3872C10.126 13.7803 14.2687 13.7303 16.8071 11.4429C16.4564 9.83315 16.0992 9.2453 15.6851 8.94873C15.2117 8.60987 14.3865 8.43604 12.4829 8.43604H11.5161Z" fill="currentColor"/>
</g>
<defs>
<clipPath id="clip0_2245_6641">
<rect width="24" height="24" fill="white"/>
</clipPath>
</defs>
</svg>
