<svg width="24" height="24" viewBox="0 0 24 24" fill="none" xmlns="http://www.w3.org/2000/svg">
<g>
<path d="M6.34375 5.19238C6.95807 5.03199 7.58639 5.40039 7.74707 6.01465C7.90765 6.62902 7.54006 7.25819 6.92578 7.41895L3.58105 8.29297C3.12687 8.41168 2.85492 8.8759 2.97363 9.33008L5.62793 19.4854C5.74711 19.9413 6.21469 20.2144 6.66992 20.0928L9.53125 19.3252C10.1445 19.1611 10.775 19.5255 10.9395 20.1387C11.1036 20.752 10.7393 21.3825 10.126 21.5469L7.26562 22.3135C5.57795 22.7656 3.84421 21.7578 3.40234 20.0674L0.748047 9.91113C0.308262 8.22806 1.31595 6.50631 2.99902 6.06641L6.34375 5.19238ZM10.0303 3.76367C10.4661 2.21892 12.0356 1.30025 13.583 1.65332L13.7324 1.69141L21.1689 3.78906C22.7634 4.23893 23.6909 5.89575 23.2412 7.49023L20.3809 17.6309C19.931 19.2255 18.2733 20.1539 16.6787 19.7041L9.24316 17.6064C7.64857 17.1566 6.72012 15.4989 7.16992 13.9043L10.0303 3.76367ZM13.1084 3.9043C12.7363 3.79934 12.3491 4.01659 12.2441 4.38867L9.38379 14.5283C9.27882 14.9004 9.49511 15.2876 9.86719 15.3926L17.3037 17.4902C17.6757 17.5951 18.063 17.3788 18.168 17.0068L21.0283 6.86621C21.1332 6.49416 20.916 6.10691 20.5439 6.00195L13.1084 3.9043ZM12.2852 10.9688C12.4522 10.3561 13.0836 9.99424 13.6963 10.1611L15.1865 10.5674C15.799 10.7347 16.1601 11.3669 15.9932 11.9795C15.826 12.5921 15.1937 12.9532 14.5811 12.7861L13.0918 12.3799C12.4792 12.2128 12.1183 11.5813 12.2852 10.9688ZM13.0459 6.98828C13.2225 6.37867 13.8599 6.02799 14.4697 6.2041L18.2861 7.30762C18.8961 7.48399 19.2484 8.12142 19.0723 8.73145C18.8957 9.34135 18.2575 9.69298 17.6475 9.5166L13.8311 8.41309C13.2211 8.23653 12.8695 7.5983 13.0459 6.98828Z" fill="currentColor"/>
</g>
</svg>
