<svg width="24" height="24" viewBox="0 0 24 24" fill="none" xmlns="http://www.w3.org/2000/svg">
<path fill-rule="evenodd" clip-rule="evenodd" d="M6.34326 5.19246C6.95759 5.032 7.58587 5.40046 7.74658 6.01472C7.90718 6.62914 7.53966 7.25833 6.92529 7.41902L3.58056 8.29304C3.12657 8.41189 2.85543 8.87608 2.97412 9.33015L5.62841 19.4854C5.74762 19.9415 6.21509 20.2147 6.6704 20.0928L9.53076 19.3253C10.1441 19.161 10.7754 19.5255 10.9399 20.1387C11.104 20.7521 10.7388 21.3826 10.1255 21.5469L7.26611 22.3135C5.57838 22.7658 3.84371 21.7579 3.40185 20.0675L0.747553 9.91121C0.307803 8.22815 1.31645 6.50638 2.99951 6.06648L6.34326 5.19246ZM10.0308 3.76375C10.4666 2.21914 12.0353 1.30053 13.5825 1.65339L13.7329 1.69148L21.1685 3.78914C22.763 4.23894 23.6913 5.8958 23.2417 7.49031L20.3813 17.6309C19.9315 19.2255 18.2738 20.1539 16.6792 19.7042L9.24267 17.6065C7.64806 17.1567 6.72056 15.499 7.1704 13.9044L10.0308 3.76375ZM13.1079 3.90437C12.7359 3.79955 12.3486 4.01674 12.2436 4.38875L9.3833 14.5284C9.27837 14.9003 9.49489 15.2875 9.86669 15.3927L17.3032 17.4903C17.6752 17.5952 18.0624 17.3788 18.1675 17.0069L21.0278 6.86628C21.1328 6.49421 20.9165 6.10699 20.5444 6.00203L13.1079 3.90437ZM12.2847 10.9688C12.4518 10.3561 13.0841 9.99418 13.6968 10.1612L15.186 10.5675C15.7987 10.7345 16.1606 11.3669 15.9936 11.9796C15.8265 12.5922 15.1933 12.9533 14.5806 12.7862L13.0913 12.38C12.4789 12.2128 12.118 11.5813 12.2847 10.9688ZM13.0454 6.98835C13.222 6.3785 13.8602 6.02781 14.4702 6.20417L18.2866 7.30769C18.8965 7.48415 19.2489 8.12156 19.0727 8.73152C18.8962 9.34139 18.2579 9.69292 17.6479 9.51667L13.8315 8.41316C13.2214 8.23675 12.869 7.59849 13.0454 6.98835Z" fill="currentColor"/>
</svg>
