<svg width="24" height="24" viewBox="0 0 24 24" fill="none" xmlns="http://www.w3.org/2000/svg">
<g>
<path d="M19.0742 10.5928C19.451 10.0817 20.1714 9.97294 20.6826 10.3496C21.4545 10.9185 22.1504 11.7535 22.1504 12.8477C22.1504 12.9339 22.1442 13.0184 22.1357 13.1016C22.1444 13.1583 22.1504 13.2163 22.1504 13.2754C22.1503 17.384 19.305 20.8332 16.4248 22.7197C15.6433 23.2314 14.7518 23.4258 13.917 23.4258H10.083C9.24824 23.4258 8.35666 23.2314 7.5752 22.7197C4.69504 20.8332 1.84969 17.384 1.84961 13.2754C1.84961 13.2163 1.85469 13.1582 1.86328 13.1016C1.85484 13.0185 1.84962 12.9339 1.84961 12.8477C1.84961 11.7535 2.54549 10.9185 3.31738 10.3496C3.8286 9.97294 4.54897 10.0817 4.92578 10.5928C5.30235 11.104 5.19363 11.8244 4.68262 12.2012C4.17661 12.574 4.15039 12.8087 4.15039 12.8477C4.15051 12.882 4.16467 13.0462 4.47656 13.3271C4.78956 13.609 5.30751 13.9154 6.04492 14.1963C7.51244 14.7552 9.61789 15.125 12 15.125C14.3821 15.125 16.4876 14.7552 17.9551 14.1963C18.6925 13.9154 19.2104 13.609 19.5234 13.3271C19.8353 13.0462 19.8495 12.882 19.8496 12.8477C19.8496 12.8087 19.8234 12.574 19.3174 12.2012C18.8064 11.8244 18.6976 11.104 19.0742 10.5928ZM19.2129 16.165C19.069 16.2273 18.9229 16.2888 18.7734 16.3457C16.9836 17.0274 14.5884 17.4258 12 17.4258C9.41161 17.4258 7.0164 17.0274 5.22656 16.3457C5.07681 16.2887 4.93024 16.2274 4.78613 16.165C5.61011 18.0464 7.14323 19.6878 8.83496 20.7959C9.16316 21.0108 9.59135 21.125 10.083 21.125H13.917C14.4086 21.125 14.8368 21.0108 15.165 20.7959C16.8567 19.6879 18.3889 18.0463 19.2129 16.165ZM6.125 0.615234C6.73766 0.448659 7.36928 0.810214 7.53613 1.42285H7.53516L7.53613 1.42383C7.53675 1.42605 7.53852 1.4302 7.54004 1.43555C7.5405 1.43718 7.54048 1.43949 7.54102 1.44141C9.03099 0.771657 10.8586 0.916441 12.3984 1.92676C13.0846 2.37708 13.5806 2.99633 13.9746 3.59766C14.3558 4.17951 14.7174 4.87092 15.0342 5.42773C15.7156 6.62528 16.3751 7.54189 17.4805 8.0127C17.8254 8.15959 18.0775 8.46627 18.1553 8.83301C18.2328 9.19975 18.1258 9.58139 17.8701 9.85547C16.0525 11.8024 13.9567 12.4595 12.0488 12.4238C10.1857 12.3889 8.54176 11.6986 7.49805 11.0137C5.07413 9.42277 4.02373 6.14251 5.32227 3.58594C5.41936 3.39485 5.52715 3.21494 5.64258 3.04492C5.54979 2.78332 5.47402 2.55065 5.41992 2.375C5.38806 2.27154 5.36292 2.18665 5.3457 2.12695C5.33715 2.09728 5.32894 2.07349 5.32422 2.05664C5.32196 2.04858 5.32067 2.04097 5.31934 2.03613C5.31874 2.03413 5.31873 2.03162 5.31836 2.03027L5.31738 2.02832V2.02637C5.15076 1.41368 5.51233 0.782085 6.125 0.615234ZM11.1367 3.84961C10.1735 3.2176 9.1587 3.19157 8.38379 3.59766C8.44374 3.70344 8.50345 3.79813 8.5625 3.87793C8.80384 4.20374 9.27507 4.61329 9.76367 4.97949C9.99394 5.15207 10.2059 5.29843 10.3594 5.40137C10.4356 5.45249 10.4969 5.49301 10.5381 5.51953C10.5584 5.53261 10.5742 5.54166 10.584 5.54785C10.5889 5.55096 10.5927 5.55344 10.5947 5.55469L10.5967 5.55566C11.135 5.89175 11.2985 6.6009 10.9629 7.13965C10.627 7.67829 9.91876 7.84318 9.37988 7.50781H9.37891L9.37793 7.50684L9.37598 7.50586C9.37472 7.50503 9.37297 7.50412 9.37109 7.50293C9.36679 7.50022 9.36085 7.49586 9.35352 7.49121C9.33882 7.4819 9.31787 7.46883 9.29199 7.45215C9.24014 7.41873 9.16643 7.37044 9.07715 7.31055C8.89903 7.19105 8.65331 7.02134 8.38379 6.81934C7.99545 6.52826 7.49641 6.12639 7.08008 5.68164C6.96951 6.91806 7.56554 8.30691 8.75977 9.09082C9.51656 9.58748 10.7447 10.0988 12.0918 10.124C13.049 10.1419 14.0864 9.91467 15.1025 9.22363C14.1503 8.43022 13.5289 7.43313 13.0352 6.56543C12.6553 5.8978 12.3799 5.36078 12.0508 4.8584C11.7344 4.37546 11.4447 4.05175 11.1367 3.84961Z" fill="currentColor"/>
</g>
</svg>
