<svg width="24" height="24" viewBox="0 0 24 24" fill="none" xmlns="http://www.w3.org/2000/svg">
<path fill-rule="evenodd" clip-rule="evenodd" d="M3.31738 10.3491C3.8285 9.97262 4.54897 10.0815 4.92578 10.5922C5.3024 11.1034 5.19351 11.8238 4.68262 12.2006C4.17817 12.5723 4.15056 12.807 4.15039 12.8471C4.15046 12.8811 4.16436 13.0453 4.47656 13.3266C4.78954 13.6084 5.30751 13.9148 6.04492 14.1957C7.51244 14.7547 9.61786 15.1245 12 15.1245C14.3821 15.1245 16.4876 14.7547 17.9551 14.1957C18.6925 13.9148 19.2105 13.6084 19.5234 13.3266C19.8356 13.0453 19.8495 12.8811 19.8496 12.8471C19.8494 12.807 19.8218 12.5723 19.3174 12.2006C18.8065 11.8238 18.6976 11.1034 19.0742 10.5922C19.451 10.0815 20.1715 9.97262 20.6826 10.3491C21.4545 10.9178 22.1502 11.7531 22.1504 12.8471C22.1504 12.9336 22.1442 13.0187 22.1357 13.102C22.1443 13.1585 22.1504 13.216 22.1504 13.2748C22.1504 17.3834 19.3049 20.8326 16.4248 22.7192C15.6433 23.2309 14.7518 23.4252 13.917 23.4252H10.083C9.24822 23.4252 8.35667 23.2309 7.5752 22.7192C4.69506 20.8326 1.84961 17.3834 1.84961 13.2748C1.84963 13.2161 1.85475 13.1584 1.86328 13.102C1.85481 13.0187 1.84962 12.9335 1.84961 12.8471C1.84977 11.7531 2.54555 10.9178 3.31738 10.3491ZM19.2129 16.1655C19.0691 16.2276 18.9228 16.2883 18.7734 16.3452C16.9836 17.0269 14.5884 17.4252 12 17.4252C9.41158 17.4252 7.0164 17.0269 5.22656 16.3452C5.07691 16.2881 4.93015 16.2278 4.78613 16.1655C5.61012 18.0466 7.14341 19.6873 8.83496 20.7953C9.16317 21.0103 9.59131 21.1245 10.083 21.1245H13.917C14.4087 21.1245 14.8368 21.0103 15.165 20.7953C16.8565 19.6874 18.3889 18.0465 19.2129 16.1655ZM6.125 0.614686C6.73764 0.448185 7.36931 0.810656 7.53613 1.42328L7.53516 1.4223L7.53613 1.42426C7.53677 1.42654 7.5385 1.43048 7.54004 1.43597C7.54053 1.43771 7.54044 1.43978 7.54102 1.44183C9.03108 0.771974 10.8585 0.916716 12.3984 1.92719C13.0847 2.37758 13.5806 2.99666 13.9746 3.59808C14.3559 4.18005 14.7173 4.87129 15.0342 5.42816C15.7156 6.62576 16.375 7.54234 17.4805 8.01312C17.8255 8.16008 18.0776 8.46651 18.1553 8.83344C18.2328 9.20028 18.126 9.5818 17.8701 9.8559C16.0525 11.8029 13.9567 12.4599 12.0488 12.4243C10.1856 12.3893 8.54176 11.699 7.49805 11.0141C5.07399 9.42324 4.0237 6.14301 5.32227 3.58637C5.41947 3.39501 5.52698 3.2146 5.64258 3.04437C5.5498 2.78278 5.474 2.55004 5.41992 2.37445C5.38815 2.27127 5.3629 2.18703 5.3457 2.12738C5.33709 2.0975 5.32894 2.07296 5.32422 2.05609C5.32199 2.0481 5.32066 2.04136 5.31934 2.03656C5.31875 2.03448 5.31877 2.03213 5.31836 2.0307L5.31738 2.02875V2.0268L5.29199 1.91156C5.19662 1.33665 5.55057 0.771111 6.125 0.614686ZM11.1367 3.85004C10.1733 3.21786 9.15878 3.19187 8.38379 3.59808C8.44374 3.70386 8.50344 3.79858 8.5625 3.87836C8.80381 4.20413 9.27514 4.61277 9.76367 4.97894C9.99397 5.15155 10.2059 5.29787 10.3594 5.40082C10.4357 5.45202 10.4969 5.49243 10.5381 5.51898C10.5585 5.53216 10.5742 5.54206 10.584 5.54828C10.5888 5.55134 10.5928 5.55389 10.5947 5.55512L10.5967 5.55609C11.1349 5.89226 11.2986 6.60137 10.9629 7.14008C10.6269 7.67867 9.91873 7.8428 9.37988 7.50726L9.37891 7.50824L9.37793 7.50726L9.37598 7.50629C9.37466 7.50545 9.37312 7.50366 9.37109 7.50238C9.36683 7.49971 9.3607 7.49618 9.35352 7.49164C9.3388 7.48232 9.31791 7.4683 9.29199 7.4516C9.24016 7.4182 9.1663 7.37078 9.07715 7.31097C8.89906 7.1915 8.6533 7.02175 8.38379 6.81976C7.99552 6.52873 7.49637 6.12673 7.08008 5.68207C6.96968 6.91845 7.56555 8.30745 8.75977 9.09125C9.51656 9.58791 10.7447 10.0992 12.0918 10.1245C13.049 10.1424 14.0864 9.9151 15.1025 9.22406C14.1502 8.43062 13.5289 7.43362 13.0352 6.56586C12.6552 5.89807 12.3799 5.36129 12.0508 4.85883C11.7343 4.37573 11.4448 4.05222 11.1367 3.85004Z" fill="currentColor"/>
</svg>
