<svg width="24" height="24" viewBox="0 0 24 24" fill="none" xmlns="http://www.w3.org/2000/svg">
<g>
<path d="M18.4245 12.7573C19.0594 12.7575 19.5739 13.2728 19.5739 13.9077V16.7378H22.2146C22.8494 16.738 23.3647 17.2524 23.365 17.8872C23.3648 18.5221 22.8494 19.0374 22.2146 19.0376H19.5739V20.9546C19.5739 21.5895 19.0594 22.1038 18.4245 22.104C17.7895 22.104 17.2742 21.5896 17.2741 20.9546V19.0376H15.1726C14.5375 19.0376 14.0223 18.5222 14.0222 17.8872C14.0224 17.2523 14.5376 16.7378 15.1726 16.7378H17.2741V13.9077C17.2742 13.2726 17.7894 12.7573 18.4245 12.7573ZM12.1609 3.73682C14.6618 1.2818 18.7078 1.28172 21.2087 3.73682C23.3802 5.86862 23.6762 9.1531 22.0896 11.6011C21.7441 12.1338 21.0326 12.2861 20.4997 11.9409C19.9669 11.5955 19.8147 10.883 20.1599 10.3501C21.1612 8.80495 20.9763 6.73225 19.5974 5.37842C18.0469 3.85633 15.5587 3.80289 13.9431 5.21924L10.6228 8.48291C9.96394 9.13047 9.95583 10.1902 10.6052 10.8472C11.21 11.4588 12.1808 11.5109 12.8474 10.9673L14.4196 9.68506C15.3234 8.94817 16.639 9.01481 17.4636 9.83936L17.5241 9.8999C17.9728 10.3489 17.9728 11.0769 17.5241 11.5259C17.0751 11.9748 16.3463 11.9748 15.8972 11.5259L15.8552 11.4829L14.3005 12.7495C12.7155 14.0419 10.4085 13.9185 8.97042 12.4644C7.42576 10.9022 7.44375 8.38322 9.01046 6.84326L10.2282 5.64502L9.95675 5.37842C8.35041 3.80153 5.73689 3.80149 4.13058 5.37842C2.53662 6.94371 2.53646 9.4724 4.13058 11.0376L4.15206 11.0591L11.9411 19.1099C12.356 18.9425 12.8489 19.0266 13.1853 19.3628C13.6344 19.8119 13.6344 20.5406 13.1853 20.9897L12.6775 21.4976C12.4595 21.7154 12.1623 21.837 11.8542 21.8345C11.5463 21.8317 11.252 21.7052 11.0378 21.4839L2.51925 12.6792L2.29171 12.4429C0.00976151 9.9628 0.0853312 6.12657 2.51925 3.73682C5.02021 1.2816 9.06709 1.28164 11.5681 3.73682L11.864 4.02783L12.1609 3.73682Z" fill="currentColor"/>
</g>
</svg>
