<svg width="24" height="24" viewBox="0 0 24 24" fill="none" xmlns="http://www.w3.org/2000/svg">
<path d="M12.498 3.5557C15.0514 1.2289 19.035 1.2839 21.5195 3.72269C24.0669 6.22385 24.0726 10.2824 21.539 12.792L18.2724 16.17L17.416 17.0264C16.9669 17.4755 16.2381 17.4755 15.789 17.0264C15.3407 16.5773 15.3404 15.8493 15.789 15.4004L16.6191 14.5703L17.709 13.4453L17.8232 13.3262L15.834 11.336L14.1377 12.7364C12.5984 14.0061 10.3443 13.8917 8.94139 12.4727C7.44162 10.9553 7.4592 8.50863 8.98045 7.01273L10.3633 5.6514L10.0703 5.36332C8.42201 3.74545 5.74001 3.74537 4.09178 5.36332C2.50668 6.91945 2.45768 9.40423 3.94334 11.0186L4.09178 11.1729L4.10252 11.1827L4.11326 11.1934L11.999 19.3448L13.3515 17.9483C13.7931 17.492 14.5221 17.4796 14.9785 17.9209C15.4347 18.3625 15.4461 19.0905 15.0049 19.5469L12.8262 21.7989C12.6095 22.0226 12.3115 22.1494 12 22.1494C11.6885 22.1494 11.3904 22.0226 11.1738 21.7989L2.45994 12.793V12.792C-0.0729381 10.2824 -0.0666624 6.22363 2.48045 3.72269C5.0233 1.22649 9.13771 1.22662 11.6806 3.72269L12 4.03519L12.3193 3.72269C12.3623 3.68045 12.4072 3.64045 12.4512 3.59964L12.4971 3.55472L12.498 3.5557ZM19.9082 5.36332C18.303 3.78771 15.7179 3.74686 14.0615 5.24027L10.5928 8.65238C9.97898 9.25596 9.97116 10.2442 10.5762 10.8565C11.1422 11.429 12.0527 11.4751 12.6738 10.9629L14.3779 9.55667C15.2874 8.80647 16.6182 8.86988 17.4521 9.70316L19.4219 11.6729L19.8867 11.1934L19.8974 11.1827L19.9082 11.1729C21.5445 9.56634 21.5446 6.96981 19.9082 5.36332Z" fill="currentColor"/>
</svg>
