<svg width="24" height="24" viewBox="0 0 24 24" fill="none" xmlns="http://www.w3.org/2000/svg">
<g>
<path d="M12.4978 3.55566C15.0512 1.22887 19.0348 1.28387 21.5193 3.72266C24.0667 6.22381 24.0724 10.2824 21.5388 12.792L18.2722 16.1699L17.4158 17.0264C16.9667 17.4755 16.2379 17.4755 15.7888 17.0264C15.3405 16.5773 15.3401 15.8493 15.7888 15.4004L16.6189 14.5703L17.7087 13.4453L17.823 13.3262L15.8337 11.3359L14.1375 12.7363C12.5982 14.0061 10.3441 13.8917 8.94116 12.4727C7.4414 10.9553 7.45898 8.5086 8.98022 7.0127L10.363 5.65137L10.0701 5.36328C8.42179 3.74542 5.73978 3.74534 4.09155 5.36328C2.50646 6.91942 2.45745 9.4042 3.94312 11.0186L4.09155 11.1729L4.10229 11.1826L4.11304 11.1934L11.9988 19.3447L13.3513 17.9482C13.7929 17.492 14.5218 17.4796 14.9783 17.9209C15.4345 18.3624 15.4459 19.0904 15.0046 19.5469L12.8259 21.7988C12.6093 22.0226 12.3112 22.1494 11.9998 22.1494C11.6883 22.1494 11.3902 22.0226 11.1736 21.7988L2.45972 12.793V12.792C-0.0731634 10.2823 -0.0668877 6.2236 2.48022 3.72266C5.02308 1.22645 9.13749 1.22658 11.6804 3.72266L11.9998 4.03516L12.3191 3.72266C12.3621 3.68042 12.407 3.64042 12.4509 3.59961L12.4968 3.55469L12.4978 3.55566ZM19.908 5.36328C18.3027 3.78767 15.7176 3.74683 14.0613 5.24023L10.5925 8.65234C9.97875 9.25593 9.97094 10.2441 10.5759 10.8564C11.142 11.429 12.0524 11.4751 12.6736 10.9629L14.3777 9.55664C15.2871 8.80644 16.618 8.86985 17.4519 9.70312L19.4216 11.6729L19.8865 11.1934L19.8972 11.1826L19.908 11.1729C21.5443 9.56631 21.5444 6.96977 19.908 5.36328Z" fill="currentColor"/>
</g>
</svg>
