<svg width="24" height="24" viewBox="0 0 24 24" fill="none" xmlns="http://www.w3.org/2000/svg">
<path fill-rule="evenodd" clip-rule="evenodd" d="M18.4248 12.7577C19.0596 12.7581 19.5742 13.2732 19.5742 13.9081V16.7372H22.2139C22.8488 16.7372 23.3639 17.2518 23.3643 17.8866C23.3643 18.5218 22.849 19.037 22.2139 19.037H19.5742V20.955C19.574 21.5897 19.0595 22.1041 18.4248 22.1044C17.7899 22.1044 17.2747 21.5899 17.2744 20.955V19.037H15.1719C14.5369 19.0369 14.0215 18.5217 14.0215 17.8866C14.0218 17.2519 14.5371 16.7374 15.1719 16.7372H17.2744V13.9081C17.2744 13.273 17.7897 12.7577 18.4248 12.7577ZM12.1611 3.73626C14.6621 1.28147 18.7081 1.28135 21.209 3.73626C23.3804 5.86798 23.6763 9.15257 22.0899 11.6005C21.7445 12.1334 21.033 12.2856 20.5 11.9404C19.9672 11.5949 19.8148 10.8824 20.1602 10.3495C21.1613 8.80442 20.9765 6.73161 19.5977 5.37786C18.045 3.85375 15.552 3.80308 13.9365 5.22551L10.6221 8.48333C9.96334 9.13099 9.95591 10.1907 10.6055 10.8476C11.2103 11.4591 12.1811 11.5113 12.8477 10.9677L14.4199 9.6845C15.3237 8.94765 16.6393 9.01426 17.4639 9.8388L17.5244 9.90032C17.9728 10.3495 17.9723 11.0774 17.5235 11.5263C17.0744 11.975 16.3465 11.9751 15.8975 11.5263L15.8545 11.4833L14.3008 12.7499C12.7158 14.0424 10.4079 13.919 8.96974 12.4648C7.42513 10.9026 7.44308 8.38265 9.00978 6.8427L10.2285 5.64446L9.95704 5.37786C8.35076 3.80116 5.73716 3.80116 4.13087 5.37786C2.53672 6.94309 2.53681 9.47175 4.13087 11.037L4.15236 11.0585L11.9414 19.1093C12.3562 18.942 12.8493 19.0261 13.1856 19.3622C13.6346 19.8113 13.6345 20.5401 13.1856 20.9892L12.6777 21.497C12.4598 21.7149 12.1627 21.8365 11.8545 21.8339C11.5465 21.8313 11.2524 21.7047 11.0381 21.4833L2.51954 12.6786L2.29201 12.4423C0.010129 9.96215 0.0854441 6.12594 2.51954 3.73626C5.02048 1.28127 9.06744 1.28127 11.5684 3.73626L11.8643 4.02727L12.1611 3.73626Z" fill="currentColor"/>
</svg>
