<svg width="16" height="16" viewBox="0 0 16 16" fill="none" xmlns="http://www.w3.org/2000/svg">
<path fill-rule="evenodd" clip-rule="evenodd" d="M7.99512 1.69629C8.47817 1.69629 8.8698 2.08831 8.87012 2.57129V7.12109H13.4287C13.9116 7.12147 14.3037 7.51312 14.3037 7.99609C14.3037 8.47911 13.9116 8.87071 13.4287 8.87109H8.87012V13.4287C8.87012 13.912 8.47837 14.3037 7.99512 14.3037C7.51197 14.3036 7.12012 13.9119 7.12012 13.4287V8.87109H2.57129C2.08804 8.87109 1.69629 8.47934 1.69629 7.99609C1.69634 7.51289 2.08807 7.12109 2.57129 7.12109H7.12012V2.57129C7.12043 2.08838 7.51217 1.69641 7.99512 1.69629Z" fill="currentColor"/>
</svg>
