<svg width="24" height="24" viewBox="0 0 24 24" fill="none" xmlns="http://www.w3.org/2000/svg">
<g clip-path="url(#clip0_2103_16115)">
<path d="M2.09277 0.5C2.72772 0.500211 3.24219 1.01539 3.24219 1.65039V22.3496C3.24217 22.9846 2.72771 23.4998 2.09277 23.5C1.45765 23.5 0.942396 22.9847 0.942383 22.3496V1.65039C0.942383 1.01526 1.45765 0.5 2.09277 0.5ZM19.9082 1.19727C21.6477 1.19744 23.0576 2.60807 23.0576 4.34766V15.083C23.0571 16.8221 21.6474 18.2322 19.9082 18.2324H5.52734C4.89254 18.2324 4.37748 17.7177 4.37695 17.083C4.37695 16.4479 4.89222 15.9326 5.52734 15.9326H7.92383V13.3994C6.37938 12.9385 5.23721 11.5442 5.15234 9.87109L5.14746 9.6709C5.14758 7.90959 6.3182 6.42152 7.92383 5.94238V3.49805H5.52734C4.89238 3.49805 4.37722 2.98256 4.37695 2.34766C4.37695 1.71253 4.89222 1.19727 5.52734 1.19727H19.9082ZM10.2236 5.96484C11.7924 6.46637 12.9286 7.93587 12.9287 9.6709L12.9238 9.87109C12.8403 11.5183 11.7317 12.8948 10.2236 13.377V15.9326H19.9082C20.3772 15.9324 20.7573 15.5519 20.7578 15.083V4.34766C20.7578 3.87832 20.3775 3.49822 19.9082 3.49805H10.2236V5.96484ZM9.03809 8.08008C8.15978 8.08008 7.44741 8.79263 7.44727 9.6709C7.44734 10.5492 8.15974 11.2617 9.03809 11.2617C9.91637 11.2616 10.6288 10.5492 10.6289 9.6709C10.6288 8.79268 9.91632 8.08016 9.03809 8.08008Z" fill="currentColor"/>
</g>
<defs>
<clipPath id="clip0_2103_16115">
<rect width="24" height="24" fill="white"/>
</clipPath>
</defs>
</svg>
