<svg width="24" height="24" viewBox="0 0 24 24" fill="none" xmlns="http://www.w3.org/2000/svg">
<g clip-path="url(#clip0_2103_15960)">
<path d="M18.0232 0.349609C20.8672 0.349893 23.1726 2.65591 23.1726 5.5V12.4365C23.1724 13.0713 22.658 13.5857 22.0232 13.5859C21.3882 13.5859 20.873 13.0715 20.8728 12.4365V5.5C20.8728 3.92616 19.597 2.65067 18.0232 2.65039H5.97729C4.40328 2.65039 3.12769 3.92599 3.12769 5.5V18.5C3.12769 20.074 4.40328 21.3496 5.97729 21.3496H18.0232C19.597 21.3493 20.8728 20.0738 20.8728 18.5V16.6387C20.8728 16.0035 21.3881 15.4883 22.0232 15.4883C22.6581 15.4886 23.1726 16.0037 23.1726 16.6387V18.5C23.1726 21.3441 20.8672 23.6501 18.0232 23.6504H5.97729C3.13303 23.6504 0.826904 21.3443 0.826904 18.5V5.5C0.826904 2.65573 3.13303 0.349609 5.97729 0.349609H18.0232ZM16.988 14.2354C17.3899 13.7437 18.1145 13.6705 18.6062 14.0723C19.0979 14.4742 19.1702 15.1987 18.7683 15.6904C18.536 15.9746 18.3282 16.2842 18.074 16.6533C17.8332 17.003 17.5507 17.4066 17.2166 17.7734C16.5029 18.5569 15.5304 19.1953 14.0701 19.1953C12.6316 19.1952 11.7159 18.4185 11.1091 17.9316C10.4675 17.4168 10.1186 17.1748 9.5564 17.1748C8.85458 17.1751 8.18493 17.5739 7.48315 18.3955C7.33865 18.5647 7.19715 18.7478 7.05835 18.9404C6.68705 19.455 5.96891 19.5719 5.45386 19.2012C4.93886 18.8298 4.822 18.1109 5.19312 17.5957C5.36253 17.3606 5.543 17.1273 5.73511 16.9023C6.6218 15.8643 7.87209 14.8753 9.5564 14.875C11.0097 14.875 11.9316 15.6426 12.5486 16.1377C13.2004 16.6607 13.5337 16.8944 14.0701 16.8945C14.7345 16.8945 15.1272 16.6518 15.5164 16.2246C15.7335 15.9862 15.9372 15.7013 16.1794 15.3496C16.4082 15.0174 16.6808 14.6112 16.988 14.2354ZM10.2019 10.2314C10.8368 10.2316 11.3521 10.746 11.3523 11.3809C11.3523 12.0159 10.8369 12.531 10.2019 12.5312H7.12866C6.49353 12.5312 5.97827 12.016 5.97827 11.3809C5.97845 10.7459 6.49364 10.2314 7.12866 10.2314H10.2019ZM14.3005 5.41992C14.9354 5.42018 15.4499 5.93541 15.45 6.57031C15.45 7.20528 14.9354 7.72045 14.3005 7.7207H7.12866C6.49353 7.7207 5.97827 7.20544 5.97827 6.57031C5.97836 5.93526 6.49359 5.41992 7.12866 5.41992H14.3005Z" fill="currentColor"/>
</g>
<defs>
<clipPath id="clip0_2103_15960">
<rect width="24" height="24" fill="white"/>
</clipPath>
</defs>
</svg>
