<svg width="24" height="24" viewBox="0 0 24 24" fill="none" xmlns="http://www.w3.org/2000/svg">
<path d="M5.9917 14.8755C6.60497 14.7112 7.23525 15.0759 7.3999 15.689L7.94678 17.728L7.96045 17.7827C7.99525 17.944 8.0522 18.0414 8.1001 18.0952L8.14404 18.1353L8.31982 18.2554C9.22305 18.8367 10.4612 19.1615 11.7612 19.1616C13.1482 19.1616 14.4647 18.7916 15.3794 18.1353L15.4233 18.0952C15.4712 18.0414 15.5282 17.9441 15.563 17.7827L15.5767 17.728L16.1157 15.7124C16.2803 15.0994 16.9117 14.7358 17.5249 14.8999C18.1381 15.0644 18.5016 15.6948 18.3374 16.3081L17.7974 18.3228C17.6583 18.918 17.3356 19.5629 16.7202 20.0044C15.3268 21.0042 13.5084 21.4614 11.7612 21.4614C10.0142 21.4613 8.19556 21.0042 6.80225 20.0044C6.18724 19.5629 5.86409 18.9178 5.7251 18.3228L5.1792 16.2847C5.01513 15.6714 5.37853 15.04 5.9917 14.8755ZM20.5825 13.2251C21.2176 13.2251 21.7329 13.7404 21.7329 14.3755V17.7153C21.7328 18.3504 21.2176 18.8657 20.5825 18.8657C19.9475 18.8657 19.4322 18.3503 19.4321 17.7153V14.3755C19.4321 13.7404 19.9474 13.2252 20.5825 13.2251ZM11.7612 2.53857C12.1543 2.5386 12.6135 2.62806 13.0552 2.74072C13.5174 2.85865 14.0428 3.02469 14.5962 3.22119C15.7039 3.61453 16.977 4.14906 18.1821 4.72607C19.3823 5.30075 20.551 5.93474 21.4351 6.53076C21.8727 6.82585 22.2805 7.13812 22.5913 7.45361C22.7468 7.61145 22.9055 7.79759 23.0308 8.0083C23.1517 8.21181 23.2866 8.51492 23.2866 8.88428C23.2865 9.25337 23.1516 9.55587 23.0308 9.75928C22.9055 9.96993 22.7467 10.1562 22.5913 10.314C22.2805 10.6294 21.8727 10.9418 21.4351 11.2368C20.5511 11.8328 19.3823 12.4668 18.1821 13.0415C16.977 13.6185 15.7039 14.1531 14.5962 14.5464C14.0428 14.7429 13.5174 14.9089 13.0552 15.0269C12.6135 15.1395 12.1543 15.229 11.7612 15.229C11.3681 15.2289 10.9081 15.1396 10.4663 15.0269C10.0042 14.9089 9.47946 14.7428 8.92627 14.5464C7.81835 14.153 6.54463 13.6186 5.33936 13.0415C4.13922 12.4668 2.97134 11.8328 2.0874 11.2368C1.6497 10.9417 1.24201 10.6295 0.931152 10.314C0.775667 10.1561 0.61701 9.97003 0.491699 9.75928C0.385869 9.58121 0.269255 9.32718 0.241699 9.01904L0.234863 8.88428L0.241699 8.74854C0.269239 8.44045 0.385884 8.18637 0.491699 8.0083C0.616985 7.79758 0.775696 7.61146 0.931152 7.45361C1.24199 7.13809 1.64973 6.82588 2.0874 6.53076C2.97133 5.93477 4.13925 5.30074 5.33936 4.72607C6.54461 4.14896 7.81837 3.61461 8.92627 3.22119C9.47944 3.02477 10.0042 2.85866 10.4663 2.74072C10.9081 2.62802 11.3681 2.53864 11.7612 2.53857ZM11.7612 4.83936C11.663 4.83944 11.4291 4.86888 11.0356 4.96924C10.662 5.06457 10.2068 5.20673 9.6958 5.38818C8.6742 5.75095 7.47531 6.25407 6.33252 6.80127C5.18509 7.35073 4.1277 7.92858 3.37354 8.43701C3.1246 8.60487 2.92499 8.7556 2.77295 8.8833C2.92507 9.0111 3.1243 9.1625 3.37354 9.33057C4.12772 9.83901 5.18506 10.4168 6.33252 10.9663C7.47533 11.5135 8.67419 12.0166 9.6958 12.3794C10.2069 12.5609 10.662 12.703 11.0356 12.7983C11.4291 12.8987 11.663 12.9281 11.7612 12.9282C11.8593 12.9282 12.0931 12.8988 12.4868 12.7983C12.8604 12.703 13.3155 12.5609 13.8267 12.3794C14.8482 12.0167 16.0462 11.5135 17.189 10.9663C18.3367 10.4167 19.3946 9.83911 20.1489 9.33057C20.3979 9.16269 20.5964 9.01102 20.7485 8.8833C20.5965 8.75566 20.3977 8.60475 20.1489 8.43701C19.3946 7.92845 18.3367 7.35085 17.189 6.80127C16.0462 6.25408 14.8482 5.75093 13.8267 5.38818C13.3155 5.20669 12.8605 5.06456 12.4868 4.96924C12.0931 4.86881 11.8593 4.83939 11.7612 4.83936Z" fill="currentColor"/>
</svg>
