<svg width="16" height="16" viewBox="0 0 16 16" fill="none" xmlns="http://www.w3.org/2000/svg">
<path d="M11.6655 11.7124C12.0025 11.3663 12.5566 11.3589 12.9028 11.6958L14.9087 13.6479C15.2547 13.9849 15.263 14.539 14.9263 14.8853C14.5894 15.2315 14.0353 15.2385 13.689 14.9019L11.6821 12.9497C11.3359 12.6127 11.3286 12.0587 11.6655 11.7124ZM6.74072 1.00244C9.92342 1.00244 12.5033 3.58247 12.5034 6.76514C12.5034 9.94786 9.92346 12.5278 6.74072 12.5278C3.55822 12.5276 0.978093 9.94769 0.978027 6.76514C0.978152 3.58263 3.55825 1.00271 6.74072 1.00244ZM6.74072 2.75244C4.52475 2.75271 2.72815 4.54913 2.72803 6.76514C2.72809 8.98119 4.52471 10.7776 6.74072 10.7778C8.95696 10.7778 10.7534 8.98136 10.7534 6.76514C10.7533 4.54896 8.95692 2.75244 6.74072 2.75244Z" fill="currentColor"/>
</svg>
