<svg width="24" height="24" viewBox="0 0 24 24" fill="none" xmlns="http://www.w3.org/2000/svg">
<g>
<path d="M12.0479 7.64404C13.4176 6.58539 15.402 6.67569 16.666 7.9165C18.0348 9.2604 18.0403 11.4429 16.6855 12.7954L16.6865 12.7964L12.874 16.7368C12.6574 16.9606 12.3593 17.0874 12.0479 17.0874C11.7364 17.0874 11.4383 16.9606 11.2217 16.7368L7.40918 12.7964L7.41016 12.7954C6.05524 11.4429 6.06082 9.26046 7.42969 7.9165C8.69381 6.6758 10.6781 6.58525 12.0479 7.64404ZM15.0547 9.55811C14.5852 9.09735 13.8153 9.09747 13.3457 9.55811L12.9561 9.93994C12.4518 10.435 11.6439 10.435 11.1396 9.93994L10.75 9.55811C10.2805 9.09735 9.51057 9.09747 9.04102 9.55811C8.61222 9.97931 8.58575 10.6375 8.96094 11.0884L9.04102 11.1763L9.05176 11.186L9.06152 11.1968L12.0479 14.2827L15.0342 11.1968L15.0439 11.186L15.0547 11.1763C15.512 10.727 15.5121 10.0074 15.0547 9.55811Z" fill="currentColor"/>
<path d="M19.5956 16.8224C20.0865 16.0351 20.4851 15.1889 20.7908 14.2967C21.1372 13.2855 21.3642 12.2152 21.4708 11.1042C21.6117 9.63512 21.542 8.09504 21.2591 6.52695C21.1475 5.90778 21.0916 5.5982 20.901 5.38637C20.7104 5.17454 20.2394 5.02436 19.2976 4.724C16.9802 3.98496 15.0192 1.95703 11.9983 1.95703C8.9774 1.95703 7.01867 3.9848 4.70217 4.72392C3.76026 5.02445 3.28931 5.17471 3.09871 5.38653C2.90812 5.59836 2.85231 5.90789 2.74068 6.52696C1.54622 13.1515 4.15699 19.276 10.3834 21.6598C11.0523 21.916 11.3868 22.044 12.0016 22.044C12.6163 22.044 12.9507 21.916 13.6197 21.6598C14.704 21.2446 15.6786 20.716 16.5425 20.091" stroke="currentColor" stroke-width="2.3" stroke-linecap="round" stroke-linejoin="round"/>
</g>
</svg>
