<svg width="24" height="24" viewBox="0 0 24 24" fill="none" xmlns="http://www.w3.org/2000/svg">
<path d="M12.0478 7.64405C13.4176 6.58537 15.4019 6.67571 16.666 7.91651C18.0348 9.26042 18.0403 11.4429 16.6855 12.7954L16.6865 12.7964L12.874 16.7368C12.6574 16.9606 12.3592 17.0874 12.0478 17.0874C11.7363 17.0874 11.4383 16.9606 11.2216 16.7368L7.40912 12.7964L7.4101 12.7954C6.0552 11.4429 6.06077 9.26046 7.42963 7.91651C8.69374 6.67579 10.6781 6.58527 12.0478 7.64405ZM15.0546 9.55812C14.5851 9.09737 13.8152 9.09746 13.3456 9.55812L12.956 9.93995C12.4518 10.435 11.6438 10.435 11.1396 9.93995L10.7499 9.55812C10.2805 9.09737 9.5105 9.09746 9.04096 9.55812C8.61217 9.97931 8.58571 10.6375 8.96088 11.0884L9.04096 11.1763L9.0517 11.186L9.06147 11.1968L12.0478 14.2827L15.0341 11.1968L15.0439 11.186L15.0546 11.1763C15.512 10.727 15.512 10.0074 15.0546 9.55812Z" fill="currentColor"/>
<path d="M19.5956 16.8224C20.0865 16.0351 20.4851 15.1889 20.7908 14.2967C21.1372 13.2855 21.3642 12.2152 21.4708 11.1042C21.6117 9.63512 21.542 8.09504 21.2591 6.52695C21.1475 5.90778 21.0916 5.5982 20.901 5.38637C20.7104 5.17454 20.2394 5.02436 19.2976 4.724C16.9802 3.98496 15.0192 1.95703 11.9983 1.95703C8.9774 1.95703 7.01867 3.9848 4.70217 4.72392C3.76026 5.02445 3.28931 5.17471 3.09871 5.38653C2.90812 5.59836 2.85231 5.90789 2.74068 6.52696C1.54622 13.1515 4.15699 19.276 10.3834 21.6598C11.0523 21.916 11.3868 22.044 12.0016 22.044C12.6163 22.044 12.9507 21.916 13.6197 21.6598C14.704 21.2446 15.6786 20.716 16.5425 20.091" stroke="currentColor" stroke-width="2.3" stroke-linecap="round" stroke-linejoin="round"/>
</svg>
