<svg width="24" height="24" viewBox="0 0 24 24" fill="none" xmlns="http://www.w3.org/2000/svg">
<g clip-path="url(#clip0_2103_16046)">
<path d="M19.0004 14.5123L21.6042 11.8871C23.1475 10.3416 22.6435 8.77495 20.5018 8.41504L17.1526 7.85401C16.5857 7.75874 15.9138 7.26121 15.6618 6.74252L13.814 3.01639C12.8166 0.994538 11.1788 0.994538 10.1709 3.01639L8.32313 6.74252C8.07115 7.26121 7.39923 7.75874 6.84279 7.85401L3.49366 8.41504C1.3519 8.77495 0.85845 10.3416 2.39128 11.8871L4.99499 14.5123C5.43594 14.9569 5.67742 15.8144 5.54093 16.4283L4.79551 19.6781C4.20758 22.2398 5.57243 23.2455 7.81918 21.9011L10.9583 20.0274C11.5358 19.6887 12.4702 19.6887 13.0371 20.0274L16.1763 21.9011C18.4335 23.2455 19.7879 22.2504 19.1999 19.6781" stroke="currentColor" stroke-width="2.3" stroke-linecap="round" stroke-linejoin="round"/>
</g>
<defs>
<clipPath id="clip0_2103_16046">
<rect width="24" height="24" fill="white"/>
</clipPath>
</defs>
</svg>
