<svg width="24" height="24" viewBox="0 0 24 24" fill="none" xmlns="http://www.w3.org/2000/svg">
<g>
<path d="M11.7593 14.731C11.9859 14.1377 12.6513 13.8403 13.2446 14.0669C13.8376 14.2937 14.1342 14.9581 13.9077 15.5513C13.2403 17.2986 12.203 18.3043 10.9165 18.8071C9.72956 19.271 8.42439 19.2563 7.39697 19.2563C6.27268 19.2563 5.4254 19.271 4.71533 19.5483C4.1048 19.7869 3.49986 20.2643 3.03467 21.4819C2.80807 22.0752 2.14358 22.3725 1.55029 22.146C0.95697 21.9194 0.659614 21.2549 0.88623 20.6616C1.55367 18.9143 2.59191 17.9085 3.87842 17.4058C5.06516 16.9422 6.36976 16.9565 7.39697 16.9565C8.52148 16.9565 9.36944 16.9421 10.0796 16.6646C10.69 16.4259 11.2942 15.9484 11.7593 14.731ZM18.0405 1.77783C20.8845 1.77806 23.1899 4.08417 23.1899 6.92822V13.5532C23.1899 16.3973 20.8846 18.7034 18.0405 18.7036H16.2837C15.6486 18.7036 15.1333 18.1884 15.1333 17.5532C15.1334 16.9182 15.6486 16.4028 16.2837 16.4028H18.0405C19.6143 16.4026 20.8901 15.1271 20.8901 13.5532V6.92822C20.8901 5.35442 19.6143 4.07884 18.0405 4.07861H7.66064C6.75336 4.07872 6.01826 4.81392 6.01807 5.72119C6.01807 6.35626 5.50272 6.87148 4.86768 6.87158C4.23255 6.87158 3.71729 6.35632 3.71729 5.72119C3.71748 3.54367 5.4831 1.77794 7.66064 1.77783H18.0405ZM7.05225 8.72217C9.05176 8.72251 10.6731 10.3447 10.6733 12.3442C10.6731 14.3438 9.05176 15.965 7.05225 15.9653C5.05244 15.9653 3.43042 14.344 3.43018 12.3442C3.43041 10.3445 5.05244 8.72217 7.05225 8.72217ZM7.05225 11.0229C6.32269 11.0229 5.73119 11.6147 5.73096 12.3442C5.7312 13.0737 6.3227 13.6646 7.05225 13.6646C7.7815 13.6642 8.37232 13.0735 8.37256 12.3442C8.37233 11.6149 7.78151 11.0233 7.05225 11.0229ZM18.0044 10.5112C18.6395 10.5112 19.1547 11.0265 19.1548 11.6616C19.1548 12.2967 18.6395 12.812 18.0044 12.812H15.0396C14.4046 12.8119 13.8892 12.2966 13.8892 11.6616C13.8892 11.0266 14.4046 10.5114 15.0396 10.5112H18.0044ZM18.0044 6.08252C18.6395 6.08252 19.1547 6.59782 19.1548 7.23291C19.1548 7.86804 18.6395 8.3833 18.0044 8.3833H12.0737C11.4387 8.38315 10.9233 7.86794 10.9233 7.23291C10.9234 6.59791 11.4388 6.08267 12.0737 6.08252H18.0044Z" fill="currentColor"/>
</g>
</svg>
