<svg width="24" height="24" viewBox="0 0 24 24" fill="none" xmlns="http://www.w3.org/2000/svg">
<path fill-rule="evenodd" clip-rule="evenodd" d="M11.7591 14.731C11.9858 14.1377 12.6512 13.8403 13.2445 14.0669C13.8374 14.2937 14.134 14.9581 13.9075 15.5513C13.2401 17.2986 12.2028 18.3043 10.9163 18.8071C9.72938 19.271 8.42421 19.2563 7.39679 19.2563C6.2725 19.2563 5.42522 19.271 4.71515 19.5483C4.10462 19.7869 3.49968 20.2643 3.03449 21.4819C2.80789 22.0752 2.1434 22.3725 1.55011 22.146C0.956792 21.9194 0.659436 21.2549 0.886052 20.6616C1.55349 18.9143 2.59173 17.9085 3.87824 17.4058C5.06498 16.9422 6.36958 16.9565 7.39679 16.9565C8.52131 16.9565 9.36926 16.9421 10.0794 16.6646C10.6898 16.4259 11.294 15.9484 11.7591 14.731ZM18.0403 1.77783C20.8844 1.77806 23.1897 4.08417 23.1898 6.92822V13.5532C23.1898 16.3973 20.8844 18.7034 18.0403 18.7036H16.2835C15.6484 18.7036 15.1331 18.1884 15.1331 17.5532C15.1332 16.9182 15.6484 16.4028 16.2835 16.4028H18.0403C19.6142 16.4026 20.89 15.1271 20.89 13.5532V6.92822C20.8899 5.35442 19.6141 4.07884 18.0403 4.07861H7.66047C6.75318 4.07872 6.01808 4.81392 6.01789 5.72119C6.01789 6.35626 5.50254 6.87148 4.8675 6.87158C4.23237 6.87158 3.71711 6.35632 3.71711 5.72119C3.7173 3.54367 5.48292 1.77794 7.66047 1.77783H18.0403ZM7.05207 8.72217C9.05159 8.72251 10.6729 10.3447 10.6732 12.3442C10.6729 14.3438 9.05158 15.965 7.05207 15.9653C5.05226 15.9653 3.43024 14.344 3.43 12.3442C3.43023 10.3445 5.05226 8.72217 7.05207 8.72217ZM7.05207 11.0229C6.32251 11.0229 5.73101 11.6147 5.73078 12.3442C5.73102 13.0737 6.32252 13.6646 7.05207 13.6646C7.78133 13.6642 8.37214 13.0735 8.37238 12.3442C8.37215 11.6149 7.78133 11.0233 7.05207 11.0229ZM18.0042 10.5112C18.6393 10.5112 19.1546 11.0265 19.1546 11.6616C19.1546 12.2967 18.6393 12.812 18.0042 12.812H15.0394C14.4044 12.8119 13.889 12.2966 13.889 11.6616C13.889 11.0266 14.4044 10.5114 15.0394 10.5112H18.0042ZM18.0042 6.08252C18.6393 6.08252 19.1546 6.59782 19.1546 7.23291C19.1546 7.86804 18.6393 8.3833 18.0042 8.3833H12.0736C11.4386 8.38315 10.9232 7.86794 10.9232 7.23291C10.9232 6.59791 11.4386 6.08267 12.0736 6.08252H18.0042Z" fill="currentColor"/>
</svg>
