<svg width="56" height="56" viewBox="0 0 56 56" fill="none" xmlns="http://www.w3.org/2000/svg">
<path d="M12.3518 27.8335C13.3978 27.8335 14.4318 28.0693 15.3713 28.5239L21.0715 31.2817C21.6008 31.5378 22.1872 31.6723 22.7834 31.6724H25.6946C27.9938 31.6724 30.0477 32.8313 31.2317 34.6069L43.1731 30.939V30.9399C46.078 30.0373 49.1945 31.1208 50.9836 33.5981C52.5185 35.7236 51.9197 38.7856 49.6282 40.1079L28.6467 52.2134C26.9583 53.1876 24.9582 53.428 23.093 52.8745L5.2395 47.5767C4.44555 47.3409 3.99231 46.5064 4.22778 45.7124C4.46359 44.9185 5.299 44.4652 6.09302 44.7007L23.9465 49.9985C25.0169 50.3162 26.1663 50.1813 27.1467 49.6157L48.1292 37.5093C48.8368 37.1006 49.0759 36.0795 48.552 35.354C47.4945 33.8899 45.6992 33.2944 44.0598 33.8052L44.0549 33.8062L32.2561 37.4302C32.2796 37.6516 32.2922 37.8769 32.2922 38.105C32.2921 38.9182 31.7381 39.5854 31.0071 39.7876L23.9133 41.7495C23.4762 41.8704 22.3496 42.2527 21.4934 42.4497C21.0146 42.5598 20.4801 42.6523 19.9475 42.6646C19.4637 42.6757 18.8972 42.6214 18.3499 42.3892L11.9749 40.3735C11.1853 40.1237 10.7478 39.2814 10.9973 38.4917C11.247 37.702 12.0894 37.2637 12.8792 37.5132L19.3186 39.5493C19.3875 39.5711 19.4548 39.5979 19.5198 39.6294C19.5226 39.6305 19.5471 39.6405 19.6028 39.6499C19.6657 39.6605 19.7561 39.6683 19.8782 39.6655C20.129 39.6597 20.4447 39.6133 20.8206 39.5269C21.6735 39.3306 22.2783 39.0888 23.1135 38.8579L29.1594 37.186C28.7424 35.7604 27.3803 34.6724 25.6946 34.6724H22.7834C21.7377 34.6723 20.7043 34.4364 19.7649 33.9819L14.0647 31.2241C13.5352 30.9679 12.9482 30.8335 12.3518 30.8335H5.66626C4.83795 30.8335 4.16643 30.1618 4.16626 29.3335C4.16626 28.5051 4.83784 27.8335 5.66626 27.8335H12.3518ZM16.6409 11.7749C18.3218 5.50175 24.7701 1.77869 31.0432 3.45947C32.709 3.90587 34.1987 4.69023 35.4543 5.72021C36.0947 6.24558 36.1885 7.19108 35.6633 7.83154C35.1381 8.47187 34.1925 8.56545 33.552 8.04053C32.6197 7.27579 31.5123 6.69071 30.2668 6.35693C25.5941 5.10497 20.7904 7.87851 19.5383 12.5513C18.2866 17.2239 21.0601 22.0267 25.7327 23.2788C30.4052 24.5306 35.208 21.7579 36.4602 17.0854C36.7628 15.956 36.8297 14.822 36.6936 13.7339C36.591 12.9121 37.1746 12.1631 37.9963 12.0601C38.8183 11.9574 39.5683 12.5399 39.6711 13.3618C39.8545 14.8277 39.7623 16.3518 39.3577 17.8618C37.6766 24.1346 31.2292 27.8569 24.9563 26.1763C18.6833 24.4953 14.9603 18.0479 16.6409 11.7749Z" fill="currentColor"/>
</svg>
