<svg width="56" height="56" viewBox="0 0 56 56" fill="none" xmlns="http://www.w3.org/2000/svg">
<g>
<path d="M12.3518 27.6831C13.42 27.6831 14.4759 27.9238 15.4358 28.3882L21.137 31.147C21.6457 31.3931 22.2097 31.5229 22.7834 31.5229H25.6946C28.0039 31.5229 30.0747 32.6666 31.2952 34.4312L43.1292 30.7954V30.7964C46.0972 29.8744 49.28 30.9824 51.1057 33.5103C52.6909 35.7057 52.0739 38.8697 49.7034 40.2378L28.7209 52.3433C26.9973 53.3378 24.9558 53.5841 23.051 53.019L5.19653 47.7212C4.32313 47.4618 3.82503 46.5429 4.08423 45.6694C4.34365 44.7962 5.26257 44.298 6.13599 44.5571L23.9895 49.855C25.0203 50.1608 26.1274 50.0302 27.0725 49.4849L48.054 37.3794C48.6826 37.0164 48.9033 36.0974 48.4299 35.4419C47.409 34.0286 45.6807 33.4568 44.1047 33.9478L44.0989 33.9497L32.4153 37.5386C32.4314 37.725 32.4416 37.914 32.4417 38.105C32.4415 38.9886 31.8404 39.7137 31.0471 39.9331L23.9534 41.894C23.5361 42.0094 22.3831 42.3992 21.5266 42.5962C21.0427 42.7075 20.498 42.8023 19.9514 42.8149C19.4585 42.8263 18.8726 42.7713 18.302 42.5317L11.9299 40.5171C11.0613 40.2425 10.5796 39.3154 10.8538 38.4468C11.1285 37.5779 12.0562 37.0959 12.925 37.3706L19.3635 39.4067L19.4758 39.4468C19.5127 39.4614 19.5494 39.4773 19.5852 39.4946C19.5593 39.4821 19.629 39.5208 19.8752 39.5151C20.1119 39.5096 20.416 39.4655 20.7864 39.3804C21.6392 39.1842 22.2184 38.9498 23.0735 38.7134L28.969 37.0835C28.5233 35.7939 27.2574 34.8228 25.6946 34.8228H22.7834C21.7152 34.8227 20.6593 34.5821 19.6995 34.1177L13.9993 31.3589C13.4903 31.1126 12.9258 30.9839 12.3518 30.9839H5.66626C4.7551 30.9839 4.01604 30.2446 4.01587 29.3335C4.01587 28.4222 4.755 27.6831 5.66626 27.6831H12.3518ZM16.4954 11.7358C18.1977 5.38265 24.7291 1.61169 31.0823 3.31396C32.7689 3.76596 34.2773 4.56087 35.5491 5.604C36.2534 6.1818 36.357 7.22173 35.7795 7.92627C35.2017 8.63069 34.1618 8.73333 33.4573 8.15576C32.5412 7.40429 31.4522 6.83059 30.2278 6.50244C25.6351 5.27197 20.9145 7.99762 19.6838 12.5903C18.4536 17.183 21.1791 21.9037 25.7717 23.1343C30.3642 24.3645 35.0849 21.6387 36.3157 17.0464C36.6131 15.9361 36.6789 14.8215 36.5452 13.7524C36.4323 12.8485 37.0739 12.0239 37.9778 11.9106C38.8818 11.7978 39.7064 12.4393 39.8196 13.3433C40.0052 14.828 39.9128 16.372 39.5032 17.9009C37.8007 24.2537 31.2702 28.0238 24.9172 26.3218C18.5643 24.6194 14.7933 18.0889 16.4954 11.7358Z" fill="currentColor" stroke="currentColor" stroke-width="2.07" stroke-linejoin="round"/>
</g>
<!-- stroke normalized to match the 24px set at equal render size (DS has no size=s variant; source weight 3.3) -->
</svg>
