<svg width="16" height="16" viewBox="0 0 16 16" fill="none" xmlns="http://www.w3.org/2000/svg">
<path fill-rule="evenodd" clip-rule="evenodd" d="M8.00098 2.83252C11.4232 2.83276 14.3936 4.75779 15.8955 7.58252C16.0342 7.84345 16.0342 8.15555 15.8955 8.4165C14.3938 11.242 11.4229 13.1673 8 13.1675L7.67969 13.1616C4.49831 13.0495 1.74198 11.2743 0.249024 8.6792L0.104492 8.4165C-0.0341596 8.15556 -0.0341999 7.84345 0.104492 7.58252C1.60651 4.75749 4.57835 2.83252 8.00098 2.83252ZM8 4.58252C5.41671 4.5827 3.14947 5.94586 1.88086 7.99951C3.14927 10.0539 5.41637 11.4174 8 11.4175C10.5835 11.4173 12.8497 10.0535 14.1182 7.99951C12.8494 5.94595 10.583 4.58257 8 4.58252ZM8 5.29346C9.49506 5.29346 10.707 6.50543 10.707 8.00049C10.7069 9.49544 9.49498 10.7075 8 10.7075C6.50507 10.7075 5.29311 9.4954 5.29297 8.00049C5.29298 6.50547 6.50499 5.29352 8 5.29346ZM8 7.04346C7.47149 7.04352 7.04298 7.47197 7.04297 8.00049C7.04311 8.5289 7.47157 8.95746 8 8.95752C8.52848 8.95752 8.95689 8.52894 8.95703 8.00049C8.95702 7.47193 8.52856 7.04346 8 7.04346Z" fill="currentColor"/>
</svg>
