<svg width="16" height="16" viewBox="0 0 16 16" fill="none" xmlns="http://www.w3.org/2000/svg">
<g clip-path="url(#clip0_1708_47)">
<path fill-rule="evenodd" clip-rule="evenodd" d="M2.17121 2.17199C2.51292 1.83028 3.06681 1.83028 3.40852 2.17199L13.8275 12.59C14.1692 12.9317 14.1692 13.4865 13.8275 13.8282C13.4858 14.1696 12.9318 14.1696 12.5902 13.8282L11.2972 12.5353C10.2766 12.9418 9.16399 13.1681 7.99836 13.1681C4.68307 13.1676 1.79118 11.3609 0.248361 8.6798L0.10383 8.41711C-0.0346957 8.15637 -0.0345241 7.84392 0.10383 7.58312C0.806776 6.26081 1.83225 5.13559 3.07453 4.31262L2.17121 3.4093C1.82959 3.06767 1.82976 2.51372 2.17121 2.17199ZM4.34406 5.58215C3.34083 6.17575 2.4935 7.00704 1.8802 8.00012C3.14869 10.0541 5.41551 11.4166 7.99836 11.4171C8.6627 11.4171 9.30562 11.3237 9.91633 11.1544L9.19172 10.4298C8.83212 10.6069 8.42732 10.7071 7.99934 10.7071C6.50471 10.7068 5.29262 9.49476 5.29231 8.00012C5.29233 7.5721 5.3918 7.16666 5.56867 6.80676L4.34406 5.58215ZM7.99934 2.83215C11.4216 2.83227 14.3936 4.75667 15.8958 7.58117C16.0344 7.84189 16.0351 8.15435 15.8968 8.41516L15.7513 8.67785C15.2475 9.55367 14.5986 10.3355 13.8392 10.9923L12.597 9.74914C13.1924 9.25222 13.7086 8.6621 14.1185 7.99816C12.8496 5.94525 10.5824 4.58225 7.99934 4.58215C7.81481 4.58217 7.63156 4.58896 7.45051 4.60266L5.92317 3.07531C6.58926 2.91664 7.28457 2.83223 7.99934 2.83215Z" fill="currentColor"/>
</g>
<defs>
<clipPath id="clip0_1708_47">
<rect width="16" height="16" fill="white"/>
</clipPath>
</defs>
</svg>
