<svg width="24" height="24" viewBox="0 0 24 24" fill="none" xmlns="http://www.w3.org/2000/svg">
<g clip-path="url(#clip0_2103_12199)">
<path d="M9.94824 1.21895C11.2202 0.495666 12.7798 0.495575 14.0518 1.21895L15.1436 1.84004L15.1504 1.84395L17.4795 3.18868C18.0291 3.50618 18.2174 4.20913 17.9004 4.75899C17.5828 5.30902 16.8791 5.49745 16.3291 5.17989L14 3.83614V3.83516L12.915 3.21797C12.3482 2.89561 11.6529 2.89584 11.0859 3.21797L3.78418 7.37032C3.30514 7.64288 2.97782 8.11173 2.87988 8.64278L6.94238 11.6018C7.84153 12.2568 8.38216 12.6359 9.0791 12.7414C10.0573 12.1539 10.9905 11.7736 12 11.7736C13.0093 11.7736 13.942 12.1541 14.9199 12.7414C15.6173 12.6361 16.1581 12.2571 17.0576 11.6018L21.1211 8.64082C21.0262 8.10943 20.7033 7.63891 20.2266 7.36348L19.3047 6.83125C18.7547 6.51369 18.5662 5.81 18.8838 5.25996C19.2015 4.71051 19.9043 4.52181 20.4541 4.83907L21.376 5.37129C22.6598 6.11249 23.4509 7.48268 23.4512 8.96504V19.173C23.4512 21.465 21.5927 23.3234 19.3008 23.3234H4.69922C2.40724 23.3234 0.548828 21.465 0.548828 19.173V8.97871C0.548939 7.48662 1.35048 6.109 2.64746 5.37129L9.94824 1.21895ZM12 14.0744C11.4608 14.0744 10.7992 14.3214 9.56055 15.1652L2.92285 19.6857C3.14508 20.4582 3.85539 21.0236 4.69922 21.0236H19.3008C20.1442 21.0236 20.8544 20.4586 21.0771 19.6867L14.4395 15.1652C13.2008 14.3214 12.5392 14.0744 12 14.0744ZM18.4121 13.4611C18.0438 13.7295 17.6557 14.0192 17.2236 14.2785L21.1514 16.9543V11.465L18.4121 13.4611ZM2.84961 16.9533L6.77539 14.2785C6.34365 14.0193 5.95604 13.7293 5.58789 13.4611L2.84961 11.465V16.9533Z" fill="currentColor"/>
</g>
<defs>
<clipPath id="clip0_2103_12199">
<rect width="24" height="24" fill="white"/>
</clipPath>
</defs>
</svg>
