<svg width="24" height="24" viewBox="0 0 24 24" fill="none" xmlns="http://www.w3.org/2000/svg">
<g clip-path="url(#clip0_ds_ui_mail_open)">
<path d="M9.94824 1.21942C11.2203 0.496021 12.7797 0.496002 14.0518 1.21942L15.1436 1.84052L15.1504 1.84442L17.4795 3.18915C18.0291 3.50677 18.2176 4.20962 17.9004 4.75946C17.5828 5.30939 16.8791 5.49776 16.3291 5.18036L14 3.83661V3.83563L12.915 3.21844C12.3481 2.89603 11.6529 2.8962 11.0859 3.21844L3.78418 7.37079C3.305 7.64343 2.97772 8.11201 2.87988 8.64325L6.94238 11.6022C7.84104 12.2569 8.38166 12.6362 9.07812 12.7419C10.0566 12.154 10.9901 11.7741 12 11.7741C13.0096 11.7741 13.9427 12.1543 14.9209 12.7419C15.6178 12.6364 16.1586 12.2572 17.0576 11.6022L21.1211 8.6413C21.0263 8.10979 20.7034 7.63948 20.2266 7.36395L19.3047 6.83173C18.7547 6.51417 18.5663 5.81047 18.8838 5.26044C19.2014 4.71075 19.9042 4.52221 20.4541 4.83954L21.376 5.37177C22.6598 6.11304 23.451 7.48311 23.4512 8.96552V19.1735C23.4511 21.4654 21.5926 23.3238 19.3008 23.3239H4.69922C2.40729 23.3239 0.548917 21.4654 0.548828 19.1735V8.97919C0.548828 7.48697 1.35039 6.10952 2.64746 5.37177L9.94824 1.21942ZM12 14.0749C11.4608 14.0749 10.7992 14.3219 9.56055 15.1657L2.92285 19.6862C3.14522 20.4584 3.85555 21.0241 4.69922 21.0241H19.3008C20.144 21.024 20.8542 20.4588 21.0771 19.6872L14.4395 15.1657C13.2008 14.3219 12.5392 14.0749 12 14.0749ZM18.4121 13.4616C18.0437 13.73 17.6548 14.0186 17.2227 14.278L21.1514 16.9548V11.4655L18.4121 13.4616ZM2.84961 16.9538L6.77637 14.278C6.34449 14.0187 5.95613 13.7299 5.58789 13.4616L2.84961 11.4655V16.9538Z" fill="currentColor"/>
</g>
<defs>
<clipPath id="clip0_ds_ui_mail_open">
<rect width="24" height="24" fill="white"/>
</clipPath>
</defs>
</svg>
