<svg width="24" height="24" viewBox="0 0 24 24" fill="none" xmlns="http://www.w3.org/2000/svg">
<path d="M19.1465 2.50201C21.4672 2.50241 23.3485 4.3844 23.3486 6.70514V12.5362C23.3484 13.1709 22.8339 13.6852 22.1992 13.6856C21.5642 13.6856 21.049 13.1711 21.0488 12.5362V9.41412L15.7422 12.421C14.4165 13.1721 13.2724 13.6729 12.0342 13.6729C10.7959 13.6729 9.65187 13.1721 8.32617 12.421L3.02051 9.4151V16.879C3.02051 17.9298 3.872 18.7823 4.92285 18.7823H19.9414C20.4593 18.7821 20.9416 18.3552 20.9775 17.7061C20.9886 17.5055 20.9883 17.3338 20.9854 17.2149C20.9839 17.1559 20.982 17.1104 20.9805 17.0821C20.9797 17.0681 20.9789 17.058 20.9785 17.0528V17.0518L20.9756 16.9337C20.9876 16.3512 21.439 15.8608 22.0322 15.8126C22.6649 15.7615 23.2199 16.2326 23.2715 16.8653V16.8702C23.2716 16.8718 23.2723 16.8739 23.2725 16.876C23.2728 16.8808 23.2729 16.8874 23.2734 16.8946C23.2745 16.9096 23.276 16.9304 23.2773 16.9551C23.2801 17.0047 23.2831 17.074 23.2852 17.1583C23.2893 17.3263 23.2895 17.5603 23.2744 17.8331C23.1784 19.5669 21.8101 21.0819 19.9414 21.0821H4.92285C2.60174 21.0821 0.719727 19.2001 0.719727 16.879V6.70514C0.719883 4.38416 2.60184 2.50202 4.92285 2.50201H19.1465ZM4.92285 4.8028C3.8721 4.80281 3.02066 5.65442 3.02051 6.70514V6.77057L9.45996 10.42C10.7273 11.1381 11.428 11.3721 12.0342 11.3721C12.6403 11.3721 13.3411 11.138 14.6084 10.42L21.0488 6.77057V6.70514C21.0487 5.65465 20.1969 4.80319 19.1465 4.8028H4.92285Z" fill="currentColor"/>
</svg>
