<svg width="24" height="24" viewBox="0 0 24 24" fill="none" xmlns="http://www.w3.org/2000/svg">
<g clip-path="url(#clip0_2103_13526)">
<path fill-rule="evenodd" clip-rule="evenodd" d="M1.86438 10.8501C2.4995 10.8501 3.01477 11.3654 3.01477 12.0005C3.01493 17.0172 7.08202 21.0842 12.0988 21.0845C15.0376 21.0844 17.6507 19.6872 19.3116 17.52L18.1671 17.7563C17.5452 17.8844 16.9369 17.4837 16.8087 16.8618C16.6805 16.2398 17.0812 15.6306 17.7032 15.5024L21.1183 14.7993C21.8485 14.6489 22.5634 15.119 22.714 15.8491L23.4181 19.2651C23.546 19.8869 23.1453 20.4952 22.5236 20.6235C21.9015 20.7517 21.2924 20.3511 21.1642 19.729L21.0265 19.062C18.942 21.6935 15.7188 23.3842 12.0988 23.3843C5.81176 23.384 0.714153 18.2875 0.713986 12.0005C0.713986 11.3655 1.22945 10.8503 1.86438 10.8501ZM13.4337 12.3247C14.2269 12.3248 14.9753 12.5324 15.6241 12.896C15.8213 13.0065 16.0096 13.1313 16.1866 13.269C16.2649 13.3299 16.3412 13.3937 16.4152 13.4595C16.8894 13.8818 16.932 14.6091 16.5099 15.0835C16.0876 15.5578 15.3602 15.5994 14.8859 15.1772C14.8498 15.1452 14.8126 15.1141 14.7745 15.0845C14.6879 15.0171 14.5961 14.9557 14.5001 14.9019C14.1859 14.7257 13.8231 14.6256 13.4337 14.6255H10.7648C9.55753 14.6255 8.57926 15.6038 8.57922 16.811C8.57922 17.4461 8.06385 17.9613 7.42883 17.9614C6.7937 17.9614 6.27844 17.4462 6.27844 16.811C6.27848 14.3336 8.28728 12.3247 10.7648 12.3247H13.4337ZM12.0988 0.615723C18.3859 0.615847 23.4825 5.71328 23.4825 12.0005C23.4824 12.6353 22.9679 13.1497 22.3331 13.1499C21.6983 13.1497 21.1829 12.6353 21.1827 12.0005C21.1827 6.98353 17.1157 2.91663 12.0988 2.9165C9.4087 2.91663 6.99042 4.08593 5.32629 5.9458L5.92199 5.771C6.53116 5.59174 7.17126 5.94025 7.3507 6.54932C7.53 7.15861 7.1807 7.79874 6.57141 7.97803L3.2257 8.9624C3.17641 8.97689 3.12671 8.9869 3.07727 8.99561C2.8175 9.08182 2.52657 9.07856 2.25598 8.96045C1.9221 8.81445 1.69278 8.52852 1.60559 8.20166C1.58429 8.15216 1.56454 8.10132 1.54895 8.04834L0.564572 4.70264C0.385331 4.09336 0.734598 3.45321 1.34387 3.27393C1.95304 3.09487 2.59233 3.44407 2.7716 4.05322L3.06945 5.06689C5.14989 2.3614 8.4197 0.615859 12.0988 0.615723ZM12.0988 4.73486C13.8552 4.73486 15.2793 6.1591 15.2794 7.91553C15.2792 9.67185 13.8551 11.0962 12.0988 11.0962C10.3425 11.0961 8.91829 9.67178 8.91809 7.91553C8.91817 6.15916 10.3424 4.73497 12.0988 4.73486ZM12.0988 7.03564C11.6126 7.03575 11.2189 7.42942 11.2189 7.91553C11.2191 8.40153 11.6127 8.79628 12.0988 8.79639C12.5849 8.79639 12.9794 8.4016 12.9796 7.91553C12.9795 7.42935 12.5849 7.03564 12.0988 7.03564Z" fill="currentColor"/>
</g>
<defs>
<clipPath id="clip0_2103_13526">
<rect width="24" height="24" fill="white"/>
</clipPath>
</defs>
</svg>
