<svg width="24" height="24" viewBox="0 0 24 24" fill="none" xmlns="http://www.w3.org/2000/svg">
<path fill-rule="evenodd" clip-rule="evenodd" d="M10.3222 13.1494C11.0133 13.1495 11.631 13.5811 11.8701 14.2295L14.0302 20.0938H18.041C18.6758 20.0939 19.1901 20.6084 19.1904 21.2432C19.1904 21.8782 18.676 22.3934 18.041 22.3936H4.2646C3.56409 22.3935 2.93901 21.951 2.70698 21.29L0.622023 15.3457C0.246147 14.273 1.04201 13.1497 2.17866 13.1494H10.3222ZM17.4365 13.4746C17.5715 12.8542 18.1842 12.46 18.8046 12.5947C21.473 13.1757 23.4724 15.55 23.4726 18.3936C23.4726 19.1528 23.1952 19.8508 22.7373 20.3857C22.3244 20.8681 21.5987 20.9242 21.1162 20.5117C20.6337 20.0987 20.5772 19.3722 20.9902 18.8896C21.1047 18.7557 21.1728 18.5837 21.1728 18.3936C21.1726 16.6546 19.9498 15.1987 18.3164 14.8428C17.6959 14.7077 17.3017 14.095 17.4365 13.4746ZM4.72554 20.0938H11.5791L9.86909 15.4502H3.09566L4.72554 20.0938ZM14.0761 14.0166C14.4861 13.5319 15.2113 13.4714 15.6962 13.8809C16.7881 14.8044 17.563 16.0965 17.8271 17.5684C17.9392 18.1935 17.5235 18.7912 16.8984 18.9033C16.2734 19.0152 15.6755 18.5997 15.5634 17.9746C15.3968 17.0458 14.9076 16.2253 14.2119 15.6367C13.7275 15.2265 13.6663 14.5014 14.0761 14.0166ZM9.24409 1.61328C11.8965 1.74767 14.0056 3.94159 14.0058 6.62793L14 6.88574C13.8657 9.53888 11.6722 11.6492 8.98628 11.6494L8.72749 11.6426C6.16061 11.5122 4.10256 9.45327 3.97261 6.88574L3.96577 6.62793C3.96603 3.85507 6.21398 1.60657 8.98628 1.60645L9.24409 1.61328ZM15.083 2.66602C15.3851 2.10742 16.0839 1.89906 16.6425 2.20117C16.7438 2.25595 16.8432 2.31449 16.9404 2.37598C18.0992 3.10948 18.9574 4.3163 19.207 5.77734C19.5808 7.96714 18.4776 10.0658 16.623 11.0566C16.0629 11.3556 15.3665 11.143 15.0673 10.583C14.7683 10.0229 14.9799 9.32658 15.54 9.02734C16.5469 8.48916 17.1424 7.34974 16.9404 6.16504C16.8051 5.37298 16.3421 4.72011 15.7109 4.32031C15.6581 4.28693 15.6037 4.25433 15.5488 4.22461C14.9903 3.92253 14.7811 3.22459 15.083 2.66602ZM8.98628 3.90625C7.4847 3.90638 6.26583 5.12486 6.26558 6.62793C6.2657 8.13111 7.48462 9.34851 8.98628 9.34863C10.4879 9.34845 11.7059 8.13108 11.706 6.62793C11.7058 5.12489 10.4878 3.90643 8.98628 3.90625Z" fill="currentColor"/>
</svg>
