<svg width="24" height="24" viewBox="0 0 24 24" fill="none" xmlns="http://www.w3.org/2000/svg">
<path d="M9.72852 13.7388C10.3632 13.7392 10.8778 14.2545 10.8779 14.8892C10.8779 15.524 10.3633 16.0391 9.72852 16.0396H6.60449C4.50369 16.0396 2.80104 17.7425 2.80078 19.8433C2.80078 20.3025 3.17262 20.6752 3.63184 20.6753H12.2607C12.8954 20.6756 13.4098 21.1901 13.4102 21.8247C13.4102 22.4596 12.8956 22.9748 12.2607 22.9751H3.63184C1.90236 22.975 0.5 21.5728 0.5 19.8433C0.500261 16.4722 3.23344 13.7389 6.60449 13.7388H9.72852ZM8.97754 0.67334C12.1673 0.835028 14.704 3.47304 14.7041 6.70361L14.6963 7.01416C14.5348 10.2048 11.8971 12.7426 8.66699 12.7427L8.35645 12.7339C5.16676 12.572 2.62988 9.93421 2.62988 6.70361C2.63002 3.36897 5.33308 0.665735 8.66699 0.665527L8.97754 0.67334ZM16.377 2.72217C16.5559 2.11296 17.1954 1.76411 17.8047 1.94287C19.4419 2.42342 20.8106 3.70682 21.3213 5.47217C22.115 8.21733 20.5342 11.0865 17.7891 11.8804C17.179 12.0567 16.5408 11.7052 16.3643 11.0952C16.1882 10.4852 16.5404 9.84778 17.1504 9.67139C18.6749 9.23051 19.5534 7.63622 19.1123 6.11084C18.829 5.13177 18.071 4.41729 17.1562 4.14893C16.5472 3.96995 16.1984 3.33136 16.377 2.72217ZM8.66699 2.96533C6.6038 2.96554 4.92983 4.63877 4.92969 6.70361C4.92969 8.76858 6.60371 10.4417 8.66699 10.4419C10.7304 10.4419 12.4043 8.76869 12.4043 6.70361C12.4042 4.63866 10.7303 2.96536 8.66699 2.96533Z" fill="currentColor"/>
<path fill-rule="evenodd" clip-rule="evenodd" d="M13.3712 14.7391C14.2707 13.856 15.7292 13.856 16.6287 14.7391L17.0089 15.1124C17.0659 15.1682 17.157 15.1682 17.214 15.1124L17.5942 14.7391C18.4937 13.856 19.9522 13.856 20.8517 14.7391C21.7513 15.6222 21.7513 17.054 20.8517 17.9371L17.1115 21.8029L13.3712 17.9371C12.4716 17.054 12.4716 15.6222 13.3712 14.7391Z" stroke="currentColor" stroke-width="2.3" stroke-linejoin="round"/>
</svg>
