<svg width="24" height="24" viewBox="0 0 24 24" fill="none" xmlns="http://www.w3.org/2000/svg">
<g>
<path d="M13.6299 14.5966C16.5479 14.5969 18.9139 16.9628 18.9141 19.8808C18.9141 21.429 17.6585 22.6842 16.1104 22.6845H7.8418C6.29354 22.6844 5.03809 21.4291 5.03809 19.8808C5.03825 16.9627 7.40419 14.5967 10.3223 14.5966H13.6299ZM10.3223 16.8974C8.67445 16.8975 7.33904 18.233 7.33887 19.8808C7.33887 20.1588 7.5638 20.3846 7.8418 20.3847H16.1104C16.3883 20.3844 16.6133 20.1588 16.6133 19.8808C16.6131 18.2331 15.2776 16.8976 13.6299 16.8974H10.3223ZM5.24707 9.97748C5.87332 9.8723 6.46598 10.2946 6.57129 10.9208C6.67646 11.5471 6.25418 12.1398 5.62793 12.2451C4.21841 12.4823 3.14376 13.7108 3.14355 15.1874C3.14359 15.4239 3.30844 15.6251 3.53027 15.6777C4.1483 15.8238 4.53075 16.4434 4.38477 17.0615C4.2386 17.6795 3.61903 18.0621 3.00098 17.916C1.76497 17.6235 0.843781 16.5143 0.84375 15.1874C0.843951 12.569 2.74835 10.3978 5.24707 9.97748ZM17.6445 10.9208C17.7498 10.2947 18.3426 9.87251 18.9688 9.97748C21.4676 10.3977 23.3719 12.569 23.3721 15.1874C23.372 16.5144 22.451 17.6236 21.2148 17.916C20.5969 18.0618 19.9771 17.6794 19.8311 17.0615C19.6851 16.4436 20.0677 15.8239 20.6855 15.6777C20.9075 15.6252 21.0722 15.424 21.0723 15.1874C21.0721 13.7107 19.9975 12.4822 18.5879 12.2451C17.9619 12.1396 17.5394 11.5469 17.6445 10.9208ZM12 4.0351C14.6268 4.03523 16.7566 6.16512 16.7568 8.79194C16.7568 11.4189 14.627 13.5486 12 13.5488C9.37306 13.5486 7.24316 11.4189 7.24316 8.79194C7.24337 6.16514 9.37319 4.03526 12 4.0351ZM12 6.33588C10.6434 6.33604 9.54415 7.43539 9.54395 8.79194C9.54395 10.1487 10.6433 11.2488 12 11.249C13.3567 11.2488 14.457 10.1487 14.457 8.79194C14.4568 7.43538 13.3566 6.33601 12 6.33588ZM2.68262 3.0478C3.99632 1.10851 6.63387 0.600535 8.57324 1.91401C9.09899 2.27016 9.23684 2.98585 8.88086 3.51166C8.52466 4.03748 7.80903 4.17544 7.2832 3.81928C6.39546 3.21791 5.18829 3.45009 4.58691 4.33783C3.98585 5.22554 4.21785 6.43283 5.10547 7.03412C5.63112 7.39029 5.76902 8.10503 5.41309 8.6308C5.05686 9.15649 4.34121 9.29453 3.81543 8.93842C1.87613 7.62471 1.36911 4.98717 2.68262 3.0478ZM15.1904 1.91401C17.1298 0.600281 19.7672 1.10852 21.0811 3.0478C22.3946 4.98718 21.8876 7.62469 19.9482 8.93842C19.4224 9.29428 18.7067 9.1565 18.3506 8.6308C17.9948 8.10515 18.1329 7.39035 18.6582 7.03412C19.5459 6.43281 19.7779 5.22555 19.1768 4.33783C18.5754 3.45029 17.3691 3.21817 16.4814 3.81928C15.9556 4.17549 15.24 4.0375 14.8838 3.51166C14.5276 2.98583 14.6646 2.27021 15.1904 1.91401Z" fill="currentColor"/>
</g>
</svg>
