<svg width="24" height="24" viewBox="0 0 24 24" fill="none" xmlns="http://www.w3.org/2000/svg">
<g>
<path d="M10.3228 13.1494C11.0138 13.1496 11.6316 13.5811 11.8706 14.2295L14.0308 20.0938H18.0415C18.6762 20.0941 19.1907 20.6085 19.1909 21.2432C19.1909 21.8781 18.6764 22.3932 18.0415 22.3936H4.26514C3.56453 22.3936 2.93957 21.9511 2.70752 21.29L0.622559 15.3457C0.246515 14.2729 1.04236 13.1496 2.1792 13.1494H10.3228ZM17.436 13.4746C17.5711 12.8543 18.1839 12.4601 18.8042 12.5947C21.4727 13.1756 23.472 15.5499 23.4722 18.3936C23.4721 19.1528 23.1947 19.8508 22.7368 20.3857C22.3239 20.868 21.5982 20.9243 21.1157 20.5117C20.6334 20.0987 20.5769 19.3721 20.9897 18.8896C21.1043 18.7557 21.1723 18.5838 21.1724 18.3936C21.1722 16.6545 19.9494 15.1986 18.3159 14.8428C17.6957 14.7076 17.3014 14.0949 17.436 13.4746ZM4.72607 20.0938H11.5796L9.86963 15.4502H3.09619L4.72607 20.0938ZM14.0767 14.0166C14.4868 13.5321 15.212 13.4711 15.6968 13.8809C16.7886 14.8044 17.5636 16.0965 17.8276 17.5684C17.9397 18.1935 17.524 18.7912 16.8989 18.9033C16.2738 19.0154 15.676 18.5998 15.564 17.9746C15.3974 17.0457 14.9081 16.2253 14.2124 15.6367C13.7277 15.2266 13.6668 14.5015 14.0767 14.0166ZM9.24463 1.61328C11.8969 1.74781 14.0061 3.94168 14.0063 6.62793L14.0005 6.88574C13.8662 9.53878 11.6726 11.6491 8.98682 11.6494L8.72803 11.6426C6.16102 11.5124 4.1031 9.45335 3.97314 6.88574L3.96631 6.62793C3.96657 3.85499 6.21441 1.60645 8.98682 1.60645L9.24463 1.61328ZM15.0835 2.66602C15.3856 2.10754 16.0835 1.89933 16.6421 2.20117C16.7433 2.25592 16.8428 2.31452 16.9399 2.37598C18.0989 3.10945 18.9569 4.31627 19.2065 5.77734C19.5803 7.96705 18.478 10.0658 16.6235 11.0566C16.0634 11.3557 15.3661 11.1431 15.0669 10.583C14.7679 10.0229 14.9795 9.32656 15.5396 9.02734C16.5467 8.48922 17.142 7.34988 16.9399 6.16504C16.8047 5.37285 16.3418 4.7201 15.7104 4.32031C15.6577 4.28692 15.6033 4.25434 15.5483 4.22461C14.99 3.9224 14.7816 3.22453 15.0835 2.66602ZM8.98682 3.90625C7.48513 3.90625 6.26637 5.12478 6.26611 6.62793C6.26624 8.13119 7.48504 9.34863 8.98682 9.34863C10.4883 9.34829 11.7064 8.13098 11.7065 6.62793C11.7063 5.12499 10.4882 3.90659 8.98682 3.90625Z" fill="currentColor"/>
</g>
</svg>
