<svg width="48" height="48" viewBox="0 0 48 48" fill="none" xmlns="http://www.w3.org/2000/svg">
<path d="M34.4893 25.9775C35.124 25.9777 35.6384 26.4932 35.6387 27.1279V35.6074H43.541C44.1759 35.6074 44.691 36.122 44.6914 36.7568C44.6914 37.392 44.1761 37.9072 43.541 37.9072H35.6387V43.7305C35.6387 44.3655 35.1242 44.8806 34.4893 44.8809C33.8542 44.8807 33.3389 44.3655 33.3389 43.7305V37.9072H26.9482C26.3133 37.907 25.7979 37.3918 25.7979 36.7568C25.7982 36.1221 26.3135 35.6076 26.9482 35.6074H33.3389V27.1279C33.3391 26.4931 33.8544 25.9777 34.4893 25.9775ZM22.5947 28.3311C23.9627 28.3311 25.2733 28.5919 26.4766 29.0664C27.0669 29.2996 27.3568 29.967 27.124 30.5576C26.8911 31.1483 26.2235 31.4386 25.6328 31.2061C24.6938 30.8358 23.6692 30.6319 22.5947 30.6318H15.0459C10.47 30.6319 6.76082 34.341 6.76074 38.917C6.76075 40.3663 7.93542 41.541 9.38477 41.541H25.8184C26.4532 41.5414 26.9678 42.0565 26.9678 42.6914C26.9678 43.3263 26.4532 43.8415 25.8184 43.8418H9.38477C6.66517 43.8418 4.45997 41.6366 4.45996 38.917C4.46004 33.0708 9.1997 28.3311 15.0459 28.3311H22.5947ZM19.1865 3.00879C25.3081 3.00879 30.2712 7.97126 30.2715 14.0928L30.2568 14.6631C29.9602 20.5199 25.1171 25.1777 19.1865 25.1777L18.6162 25.1631C12.7599 24.8659 8.10254 20.023 8.10254 14.0928C8.10278 7.97152 13.0653 3.00922 19.1865 3.00879ZM19.1865 5.30859C14.3356 5.30902 10.4026 9.24178 10.4023 14.0928C10.4023 18.944 14.3354 22.8775 19.1865 22.8779C24.038 22.8779 27.9717 18.9442 27.9717 14.0928C27.9714 9.24151 24.0378 5.30859 19.1865 5.30859Z" fill="currentColor"/>
</svg>
