<svg width="24" height="24" viewBox="0 0 24 24" fill="none" xmlns="http://www.w3.org/2000/svg">
<path fill-rule="evenodd" clip-rule="evenodd" d="M13.6299 14.5971C16.5479 14.5973 18.9139 16.9633 18.9141 19.8813C18.9138 21.4293 17.6584 22.6847 16.1104 22.685H7.8418C6.29367 22.6849 5.0383 21.4294 5.03809 19.8813C5.0382 16.9632 7.40416 14.5972 10.3223 14.5971H13.6299ZM10.3223 16.8979C8.67442 16.898 7.33899 18.2334 7.33887 19.8813C7.33908 20.1592 7.56393 20.385 7.8418 20.3852H16.1104C16.3881 20.3849 16.6131 20.1591 16.6133 19.8813C16.6132 18.2335 15.2776 16.8981 13.6299 16.8979H10.3223ZM5.24707 9.977C5.87317 9.87183 6.46577 10.2943 6.57129 10.9204C6.67648 11.5466 6.25419 12.1393 5.62793 12.2446C4.2185 12.4818 3.14396 13.7104 3.14355 15.187C3.14355 15.4234 3.30848 15.6245 3.53027 15.6772C4.14818 15.8233 4.53053 16.4431 4.38477 17.061C4.23865 17.6791 3.61907 18.0616 3.00098 17.9155C1.765 17.623 0.84375 16.5138 0.84375 15.187C0.844154 12.5687 2.74844 10.3973 5.24707 9.977ZM17.6445 10.9204C17.75 10.2944 18.3428 9.87209 18.9688 9.977C21.4675 10.3972 23.3717 12.5687 23.3721 15.187C23.3721 16.5139 22.451 17.6231 21.2148 17.9155C20.5968 18.0614 19.9772 17.679 19.8311 17.061C19.6854 16.4432 20.0678 15.8234 20.6855 15.6772C20.9075 15.6247 21.0723 15.4235 21.0723 15.187C21.0719 13.7104 19.9974 12.4817 18.5879 12.2446C17.9619 12.1391 17.5394 11.5465 17.6445 10.9204ZM12 4.03559C14.6269 4.03572 16.7567 6.16557 16.7568 8.79243C16.7566 11.4192 14.6268 13.5491 12 13.5493C9.37319 13.5491 7.24338 11.4192 7.24316 8.79243C7.24332 6.16558 9.37316 4.03575 12 4.03559ZM12 6.33637C10.6434 6.33653 9.5441 7.43584 9.54395 8.79243C9.54416 10.149 10.6434 11.2493 12 11.2495C13.3566 11.2493 14.4568 10.149 14.457 8.79243C14.4569 7.43582 13.3566 6.3365 12 6.33637ZM2.68262 3.04829C3.99638 1.10893 6.63385 0.60083 8.57324 1.9145C9.09908 2.27071 9.23707 2.98632 8.88086 3.51215C8.52463 4.03793 7.80902 4.17499 7.2832 3.81879C6.39555 3.21762 5.1883 3.44985 4.58691 4.33735C3.98579 5.22502 4.21792 6.43229 5.10547 7.03364C5.63114 7.38974 5.76888 8.10453 5.41309 8.63032C5.05688 9.15615 4.34126 9.29414 3.81543 8.93793C1.87637 7.62426 1.36943 4.98758 2.68262 3.04829ZM15.1904 1.9145C17.1298 0.600705 19.7673 1.10888 21.0811 3.04829C22.3945 4.98765 21.8875 7.62424 19.9482 8.93793C19.4224 9.29399 18.7068 9.15609 18.3506 8.63032C17.995 8.10462 18.1328 7.38973 18.6582 7.03364C19.5459 6.43232 19.7779 5.22506 19.1768 4.33735C18.5754 3.45015 17.369 3.21795 16.4814 3.81879C15.9557 4.17494 15.2401 4.03775 14.8838 3.51215C14.5276 2.98638 14.6648 2.27075 15.1904 1.9145Z" fill="currentColor"/>
</svg>
