<svg width="56" height="56" viewBox="0 0 56 56" fill="none" xmlns="http://www.w3.org/2000/svg">
<g>
<path d="M40.5459 30.3076C41.457 30.3078 42.1953 31.0469 42.1953 31.958V40.9258H50.4902C51.4013 40.9259 52.1394 41.6642 52.1396 42.5752C52.1396 43.4864 51.4014 44.2255 50.4902 44.2256H42.1953V50.7109C42.1953 51.6221 41.457 52.3611 40.5459 52.3613C39.6347 52.3613 38.8955 51.6222 38.8955 50.7109V44.2256H31.748C30.8369 44.2255 30.0977 43.4863 30.0977 42.5752C30.0979 41.6642 30.837 40.9259 31.748 40.9258H38.8955V31.958C38.8955 31.0468 39.6347 30.3077 40.5459 30.3076ZM26.3604 32.7441C27.9956 32.7442 29.5627 33.0555 31.002 33.623C31.8494 33.9574 32.2656 34.9161 31.9316 35.7637C31.5973 36.6113 30.6387 37.0276 29.791 36.6934C28.7309 36.2754 27.5745 36.045 26.3604 36.0449H17.5537C12.3854 36.0449 8.19557 40.2351 8.19531 45.4033C8.19557 46.9237 9.42779 48.1562 10.9482 48.1562H30.1211C31.032 48.1565 31.7703 48.8957 31.7705 49.8066C31.7703 50.7176 31.032 51.4558 30.1211 51.4561H10.9482C7.60525 51.4561 4.89479 48.7463 4.89453 45.4033C4.89479 38.4125 10.5629 32.7441 17.5537 32.7441H26.3604ZM22.3848 3.51074C29.5267 3.51074 35.3163 9.30043 35.3164 16.4424C35.3162 23.5842 29.5266 29.374 22.3848 29.374C15.2431 29.3738 9.45334 23.5841 9.45312 16.4424C9.45318 9.30057 15.243 3.51098 22.3848 3.51074ZM22.3848 6.81055C17.0655 6.81078 12.753 11.1231 12.7529 16.4424C12.7531 21.7615 17.0656 26.074 22.3848 26.0742C27.7041 26.0742 32.0164 21.7617 32.0166 16.4424C32.0165 11.123 27.7042 6.81055 22.3848 6.81055Z" fill="currentColor" stroke="currentColor" stroke-width="2.07" stroke-linejoin="round"/>
</g>
<!-- stroke normalized to match the 24px set at equal render size (DS has no size=s variant; source weight 3.3) -->
</svg>
