<svg width="24" height="24" viewBox="0 0 24 24" fill="none" xmlns="http://www.w3.org/2000/svg">
<g>
<path d="M18.0205 13.4578C19.3725 12.4223 21.3231 12.5146 22.5674 13.7361C23.919 15.0631 23.9247 17.218 22.5869 18.5535L22.5879 18.5544L18.8477 22.4197C18.6311 22.6434 18.3329 22.7702 18.0215 22.7703C17.71 22.7702 17.4119 22.6435 17.1953 22.4197L13.4551 18.5544L13.4561 18.5535C12.1182 17.2181 12.1241 15.0631 13.4756 13.7361C14.7195 12.5149 16.6686 12.4232 18.0205 13.4578ZM7.27734 1.42944C8.55692 1.01261 10.0656 1.25499 11.0479 2.07495C11.5219 2.06394 11.9824 2.14093 12.4033 2.35522C13.0292 2.67397 13.3952 3.20243 13.6045 3.73511C13.8051 4.24588 13.8846 4.81411 13.9219 5.3396C13.9596 5.87178 13.959 6.45158 13.959 7.00073C13.959 8.60988 14.4048 9.88011 14.5742 10.2253C14.7164 10.5151 14.7302 10.8516 14.6123 11.1521C14.4942 11.4527 14.2547 11.6899 13.9531 11.8054C13.3883 12.0215 12.7747 12.1972 12.127 12.3308V13.7068C12.1268 14.3416 11.6123 14.8559 10.9775 14.8562C10.3425 14.8562 9.8273 14.3418 9.82715 13.7068V11.3601C9.8275 10.7831 10.2559 10.2955 10.8281 10.2205C11.2621 10.1635 11.675 10.0837 12.0625 9.98803C11.846 9.19848 11.6592 8.16157 11.6592 7.00073C11.6592 6.43096 11.6588 5.93696 11.6279 5.50171C11.5965 5.05994 11.538 4.76454 11.4639 4.57593C11.4298 4.48923 11.4002 4.44534 11.3848 4.42651C11.3728 4.41194 11.3662 4.40804 11.3604 4.40503C11.3477 4.39857 11.2092 4.33416 10.8027 4.40307C10.3747 4.47553 9.94204 4.30046 9.68457 3.95093C9.4863 3.68257 8.76301 3.36532 7.99023 3.61694C7.65378 3.72659 7.33582 3.94279 7.0918 4.31714C6.84382 4.69773 6.63092 5.30696 6.63086 6.25464C6.63084 7.97955 6.47579 9.13595 6.24512 9.99292C6.62771 10.0867 7.03524 10.1644 7.46289 10.2205C8.03482 10.2957 8.46254 10.7833 8.46289 11.3601V13.7068C8.4628 14.0783 8.28292 14.4275 7.98047 14.6433C7.77429 14.7902 7.52812 14.8601 7.28125 14.8533L7.04785 14.8718C7.01933 14.874 6.99051 14.8747 6.96191 14.8748C4.64942 14.8748 2.71506 16.8304 2.71484 19.3337C2.71506 19.974 3.20641 20.4246 3.73047 20.4246H13.249C13.8837 20.4249 14.3982 20.9402 14.3984 21.5749C14.3984 22.2099 13.8839 22.725 13.249 22.7253H3.73047C1.86235 22.7253 0.414285 21.1691 0.414062 19.3337C0.414266 15.9195 2.8841 13.0333 6.16309 12.6257V12.3308C5.51536 12.1972 4.90171 12.0215 4.33691 11.8054C4.03526 11.6899 3.7959 11.4527 3.67773 11.1521C3.55982 10.8516 3.57365 10.5152 3.71582 10.2253C3.98272 9.68166 4.33103 8.74777 4.33105 6.25464C4.33112 4.96409 4.62209 3.89317 5.16406 3.06128C5.71006 2.22346 6.46901 1.69286 7.27734 1.42944ZM20.9561 15.3777C20.5038 14.9337 19.7618 14.9337 19.3096 15.3777L18.9297 15.7507C18.4255 16.2454 17.6174 16.2455 17.1133 15.7507L16.7334 15.3777C16.2812 14.9337 15.5391 14.9337 15.0869 15.3777C14.6743 15.7832 14.6482 16.4166 15.0098 16.8503L15.0869 16.9343L15.0977 16.9441L15.1074 16.9548L18.0215 19.9666L20.9355 16.9548L20.9453 16.9441L20.9561 16.9343C21.3964 16.5021 21.3962 15.81 20.9561 15.3777Z" fill="currentColor"/>
</g>
</svg>
