<svg width="24" height="24" viewBox="0 0 24 24" fill="none" xmlns="http://www.w3.org/2000/svg">
<g clip-path="url(#clip0_ds_user_update)">
<path d="M1.86426 10.8501C2.49939 10.8501 3.01465 11.3654 3.01465 12.0005C3.01482 17.0172 7.0819 21.0842 12.0986 21.0845C15.0375 21.0844 17.6506 19.6872 19.3115 17.52L18.167 17.7563C17.5451 17.8844 16.9368 17.4837 16.8086 16.8618C16.6804 16.2398 17.0811 15.6306 17.7031 15.5024L21.1182 14.7993C21.8484 14.6489 22.5633 15.119 22.7139 15.8491L23.418 19.2651C23.5459 19.8869 23.1451 20.4952 22.5234 20.6235C21.9014 20.7517 21.2922 20.3511 21.1641 19.729L21.0264 19.062C18.9419 21.6935 15.7187 23.3842 12.0986 23.3843C5.81164 23.384 0.714035 18.2875 0.713867 12.0005C0.713867 11.3655 1.22933 10.8503 1.86426 10.8501ZM13.4336 12.3247C14.2268 12.3248 14.9752 12.5324 15.624 12.896C15.8212 13.0065 16.0094 13.1313 16.1865 13.269C16.2648 13.3299 16.3411 13.3937 16.415 13.4595C16.8893 13.8818 16.9319 14.6091 16.5098 15.0835C16.0875 15.5578 15.3601 15.5994 14.8857 15.1772C14.8497 15.1452 14.8125 15.1141 14.7744 15.0845C14.6878 15.0171 14.596 14.9557 14.5 14.9019C14.1857 14.7257 13.823 14.6256 13.4336 14.6255H10.7646C9.55741 14.6255 8.57915 15.6038 8.5791 16.811C8.5791 17.4461 8.06374 17.9613 7.42871 17.9614C6.79358 17.9614 6.27832 17.4462 6.27832 16.811C6.27837 14.3336 8.28716 12.3247 10.7646 12.3247H13.4336ZM12.0986 0.615723C18.3858 0.615847 23.4824 5.71328 23.4824 12.0005C23.4823 12.6353 22.9678 13.1497 22.333 13.1499C21.6982 13.1497 21.1828 12.6353 21.1826 12.0005C21.1826 6.98353 17.1156 2.91663 12.0986 2.9165C9.40859 2.91663 6.9903 4.08593 5.32617 5.9458L5.92188 5.771C6.53105 5.59174 7.17114 5.94025 7.35059 6.54932C7.52988 7.15861 7.18058 7.79874 6.57129 7.97803L3.22559 8.9624C3.1763 8.97689 3.12659 8.9869 3.07715 8.99561C2.81738 9.08182 2.52645 9.07856 2.25586 8.96045C1.92198 8.81445 1.69266 8.52852 1.60547 8.20166C1.58417 8.15216 1.56442 8.10132 1.54883 8.04834L0.564453 4.70264C0.385212 4.09336 0.734479 3.45321 1.34375 3.27393C1.95292 3.09487 2.59221 3.44407 2.77148 4.05322L3.06934 5.06689C5.14977 2.3614 8.41958 0.615859 12.0986 0.615723ZM12.0986 4.73486C13.8551 4.73486 15.2792 6.1591 15.2793 7.91553C15.2791 9.67185 13.855 11.0962 12.0986 11.0962C10.3424 11.0961 8.91817 9.67178 8.91797 7.91553C8.91805 6.15916 10.3423 4.73497 12.0986 4.73486ZM12.0986 7.03564C11.6125 7.03575 11.2188 7.42942 11.2188 7.91553C11.219 8.40153 11.6126 8.79628 12.0986 8.79639C12.5847 8.79639 12.9793 8.4016 12.9795 7.91553C12.9794 7.42935 12.5848 7.03564 12.0986 7.03564Z" fill="currentColor"/>
</g>
<defs>
<clipPath id="clip0_ds_user_update">
<rect width="24" height="24" fill="white"/>
</clipPath>
</defs>
</svg>
