<svg width="24" height="24" viewBox="0 0 24 24" fill="none" xmlns="http://www.w3.org/2000/svg">
<g>
<g>
<path d="M11.1768 13.2319C14.6389 13.232 17.4453 16.0393 17.4453 19.5015C17.4451 21.2672 16.0138 22.6987 14.248 22.6987H4.01074C2.24514 22.6985 0.812717 21.2671 0.8125 19.5015C0.8125 16.0395 3.62008 13.2322 7.08203 13.2319H11.1768ZM17.6445 12.9146C20.7387 13.1069 23.1881 15.676 23.1885 18.8179C23.1885 20.5058 21.8197 21.8745 20.1318 21.8745H19.6211C18.9863 21.8742 18.4717 21.359 18.4717 20.7241C18.472 20.0895 18.9865 19.575 19.6211 19.5747H20.1318C20.5495 19.5747 20.8887 19.2355 20.8887 18.8179C20.8883 16.8984 19.3912 15.327 17.502 15.2095C16.8682 15.1699 16.3864 14.6245 16.4258 13.9907C16.4654 13.3572 17.0109 12.8753 17.6445 12.9146ZM7.08203 15.5327C4.89033 15.533 3.11328 17.3097 3.11328 19.5015C3.1135 19.9968 3.5154 20.3987 4.01074 20.3989H14.248C14.7436 20.3989 15.1453 19.997 15.1455 19.5015C15.1455 17.3096 13.3686 15.5327 11.1768 15.5327H7.08203ZM9.30176 1.30127C12.3646 1.30134 14.8484 3.78469 14.8486 6.84814L14.8408 7.13428C14.6921 10.0651 12.2689 12.3959 9.30176 12.396L9.0166 12.3892C6.08621 12.2406 3.75592 9.81607 3.75586 6.84814C3.75611 3.78473 6.23897 1.30141 9.30176 1.30127ZM15.292 2.62354C15.5943 2.06542 16.2922 1.85767 16.8506 2.15967C16.9574 2.21747 17.0625 2.27937 17.165 2.34424C18.3893 3.1192 19.2969 4.39363 19.5605 5.93701C19.9556 8.25029 18.7894 10.4664 16.8301 11.5132C16.2699 11.8125 15.5737 11.6007 15.2744 11.0405C14.9755 10.4805 15.1862 9.78414 15.7461 9.48486C16.8581 8.89073 17.5164 7.63223 17.293 6.32373C17.1434 5.44921 16.6315 4.72868 15.9346 4.2876C15.8765 4.25085 15.8173 4.21583 15.7568 4.18311C15.1982 3.88095 14.9898 3.18218 15.292 2.62354ZM9.30176 3.60107C7.50969 3.60121 6.05592 5.05452 6.05566 6.84814C6.05572 8.64193 7.50957 10.0961 9.30176 10.0962C11.094 10.0961 12.5478 8.64197 12.5479 6.84814C12.5476 5.05448 11.0939 3.60115 9.30176 3.60107Z" fill="currentColor"/>
</g>
</g>
</svg>
