<svg width="24" height="24" viewBox="0 0 24 24" fill="none" xmlns="http://www.w3.org/2000/svg">
<path fill-rule="evenodd" clip-rule="evenodd" d="M18.0205 13.4579C19.3725 12.4224 21.3231 12.5147 22.5674 13.7362C23.919 15.0632 23.9247 17.2181 22.5869 18.5536L22.5879 18.5546L18.8477 22.4198C18.6311 22.6435 18.3329 22.7704 18.0215 22.7704C17.71 22.7703 17.4119 22.6437 17.1953 22.4198L13.4551 18.5546L13.4561 18.5536C12.1182 17.2182 12.1241 15.0633 13.4756 13.7362C14.7195 12.515 16.6686 12.4233 18.0205 13.4579ZM7.27734 1.42958C8.55692 1.01275 10.0656 1.25513 11.0479 2.07509C11.5219 2.06408 11.9824 2.14107 12.4033 2.35536C13.0292 2.67411 13.3952 3.20258 13.6045 3.73525C13.8051 4.24603 13.8846 4.81425 13.9219 5.33974C13.9596 5.87192 13.959 6.45172 13.959 7.00087C13.959 8.61002 14.4048 9.88026 14.5742 10.2255C14.7164 10.5153 14.7302 10.8517 14.6123 11.1522C14.4942 11.4528 14.2547 11.69 13.9531 11.8056C13.3883 12.0216 12.7747 12.1973 12.127 12.3309V13.7069C12.1268 14.3417 11.6123 14.856 10.9775 14.8563C10.3425 14.8563 9.8273 14.3419 9.82715 13.7069V11.3602C9.8275 10.7832 10.2559 10.2956 10.8281 10.2206C11.2621 10.1637 11.675 10.0839 12.0625 9.98818C11.846 9.19862 11.6592 8.16171 11.6592 7.00087C11.6592 6.4311 11.6588 5.9371 11.6279 5.50185C11.5965 5.06008 11.538 4.76468 11.4639 4.57607C11.4298 4.48937 11.4002 4.44549 11.3848 4.42665C11.3728 4.41208 11.3662 4.40818 11.3604 4.40517C11.3477 4.39871 11.2092 4.3343 10.8027 4.40322C10.3747 4.47567 9.94204 4.3006 9.68457 3.95107C9.4863 3.68271 8.76301 3.36546 7.99023 3.61708C7.65378 3.72673 7.33582 3.94293 7.0918 4.31728C6.84382 4.69788 6.63092 5.3071 6.63086 6.25478C6.63084 7.97969 6.47579 9.13609 6.24512 9.99306C6.62771 10.0868 7.03524 10.1645 7.46289 10.2206C8.03482 10.2959 8.46254 10.7834 8.46289 11.3602V13.7069C8.4628 14.0785 8.28292 14.4277 7.98047 14.6434C7.77429 14.7903 7.52812 14.8602 7.28125 14.8534L7.04785 14.872C7.01933 14.8741 6.99051 14.8749 6.96191 14.8749C4.64942 14.8749 2.71506 16.8305 2.71484 19.3339C2.71506 19.9741 3.20641 20.4247 3.73047 20.4247H13.249C13.8837 20.425 14.3982 20.9403 14.3984 21.5751C14.3984 22.21 13.8839 22.7252 13.249 22.7255H3.73047C1.86235 22.7255 0.414285 21.1693 0.414062 19.3339C0.414266 15.9197 2.8841 13.0335 6.16309 12.6259V12.3309C5.51536 12.1973 4.90171 12.0216 4.33691 11.8056C4.03526 11.69 3.7959 11.4529 3.67773 11.1522C3.55982 10.8517 3.57365 10.5153 3.71582 10.2255C3.98272 9.6818 4.33103 8.74791 4.33105 6.25478C4.33112 4.96423 4.62209 3.89331 5.16406 3.06142C5.71006 2.2236 6.46901 1.69301 7.27734 1.42958ZM20.9561 15.3778C20.5038 14.9339 19.7618 14.9339 19.3096 15.3778L18.9297 15.7509C18.4255 16.2455 17.6174 16.2456 17.1133 15.7509L16.7334 15.3778C16.2812 14.9339 15.5391 14.9339 15.0869 15.3778C14.6743 15.7833 14.6482 16.4168 15.0098 16.8505L15.0869 16.9345L15.0977 16.9442L15.1074 16.955L18.0215 19.9667L20.9355 16.955L20.9453 16.9442L20.9561 16.9345C21.3964 16.5022 21.3962 15.8102 20.9561 15.3778Z" fill="currentColor"/>
</svg>
