<svg width="24" height="24" viewBox="0 0 24 24" fill="none" xmlns="http://www.w3.org/2000/svg">
<g clip-path="url(#clip0_2103_12336)">
<path d="M12 0.800781C18.1849 0.800781 23.199 5.81515 23.1992 12C23.1992 18.1851 18.1851 23.1992 12 23.1992C10.4583 23.1991 8.98621 22.887 7.64648 22.3213C7.30401 22.1766 7.08468 22.0838 6.91992 22.0234C6.82925 21.9902 6.7802 21.9767 6.76074 21.9717C6.74369 21.9734 6.7098 21.9785 6.65234 21.9902C6.52406 22.0166 6.35413 22.0614 6.06543 22.1387L2.24805 23.1602C1.85146 23.2661 1.42797 23.1526 1.1377 22.8623C0.847659 22.5719 0.733768 22.1485 0.839844 21.752L1.86133 17.9346C1.93857 17.6459 1.98344 17.4769 2.00977 17.3486C2.02195 17.2892 2.02572 17.2548 2.02734 17.2383C2.02194 17.2176 2.00883 17.1682 1.97656 17.0801C1.91621 16.9154 1.82418 16.6966 1.67969 16.3545C1.11383 15.0146 0.800781 13.542 0.800781 12C0.801033 5.81533 5.81534 0.801066 12 0.800781ZM12 3.10156C7.08559 3.10185 3.10181 7.08558 3.10156 12C3.10156 13.2291 3.34944 14.3981 3.79785 15.46C3.93329 15.7806 4.05261 16.0595 4.13672 16.2891C4.19835 16.4573 4.26149 16.6514 4.29785 16.8604L4.32422 17.0742L4.32812 17.2578C4.32043 17.688 4.19177 18.1228 4.08301 18.5293L3.57617 20.4238L5.47168 19.917C5.87787 19.8083 6.31229 19.6797 6.74219 19.6719L6.92676 19.6768L7.14062 19.7031C7.34934 19.7395 7.54282 19.8027 7.71094 19.8643C7.9406 19.9484 8.22013 20.0666 8.54102 20.2021C9.60278 20.6506 10.771 20.8993 12 20.8994C16.9148 20.8994 20.8994 16.9148 20.8994 12C20.8992 7.08541 16.9147 3.10156 12 3.10156ZM9.24121 5.49121C9.46178 5.49121 9.90977 5.496 10.3369 5.67871C10.8355 5.89227 11.241 6.31881 11.377 6.94336L11.4004 7.07031L11.6426 8.68457C11.6693 8.87309 11.69 9.03374 11.7041 9.16113C11.7147 9.25689 11.7331 9.42481 11.7246 9.5752C11.6911 10.163 11.4578 10.6251 11.2305 10.9658C11.0387 11.2531 10.7384 11.5999 10.6299 11.7383L10.2598 12.209C10.4888 12.5055 10.7376 12.7938 11.0068 13.0703C11.2625 13.3329 11.528 13.5768 11.8008 13.8018L12.2188 13.457C12.3517 13.347 12.6926 13.0366 12.9736 12.8389C13.3064 12.6047 13.7679 12.3561 14.3623 12.3203L14.5947 12.3232C14.6683 12.3283 14.7342 12.3364 14.7803 12.3418C14.9058 12.3564 15.064 12.3778 15.248 12.4053C15.6173 12.4604 16.1385 12.5447 16.8193 12.6543C17.5313 12.7689 17.9851 13.2246 18.1973 13.7471C18.3689 14.1699 18.374 14.6133 18.374 14.8389C18.374 15.3388 18.3943 15.9091 18.1455 16.4688C17.9716 16.8597 17.6834 17.1807 17.4062 17.4082C17.1304 17.6346 16.7569 17.8583 16.334 17.9492C15.7432 18.0761 15.2887 17.9546 14.9033 17.8652C12.9085 17.4025 10.9632 16.323 9.3584 14.6748C7.7539 13.0267 6.70945 11.0359 6.2627 9.00391C6.175 8.60517 6.06251 8.1576 6.18164 7.57324C6.26695 7.15534 6.47826 6.7797 6.69824 6.49707C6.91723 6.2158 7.23093 5.91547 7.62109 5.73242L7.83301 5.64648C8.32643 5.47427 8.81984 5.49119 9.24121 5.49121ZM14.4775 14.6221C14.4497 14.6297 14.3942 14.6512 14.2969 14.7197C14.2239 14.7711 14.1426 14.8361 14.0381 14.9258C13.9883 14.9685 13.9207 15.0254 13.8506 15.0859C14.3688 15.3215 14.896 15.5018 15.4229 15.624C15.5308 15.6491 15.6083 15.6669 15.6748 15.6807C15.7391 15.6939 15.7765 15.7005 15.7998 15.7031C15.8104 15.7043 15.8177 15.704 15.8213 15.7041H15.8311C15.832 15.704 15.8335 15.7034 15.835 15.7031C15.8385 15.7015 15.844 15.6998 15.8506 15.6963C15.8761 15.6828 15.9099 15.6607 15.9463 15.6309C15.9827 15.601 16.0122 15.5704 16.0322 15.5459C16.0391 15.5374 16.0431 15.5304 16.0459 15.5264C16.0467 15.5241 16.0489 15.5213 16.0498 15.5176C16.0525 15.506 16.0571 15.4792 16.0615 15.4287C16.0718 15.3123 16.0722 15.1574 16.0723 14.8643C15.5754 14.7844 15.1924 14.7231 14.9082 14.6807C14.7315 14.6543 14.603 14.6363 14.5146 14.626C14.5005 14.6243 14.4878 14.6231 14.4775 14.6221ZM9.18262 7.79199C8.9186 7.79217 8.77981 7.79306 8.67578 7.80273C8.63748 7.80631 8.61608 7.81042 8.60645 7.8125C8.60354 7.81479 8.59987 7.81771 8.5957 7.82129C8.57264 7.84114 8.54266 7.87168 8.5127 7.91016C8.48295 7.94842 8.46013 7.9861 8.44531 8.01562C8.42967 8.0469 8.43136 8.05364 8.43555 8.0332C8.42887 8.06598 8.42797 8.0787 8.43164 8.11328C8.43459 8.1408 8.44093 8.18263 8.4541 8.25C8.4677 8.31948 8.48546 8.4002 8.50977 8.51074C8.62556 9.03731 8.79429 9.56332 9.0127 10.0801C9.05077 10.0338 9.08591 9.99091 9.11426 9.95605C9.20168 9.84857 9.26652 9.7647 9.31738 9.68848C9.39832 9.56711 9.41685 9.50106 9.42285 9.46387C9.42163 9.45099 9.4202 9.43424 9.41797 9.41406C9.40777 9.32188 9.39096 9.18861 9.36523 9.00684C9.32336 8.71101 9.26171 8.31109 9.18262 7.79199Z" fill="currentColor"/>
</g>
<defs>
<clipPath id="clip0_2103_12336">
<rect width="24" height="24" fill="white"/>
</clipPath>
</defs>
</svg>
