<svg width="108" height="43" viewBox="0 0 108 43" fill="none" xmlns="http://www.w3.org/2000/svg">
<path fill-rule="evenodd" clip-rule="evenodd" d="M84.8418 12.2524C85.5386 12.2531 86.227 12.4017 86.861 12.6882C87.495 12.9747 88.0599 13.3924 88.5183 13.9134C89.5125 14.937 90.0662 16.3055 90.0613 17.7279C90.0774 18.4396 89.9493 19.1473 89.6843 19.8086C89.419 20.4699 89.0224 21.0716 88.5183 21.5773C88.0599 22.0984 87.495 22.5161 86.861 22.8026C86.227 23.089 85.5386 23.2377 84.8418 23.2384C84.1292 23.237 83.4244 23.0885 82.7726 22.8026C82.1204 22.5167 81.5353 22.0995 81.0542 21.5773C80.0599 20.5413 79.5146 19.159 79.5352 17.7279C79.5426 16.3124 80.0847 14.951 81.0542 13.9134C81.5353 13.3913 82.1204 12.9741 82.7726 12.6882C83.4244 12.4023 84.1292 12.2538 84.8418 12.2524ZM84.8418 14.6209C84.065 14.6354 83.32 14.9315 82.7471 15.4533C82.2119 16.0907 81.9242 16.8979 81.9371 17.7279C81.9148 18.5692 82.1962 19.391 82.73 20.0446C83.2938 20.5778 84.0461 20.8693 84.8246 20.856C85.5808 20.8611 86.3084 20.5695 86.8492 20.0446C87.422 19.4092 87.7293 18.5805 87.708 17.7279C87.7303 16.8908 87.429 16.077 86.8666 15.4533C86.3164 14.9402 85.5962 14.6442 84.8418 14.6209Z" fill="#00B6AA"/>
<path d="M49.8607 7.86588C50.184 7.86401 50.4951 7.98898 50.7258 8.21366C50.9566 8.4384 51.0886 8.74471 51.0935 9.06572V21.9692C51.0935 22.2911 50.9646 22.5997 50.7353 22.8273C50.5062 23.0549 50.1955 23.1829 49.8716 23.1829C49.5472 23.1829 49.2365 23.0549 49.0075 22.8273C48.7785 22.5997 48.6497 22.2911 48.6497 21.9692V9.06572C48.6531 8.74804 48.782 8.44444 49.0085 8.22011C49.2351 7.99578 49.5409 7.86862 49.8607 7.86588Z" fill="#00B6AA"/>
<path fill-rule="evenodd" clip-rule="evenodd" d="M68.8651 7.93021C69.1723 7.93024 69.4676 8.04717 69.6907 8.25701C69.9138 8.46694 70.0475 8.75414 70.0639 9.05892V13.1613C70.9329 12.5664 71.9624 12.246 73.0174 12.2422C75.9884 12.2422 78.3662 14.7355 78.3662 17.7317C78.3774 19.1562 77.8216 20.5276 76.82 21.5472C75.8184 22.5669 74.4516 23.1524 73.0174 23.1761C71.9471 23.1668 70.9039 22.8396 70.022 22.2363C69.9627 22.5232 69.7983 22.778 69.5605 22.9512C69.3228 23.1245 69.0285 23.2038 68.7352 23.1741C68.4416 23.1443 68.17 23.0075 67.9724 22.79C67.7748 22.5725 67.6655 22.2899 67.6655 21.9969V9.05892C67.6823 8.75414 67.816 8.46694 68.0391 8.25701C68.2622 8.0471 68.5579 7.93021 68.8651 7.93021ZM73.007 14.6212C72.618 14.6194 72.233 14.6982 71.8765 14.8528C71.5201 15.0075 71.1999 15.2346 70.9367 15.5193C70.3607 16.1111 70.043 16.9051 70.0535 17.7283H70.0639C70.0597 18.537 70.3771 19.3146 70.9475 19.8919C71.2094 20.1753 71.5278 20.4017 71.8821 20.5563C72.2368 20.7109 72.6198 20.7906 73.007 20.7903C73.3948 20.7883 73.7785 20.7074 74.1339 20.5529C74.4893 20.3985 74.8094 20.1735 75.0741 19.8919C75.6431 19.3143 75.9594 18.5365 75.9538 17.7283C75.965 16.9056 75.6491 16.1116 75.0741 15.5193C74.8094 15.2377 74.4893 15.0127 74.1339 14.8583C73.7785 14.7038 73.3948 14.6233 73.007 14.6212Z" fill="#00B6AA"/>
<path d="M54.5111 12.2595C54.67 12.256 54.8278 12.2849 54.9751 12.3445C55.1221 12.404 55.2554 12.4929 55.3668 12.6056C55.4778 12.7183 55.5648 12.8527 55.6217 13.0001C55.6786 13.1475 55.7044 13.305 55.6978 13.4627V21.9935C55.7002 22.149 55.6712 22.3033 55.6126 22.4473C55.5536 22.5914 55.4663 22.7224 55.3556 22.8324C55.245 22.9423 55.113 23.029 54.9678 23.0874C54.8229 23.1458 54.6675 23.1747 54.5111 23.1724C54.3547 23.1733 54.1997 23.1435 54.0552 23.0847C53.9107 23.0258 53.779 22.9389 53.6684 22.8293C53.5577 22.7197 53.4697 22.5894 53.41 22.446C53.3503 22.3025 53.32 22.1487 53.3203 21.9935V13.4627C53.3158 13.3052 53.343 13.1482 53.401 13.0015C53.4589 12.8548 53.5462 12.7213 53.6572 12.609C53.7686 12.4966 53.9016 12.4076 54.0482 12.3475C54.1952 12.2875 54.3523 12.2575 54.5111 12.2595Z" fill="#00B6AA"/>
<path d="M61.9298 12.2178C63.1301 12.2684 64.2828 12.697 65.2216 13.4417C65.4768 13.6164 65.6552 13.8816 65.7201 14.1826C65.7851 14.4837 65.7317 14.7982 65.5707 15.0614C65.4841 15.1881 65.3735 15.2965 65.2447 15.3804C65.1155 15.4644 64.9713 15.5224 64.8198 15.5508C64.6683 15.5791 64.5126 15.5773 64.3614 15.5457C64.2106 15.5141 64.0674 15.4533 63.9404 15.3666C63.2421 14.9054 62.6211 14.5552 61.9159 14.5552C61.4449 14.5462 60.9834 14.6844 60.5959 14.9504C60.5016 15.0004 60.4206 15.0722 60.3602 15.1597C60.2995 15.2471 60.2604 15.3479 60.2468 15.4533C60.2422 15.4836 60.244 15.5146 60.2516 15.5444C60.2593 15.5742 60.2733 15.6023 60.2925 15.6267C60.3497 15.7212 60.4332 15.7972 60.5334 15.8451C61.0298 16.1205 61.5748 16.2992 62.1389 16.372L62.1637 16.393H62.1847C62.8923 16.5118 63.5804 16.7253 64.2301 17.0276C64.8711 17.2905 65.4168 17.7402 65.7945 18.3175C66.063 18.7519 66.2075 19.2505 66.2134 19.7602C66.2012 20.2632 66.0682 20.7562 65.8252 21.1977C65.5823 21.6392 65.2366 22.0165 64.817 22.2983C63.9749 22.8731 62.9758 23.1782 61.9543 23.1724C60.5135 23.1228 59.132 22.5913 58.0334 21.664C57.8037 21.4649 57.6602 21.1847 57.6336 20.8828C57.6071 20.5808 57.6989 20.2802 57.8902 20.0443C57.9848 19.9219 58.1035 19.82 58.239 19.7446C58.3745 19.6692 58.5242 19.622 58.6785 19.6057C58.8332 19.5895 58.9896 19.6045 59.138 19.6501C59.286 19.6957 59.4235 19.7709 59.5419 19.8709C60.2195 20.4496 61.0721 20.7877 61.9644 20.8316C62.4964 20.8322 63.0191 20.6894 63.476 20.4188C63.586 20.3426 63.6778 20.243 63.7442 20.1273C63.8105 20.0115 63.8503 19.8825 63.8604 19.7497C63.8657 19.6713 63.8419 19.5936 63.7937 19.5312C63.7728 19.4654 63.6859 19.3786 63.5078 19.2711C62.9688 18.962 62.377 18.7538 61.7623 18.6572H61.7305C61.0724 18.5436 60.4304 18.3527 59.8177 18.0886C59.2033 17.8127 58.6775 17.3735 58.2987 16.8193C58.0456 16.4009 57.9154 15.9204 57.922 15.4322C57.9381 14.9587 58.0637 14.4951 58.2896 14.0777C58.5155 13.6603 58.8353 13.3004 59.2242 13.0258C60.0219 12.489 60.9659 12.2071 61.9298 12.2178Z" fill="#00B6AA"/>
<path d="M95.8357 12.2385C97.0541 12.2367 98.224 12.7144 99.0887 13.567C99.9538 14.4196 100.443 15.5779 100.451 16.7882V22.0142C100.452 22.1649 100.424 22.3144 100.367 22.4541C100.31 22.5939 100.226 22.7214 100.12 22.829C100.014 22.9365 99.8868 23.022 99.7472 23.0809C99.6075 23.1399 99.4574 23.171 99.3055 23.1724C98.998 23.167 98.7043 23.0433 98.4869 22.8273C98.2694 22.6112 98.1451 22.3197 98.1395 22.0142V16.7882C98.1294 16.1941 97.8829 15.6281 97.4535 15.2142C97.0244 14.8002 96.4477 14.5718 95.8497 14.5792C95.5585 14.5787 95.2698 14.6357 95.001 14.7469C94.7321 14.8579 94.4881 15.0212 94.2832 15.2267C94.0786 15.4321 93.9166 15.6759 93.8073 15.944C93.6981 16.212 93.6433 16.499 93.6464 16.7882V22.0704C93.6429 22.1265 93.6286 22.1815 93.6045 22.2326C93.5459 22.4947 93.401 22.7297 93.1919 22.9001C92.9831 23.0705 92.7227 23.1663 92.4524 23.1724C92.2992 23.1733 92.147 23.1439 92.0052 23.086C91.8635 23.0281 91.7347 22.9428 91.6261 22.8351C91.5175 22.7273 91.4316 22.5994 91.3733 22.4585C91.3154 22.3176 91.2857 22.1666 91.2864 22.0142V13.397C91.2857 13.2447 91.3154 13.0936 91.3733 12.9527C91.4316 12.8117 91.5175 12.6835 91.6261 12.5758C91.7347 12.4681 91.8635 12.3827 92.0052 12.3248C92.147 12.267 92.2992 12.2376 92.4524 12.2385C92.6731 12.2438 92.8878 12.3101 93.0728 12.4295C93.2575 12.5489 93.4055 12.7168 93.4998 12.9148C94.1997 12.4775 95.009 12.2432 95.8357 12.2385Z" fill="#00B6AA"/>
<path d="M54.5112 7.86588C54.6676 7.86356 54.8229 7.89248 54.9678 7.95087C55.113 8.0093 55.2446 8.09593 55.3557 8.20589C55.4663 8.31582 55.5536 8.44683 55.6126 8.59091C55.6713 8.73496 55.7002 8.88931 55.6978 9.0447V9.50595C55.7006 9.66252 55.672 9.81832 55.6137 9.96379C55.5554 10.1092 55.4684 10.2416 55.3578 10.3532C55.2474 10.4649 55.1155 10.5538 54.9702 10.6143C54.825 10.6749 54.6686 10.7058 54.5112 10.7058C54.1931 10.703 53.8894 10.5754 53.6663 10.3505C53.4429 10.1256 53.3186 9.82172 53.3203 9.50595V9.0447C53.32 8.88949 53.3504 8.73573 53.4101 8.59227C53.4698 8.44884 53.5577 8.31852 53.6684 8.20894C53.7791 8.09929 53.9107 8.01246 54.0552 7.95358C54.1997 7.89473 54.3548 7.86498 54.5112 7.86588Z" fill="#00B6AA"/>
<path d="M32.3842 39.724H27.0253C25.9319 39.7261 24.8603 39.4196 23.9356 38.8398C20.4663 36.6721 17.1576 34.2603 14.0348 31.6234C8.93772 27.2263 6.45902 23.5297 6.45902 20.3255C6.45902 15.6856 10.383 12.8143 14.0173 12.8143C16.4297 12.8143 18.3184 14.0003 19.5647 15.1204C20.3207 14.3806 21.2161 13.7961 22.1998 13.4004C23.1834 13.0047 24.236 12.8055 25.2972 12.8143C27.1418 12.8404 28.9173 13.5163 30.3069 14.7216C31.1159 15.415 31.7631 16.2754 32.2032 17.2425C32.6434 18.2098 32.8659 19.2606 32.8555 20.322C32.8555 23.3944 30.4571 27.0806 25.7301 31.2801C25.5421 31.4472 25.3228 31.5759 25.0848 31.6589C24.8467 31.7418 24.5946 31.7774 24.3427 31.7635C24.0908 31.7497 23.8441 31.6867 23.6167 31.5782C23.3894 31.4696 23.1857 31.3177 23.0175 31.131C22.8492 30.9443 22.7196 30.7264 22.6361 30.49C22.5526 30.2536 22.5168 30.0031 22.5307 29.7529C22.5447 29.5026 22.6081 29.2577 22.7174 29.0318C22.8266 28.8059 22.9796 28.6037 23.1676 28.4365C26.8821 25.1422 29.0152 22.1773 29.0152 20.3255C29.0152 17.7143 26.5924 16.6289 25.2972 16.6289C24.4978 16.6331 23.714 16.8487 23.0263 17.2533C22.3385 17.658 21.7715 18.2372 21.3836 18.9314C21.2338 19.2359 21.005 19.4952 20.7208 19.6827C20.4366 19.8702 20.1072 19.9791 19.7666 19.9982C19.426 20.0172 19.0863 19.9458 18.7827 19.7912C18.4791 19.6367 18.2224 19.4045 18.0391 19.1187C18.0391 19.1187 16.3703 16.6289 14.0173 16.6289C12.8059 16.6289 10.2993 17.5305 10.2993 20.322C10.2993 23.5748 16.6042 29.7196 25.9884 35.6148C26.3025 35.8089 26.6659 35.9099 27.0358 35.906H32.3842C32.7376 35.9071 33.0783 35.7746 33.3375 35.536C33.5966 35.2971 33.755 34.9698 33.7806 34.6195L35.5261 14.035C35.5362 13.9022 35.509 13.7694 35.4472 13.6512C35.3854 13.533 35.2919 13.4342 35.177 13.3657L20.3328 4.00281C20.1309 3.87694 19.8974 3.81015 19.659 3.81015C19.4207 3.81015 19.1871 3.87694 18.9852 4.00281L4.18978 13.3692C4.07283 13.4354 3.97766 13.5339 3.91572 13.6526C3.85376 13.7713 3.82771 13.9053 3.84067 14.0385L5.677 35.4448C5.72008 35.9508 5.55907 36.4529 5.2294 36.8406C4.89977 37.2286 4.42847 37.4707 3.91922 37.5133C3.40998 37.556 2.90449 37.3961 2.51395 37.0688C2.12341 36.7414 1.87982 36.2733 1.83677 35.7673L0.0178872 14.361C-0.0560805 13.5358 0.10028 12.7064 0.469802 11.9637C0.839321 11.2211 1.40771 10.5939 2.11257 10.1511L16.9569 0.788221C17.775 0.273355 18.7236 0 19.6922 0C20.6607 0 21.6093 0.273355 22.4275 0.788221L37.2717 10.1685C37.9765 10.6113 38.5449 11.2384 38.9146 11.9811C39.284 12.7237 39.4404 13.5532 39.3664 14.3783L37.6208 34.9628C37.4993 36.2608 36.896 37.4676 35.928 38.3477C34.9599 39.2278 33.6966 39.7185 32.3842 39.724Z" fill="#00B6AA"/>
<path fill-rule="evenodd" clip-rule="evenodd" d="M53.6591 27.9442C55.0112 27.9791 56.2963 28.5371 57.2403 29.4993C58.1843 30.4615 58.7125 31.7522 58.7125 33.0957C58.7125 34.4392 58.1843 35.7295 57.2403 36.6918C56.2963 37.6541 55.0112 38.2121 53.6591 38.2468C52.8837 38.2447 52.1202 38.0592 51.431 37.7058C50.7422 37.3524 50.1477 36.8413 49.697 36.2147V42.1414C49.6966 42.2791 49.6415 42.4115 49.5434 42.509C49.4453 42.6068 49.3119 42.6615 49.1733 42.6615C49.0344 42.6615 48.901 42.6064 48.8029 42.509C48.7048 42.4115 48.6497 42.2791 48.6497 42.1414V28.4644C48.6497 28.3264 48.7048 28.1942 48.8029 28.0966C48.901 27.9991 49.0344 27.9442 49.1733 27.9442C49.3119 27.9442 49.4453 27.9991 49.5434 28.0966C49.6415 28.1942 49.697 28.3265 49.697 28.4644V29.9555C50.1529 29.3359 50.7492 28.8313 51.4373 28.482C52.1254 28.1327 52.8865 27.9485 53.6591 27.9442ZM53.7638 29.0435C52.7074 29.0214 51.6855 29.4171 50.9227 30.1434C50.1603 30.8698 49.719 31.8676 49.697 32.9169V33.0835C49.6743 33.6171 49.7609 34.1496 49.9508 34.6491C50.1407 35.1487 50.4305 35.6047 50.8026 35.9903C51.1744 36.3756 51.6217 36.6821 52.116 36.8916C52.6107 37.101 53.1427 37.2092 53.6804 37.2092C54.218 37.2092 54.7501 37.101 55.2444 36.8916C55.7388 36.6821 56.1856 36.3756 56.5578 35.9903C56.9299 35.6047 57.2197 35.1487 57.4096 34.6491C57.5999 34.1496 57.6858 33.6171 57.6634 33.0835C57.6858 32.0342 57.2874 31.0189 56.556 30.2612C55.8246 29.5036 54.8202 29.0655 53.7638 29.0435Z" fill="#00B6AA"/>
<path d="M78.694 27.9337C78.8322 27.9374 78.9635 27.9952 79.0592 28.0946C79.1548 28.194 79.2065 28.327 79.2037 28.4644V40.5424C79.2075 40.7796 79.1632 41.0151 79.0738 41.2349C78.9844 41.4544 78.8514 41.6545 78.6828 41.8224C78.5142 41.9902 78.3131 42.1223 78.0921 42.2118C77.8708 42.3009 77.6341 42.3453 77.3953 42.3422C77.3289 42.3453 77.2623 42.3356 77.2001 42.3123C77.1376 42.2891 77.0807 42.2534 77.0326 42.2076C76.9847 42.1618 76.9463 42.1067 76.9205 42.0457C76.8947 41.985 76.8817 41.9191 76.8824 41.8532C76.881 41.7856 76.8929 41.7183 76.918 41.6552C76.9432 41.5924 76.9812 41.5356 77.0291 41.4874C77.0769 41.4392 77.1338 41.4007 77.1966 41.375C77.2595 41.349 77.3272 41.3362 77.3953 41.3365C77.5999 41.3286 77.7933 41.2425 77.9354 41.0966C78.0778 40.9506 78.1581 40.756 78.1598 40.5528V28.4644C78.1616 28.3243 78.2185 28.1903 78.3183 28.0912C78.4182 27.9921 78.5529 27.9355 78.694 27.9337Z" fill="#00B6AA"/>
<path fill-rule="evenodd" clip-rule="evenodd" d="M71.6771 27.9442C74.4243 27.9443 76.6167 30.3127 76.6167 33.1459C76.6167 35.9789 74.4243 38.3269 71.6771 38.3269C68.9296 38.3269 66.7368 35.9581 66.7368 33.1459C66.7368 30.3335 68.9505 27.9442 71.6771 27.9442ZM71.6771 28.9568C69.5475 28.9568 67.7597 30.8398 67.7597 33.1459C67.7597 35.4518 69.5475 37.2966 71.6771 37.2966V37.307C73.8064 37.307 75.5973 35.4448 75.5973 33.1459C75.5973 30.8468 73.8064 28.9569 71.6771 28.9568Z" fill="#00B6AA"/>
<path d="M104.773 23.5852C104.912 23.5894 105.044 23.6433 105.146 23.7369C105.248 23.8305 105.313 23.9577 105.328 24.0948V27.9442H106.669C106.803 27.9535 106.929 28.0115 107.024 28.1075C107.117 28.2034 107.173 28.3306 107.178 28.4644C107.169 28.5962 107.112 28.7204 107.018 28.8135C106.923 28.9066 106.798 28.9625 106.665 28.9707H105.328V36.5233C105.34 36.7213 105.425 36.9086 105.566 37.0487C105.708 37.1888 105.897 37.272 106.096 37.2827C106.232 37.2966 106.36 37.3569 106.457 37.4537C106.554 37.5504 106.614 37.6777 106.627 37.8133C106.613 37.9465 106.552 38.0706 106.455 38.1632C106.357 38.2558 106.23 38.3113 106.096 38.3196C105.855 38.3279 105.615 38.287 105.391 38.1999C105.166 38.1126 104.962 37.9811 104.791 37.8129C104.619 37.6451 104.484 37.444 104.393 37.222C104.303 37.0005 104.258 36.7626 104.263 36.5233V28.9602H102.965C102.455 28.9602 102.455 28.707 102.455 28.4539C102.455 28.2007 102.455 27.9442 102.965 27.9442H104.263V24.0948C104.272 23.9632 104.328 23.839 104.422 23.7454C104.516 23.6517 104.641 23.5949 104.773 23.5852Z" fill="#00B6AA"/>
<path d="M97.8673 27.9442C99.0731 27.9434 100.244 28.3465 101.191 29.0885C101.243 29.1285 101.286 29.1789 101.318 29.2362C101.349 29.2935 101.369 29.3567 101.374 29.4217C101.38 29.4868 101.373 29.5524 101.352 29.6144C101.331 29.6764 101.298 29.7335 101.254 29.7821C101.169 29.8802 101.05 29.9431 100.921 29.9585C100.792 29.9739 100.661 29.9408 100.555 29.8654C100.032 29.4195 99.4083 29.1064 98.7366 28.9534C98.0649 28.8004 97.366 28.812 96.6995 28.9869C96.0334 29.1619 95.4196 29.4951 94.9117 29.9578C94.4041 30.4206 94.0169 30.999 93.7841 31.6433C93.5512 32.2875 93.4793 32.9783 93.5749 33.6562C93.6706 34.3341 93.9307 34.9788 94.3329 35.5346C94.735 36.0905 95.2671 36.5413 95.8833 36.8475C96.4998 37.1537 97.1816 37.307 97.8708 37.2931C98.8424 37.2928 99.7871 36.972 100.555 36.3811C100.662 36.3062 100.792 36.2736 100.922 36.2896C101.051 36.3055 101.17 36.3693 101.254 36.4678C101.299 36.5216 101.334 36.5843 101.353 36.652C101.373 36.7196 101.378 36.7907 101.368 36.8604C101.358 36.9301 101.334 36.9973 101.296 37.057C101.258 37.1166 101.208 37.1676 101.149 37.2064C100.207 37.9215 99.0532 38.3078 97.8673 38.3057C97.1712 38.3172 96.4799 38.1913 95.833 37.9357C95.1864 37.6801 94.5971 37.2994 94.0993 36.816C93.6015 36.3326 93.2052 35.7559 92.9333 35.1196C92.6617 34.4829 92.5196 33.799 92.5154 33.1076C92.5227 32.4187 92.6672 31.738 92.9406 31.1048C93.214 30.4716 93.6109 29.8984 94.1084 29.4184C94.6062 28.9384 95.1945 28.561 95.8393 28.3079C96.4844 28.0549 97.1739 27.9314 97.8673 27.9442Z" fill="#00B6AA"/>
<path d="M66.06 27.9547C66.1263 27.9557 66.1916 27.9696 66.2524 27.9957C66.3135 28.0218 66.3683 28.0598 66.4143 28.1071C66.4604 28.1545 66.4967 28.2104 66.5208 28.2717C66.5449 28.333 66.5571 28.3985 66.5557 28.4644C66.5536 28.5981 66.4995 28.7258 66.4042 28.8203C66.3089 28.9149 66.1804 28.9689 66.046 28.9707C64.681 28.9707 63.7454 29.7336 63.0192 30.6629C62.4854 31.4018 62.062 32.2137 61.7621 33.073C61.7338 33.1252 61.7191 33.1838 61.7202 33.243V37.7928C61.7216 37.8577 61.71 37.9225 61.6863 37.9832C61.6626 38.0439 61.627 38.0994 61.5816 38.1462C61.5362 38.1934 61.4821 38.2312 61.422 38.2575C61.362 38.2835 61.297 38.2977 61.2318 38.2991C61.1626 38.3019 61.0939 38.2908 61.0293 38.2665C60.965 38.2423 60.906 38.2058 60.8561 38.1583C60.8065 38.1112 60.7667 38.0543 60.7392 37.9915C60.7119 37.9288 60.698 37.8612 60.6973 37.7928V28.4644C60.6973 28.3957 60.7112 28.3275 60.7385 28.2642C60.7653 28.2011 60.8051 28.1439 60.8547 28.0963C60.9046 28.0487 60.964 28.0116 61.0289 27.9872C61.0935 27.9629 61.1626 27.9519 61.2318 27.9547C61.2974 27.9561 61.3623 27.9704 61.4224 27.9967C61.4828 28.0231 61.5372 28.0611 61.5826 28.1085C61.6284 28.1558 61.664 28.2116 61.6874 28.2727C61.7111 28.3338 61.7219 28.399 61.7202 28.4644V30.7462C61.7631 30.6579 61.8134 30.573 61.8706 30.4929C62.6596 29.2653 64.0421 27.9547 66.06 27.9547Z" fill="#00B6AA"/>
<path fill-rule="evenodd" clip-rule="evenodd" d="M86.354 27.9476C89.0383 27.9477 91.1679 30.063 91.3808 32.7713V32.8546C91.3787 32.9188 91.3637 32.9819 91.3365 33.0402C91.3093 33.0985 91.2709 33.151 91.223 33.1943C91.1752 33.2375 91.119 33.2707 91.0579 33.2921C90.9972 33.3136 90.9322 33.323 90.8676 33.3192H82.3074C82.3332 34.3731 82.7696 35.3758 83.5237 36.1176C84.2781 36.859 85.2927 37.2817 86.354 37.2966C87.0326 37.297 87.6998 37.1222 88.2901 36.7896C88.8808 36.4571 89.3741 35.9785 89.7226 35.3997C89.7557 35.3439 89.7997 35.295 89.8521 35.2558C89.9044 35.217 89.9638 35.1889 90.027 35.173C90.0905 35.157 90.1565 35.1542 90.2211 35.1639C90.2857 35.1737 90.3475 35.1962 90.4033 35.2298C90.5185 35.3054 90.6006 35.4216 90.6323 35.5551C90.6645 35.6883 90.6435 35.8291 90.5744 35.9477C90.1307 36.663 89.5103 37.2543 88.7723 37.6652C88.0346 38.0758 87.203 38.2929 86.3571 38.2953C84.9983 38.279 83.7014 37.728 82.7504 36.7633C81.7998 35.7985 81.2723 34.4991 81.2845 33.1492C81.2726 32.4768 81.3945 31.8087 81.6427 31.183C81.8912 30.5574 82.2617 29.9866 82.7326 29.5034C83.2032 29.0202 83.7656 28.6342 84.3871 28.3672C85.0085 28.1002 85.6767 27.9576 86.354 27.9476ZM86.354 28.9602C85.3984 28.9684 84.4757 29.3099 83.7478 29.9246C83.0199 30.5394 82.5322 31.3886 82.3702 32.324H90.2741C90.1226 31.3952 89.6468 30.5488 88.9297 29.9338C88.213 29.3188 87.3011 28.9741 86.354 28.9602Z" fill="#00B6AA"/>
<path d="M78.7323 24.5598C78.8681 24.5598 78.9987 24.6127 79.0954 24.7075C79.1921 24.8022 79.2473 24.9312 79.249 25.0661V25.5547C79.2483 25.6907 79.1952 25.8214 79.1003 25.9195C79.0053 26.0176 78.8761 26.0758 78.7393 26.082C78.6003 26.0747 78.4687 26.0169 78.3696 25.9198C78.2708 25.8227 78.2107 25.6927 78.2017 25.5547V25.0661C78.2118 24.9316 78.2718 24.8056 78.3696 24.7122C78.4677 24.6188 78.5969 24.5645 78.7323 24.5598Z" fill="#00B6AA"/>
</svg>
