<?xml version="1.0" encoding="UTF-8"?>
<svg data-bbox="-0.001 0.047 112.812 114.553" viewBox="0 0 112.84 114.6" xmlns="http://www.w3.org/2000/svg" data-type="color">
    <g>
        <path d="M92.76 114.6H77.41a16.52 16.52 0 0 1-8.85-2.55A246.11 246.11 0 0 1 40.2 91.24C25.6 78.56 18.5 67.9 18.5 58.66 18.5 45.28 29.74 37 40.15 37c6.91 0 12.32 3.42 15.89 6.65A23.12 23.12 0 0 1 72.46 37a22.3 22.3 0 0 1 14.35 5.5 21.06 21.06 0 0 1 7.3 16.15c0 8.86-6.87 19.49-20.41 31.6a5.5 5.5 0 1 1-7.34-8.2C77 72.55 83.11 64 83.11 58.66c0-7.53-6.94-10.66-10.65-10.66a12.9 12.9 0 0 0-11.21 6.64 5.5 5.5 0 0 1-9.58.54S46.89 48 40.15 48c-3.47 0-10.65 2.6-10.65 10.65 0 9.38 18.06 27.1 44.94 44.1a5.57 5.57 0 0 0 3 .84h15.32a4 4 0 0 0 4-3.71l5-59.36a2.07 2.07 0 0 0-1-1.93l-42.52-27a3.63 3.63 0 0 0-3.86 0L12 38.6a2 2 0 0 0-1 1.93l5.26 61.73a5.5 5.5 0 0 1-11 .93L.05 41.46a13 13 0 0 1 6-12.14l42.52-27a14.64 14.64 0 0 1 15.67 0l42.52 27.05a13 13 0 0 1 6 12.14l-5 59.36a15.13 15.13 0 0 1-15 13.73Z" fill="#3cb9ad" data-color="1"/>
    </g>
</svg>
